<?xml version="1.0" encoding="utf-8" standalone="no"?>
<!DOCTYPE svg PUBLIC "-//W3C//DTD SVG 1.1//EN"
  "http://www.w3.org/Graphics/SVG/1.1/DTD/svg11.dtd">
<svg xmlns:xlink="http://www.w3.org/1999/xlink" width="360pt" height="360pt" viewBox="0 0 360 360" xmlns="http://www.w3.org/2000/svg" version="1.1">
 <metadata>
  <rdf:RDF xmlns:dc="http://purl.org/dc/elements/1.1/" xmlns:cc="http://creativecommons.org/ns#" xmlns:rdf="http://www.w3.org/1999/02/22-rdf-syntax-ns#">
   <cc:Work>
    <dc:type rdf:resource="http://purl.org/dc/dcmitype/StillImage"/>
    <dc:date>2023-06-13T11:13:24.445756</dc:date>
    <dc:format>image/svg+xml</dc:format>
    <dc:creator>
     <cc:Agent>
      <dc:title>Matplotlib v3.5.2, https://matplotlib.org/</dc:title>
     </cc:Agent>
    </dc:creator>
   </cc:Work>
  </rdf:RDF>
 </metadata>
 <defs>
  <style type="text/css">*{stroke-linejoin: round; stroke-linecap: butt}</style>
 </defs>
 <g id="figure_1">
  <g id="patch_1">
   <path d="M 0 360 
L 360 360 
L 360 0 
L 0 0 
z
" style="fill: #ffffff"/>
  </g>
  <g id="axes_1">
   <g id="patch_2">
    <path d="M 45 320.4 
L 324 320.4 
L 324 43.2 
L 45 43.2 
z
" style="fill: #ffffff"/>
   </g>
   <g id="PathCollection_1">
    <defs>
     <path id="me11708592d" d="M 0 1.767767 
C 0.468817 1.767767 0.918496 1.581504 1.25 1.25 
C 1.581504 0.918496 1.767767 0.468817 1.767767 0 
C 1.767767 -0.468817 1.581504 -0.918496 1.25 -1.25 
C 0.918496 -1.581504 0.468817 -1.767767 0 -1.767767 
C -0.468817 -1.767767 -0.918496 -1.581504 -1.25 -1.25 
C -1.581504 -0.918496 -1.767767 -0.468817 -1.767767 0 
C -1.767767 0.468817 -1.581504 0.918496 -1.25 1.25 
C -0.918496 1.581504 -0.468817 1.767767 0 1.767767 
z
" style="stroke: #ff0000"/>
    </defs>
    <g clip-path="url(#pf3e9d7cd57)">
     <use xlink:href="#me11708592d" x="84.8412" y="284.774256" style="fill: #ff0000; stroke: #ff0000"/>
     <use xlink:href="#me11708592d" x="65.4228" y="319.812336" style="fill: #ff0000; stroke: #ff0000"/>
     <use xlink:href="#me11708592d" x="145.3284" y="229.411872" style="fill: #ff0000; stroke: #ff0000"/>
     <use xlink:href="#me11708592d" x="155.7072" y="268.685568" style="fill: #ff0000; stroke: #ff0000"/>
     <use xlink:href="#me11708592d" x="159.2784" y="208.921248" style="fill: #ff0000; stroke: #ff0000"/>
     <use xlink:href="#me11708592d" x="160.9524" y="266.190768" style="fill: #ff0000; stroke: #ff0000"/>
     <use xlink:href="#me11708592d" x="162.738" y="233.658576" style="fill: #ff0000; stroke: #ff0000"/>
     <use xlink:href="#me11708592d" x="165.528" y="227.637792" style="fill: #ff0000; stroke: #ff0000"/>
     <use xlink:href="#me11708592d" x="169.6572" y="249.569856" style="fill: #ff0000; stroke: #ff0000"/>
     <use xlink:href="#me11708592d" x="179.1432" y="263.562912" style="fill: #ff0000; stroke: #ff0000"/>
     <use xlink:href="#me11708592d" x="183.6072" y="102.720384" style="fill: #ff0000; stroke: #ff0000"/>
     <use xlink:href="#me11708592d" x="185.2812" y="152.172864" style="fill: #ff0000; stroke: #ff0000"/>
     <use xlink:href="#me11708592d" x="186.8436" y="166.698144" style="fill: #ff0000; stroke: #ff0000"/>
     <use xlink:href="#me11708592d" x="190.5264" y="201.503376" style="fill: #ff0000; stroke: #ff0000"/>
     <use xlink:href="#me11708592d" x="194.3208" y="190.925424" style="fill: #ff0000; stroke: #ff0000"/>
     <use xlink:href="#me11708592d" x="197.4456" y="233.647488" style="fill: #ff0000; stroke: #ff0000"/>
     <use xlink:href="#me11708592d" x="196.1064" y="220.319712" style="fill: #ff0000; stroke: #ff0000"/>
     <use xlink:href="#me11708592d" x="199.008" y="156.674592" style="fill: #ff0000; stroke: #ff0000"/>
     <use xlink:href="#me11708592d" x="201.24" y="226.174176" style="fill: #ff0000; stroke: #ff0000"/>
     <use xlink:href="#me11708592d" x="202.5792" y="201.880368" style="fill: #ff0000; stroke: #ff0000"/>
     <use xlink:href="#me11708592d" x="204.3648" y="177.220656" style="fill: #ff0000; stroke: #ff0000"/>
     <use xlink:href="#me11708592d" x="204.2532" y="176.75496" style="fill: #ff0000; stroke: #ff0000"/>
     <use xlink:href="#me11708592d" x="208.7172" y="199.174896" style="fill: #ff0000; stroke: #ff0000"/>
     <use xlink:href="#me11708592d" x="211.284" y="158.337792" style="fill: #ff0000; stroke: #ff0000"/>
     <use xlink:href="#me11708592d" x="211.7304" y="139.565808" style="fill: #ff0000; stroke: #ff0000"/>
     <use xlink:href="#me11708592d" x="213.8508" y="275.205312" style="fill: #ff0000; stroke: #ff0000"/>
     <use xlink:href="#me11708592d" x="213.8508" y="263.651616" style="fill: #ff0000; stroke: #ff0000"/>
     <use xlink:href="#me11708592d" x="215.5248" y="145.187424" style="fill: #ff0000; stroke: #ff0000"/>
     <use xlink:href="#me11708592d" x="215.9712" y="231.097248" style="fill: #ff0000; stroke: #ff0000"/>
     <use xlink:href="#me11708592d" x="217.8684" y="152.605296" style="fill: #ff0000; stroke: #ff0000"/>
     <use xlink:href="#me11708592d" x="218.6496" y="145.165248" style="fill: #ff0000; stroke: #ff0000"/>
     <use xlink:href="#me11708592d" x="217.98" y="143.757072" style="fill: #ff0000; stroke: #ff0000"/>
     <use xlink:href="#me11708592d" x="219.8772" y="158.881104" style="fill: #ff0000; stroke: #ff0000"/>
     <use xlink:href="#me11708592d" x="220.3236" y="138.61224" style="fill: #ff0000; stroke: #ff0000"/>
     <use xlink:href="#me11708592d" x="222.2208" y="148.624704" style="fill: #ff0000; stroke: #ff0000"/>
     <use xlink:href="#me11708592d" x="224.118" y="126.936576" style="fill: #ff0000; stroke: #ff0000"/>
     <use xlink:href="#me11708592d" x="223.56" y="178.706448" style="fill: #ff0000; stroke: #ff0000"/>
     <use xlink:href="#me11708592d" x="225.3456" y="126.371088" style="fill: #ff0000; stroke: #ff0000"/>
     <use xlink:href="#me11708592d" x="225.792" y="168.361344" style="fill: #ff0000; stroke: #ff0000"/>
     <use xlink:href="#me11708592d" x="227.466" y="123.942816" style="fill: #ff0000; stroke: #ff0000"/>
     <use xlink:href="#me11708592d" x="227.9124" y="120.882528" style="fill: #ff0000; stroke: #ff0000"/>
     <use xlink:href="#me11708592d" x="229.8096" y="122.64552" style="fill: #ff0000; stroke: #ff0000"/>
     <use xlink:href="#me11708592d" x="230.814" y="155.122272" style="fill: #ff0000; stroke: #ff0000"/>
     <use xlink:href="#me11708592d" x="233.046" y="144.810432" style="fill: #ff0000; stroke: #ff0000"/>
     <use xlink:href="#me11708592d" x="234.2736" y="113.586624" style="fill: #ff0000; stroke: #ff0000"/>
     <use xlink:href="#me11708592d" x="233.046" y="169.259472" style="fill: #ff0000; stroke: #ff0000"/>
     <use xlink:href="#me11708592d" x="234.9432" y="74.57904" style="fill: #ff0000; stroke: #ff0000"/>
     <use xlink:href="#me11708592d" x="236.8404" y="161.098704" style="fill: #ff0000; stroke: #ff0000"/>
     <use xlink:href="#me11708592d" x="238.4028" y="158.382144" style="fill: #ff0000; stroke: #ff0000"/>
     <use xlink:href="#me11708592d" x="240.4116" y="154.734192" style="fill: #ff0000; stroke: #ff0000"/>
     <use xlink:href="#me11708592d" x="240.4116" y="149.179104" style="fill: #ff0000; stroke: #ff0000"/>
     <use xlink:href="#me11708592d" x="240.4116" y="153.059904" style="fill: #ff0000; stroke: #ff0000"/>
     <use xlink:href="#me11708592d" x="241.416" y="149.522832" style="fill: #ff0000; stroke: #ff0000"/>
     <use xlink:href="#me11708592d" x="243.5364" y="153.392544" style="fill: #ff0000; stroke: #ff0000"/>
     <use xlink:href="#me11708592d" x="244.4292" y="169.414704" style="fill: #ff0000; stroke: #ff0000"/>
     <use xlink:href="#me11708592d" x="244.764" y="117.800064" style="fill: #ff0000; stroke: #ff0000"/>
     <use xlink:href="#me11708592d" x="247.2192" y="117.057168" style="fill: #ff0000; stroke: #ff0000"/>
     <use xlink:href="#me11708592d" x="248.2236" y="130.839552" style="fill: #ff0000; stroke: #ff0000"/>
     <use xlink:href="#me11708592d" x="252.018" y="100.458432" style="fill: #ff0000; stroke: #ff0000"/>
     <use xlink:href="#me11708592d" x="253.9152" y="106.889472" style="fill: #ff0000; stroke: #ff0000"/>
     <use xlink:href="#me11708592d" x="254.0268" y="126.770256" style="fill: #ff0000; stroke: #ff0000"/>
     <use xlink:href="#me11708592d" x="255.7008" y="126.725904" style="fill: #ff0000; stroke: #ff0000"/>
     <use xlink:href="#me11708592d" x="256.9284" y="121.137552" style="fill: #ff0000; stroke: #ff0000"/>
     <use xlink:href="#me11708592d" x="259.272" y="128.5776" style="fill: #ff0000; stroke: #ff0000"/>
     <use xlink:href="#me11708592d" x="259.272" y="120.660768" style="fill: #ff0000; stroke: #ff0000"/>
     <use xlink:href="#me11708592d" x="259.6068" y="138.22416" style="fill: #ff0000; stroke: #ff0000"/>
     <use xlink:href="#me11708592d" x="262.062" y="112.034304" style="fill: #ff0000; stroke: #ff0000"/>
     <use xlink:href="#me11708592d" x="263.178" y="115.99272" style="fill: #ff0000; stroke: #ff0000"/>
     <use xlink:href="#me11708592d" x="266.6376" y="115.8264" style="fill: #ff0000; stroke: #ff0000"/>
     <use xlink:href="#me11708592d" x="267.084" y="103.9068" style="fill: #ff0000; stroke: #ff0000"/>
     <use xlink:href="#me11708592d" x="268.3116" y="106.45704" style="fill: #ff0000; stroke: #ff0000"/>
     <use xlink:href="#me11708592d" x="269.0928" y="97.97472" style="fill: #ff0000; stroke: #ff0000"/>
     <use xlink:href="#me11708592d" x="274.4496" y="99.904032" style="fill: #ff0000; stroke: #ff0000"/>
     <use xlink:href="#me11708592d" x="281.592" y="87.019776" style="fill: #ff0000; stroke: #ff0000"/>
     <use xlink:href="#me11708592d" x="286.7256" y="90.789696" style="fill: #ff0000; stroke: #ff0000"/>
     <use xlink:href="#me11708592d" x="282.9312" y="99.272016" style="fill: #ff0000; stroke: #ff0000"/>
     <use xlink:href="#me11708592d" x="286.9488" y="89.281728" style="fill: #ff0000; stroke: #ff0000"/>
     <use xlink:href="#me11708592d" x="294.3144" y="84.092544" style="fill: #ff0000; stroke: #ff0000"/>
     <use xlink:href="#me11708592d" x="299.7828" y="81.930384" style="fill: #ff0000; stroke: #ff0000"/>
     <use xlink:href="#me11708592d" x="300.4524" y="81.664272" style="fill: #ff0000; stroke: #ff0000"/>
    </g>
   </g>
   <g id="PathCollection_2">
    <defs>
     <path id="m4f91d53b4c" d="M 0 1.767767 
C 0.468817 1.767767 0.918496 1.581504 1.25 1.25 
C 1.581504 0.918496 1.767767 0.468817 1.767767 0 
C 1.767767 -0.468817 1.581504 -0.918496 1.25 -1.25 
C 0.918496 -1.581504 0.468817 -1.767767 0 -1.767767 
C -0.468817 -1.767767 -0.918496 -1.581504 -1.25 -1.25 
C -1.581504 -0.918496 -1.767767 -0.468817 -1.767767 0 
C -1.767767 0.468817 -1.581504 0.918496 -1.25 1.25 
C -0.918496 1.581504 -0.468817 1.767767 0 1.767767 
z
" style="stroke: #008000"/>
    </defs>
    <g clip-path="url(#pf3e9d7cd57)">
     <use xlink:href="#m4f91d53b4c" x="84.8412" y="265.541503" style="fill: #008000; stroke: #008000"/>
     <use xlink:href="#m4f91d53b4c" x="65.4228" y="305.042832" style="fill: #008000; stroke: #008000"/>
     <use xlink:href="#m4f91d53b4c" x="145.3284" y="220.549368" style="fill: #008000; stroke: #008000"/>
     <use xlink:href="#m4f91d53b4c" x="155.7072" y="242.401445" style="fill: #008000; stroke: #008000"/>
     <use xlink:href="#m4f91d53b4c" x="159.2784" y="201.493799" style="fill: #008000; stroke: #008000"/>
     <use xlink:href="#m4f91d53b4c" x="160.9524" y="238.876965" style="fill: #008000; stroke: #008000"/>
     <use xlink:href="#m4f91d53b4c" x="162.738" y="215.056112" style="fill: #008000; stroke: #008000"/>
     <use xlink:href="#m4f91d53b4c" x="165.528" y="212.490119" style="fill: #008000; stroke: #008000"/>
     <use xlink:href="#m4f91d53b4c" x="169.6572" y="221.060918" style="fill: #008000; stroke: #008000"/>
     <use xlink:href="#m4f91d53b4c" x="179.1432" y="264.964728" style="fill: #008000; stroke: #008000"/>
     <use xlink:href="#m4f91d53b4c" x="183.6072" y="149.490889" style="fill: #008000; stroke: #008000"/>
     <use xlink:href="#m4f91d53b4c" x="185.2812" y="182.222648" style="fill: #008000; stroke: #008000"/>
     <use xlink:href="#m4f91d53b4c" x="186.8436" y="165.954225" style="fill: #008000; stroke: #008000"/>
     <use xlink:href="#m4f91d53b4c" x="190.5264" y="185.78211" style="fill: #008000; stroke: #008000"/>
     <use xlink:href="#m4f91d53b4c" x="194.3208" y="185.171797" style="fill: #008000; stroke: #008000"/>
     <use xlink:href="#m4f91d53b4c" x="197.4456" y="202.423984" style="fill: #008000; stroke: #008000"/>
     <use xlink:href="#m4f91d53b4c" x="196.1064" y="189.151242" style="fill: #008000; stroke: #008000"/>
     <use xlink:href="#m4f91d53b4c" x="199.008" y="148.652342" style="fill: #008000; stroke: #008000"/>
     <use xlink:href="#m4f91d53b4c" x="201.24" y="191.561022" style="fill: #008000; stroke: #008000"/>
     <use xlink:href="#m4f91d53b4c" x="202.5792" y="192.658381" style="fill: #008000; stroke: #008000"/>
     <use xlink:href="#m4f91d53b4c" x="204.3648" y="161.811117" style="fill: #008000; stroke: #008000"/>
     <use xlink:href="#m4f91d53b4c" x="204.2532" y="168.23761" style="fill: #008000; stroke: #008000"/>
     <use xlink:href="#m4f91d53b4c" x="208.7172" y="176.980883" style="fill: #008000; stroke: #008000"/>
     <use xlink:href="#m4f91d53b4c" x="211.284" y="155.817691" style="fill: #008000; stroke: #008000"/>
     <use xlink:href="#m4f91d53b4c" x="211.7304" y="135.217198" style="fill: #008000; stroke: #008000"/>
     <use xlink:href="#m4f91d53b4c" x="213.8508" y="253.5724" style="fill: #008000; stroke: #008000"/>
     <use xlink:href="#m4f91d53b4c" x="213.8508" y="216.832125" style="fill: #008000; stroke: #008000"/>
     <use xlink:href="#m4f91d53b4c" x="215.5248" y="144.428511" style="fill: #008000; stroke: #008000"/>
     <use xlink:href="#m4f91d53b4c" x="215.9712" y="195.870479" style="fill: #008000; stroke: #008000"/>
     <use xlink:href="#m4f91d53b4c" x="217.8684" y="143.360355" style="fill: #008000; stroke: #008000"/>
     <use xlink:href="#m4f91d53b4c" x="218.6496" y="152.55048" style="fill: #008000; stroke: #008000"/>
     <use xlink:href="#m4f91d53b4c" x="217.98" y="137.582839" style="fill: #008000; stroke: #008000"/>
     <use xlink:href="#m4f91d53b4c" x="219.8772" y="147.909584" style="fill: #008000; stroke: #008000"/>
     <use xlink:href="#m4f91d53b4c" x="220.3236" y="136.635656" style="fill: #008000; stroke: #008000"/>
     <use xlink:href="#m4f91d53b4c" x="222.2208" y="143.799286" style="fill: #008000; stroke: #008000"/>
     <use xlink:href="#m4f91d53b4c" x="224.118" y="140.082361" style="fill: #008000; stroke: #008000"/>
     <use xlink:href="#m4f91d53b4c" x="223.56" y="153.993679" style="fill: #008000; stroke: #008000"/>
     <use xlink:href="#m4f91d53b4c" x="225.3456" y="130.11281" style="fill: #008000; stroke: #008000"/>
     <use xlink:href="#m4f91d53b4c" x="225.792" y="158.25026" style="fill: #008000; stroke: #008000"/>
     <use xlink:href="#m4f91d53b4c" x="227.466" y="136.497222" style="fill: #008000; stroke: #008000"/>
     <use xlink:href="#m4f91d53b4c" x="227.9124" y="122.711578" style="fill: #008000; stroke: #008000"/>
     <use xlink:href="#m4f91d53b4c" x="229.8096" y="126.450081" style="fill: #008000; stroke: #008000"/>
     <use xlink:href="#m4f91d53b4c" x="230.814" y="144.272014" style="fill: #008000; stroke: #008000"/>
     <use xlink:href="#m4f91d53b4c" x="233.046" y="133.670918" style="fill: #008000; stroke: #008000"/>
     <use xlink:href="#m4f91d53b4c" x="234.2736" y="122.115163" style="fill: #008000; stroke: #008000"/>
     <use xlink:href="#m4f91d53b4c" x="233.046" y="154.836358" style="fill: #008000; stroke: #008000"/>
     <use xlink:href="#m4f91d53b4c" x="234.9432" y="96.93749" style="fill: #008000; stroke: #008000"/>
     <use xlink:href="#m4f91d53b4c" x="236.8404" y="140.041128" style="fill: #008000; stroke: #008000"/>
     <use xlink:href="#m4f91d53b4c" x="238.4028" y="138.209716" style="fill: #008000; stroke: #008000"/>
     <use xlink:href="#m4f91d53b4c" x="240.4116" y="139.535566" style="fill: #008000; stroke: #008000"/>
     <use xlink:href="#m4f91d53b4c" x="240.4116" y="137.612483" style="fill: #008000; stroke: #008000"/>
     <use xlink:href="#m4f91d53b4c" x="240.4116" y="137.305936" style="fill: #008000; stroke: #008000"/>
     <use xlink:href="#m4f91d53b4c" x="241.416" y="137.114571" style="fill: #008000; stroke: #008000"/>
     <use xlink:href="#m4f91d53b4c" x="243.5364" y="135.338138" style="fill: #008000; stroke: #008000"/>
     <use xlink:href="#m4f91d53b4c" x="244.4292" y="132.638027" style="fill: #008000; stroke: #008000"/>
     <use xlink:href="#m4f91d53b4c" x="244.764" y="119.106481" style="fill: #008000; stroke: #008000"/>
     <use xlink:href="#m4f91d53b4c" x="247.2192" y="113.195696" style="fill: #008000; stroke: #008000"/>
     <use xlink:href="#m4f91d53b4c" x="248.2236" y="122.54908" style="fill: #008000; stroke: #008000"/>
     <use xlink:href="#m4f91d53b4c" x="252.018" y="98.998291" style="fill: #008000; stroke: #008000"/>
     <use xlink:href="#m4f91d53b4c" x="253.9152" y="106.698361" style="fill: #008000; stroke: #008000"/>
     <use xlink:href="#m4f91d53b4c" x="254.0268" y="122.062776" style="fill: #008000; stroke: #008000"/>
     <use xlink:href="#m4f91d53b4c" x="255.7008" y="117.93378" style="fill: #008000; stroke: #008000"/>
     <use xlink:href="#m4f91d53b4c" x="256.9284" y="115.917348" style="fill: #008000; stroke: #008000"/>
     <use xlink:href="#m4f91d53b4c" x="259.272" y="112.175006" style="fill: #008000; stroke: #008000"/>
     <use xlink:href="#m4f91d53b4c" x="259.272" y="116.017267" style="fill: #008000; stroke: #008000"/>
     <use xlink:href="#m4f91d53b4c" x="259.6068" y="124.127107" style="fill: #008000; stroke: #008000"/>
     <use xlink:href="#m4f91d53b4c" x="262.062" y="103.154986" style="fill: #008000; stroke: #008000"/>
     <use xlink:href="#m4f91d53b4c" x="263.178" y="106.137976" style="fill: #008000; stroke: #008000"/>
     <use xlink:href="#m4f91d53b4c" x="266.6376" y="105.723581" style="fill: #008000; stroke: #008000"/>
     <use xlink:href="#m4f91d53b4c" x="267.084" y="101.366878" style="fill: #008000; stroke: #008000"/>
     <use xlink:href="#m4f91d53b4c" x="268.3116" y="101.574848" style="fill: #008000; stroke: #008000"/>
     <use xlink:href="#m4f91d53b4c" x="269.0928" y="93.116137" style="fill: #008000; stroke: #008000"/>
     <use xlink:href="#m4f91d53b4c" x="274.4496" y="99.208389" style="fill: #008000; stroke: #008000"/>
     <use xlink:href="#m4f91d53b4c" x="281.592" y="87.583259" style="fill: #008000; stroke: #008000"/>
     <use xlink:href="#m4f91d53b4c" x="286.7256" y="85.114433" style="fill: #008000; stroke: #008000"/>
     <use xlink:href="#m4f91d53b4c" x="282.9312" y="87.870803" style="fill: #008000; stroke: #008000"/>
     <use xlink:href="#m4f91d53b4c" x="286.9488" y="84.662785" style="fill: #008000; stroke: #008000"/>
     <use xlink:href="#m4f91d53b4c" x="294.3144" y="77.895912" style="fill: #008000; stroke: #008000"/>
     <use xlink:href="#m4f91d53b4c" x="299.7828" y="75.16206" style="fill: #008000; stroke: #008000"/>
     <use xlink:href="#m4f91d53b4c" x="300.4524" y="69.654363" style="fill: #008000; stroke: #008000"/>
    </g>
   </g>
   <g id="matplotlib.axis_1">
    <g id="xtick_1">
     <g id="line2d_1">
      <defs>
       <path id="m65f9af25e3" d="M 0 0 
L 0 3.5 
" style="stroke: #000000; stroke-width: 0.8"/>
      </defs>
      <g>
       <use xlink:href="#m65f9af25e3" x="45" y="320.4" style="stroke: #000000; stroke-width: 0.8"/>
      </g>
     </g>
     <g id="text_1">
      <!-- −20 -->
      <g transform="translate(34.447656 334.998438)scale(0.1 -0.1)">
       <defs>
        <path id="DejaVuSans-2212" d="M 678 2272 
L 4684 2272 
L 4684 1741 
L 678 1741 
L 678 2272 
z
" transform="scale(0.015625)"/>
        <path id="DejaVuSans-32" d="M 1228 531 
L 3431 531 
L 3431 0 
L 469 0 
L 469 531 
Q 828 903 1448 1529 
Q 2069 2156 2228 2338 
Q 2531 2678 2651 2914 
Q 2772 3150 2772 3378 
Q 2772 3750 2511 3984 
Q 2250 4219 1831 4219 
Q 1534 4219 1204 4116 
Q 875 4013 500 3803 
L 500 4441 
Q 881 4594 1212 4672 
Q 1544 4750 1819 4750 
Q 2544 4750 2975 4387 
Q 3406 4025 3406 3419 
Q 3406 3131 3298 2873 
Q 3191 2616 2906 2266 
Q 2828 2175 2409 1742 
Q 1991 1309 1228 531 
z
" transform="scale(0.015625)"/>
        <path id="DejaVuSans-30" d="M 2034 4250 
Q 1547 4250 1301 3770 
Q 1056 3291 1056 2328 
Q 1056 1369 1301 889 
Q 1547 409 2034 409 
Q 2525 409 2770 889 
Q 3016 1369 3016 2328 
Q 3016 3291 2770 3770 
Q 2525 4250 2034 4250 
z
M 2034 4750 
Q 2819 4750 3233 4129 
Q 3647 3509 3647 2328 
Q 3647 1150 3233 529 
Q 2819 -91 2034 -91 
Q 1250 -91 836 529 
Q 422 1150 422 2328 
Q 422 3509 836 4129 
Q 1250 4750 2034 4750 
z
" transform="scale(0.015625)"/>
       </defs>
       <use xlink:href="#DejaVuSans-2212"/>
       <use xlink:href="#DejaVuSans-32" x="83.789062"/>
       <use xlink:href="#DejaVuSans-30" x="147.412109"/>
      </g>
     </g>
    </g>
    <g id="xtick_2">
     <g id="line2d_2">
      <g>
       <use xlink:href="#m65f9af25e3" x="100.8" y="320.4" style="stroke: #000000; stroke-width: 0.8"/>
      </g>
     </g>
     <g id="text_2">
      <!-- −15 -->
      <g transform="translate(90.247656 334.998438)scale(0.1 -0.1)">
       <defs>
        <path id="DejaVuSans-31" d="M 794 531 
L 1825 531 
L 1825 4091 
L 703 3866 
L 703 4441 
L 1819 4666 
L 2450 4666 
L 2450 531 
L 3481 531 
L 3481 0 
L 794 0 
L 794 531 
z
" transform="scale(0.015625)"/>
        <path id="DejaVuSans-35" d="M 691 4666 
L 3169 4666 
L 3169 4134 
L 1269 4134 
L 1269 2991 
Q 1406 3038 1543 3061 
Q 1681 3084 1819 3084 
Q 2600 3084 3056 2656 
Q 3513 2228 3513 1497 
Q 3513 744 3044 326 
Q 2575 -91 1722 -91 
Q 1428 -91 1123 -41 
Q 819 9 494 109 
L 494 744 
Q 775 591 1075 516 
Q 1375 441 1709 441 
Q 2250 441 2565 725 
Q 2881 1009 2881 1497 
Q 2881 1984 2565 2268 
Q 2250 2553 1709 2553 
Q 1456 2553 1204 2497 
Q 953 2441 691 2322 
L 691 4666 
z
" transform="scale(0.015625)"/>
       </defs>
       <use xlink:href="#DejaVuSans-2212"/>
       <use xlink:href="#DejaVuSans-31" x="83.789062"/>
       <use xlink:href="#DejaVuSans-35" x="147.412109"/>
      </g>
     </g>
    </g>
    <g id="xtick_3">
     <g id="line2d_3">
      <g>
       <use xlink:href="#m65f9af25e3" x="156.6" y="320.4" style="stroke: #000000; stroke-width: 0.8"/>
      </g>
     </g>
     <g id="text_3">
      <!-- −10 -->
      <g transform="translate(146.047656 334.998438)scale(0.1 -0.1)">
       <use xlink:href="#DejaVuSans-2212"/>
       <use xlink:href="#DejaVuSans-31" x="83.789062"/>
       <use xlink:href="#DejaVuSans-30" x="147.412109"/>
      </g>
     </g>
    </g>
    <g id="xtick_4">
     <g id="line2d_4">
      <g>
       <use xlink:href="#m65f9af25e3" x="212.4" y="320.4" style="stroke: #000000; stroke-width: 0.8"/>
      </g>
     </g>
     <g id="text_4">
      <!-- −5 -->
      <g transform="translate(205.028906 334.998438)scale(0.1 -0.1)">
       <use xlink:href="#DejaVuSans-2212"/>
       <use xlink:href="#DejaVuSans-35" x="83.789062"/>
      </g>
     </g>
    </g>
    <g id="xtick_5">
     <g id="line2d_5">
      <g>
       <use xlink:href="#m65f9af25e3" x="268.2" y="320.4" style="stroke: #000000; stroke-width: 0.8"/>
      </g>
     </g>
     <g id="text_5">
      <!-- 0 -->
      <g transform="translate(265.01875 334.998438)scale(0.1 -0.1)">
       <use xlink:href="#DejaVuSans-30"/>
      </g>
     </g>
    </g>
    <g id="xtick_6">
     <g id="line2d_6">
      <g>
       <use xlink:href="#m65f9af25e3" x="324" y="320.4" style="stroke: #000000; stroke-width: 0.8"/>
      </g>
     </g>
     <g id="text_6">
      <!-- 5 -->
      <g transform="translate(320.81875 334.998438)scale(0.1 -0.1)">
       <use xlink:href="#DejaVuSans-35"/>
      </g>
     </g>
    </g>
    <g id="text_7">
     <!-- experimental solvation (kcal/mol) -->
     <g transform="translate(100.492969 348.676562)scale(0.1 -0.1)">
      <defs>
       <path id="DejaVuSans-65" d="M 3597 1894 
L 3597 1613 
L 953 1613 
Q 991 1019 1311 708 
Q 1631 397 2203 397 
Q 2534 397 2845 478 
Q 3156 559 3463 722 
L 3463 178 
Q 3153 47 2828 -22 
Q 2503 -91 2169 -91 
Q 1331 -91 842 396 
Q 353 884 353 1716 
Q 353 2575 817 3079 
Q 1281 3584 2069 3584 
Q 2775 3584 3186 3129 
Q 3597 2675 3597 1894 
z
M 3022 2063 
Q 3016 2534 2758 2815 
Q 2500 3097 2075 3097 
Q 1594 3097 1305 2825 
Q 1016 2553 972 2059 
L 3022 2063 
z
" transform="scale(0.015625)"/>
       <path id="DejaVuSans-78" d="M 3513 3500 
L 2247 1797 
L 3578 0 
L 2900 0 
L 1881 1375 
L 863 0 
L 184 0 
L 1544 1831 
L 300 3500 
L 978 3500 
L 1906 2253 
L 2834 3500 
L 3513 3500 
z
" transform="scale(0.015625)"/>
       <path id="DejaVuSans-70" d="M 1159 525 
L 1159 -1331 
L 581 -1331 
L 581 3500 
L 1159 3500 
L 1159 2969 
Q 1341 3281 1617 3432 
Q 1894 3584 2278 3584 
Q 2916 3584 3314 3078 
Q 3713 2572 3713 1747 
Q 3713 922 3314 415 
Q 2916 -91 2278 -91 
Q 1894 -91 1617 61 
Q 1341 213 1159 525 
z
M 3116 1747 
Q 3116 2381 2855 2742 
Q 2594 3103 2138 3103 
Q 1681 3103 1420 2742 
Q 1159 2381 1159 1747 
Q 1159 1113 1420 752 
Q 1681 391 2138 391 
Q 2594 391 2855 752 
Q 3116 1113 3116 1747 
z
" transform="scale(0.015625)"/>
       <path id="DejaVuSans-72" d="M 2631 2963 
Q 2534 3019 2420 3045 
Q 2306 3072 2169 3072 
Q 1681 3072 1420 2755 
Q 1159 2438 1159 1844 
L 1159 0 
L 581 0 
L 581 3500 
L 1159 3500 
L 1159 2956 
Q 1341 3275 1631 3429 
Q 1922 3584 2338 3584 
Q 2397 3584 2469 3576 
Q 2541 3569 2628 3553 
L 2631 2963 
z
" transform="scale(0.015625)"/>
       <path id="DejaVuSans-69" d="M 603 3500 
L 1178 3500 
L 1178 0 
L 603 0 
L 603 3500 
z
M 603 4863 
L 1178 4863 
L 1178 4134 
L 603 4134 
L 603 4863 
z
" transform="scale(0.015625)"/>
       <path id="DejaVuSans-6d" d="M 3328 2828 
Q 3544 3216 3844 3400 
Q 4144 3584 4550 3584 
Q 5097 3584 5394 3201 
Q 5691 2819 5691 2113 
L 5691 0 
L 5113 0 
L 5113 2094 
Q 5113 2597 4934 2840 
Q 4756 3084 4391 3084 
Q 3944 3084 3684 2787 
Q 3425 2491 3425 1978 
L 3425 0 
L 2847 0 
L 2847 2094 
Q 2847 2600 2669 2842 
Q 2491 3084 2119 3084 
Q 1678 3084 1418 2786 
Q 1159 2488 1159 1978 
L 1159 0 
L 581 0 
L 581 3500 
L 1159 3500 
L 1159 2956 
Q 1356 3278 1631 3431 
Q 1906 3584 2284 3584 
Q 2666 3584 2933 3390 
Q 3200 3197 3328 2828 
z
" transform="scale(0.015625)"/>
       <path id="DejaVuSans-6e" d="M 3513 2113 
L 3513 0 
L 2938 0 
L 2938 2094 
Q 2938 2591 2744 2837 
Q 2550 3084 2163 3084 
Q 1697 3084 1428 2787 
Q 1159 2491 1159 1978 
L 1159 0 
L 581 0 
L 581 3500 
L 1159 3500 
L 1159 2956 
Q 1366 3272 1645 3428 
Q 1925 3584 2291 3584 
Q 2894 3584 3203 3211 
Q 3513 2838 3513 2113 
z
" transform="scale(0.015625)"/>
       <path id="DejaVuSans-74" d="M 1172 4494 
L 1172 3500 
L 2356 3500 
L 2356 3053 
L 1172 3053 
L 1172 1153 
Q 1172 725 1289 603 
Q 1406 481 1766 481 
L 2356 481 
L 2356 0 
L 1766 0 
Q 1100 0 847 248 
Q 594 497 594 1153 
L 594 3053 
L 172 3053 
L 172 3500 
L 594 3500 
L 594 4494 
L 1172 4494 
z
" transform="scale(0.015625)"/>
       <path id="DejaVuSans-61" d="M 2194 1759 
Q 1497 1759 1228 1600 
Q 959 1441 959 1056 
Q 959 750 1161 570 
Q 1363 391 1709 391 
Q 2188 391 2477 730 
Q 2766 1069 2766 1631 
L 2766 1759 
L 2194 1759 
z
M 3341 1997 
L 3341 0 
L 2766 0 
L 2766 531 
Q 2569 213 2275 61 
Q 1981 -91 1556 -91 
Q 1019 -91 701 211 
Q 384 513 384 1019 
Q 384 1609 779 1909 
Q 1175 2209 1959 2209 
L 2766 2209 
L 2766 2266 
Q 2766 2663 2505 2880 
Q 2244 3097 1772 3097 
Q 1472 3097 1187 3025 
Q 903 2953 641 2809 
L 641 3341 
Q 956 3463 1253 3523 
Q 1550 3584 1831 3584 
Q 2591 3584 2966 3190 
Q 3341 2797 3341 1997 
z
" transform="scale(0.015625)"/>
       <path id="DejaVuSans-6c" d="M 603 4863 
L 1178 4863 
L 1178 0 
L 603 0 
L 603 4863 
z
" transform="scale(0.015625)"/>
       <path id="DejaVuSans-20" transform="scale(0.015625)"/>
       <path id="DejaVuSans-73" d="M 2834 3397 
L 2834 2853 
Q 2591 2978 2328 3040 
Q 2066 3103 1784 3103 
Q 1356 3103 1142 2972 
Q 928 2841 928 2578 
Q 928 2378 1081 2264 
Q 1234 2150 1697 2047 
L 1894 2003 
Q 2506 1872 2764 1633 
Q 3022 1394 3022 966 
Q 3022 478 2636 193 
Q 2250 -91 1575 -91 
Q 1294 -91 989 -36 
Q 684 19 347 128 
L 347 722 
Q 666 556 975 473 
Q 1284 391 1588 391 
Q 1994 391 2212 530 
Q 2431 669 2431 922 
Q 2431 1156 2273 1281 
Q 2116 1406 1581 1522 
L 1381 1569 
Q 847 1681 609 1914 
Q 372 2147 372 2553 
Q 372 3047 722 3315 
Q 1072 3584 1716 3584 
Q 2034 3584 2315 3537 
Q 2597 3491 2834 3397 
z
" transform="scale(0.015625)"/>
       <path id="DejaVuSans-6f" d="M 1959 3097 
Q 1497 3097 1228 2736 
Q 959 2375 959 1747 
Q 959 1119 1226 758 
Q 1494 397 1959 397 
Q 2419 397 2687 759 
Q 2956 1122 2956 1747 
Q 2956 2369 2687 2733 
Q 2419 3097 1959 3097 
z
M 1959 3584 
Q 2709 3584 3137 3096 
Q 3566 2609 3566 1747 
Q 3566 888 3137 398 
Q 2709 -91 1959 -91 
Q 1206 -91 779 398 
Q 353 888 353 1747 
Q 353 2609 779 3096 
Q 1206 3584 1959 3584 
z
" transform="scale(0.015625)"/>
       <path id="DejaVuSans-76" d="M 191 3500 
L 800 3500 
L 1894 563 
L 2988 3500 
L 3597 3500 
L 2284 0 
L 1503 0 
L 191 3500 
z
" transform="scale(0.015625)"/>
       <path id="DejaVuSans-28" d="M 1984 4856 
Q 1566 4138 1362 3434 
Q 1159 2731 1159 2009 
Q 1159 1288 1364 580 
Q 1569 -128 1984 -844 
L 1484 -844 
Q 1016 -109 783 600 
Q 550 1309 550 2009 
Q 550 2706 781 3412 
Q 1013 4119 1484 4856 
L 1984 4856 
z
" transform="scale(0.015625)"/>
       <path id="DejaVuSans-6b" d="M 581 4863 
L 1159 4863 
L 1159 1991 
L 2875 3500 
L 3609 3500 
L 1753 1863 
L 3688 0 
L 2938 0 
L 1159 1709 
L 1159 0 
L 581 0 
L 581 4863 
z
" transform="scale(0.015625)"/>
       <path id="DejaVuSans-63" d="M 3122 3366 
L 3122 2828 
Q 2878 2963 2633 3030 
Q 2388 3097 2138 3097 
Q 1578 3097 1268 2742 
Q 959 2388 959 1747 
Q 959 1106 1268 751 
Q 1578 397 2138 397 
Q 2388 397 2633 464 
Q 2878 531 3122 666 
L 3122 134 
Q 2881 22 2623 -34 
Q 2366 -91 2075 -91 
Q 1284 -91 818 406 
Q 353 903 353 1747 
Q 353 2603 823 3093 
Q 1294 3584 2113 3584 
Q 2378 3584 2631 3529 
Q 2884 3475 3122 3366 
z
" transform="scale(0.015625)"/>
       <path id="DejaVuSans-2f" d="M 1625 4666 
L 2156 4666 
L 531 -594 
L 0 -594 
L 1625 4666 
z
" transform="scale(0.015625)"/>
       <path id="DejaVuSans-29" d="M 513 4856 
L 1013 4856 
Q 1481 4119 1714 3412 
Q 1947 2706 1947 2009 
Q 1947 1309 1714 600 
Q 1481 -109 1013 -844 
L 513 -844 
Q 928 -128 1133 580 
Q 1338 1288 1338 2009 
Q 1338 2731 1133 3434 
Q 928 4138 513 4856 
z
" transform="scale(0.015625)"/>
      </defs>
      <use xlink:href="#DejaVuSans-65"/>
      <use xlink:href="#DejaVuSans-78" x="59.773438"/>
      <use xlink:href="#DejaVuSans-70" x="118.953125"/>
      <use xlink:href="#DejaVuSans-65" x="182.429688"/>
      <use xlink:href="#DejaVuSans-72" x="243.953125"/>
      <use xlink:href="#DejaVuSans-69" x="285.066406"/>
      <use xlink:href="#DejaVuSans-6d" x="312.849609"/>
      <use xlink:href="#DejaVuSans-65" x="410.261719"/>
      <use xlink:href="#DejaVuSans-6e" x="471.785156"/>
      <use xlink:href="#DejaVuSans-74" x="535.164062"/>
      <use xlink:href="#DejaVuSans-61" x="574.373047"/>
      <use xlink:href="#DejaVuSans-6c" x="635.652344"/>
      <use xlink:href="#DejaVuSans-20" x="663.435547"/>
      <use xlink:href="#DejaVuSans-73" x="695.222656"/>
      <use xlink:href="#DejaVuSans-6f" x="747.322266"/>
      <use xlink:href="#DejaVuSans-6c" x="808.503906"/>
      <use xlink:href="#DejaVuSans-76" x="836.287109"/>
      <use xlink:href="#DejaVuSans-61" x="895.466797"/>
      <use xlink:href="#DejaVuSans-74" x="956.746094"/>
      <use xlink:href="#DejaVuSans-69" x="995.955078"/>
      <use xlink:href="#DejaVuSans-6f" x="1023.738281"/>
      <use xlink:href="#DejaVuSans-6e" x="1084.919922"/>
      <use xlink:href="#DejaVuSans-20" x="1148.298828"/>
      <use xlink:href="#DejaVuSans-28" x="1180.085938"/>
      <use xlink:href="#DejaVuSans-6b" x="1219.099609"/>
      <use xlink:href="#DejaVuSans-63" x="1277.009766"/>
      <use xlink:href="#DejaVuSans-61" x="1331.990234"/>
      <use xlink:href="#DejaVuSans-6c" x="1393.269531"/>
      <use xlink:href="#DejaVuSans-2f" x="1421.052734"/>
      <use xlink:href="#DejaVuSans-6d" x="1454.744141"/>
      <use xlink:href="#DejaVuSans-6f" x="1552.15625"/>
      <use xlink:href="#DejaVuSans-6c" x="1613.337891"/>
      <use xlink:href="#DejaVuSans-29" x="1641.121094"/>
     </g>
    </g>
   </g>
   <g id="matplotlib.axis_2">
    <g id="ytick_1">
     <g id="line2d_7">
      <defs>
       <path id="m3bc175a651" d="M 0 0 
L -3.5 0 
" style="stroke: #000000; stroke-width: 0.8"/>
      </defs>
      <g>
       <use xlink:href="#m3bc175a651" x="45" y="320.4" style="stroke: #000000; stroke-width: 0.8"/>
      </g>
     </g>
     <g id="text_8">
      <!-- −20 -->
      <g transform="translate(16.895312 324.199219)scale(0.1 -0.1)">
       <use xlink:href="#DejaVuSans-2212"/>
       <use xlink:href="#DejaVuSans-32" x="83.789062"/>
       <use xlink:href="#DejaVuSans-30" x="147.412109"/>
      </g>
     </g>
    </g>
    <g id="ytick_2">
     <g id="line2d_8">
      <g>
       <use xlink:href="#m3bc175a651" x="45" y="264.96" style="stroke: #000000; stroke-width: 0.8"/>
      </g>
     </g>
     <g id="text_9">
      <!-- −15 -->
      <g transform="translate(16.895312 268.759219)scale(0.1 -0.1)">
       <use xlink:href="#DejaVuSans-2212"/>
       <use xlink:href="#DejaVuSans-31" x="83.789062"/>
       <use xlink:href="#DejaVuSans-35" x="147.412109"/>
      </g>
     </g>
    </g>
    <g id="ytick_3">
     <g id="line2d_9">
      <g>
       <use xlink:href="#m3bc175a651" x="45" y="209.52" style="stroke: #000000; stroke-width: 0.8"/>
      </g>
     </g>
     <g id="text_10">
      <!-- −10 -->
      <g transform="translate(16.895312 213.319219)scale(0.1 -0.1)">
       <use xlink:href="#DejaVuSans-2212"/>
       <use xlink:href="#DejaVuSans-31" x="83.789062"/>
       <use xlink:href="#DejaVuSans-30" x="147.412109"/>
      </g>
     </g>
    </g>
    <g id="ytick_4">
     <g id="line2d_10">
      <g>
       <use xlink:href="#m3bc175a651" x="45" y="154.08" style="stroke: #000000; stroke-width: 0.8"/>
      </g>
     </g>
     <g id="text_11">
      <!-- −5 -->
      <g transform="translate(23.257812 157.879219)scale(0.1 -0.1)">
       <use xlink:href="#DejaVuSans-2212"/>
       <use xlink:href="#DejaVuSans-35" x="83.789062"/>
      </g>
     </g>
    </g>
    <g id="ytick_5">
     <g id="line2d_11">
      <g>
       <use xlink:href="#m3bc175a651" x="45" y="98.64" style="stroke: #000000; stroke-width: 0.8"/>
      </g>
     </g>
     <g id="text_12">
      <!-- 0 -->
      <g transform="translate(31.6375 102.439219)scale(0.1 -0.1)">
       <use xlink:href="#DejaVuSans-30"/>
      </g>
     </g>
    </g>
    <g id="ytick_6">
     <g id="line2d_12">
      <g>
       <use xlink:href="#m3bc175a651" x="45" y="43.2" style="stroke: #000000; stroke-width: 0.8"/>
      </g>
     </g>
     <g id="text_13">
      <!-- 5 -->
      <g transform="translate(31.6375 46.999219)scale(0.1 -0.1)">
       <use xlink:href="#DejaVuSans-35"/>
      </g>
     </g>
    </g>
    <g id="text_14">
     <!-- model solvation (kcal/mol) -->
     <g transform="translate(10.815625 248.203906)rotate(-90)scale(0.1 -0.1)">
      <defs>
       <path id="DejaVuSans-64" d="M 2906 2969 
L 2906 4863 
L 3481 4863 
L 3481 0 
L 2906 0 
L 2906 525 
Q 2725 213 2448 61 
Q 2172 -91 1784 -91 
Q 1150 -91 751 415 
Q 353 922 353 1747 
Q 353 2572 751 3078 
Q 1150 3584 1784 3584 
Q 2172 3584 2448 3432 
Q 2725 3281 2906 2969 
z
M 947 1747 
Q 947 1113 1208 752 
Q 1469 391 1925 391 
Q 2381 391 2643 752 
Q 2906 1113 2906 1747 
Q 2906 2381 2643 2742 
Q 2381 3103 1925 3103 
Q 1469 3103 1208 2742 
Q 947 2381 947 1747 
z
" transform="scale(0.015625)"/>
      </defs>
      <use xlink:href="#DejaVuSans-6d"/>
      <use xlink:href="#DejaVuSans-6f" x="97.412109"/>
      <use xlink:href="#DejaVuSans-64" x="158.59375"/>
      <use xlink:href="#DejaVuSans-65" x="222.070312"/>
      <use xlink:href="#DejaVuSans-6c" x="283.59375"/>
      <use xlink:href="#DejaVuSans-20" x="311.376953"/>
      <use xlink:href="#DejaVuSans-73" x="343.164062"/>
      <use xlink:href="#DejaVuSans-6f" x="395.263672"/>
      <use xlink:href="#DejaVuSans-6c" x="456.445312"/>
      <use xlink:href="#DejaVuSans-76" x="484.228516"/>
      <use xlink:href="#DejaVuSans-61" x="543.408203"/>
      <use xlink:href="#DejaVuSans-74" x="604.6875"/>
      <use xlink:href="#DejaVuSans-69" x="643.896484"/>
      <use xlink:href="#DejaVuSans-6f" x="671.679688"/>
      <use xlink:href="#DejaVuSans-6e" x="732.861328"/>
      <use xlink:href="#DejaVuSans-20" x="796.240234"/>
      <use xlink:href="#DejaVuSans-28" x="828.027344"/>
      <use xlink:href="#DejaVuSans-6b" x="867.041016"/>
      <use xlink:href="#DejaVuSans-63" x="924.951172"/>
      <use xlink:href="#DejaVuSans-61" x="979.931641"/>
      <use xlink:href="#DejaVuSans-6c" x="1041.210938"/>
      <use xlink:href="#DejaVuSans-2f" x="1068.994141"/>
      <use xlink:href="#DejaVuSans-6d" x="1102.685547"/>
      <use xlink:href="#DejaVuSans-6f" x="1200.097656"/>
      <use xlink:href="#DejaVuSans-6c" x="1261.279297"/>
      <use xlink:href="#DejaVuSans-29" x="1289.0625"/>
     </g>
    </g>
   </g>
   <g id="line2d_13">
    <path d="M 45 344.2439 
L 324 53.89956 
" clip-path="url(#pf3e9d7cd57)" style="fill: none; stroke: #ff0000; stroke-width: 1.5; stroke-linecap: square"/>
   </g>
   <g id="line2d_14">
    <path d="M 45 324.52069 
L 324 45.8248 
" clip-path="url(#pf3e9d7cd57)" style="fill: none; stroke: #008000; stroke-width: 1.5; stroke-linecap: square"/>
   </g>
   <g id="line2d_15">
    <path d="M 45 320.4 
L 324 43.2 
" clip-path="url(#pf3e9d7cd57)" style="fill: none; stroke-dasharray: 1,1.65; stroke-dashoffset: 0; stroke: #000000"/>
   </g>
   <g id="patch_3">
    <path d="M 45 320.4 
L 45 43.2 
" style="fill: none; stroke: #000000; stroke-width: 0.8; stroke-linejoin: miter; stroke-linecap: square"/>
   </g>
   <g id="patch_4">
    <path d="M 324 320.4 
L 324 43.2 
" style="fill: none; stroke: #000000; stroke-width: 0.8; stroke-linejoin: miter; stroke-linecap: square"/>
   </g>
   <g id="patch_5">
    <path d="M 45 320.4 
L 324 320.4 
" style="fill: none; stroke: #000000; stroke-width: 0.8; stroke-linejoin: miter; stroke-linecap: square"/>
   </g>
   <g id="patch_6">
    <path d="M 45 43.2 
L 324 43.2 
" style="fill: none; stroke: #000000; stroke-width: 0.8; stroke-linejoin: miter; stroke-linecap: square"/>
   </g>
   <g id="text_15">
    <!-- y =  1.05 x + -1.20 -->
    <g style="fill: #ff0000" transform="translate(156.6 287.136)scale(0.1 -0.1)">
     <defs>
      <path id="DejaVuSans-79" d="M 2059 -325 
Q 1816 -950 1584 -1140 
Q 1353 -1331 966 -1331 
L 506 -1331 
L 506 -850 
L 844 -850 
Q 1081 -850 1212 -737 
Q 1344 -625 1503 -206 
L 1606 56 
L 191 3500 
L 800 3500 
L 1894 763 
L 2988 3500 
L 3597 3500 
L 2059 -325 
z
" transform="scale(0.015625)"/>
      <path id="DejaVuSans-3d" d="M 678 2906 
L 4684 2906 
L 4684 2381 
L 678 2381 
L 678 2906 
z
M 678 1631 
L 4684 1631 
L 4684 1100 
L 678 1100 
L 678 1631 
z
" transform="scale(0.015625)"/>
      <path id="DejaVuSans-2e" d="M 684 794 
L 1344 794 
L 1344 0 
L 684 0 
L 684 794 
z
" transform="scale(0.015625)"/>
      <path id="DejaVuSans-2b" d="M 2944 4013 
L 2944 2272 
L 4684 2272 
L 4684 1741 
L 2944 1741 
L 2944 0 
L 2419 0 
L 2419 1741 
L 678 1741 
L 678 2272 
L 2419 2272 
L 2419 4013 
L 2944 4013 
z
" transform="scale(0.015625)"/>
      <path id="DejaVuSans-2d" d="M 313 2009 
L 1997 2009 
L 1997 1497 
L 313 1497 
L 313 2009 
z
" transform="scale(0.015625)"/>
     </defs>
     <use xlink:href="#DejaVuSans-79"/>
     <use xlink:href="#DejaVuSans-20" x="59.179688"/>
     <use xlink:href="#DejaVuSans-3d" x="90.966797"/>
     <use xlink:href="#DejaVuSans-20" x="174.755859"/>
     <use xlink:href="#DejaVuSans-20" x="206.542969"/>
     <use xlink:href="#DejaVuSans-31" x="238.330078"/>
     <use xlink:href="#DejaVuSans-2e" x="301.953125"/>
     <use xlink:href="#DejaVuSans-30" x="333.740234"/>
     <use xlink:href="#DejaVuSans-35" x="397.363281"/>
     <use xlink:href="#DejaVuSans-20" x="460.986328"/>
     <use xlink:href="#DejaVuSans-78" x="492.773438"/>
     <use xlink:href="#DejaVuSans-20" x="551.953125"/>
     <use xlink:href="#DejaVuSans-2b" x="583.740234"/>
     <use xlink:href="#DejaVuSans-20" x="667.529297"/>
     <use xlink:href="#DejaVuSans-2d" x="699.316406"/>
     <use xlink:href="#DejaVuSans-31" x="735.400391"/>
     <use xlink:href="#DejaVuSans-2e" x="799.023438"/>
     <use xlink:href="#DejaVuSans-32" x="830.810547"/>
     <use xlink:href="#DejaVuSans-30" x="894.433594"/>
    </g>
   </g>
   <g id="text_16">
    <!-- y =  1.01 x + -0.26 -->
    <g style="fill: #008000" transform="translate(156.6 298.224)scale(0.1 -0.1)">
     <defs>
      <path id="DejaVuSans-36" d="M 2113 2584 
Q 1688 2584 1439 2293 
Q 1191 2003 1191 1497 
Q 1191 994 1439 701 
Q 1688 409 2113 409 
Q 2538 409 2786 701 
Q 3034 994 3034 1497 
Q 3034 2003 2786 2293 
Q 2538 2584 2113 2584 
z
M 3366 4563 
L 3366 3988 
Q 3128 4100 2886 4159 
Q 2644 4219 2406 4219 
Q 1781 4219 1451 3797 
Q 1122 3375 1075 2522 
Q 1259 2794 1537 2939 
Q 1816 3084 2150 3084 
Q 2853 3084 3261 2657 
Q 3669 2231 3669 1497 
Q 3669 778 3244 343 
Q 2819 -91 2113 -91 
Q 1303 -91 875 529 
Q 447 1150 447 2328 
Q 447 3434 972 4092 
Q 1497 4750 2381 4750 
Q 2619 4750 2861 4703 
Q 3103 4656 3366 4563 
z
" transform="scale(0.015625)"/>
     </defs>
     <use xlink:href="#DejaVuSans-79"/>
     <use xlink:href="#DejaVuSans-20" x="59.179688"/>
     <use xlink:href="#DejaVuSans-3d" x="90.966797"/>
     <use xlink:href="#DejaVuSans-20" x="174.755859"/>
     <use xlink:href="#DejaVuSans-20" x="206.542969"/>
     <use xlink:href="#DejaVuSans-31" x="238.330078"/>
     <use xlink:href="#DejaVuSans-2e" x="301.953125"/>
     <use xlink:href="#DejaVuSans-30" x="333.740234"/>
     <use xlink:href="#DejaVuSans-31" x="397.363281"/>
     <use xlink:href="#DejaVuSans-20" x="460.986328"/>
     <use xlink:href="#DejaVuSans-78" x="492.773438"/>
     <use xlink:href="#DejaVuSans-20" x="551.953125"/>
     <use xlink:href="#DejaVuSans-2b" x="583.740234"/>
     <use xlink:href="#DejaVuSans-20" x="667.529297"/>
     <use xlink:href="#DejaVuSans-2d" x="699.316406"/>
     <use xlink:href="#DejaVuSans-30" x="735.400391"/>
     <use xlink:href="#DejaVuSans-2e" x="799.023438"/>
     <use xlink:href="#DejaVuSans-32" x="830.810547"/>
     <use xlink:href="#DejaVuSans-36" x="894.433594"/>
    </g>
   </g>
   <g id="text_17">
    <!-- igb5 correction -->
    <g transform="translate(139.343437 37.2)scale(0.12 -0.12)">
     <defs>
      <path id="DejaVuSans-67" d="M 2906 1791 
Q 2906 2416 2648 2759 
Q 2391 3103 1925 3103 
Q 1463 3103 1205 2759 
Q 947 2416 947 1791 
Q 947 1169 1205 825 
Q 1463 481 1925 481 
Q 2391 481 2648 825 
Q 2906 1169 2906 1791 
z
M 3481 434 
Q 3481 -459 3084 -895 
Q 2688 -1331 1869 -1331 
Q 1566 -1331 1297 -1286 
Q 1028 -1241 775 -1147 
L 775 -588 
Q 1028 -725 1275 -790 
Q 1522 -856 1778 -856 
Q 2344 -856 2625 -561 
Q 2906 -266 2906 331 
L 2906 616 
Q 2728 306 2450 153 
Q 2172 0 1784 0 
Q 1141 0 747 490 
Q 353 981 353 1791 
Q 353 2603 747 3093 
Q 1141 3584 1784 3584 
Q 2172 3584 2450 3431 
Q 2728 3278 2906 2969 
L 2906 3500 
L 3481 3500 
L 3481 434 
z
" transform="scale(0.015625)"/>
      <path id="DejaVuSans-62" d="M 3116 1747 
Q 3116 2381 2855 2742 
Q 2594 3103 2138 3103 
Q 1681 3103 1420 2742 
Q 1159 2381 1159 1747 
Q 1159 1113 1420 752 
Q 1681 391 2138 391 
Q 2594 391 2855 752 
Q 3116 1113 3116 1747 
z
M 1159 2969 
Q 1341 3281 1617 3432 
Q 1894 3584 2278 3584 
Q 2916 3584 3314 3078 
Q 3713 2572 3713 1747 
Q 3713 922 3314 415 
Q 2916 -91 2278 -91 
Q 1894 -91 1617 61 
Q 1341 213 1159 525 
L 1159 0 
L 581 0 
L 581 4863 
L 1159 4863 
L 1159 2969 
z
" transform="scale(0.015625)"/>
     </defs>
     <use xlink:href="#DejaVuSans-69"/>
     <use xlink:href="#DejaVuSans-67" x="27.783203"/>
     <use xlink:href="#DejaVuSans-62" x="91.259766"/>
     <use xlink:href="#DejaVuSans-35" x="154.736328"/>
     <use xlink:href="#DejaVuSans-20" x="218.359375"/>
     <use xlink:href="#DejaVuSans-63" x="250.146484"/>
     <use xlink:href="#DejaVuSans-6f" x="305.126953"/>
     <use xlink:href="#DejaVuSans-72" x="366.308594"/>
     <use xlink:href="#DejaVuSans-72" x="405.671875"/>
     <use xlink:href="#DejaVuSans-65" x="444.535156"/>
     <use xlink:href="#DejaVuSans-63" x="506.058594"/>
     <use xlink:href="#DejaVuSans-74" x="561.039062"/>
     <use xlink:href="#DejaVuSans-69" x="600.248047"/>
     <use xlink:href="#DejaVuSans-6f" x="628.03125"/>
     <use xlink:href="#DejaVuSans-6e" x="689.212891"/>
    </g>
   </g>
   <g id="legend_1">
    <g id="patch_7">
     <path d="M 52 80.55625 
L 134.773438 80.55625 
Q 136.773438 80.55625 136.773438 78.55625 
L 136.773438 50.2 
Q 136.773438 48.2 134.773438 48.2 
L 52 48.2 
Q 50 48.2 50 50.2 
L 50 78.55625 
Q 50 80.55625 52 80.55625 
z
" style="fill: #ffffff; opacity: 0.8; stroke: #cccccc; stroke-linejoin: miter"/>
    </g>
    <g id="PathCollection_3">
     <g>
      <use xlink:href="#me11708592d" x="64" y="57.173437" style="fill: #ff0000; stroke: #ff0000"/>
     </g>
    </g>
    <g id="text_18">
     <!-- igb5 -->
     <g transform="translate(82 59.798437)scale(0.1 -0.1)">
      <use xlink:href="#DejaVuSans-69"/>
      <use xlink:href="#DejaVuSans-67" x="27.783203"/>
      <use xlink:href="#DejaVuSans-62" x="91.259766"/>
      <use xlink:href="#DejaVuSans-35" x="154.736328"/>
     </g>
    </g>
    <g id="PathCollection_4">
     <g>
      <use xlink:href="#m4f91d53b4c" x="64" y="71.851562" style="fill: #008000; stroke: #008000"/>
     </g>
    </g>
    <g id="text_19">
     <!-- igb5 + ML -->
     <g transform="translate(82 74.476562)scale(0.1 -0.1)">
      <defs>
       <path id="DejaVuSans-4d" d="M 628 4666 
L 1569 4666 
L 2759 1491 
L 3956 4666 
L 4897 4666 
L 4897 0 
L 4281 0 
L 4281 4097 
L 3078 897 
L 2444 897 
L 1241 4097 
L 1241 0 
L 628 0 
L 628 4666 
z
" transform="scale(0.015625)"/>
       <path id="DejaVuSans-4c" d="M 628 4666 
L 1259 4666 
L 1259 531 
L 3531 531 
L 3531 0 
L 628 0 
L 628 4666 
z
" transform="scale(0.015625)"/>
      </defs>
      <use xlink:href="#DejaVuSans-69"/>
      <use xlink:href="#DejaVuSans-67" x="27.783203"/>
      <use xlink:href="#DejaVuSans-62" x="91.259766"/>
      <use xlink:href="#DejaVuSans-35" x="154.736328"/>
      <use xlink:href="#DejaVuSans-20" x="218.359375"/>
      <use xlink:href="#DejaVuSans-2b" x="250.146484"/>
      <use xlink:href="#DejaVuSans-20" x="333.935547"/>
      <use xlink:href="#DejaVuSans-4d" x="365.722656"/>
      <use xlink:href="#DejaVuSans-4c" x="452.001953"/>
     </g>
    </g>
   </g>
  </g>
 </g>
 <defs>
  <clipPath id="pf3e9d7cd57">
   <rect x="45" y="43.2" width="279" height="277.2"/>
  </clipPath>
 </defs>
</svg>
