<?xml version="1.0" encoding="UTF-8"?>
<svg xmlns="http://www.w3.org/2000/svg" xmlns:xlink="http://www.w3.org/1999/xlink"
     width="4600" height="2600" viewBox="0 0 2300 1300">
<defs>
<g id="d0">
<path d="M-5.0,0 L-5.0,1010.0" fill="none" stroke="#000000" stroke-width="10.0" stroke-opacity="0.75" />
<path d="M-10.0,1005.0 L2000,1005.0" fill="none" stroke="#000000" stroke-width="10.0" stroke-opacity="0.75" />
<path d="M133.33333333333334,1010.0 L133.33333333333334,1030" fill="none" stroke="#000000" stroke-width="10.0" stroke-opacity="0.75" />
<text x="133.33333333333334" y="1090" font-size="75" text-anchor="middle" fill="#000000" fill-opacity="0.75" font-family="Arial">-4</text>
<path d="M400.0,1010.0 L400.0,1030" fill="none" stroke="#000000" stroke-width="10.0" stroke-opacity="0.75" />
<text x="400.0" y="1090" font-size="75" text-anchor="middle" fill="#000000" fill-opacity="0.75" font-family="Arial">-2</text>
<path d="M666.6666666666666,1010.0 L666.6666666666666,1030" fill="none" stroke="#000000" stroke-width="10.0" stroke-opacity="0.75" />
<text x="666.6666666666666" y="1090" font-size="75" text-anchor="middle" fill="#000000" fill-opacity="0.75" font-family="Arial">0</text>
<path d="M933.3333333333334,1010.0 L933.3333333333334,1030" fill="none" stroke="#000000" stroke-width="10.0" stroke-opacity="0.75" />
<text x="933.3333333333334" y="1090" font-size="75" text-anchor="middle" fill="#000000" fill-opacity="0.75" font-family="Arial">2</text>
<path d="M1200.0,1010.0 L1200.0,1030" fill="none" stroke="#000000" stroke-width="10.0" stroke-opacity="0.75" />
<text x="1200.0" y="1090" font-size="75" text-anchor="middle" fill="#000000" fill-opacity="0.75" font-family="Arial">4</text>
<path d="M1466.6666666666665,1010.0 L1466.6666666666665,1030" fill="none" stroke="#000000" stroke-width="10.0" stroke-opacity="0.75" />
<text x="1466.6666666666665" y="1090" font-size="75" text-anchor="middle" fill="#000000" fill-opacity="0.75" font-family="Arial">6</text>
<path d="M1733.3333333333335,1010.0 L1733.3333333333335,1030" fill="none" stroke="#000000" stroke-width="10.0" stroke-opacity="0.75" />
<text x="1733.3333333333335" y="1090" font-size="75" text-anchor="middle" fill="#000000" fill-opacity="0.75" font-family="Arial">8</text>
<path d="M133.33333333333334,0 L133.33333333333334,1000" fill="none" stroke="#1e1e46" stroke-width="7.5" stroke-opacity="0.25" />
<path d="M666.6666666666666,0 L666.6666666666666,1000" fill="none" stroke="#1e1e46" stroke-width="7.5" stroke-opacity="0.25" />
<path d="M1200.0,0 L1200.0,1000" fill="none" stroke="#1e1e46" stroke-width="7.5" stroke-opacity="0.25" />
<path d="M1733.3333333333335,0 L1733.3333333333335,1000" fill="none" stroke="#1e1e46" stroke-width="7.5" stroke-opacity="0.25" />
<path d="M-10.0,500.0 L-30,500.0" ill="none" stroke="#000000" stroke-width="10.0" stroke-opacity="0.75" />
<text x="-40" y="523.0" font-size="75" text-anchor="end" fill="#000000" fill-opacity="0.75" font-family="Arial">5</text>
<path d="M0,500.0 L2000,500.0" fill="none" stroke="#1e1e46" stroke-width="7.5" stroke-opacity="0.25" />
<text x="1000.0" y="-75" font-size="120" text-anchor="middle" fill="#000000" fill-opacity="0.75" font-family="Arial">cha correction distribution</text>
</g>
<g id="d1">
<path d="M663.3499170812603,1000.0 V1000.0 M14.925373134328451,1000 V1000.0 M24.875621890547496,1000 V1000.0 M34.82587064676631,1000 V1000.0 M44.776119402985124,1000 V1000.0 M54.72636815920417,1000 V1000.0 M64.67661691542298,1000 V1000.0 M74.62686567164202,1000 V1000.0 M84.57711442786082,1000 V1000.0 M94.52736318407965,1000 V1000.0 M104.47761194029869,1000 V1000.0 M114.4278606965175,1000 V1000.0 M124.37810945273654,1000 V995.0 H134.32835820895536 V1000.0 M144.27860696517422,1000 V1000.0 M154.22885572139316,1000 V1000.0 M164.17910447761207,1000 V1000.0 M174.12935323383095,1000 V1000.0 M184.0796019900499,1000 V1000.0 M194.02985074626875,1000 V997.5 H203.9800995024877 V997.5 H213.9303482587066 V995.0 H223.88059701492546 V1000.0 M233.8308457711444,1000 V995.0 H243.78109452736328 V997.5 H253.73134328358222 V982.5 H263.6815920398011 V995.0 H273.63184079602 V997.5 H283.5820895522389 V995.0 H293.5323383084579 V990.0 H303.48258706467675 V990.0 H313.4328358208956 V987.5 H323.3830845771145 V992.5 H333.3333333333334 V987.5 H343.2835820895524 V997.5 H353.23383084577125 V987.5 H363.1840796019901 V985.0 H373.134328358209 V982.5 H383.08457711442793 V990.0 H393.0348258706469 V970.0 H402.98507462686575 V982.5 H412.93532338308466 V975.0 H422.8855721393036 V967.5 H432.8358208955225 V972.5 H442.78606965174146 V965.0 H452.7363184079603 V957.5 H462.68656716417917 V967.5 H472.6368159203981 V955.0 H482.58706467661705 V962.5 H492.5373134328359 V952.5 H502.48756218905476 V942.5 H512.4378109452738 V905.0 H522.3880597014926 V900.0 H532.3383084577116 V900.0 H542.2885572139303 V840.0 H552.2388059701494 V882.5 H562.1890547263682 V852.5 H572.1393034825871 V892.5 H582.089552238806 V832.5 H592.0398009950248 V837.5 H601.9900497512439 V775.0 H611.9402985074628 V662.5 H621.8905472636817 V507.5 H631.8407960199006 V337.5 H641.7910447761194 V179.9999999999999 H651.7412935323384 V-107.5 H661.6915422885573 V-277.5 H671.6417910447761 V-105.0 H681.5920398009952 V-122.5 H691.5422885572139 V-87.5 H701.492537313433 V50.0 H711.4427860696518 V132.5000000000001 H721.3930348258707 V80.00000000000011 H731.3432835820896 V285.0 H741.2935323383084 V237.5 H751.2437810945275 V525.0 H761.1940298507463 V517.5 H771.1442786069653 V462.5 H781.0945273631842 V480.0 H791.044776119403 V477.5 H800.995024875622 V525.0 H810.9452736318409 V615.0 H820.8955223880597 V660.0 H830.8457711442787 V735.0 H840.7960199004974 V737.5 H850.7462686567166 V762.5 H860.6965174129353 V722.5 H870.6467661691543 V835.0 H880.5970149253733 V832.5 H890.547263681592 V827.5 H900.4975124378111 V837.5 H910.4477611940299 V887.5 H920.3980099502488 V905.0 H930.3482587064677 V937.5 H940.2985074626865 V960.0 H950.2487562189056 V980.0 H960.1990049751245 V992.5 H970.1492537313432 V992.5 H980.0995024875623 V995.0 H990.049751243781 V1000.0 M1000.0000000000002,1000 V1000.0 M1009.9502487562189,1000 V1000.0 M1019.9004975124377,1000 V1000.0 M1029.8507462686568,1000 V1000.0 M1039.8009950248756,1000 V1000.0 M1049.7512437810947,1000 V1000.0 M1059.7014925373135,1000 V1000.0 M1069.6517412935323,1000 V1000.0 M1079.6019900497513,1000 V1000.0 M1089.55223880597,1000 V1000.0 M1099.5024875621893,1000 V1000.0 M1109.452736318408,1000 V1000.0 M1119.4029850746267,1000 V1000.0 M1129.3532338308457,1000 V1000.0 M1139.3034825870648,1000 V1000.0 M1149.2537313432838,1000 V1000.0 M1159.2039800995024,1000 V1000.0 M1169.1542288557214,1000 V1000.0 M1179.1044776119404,1000 V1000.0 M1189.0547263681592,1000 V1000.0 M1199.0049751243782,1000 V1000.0 M1208.955223880597,1000 V1000.0 M1218.9054726368158,1000 V1000.0 M1228.8557213930349,1000 V1000.0 M1238.8059701492537,1000 V1000.0 M1248.756218905473,1000 V1000.0 M1258.7064676616915,1000 V1000.0 M1268.6567164179103,1000 V1000.0 M1278.6069651741295,1000 V1000.0 M1288.5572139303483,1000 V1000.0 M1298.5074626865674,1000 V1000.0 M1308.457711442786,1000 V1000.0 M1318.407960199005,1000 V1000.0 M1328.358208955224,1000 V1000.0 M1338.3084577114428,1000 V1000.0 M1348.2587064676618,1000 V1000.0 M1358.2089552238806,1000 V1000.0 M1368.1592039800994,1000 V1000.0 M1378.1094527363184,1000 V1000.0 M1388.0597014925372,1000 V1000.0 M1398.0099502487565,1000 V1000.0 M1407.960199004975,1000 V1000.0 M1417.9104477611938,1000 V1000.0 M1427.860696517413,1000 V1000.0 M1437.810945273632,1000 V1000.0 M1447.761194029851,1000 V1000.0 M1457.7114427860695,1000 V1000.0 M1467.6616915422885,1000 V1000.0 M1477.6119402985075,1000 V1000.0 M1487.5621890547263,1000 V1000.0 M1497.5124378109454,1000 V1000.0 M1507.4626865671642,1000 V1000.0 M1517.412935323383,1000 V1000.0 M1527.363184079602,1000 V1000.0 M1537.313432835821,1000 V1000.0 M1547.26368159204,1000 V1000.0 M1557.2139303482586,1000 V1000.0 M1567.1641791044774,1000 V1000.0 M1577.1144278606967,1000 V1000.0 M1587.0646766169154,1000 V1000.0 M1597.0149253731345,1000 V1000.0 M1606.965174129353,1000 V1000.0 M1616.915422885572,1000 V1000.0 M1626.865671641791,1000 V1000.0 M1636.81592039801,1000 V1000.0 M1646.766169154229,1000 V1000.0 M1656.7164179104477,1000 V1000.0 M1666.6666666666665,1000 V1000.0 M1676.6169154228855,1000 V1000.0 M1686.5671641791046,1000 V1000.0 M1696.5174129353236,1000 V1000.0 M1706.4676616915422,1000 V1000.0 M1716.417910447761,1000 V1000.0 M1726.3681592039802,1000 V1000.0 M1736.318407960199,1000 V1000.0 M1746.2686567164178,1000 V1000.0 M1756.2189054726366,1000 V1000.0 M1766.1691542288559,1000 V1000.0 M1776.1194029850747,1000 V1000.0 M1786.0696517412935,1000 V1000.0 M1796.0199004975125,1000 V1000.0 M1805.9701492537313,1000 V1000.0 M1815.9203980099503,1000 V1000.0 M1825.870646766169,1000 V1000.0 M1835.8208955223881,1000 V1000.0 M1845.771144278607,1000 V1000.0 M1855.7213930348257,1000 V1000.0 M1865.6716417910447,1000 V1000.0 M1875.6218905472638,1000 V1000.0 M1885.5721393034826,1000 V1000.0 M1895.5223880597014,1000 V1000.0 M1905.4726368159202,1000 V1000.0 M1915.4228855721392,1000 V1000.0 M1925.3731343283582,1000 V1000.0 M1935.323383084577,1000 V1000.0 M1945.273631840796,1000 V1000.0 M1955.2238805970148,1000 V1000.0 M1965.1741293532336,1000 V1000.0 M1975.1243781094527,1000 V1000.0 M1985.0746268656717,1000 V1000.0 M1995.0248756218905,1000 V1000.0" stroke-width="5.0" stroke-opacity="0.75" stroke="none" fill="#027f00" opacity="0.5" />
<path d="M665.8499170812603,1000.0 V1000.0 M17.425373134328453,1000 V1000.0 M27.375621890547496,1000 V1000.0 M37.32587064676631,1000 V1000.0 M47.276119402985124,1000 V1000.0 M57.22636815920417,1000 V1000.0 M67.17661691542298,1000 V1000.0 M77.12686567164202,1000 V1000.0 M87.07711442786082,1000 V1000.0 M97.02736318407965,1000 V1000.0 M106.97761194029869,1000 V1000.0 M116.9278606965175,1000 V1000.0 M126.87810945273654,1000 V997.5 H131.82835820895536 V1000.0 M146.77860696517422,1000 V1000.0 M156.72885572139316,1000 V1000.0 M166.67910447761207,1000 V1000.0 M176.62935323383095,1000 V1000.0 M186.5796019900499,1000 V1000.0 M196.52985074626875,1000 V1000.0 H206.4800995024877 V1000.0 H216.4303482587066 V997.5 H221.38059701492546 V1000.0 M236.3308457711444,1000 V997.5 H241.28109452736328 V1000.0 H256.2313432835822 V985.0 H261.1815920398011 V997.5 H271.13184079602 V1000.0 H286.0820895522389 V997.5 H296.0323383084579 V992.5 H305.98258706467675 V992.5 H315.9328358208956 V990.0 H320.8830845771145 V995.0 H335.8333333333334 V990.0 H340.7835820895524 V1000.0 H355.73383084577125 V990.0 H365.6840796019901 V987.5 H375.634328358209 V985.0 H380.58457711442793 V992.5 H395.5348258706469 V972.5 H400.48507462686575 V985.0 H415.43532338308466 V977.5 H425.3855721393036 V970.0 H430.3358208955225 V975.0 H445.28606965174146 V967.5 H455.2363184079603 V960.0 H460.18656716417917 V970.0 H475.1368159203981 V957.5 H480.08706467661705 V965.0 H495.0373134328359 V955.0 H504.98756218905476 V945.0 H514.9378109452738 V907.5 H524.8880597014926 V902.5 H534.8383084577116 V902.5 H544.7885572139303 V842.5 H549.7388059701494 V885.0 H564.6890547263682 V855.0 H569.6393034825871 V895.0 H584.589552238806 V835.0 H589.5398009950248 V840.0 H604.4900497512439 V777.5 H614.4402985074628 V665.0 H624.3905472636817 V510.0 H634.3407960199006 V340.0 H644.2910447761194 V182.4999999999999 H654.2412935323384 V-105.0 H664.1915422885573 V-275.0 H669.1417910447761 V-102.5 H684.0920398009952 V-120.0 H689.0422885572139 V-85.0 H698.992537313433 V52.5 H708.9427860696518 V135.0000000000001 H723.8930348258707 V82.50000000000011 H728.8432835820896 V287.5 H743.7935323383084 V240.0 H748.7437810945275 V527.5 H763.6940298507463 V520.0 H773.6442786069653 V465.0 H778.5945273631842 V482.5 H793.544776119403 V480.0 H798.495024875622 V527.5 H808.4452736318409 V617.5 H818.3955223880597 V662.5 H828.3457711442787 V737.5 H838.2960199004974 V740.0 H848.2462686567166 V765.0 H863.1965174129353 V725.0 H868.1467661691543 V837.5 H883.0970149253733 V835.0 H893.047263681592 V830.0 H897.9975124378111 V840.0 H907.9477611940299 V890.0 H917.8980099502488 V907.5 H927.8482587064677 V940.0 H937.7985074626865 V962.5 H947.7487562189056 V982.5 H957.6990049751245 V995.0 H972.6492537313432 V995.0 H977.5995024875623 V997.5 H987.549751243781 V1000.0 M1002.5000000000002,1000 V1000.0 M1012.4502487562189,1000 V1000.0 M1022.4004975124377,1000 V1000.0 M1032.3507462686568,1000 V1000.0 M1042.3009950248756,1000 V1000.0 M1052.2512437810947,1000 V1000.0 M1062.2014925373135,1000 V1000.0 M1072.1517412935323,1000 V1000.0 M1082.1019900497513,1000 V1000.0 M1092.05223880597,1000 V1000.0 M1102.0024875621893,1000 V1000.0 M1111.952736318408,1000 V1000.0 M1121.9029850746267,1000 V1000.0 M1131.8532338308457,1000 V1000.0 M1141.8034825870648,1000 V1000.0 M1151.7537313432838,1000 V1000.0 M1161.7039800995024,1000 V1000.0 M1171.6542288557214,1000 V1000.0 M1181.6044776119404,1000 V1000.0 M1191.5547263681592,1000 V1000.0 M1201.5049751243782,1000 V1000.0 M1211.455223880597,1000 V1000.0 M1221.4054726368158,1000 V1000.0 M1231.3557213930349,1000 V1000.0 M1241.3059701492537,1000 V1000.0 M1251.256218905473,1000 V1000.0 M1261.2064676616915,1000 V1000.0 M1271.1567164179103,1000 V1000.0 M1281.1069651741295,1000 V1000.0 M1291.0572139303483,1000 V1000.0 M1301.0074626865674,1000 V1000.0 M1310.957711442786,1000 V1000.0 M1320.907960199005,1000 V1000.0 M1330.858208955224,1000 V1000.0 M1340.8084577114428,1000 V1000.0 M1350.7587064676618,1000 V1000.0 M1360.7089552238806,1000 V1000.0 M1370.6592039800994,1000 V1000.0 M1380.6094527363184,1000 V1000.0 M1390.5597014925372,1000 V1000.0 M1400.5099502487565,1000 V1000.0 M1410.460199004975,1000 V1000.0 M1420.4104477611938,1000 V1000.0 M1430.360696517413,1000 V1000.0 M1440.310945273632,1000 V1000.0 M1450.261194029851,1000 V1000.0 M1460.2114427860695,1000 V1000.0 M1470.1616915422885,1000 V1000.0 M1480.1119402985075,1000 V1000.0 M1490.0621890547263,1000 V1000.0 M1500.0124378109454,1000 V1000.0 M1509.9626865671642,1000 V1000.0 M1519.912935323383,1000 V1000.0 M1529.863184079602,1000 V1000.0 M1539.813432835821,1000 V1000.0 M1549.76368159204,1000 V1000.0 M1559.7139303482586,1000 V1000.0 M1569.6641791044774,1000 V1000.0 M1579.6144278606967,1000 V1000.0 M1589.5646766169154,1000 V1000.0 M1599.5149253731345,1000 V1000.0 M1609.465174129353,1000 V1000.0 M1619.415422885572,1000 V1000.0 M1629.365671641791,1000 V1000.0 M1639.31592039801,1000 V1000.0 M1649.266169154229,1000 V1000.0 M1659.2164179104477,1000 V1000.0 M1669.1666666666665,1000 V1000.0 M1679.1169154228855,1000 V1000.0 M1689.0671641791046,1000 V1000.0 M1699.0174129353236,1000 V1000.0 M1708.9676616915422,1000 V1000.0 M1718.917910447761,1000 V1000.0 M1728.8681592039802,1000 V1000.0 M1738.818407960199,1000 V1000.0 M1748.7686567164178,1000 V1000.0 M1758.7189054726366,1000 V1000.0 M1768.6691542288559,1000 V1000.0 M1778.6194029850747,1000 V1000.0 M1788.5696517412935,1000 V1000.0 M1798.5199004975125,1000 V1000.0 M1808.4701492537313,1000 V1000.0 M1818.4203980099503,1000 V1000.0 M1828.370646766169,1000 V1000.0 M1838.3208955223881,1000 V1000.0 M1848.271144278607,1000 V1000.0 M1858.2213930348257,1000 V1000.0 M1868.1716417910447,1000 V1000.0 M1878.1218905472638,1000 V1000.0 M1888.0721393034826,1000 V1000.0 M1898.0223880597014,1000 V1000.0 M1907.9726368159202,1000 V1000.0 M1917.9228855721392,1000 V1000.0 M1927.8731343283582,1000 V1000.0 M1937.823383084577,1000 V1000.0 M1947.773631840796,1000 V1000.0 M1957.7238805970148,1000 V1000.0 M1967.6741293532336,1000 V1000.0 M1977.6243781094527,1000 V1000.0 M1987.5746268656717,1000 V1000.0 M1992.5248756218905,1000 V1000.0" stroke-width="5.0" stroke-opacity="0.375" stroke="#144c13" fill="none" />
</g>
<g id="d2">
<use xlink:href="#d0" x="150.0" y="150.0" />
<use xlink:href="#d1" x="150.0" y="150.0" />
</g>
</defs>
<rect x="-5" y="-5" width="2310" height="1310" fill="#ffffff" />
<use xlink:href="#d2" x="0" y="30" />
</svg>