<?xml version="1.0" encoding="UTF-8"?>
<svg xmlns="http://www.w3.org/2000/svg" xmlns:xlink="http://www.w3.org/1999/xlink"
     width="4600" height="2600" viewBox="0 0 2300 1300">
<defs>
<g id="d0">
<path d="M-5.0,0 L-5.0,1010.0" fill="none" stroke="#000000" stroke-width="10.0" stroke-opacity="0.75" />
<path d="M-10.0,1005.0 L2000,1005.0" fill="none" stroke="#000000" stroke-width="10.0" stroke-opacity="0.75" />
<path d="M133.33333333333334,1010.0 L133.33333333333334,1030" fill="none" stroke="#000000" stroke-width="10.0" stroke-opacity="0.75" />
<text x="133.33333333333334" y="1090" font-size="75" text-anchor="middle" fill="#000000" fill-opacity="0.75" font-family="Arial">-4</text>
<path d="M400.0,1010.0 L400.0,1030" fill="none" stroke="#000000" stroke-width="10.0" stroke-opacity="0.75" />
<text x="400.0" y="1090" font-size="75" text-anchor="middle" fill="#000000" fill-opacity="0.75" font-family="Arial">-2</text>
<path d="M666.6666666666666,1010.0 L666.6666666666666,1030" fill="none" stroke="#000000" stroke-width="10.0" stroke-opacity="0.75" />
<text x="666.6666666666666" y="1090" font-size="75" text-anchor="middle" fill="#000000" fill-opacity="0.75" font-family="Arial">0</text>
<path d="M933.3333333333334,1010.0 L933.3333333333334,1030" fill="none" stroke="#000000" stroke-width="10.0" stroke-opacity="0.75" />
<text x="933.3333333333334" y="1090" font-size="75" text-anchor="middle" fill="#000000" fill-opacity="0.75" font-family="Arial">2</text>
<path d="M1200.0,1010.0 L1200.0,1030" fill="none" stroke="#000000" stroke-width="10.0" stroke-opacity="0.75" />
<text x="1200.0" y="1090" font-size="75" text-anchor="middle" fill="#000000" fill-opacity="0.75" font-family="Arial">4</text>
<path d="M1466.6666666666665,1010.0 L1466.6666666666665,1030" fill="none" stroke="#000000" stroke-width="10.0" stroke-opacity="0.75" />
<text x="1466.6666666666665" y="1090" font-size="75" text-anchor="middle" fill="#000000" fill-opacity="0.75" font-family="Arial">6</text>
<path d="M1733.3333333333335,1010.0 L1733.3333333333335,1030" fill="none" stroke="#000000" stroke-width="10.0" stroke-opacity="0.75" />
<text x="1733.3333333333335" y="1090" font-size="75" text-anchor="middle" fill="#000000" fill-opacity="0.75" font-family="Arial">8</text>
<path d="M133.33333333333334,0 L133.33333333333334,1000" fill="none" stroke="#1e1e46" stroke-width="7.5" stroke-opacity="0.25" />
<path d="M666.6666666666666,0 L666.6666666666666,1000" fill="none" stroke="#1e1e46" stroke-width="7.5" stroke-opacity="0.25" />
<path d="M1200.0,0 L1200.0,1000" fill="none" stroke="#1e1e46" stroke-width="7.5" stroke-opacity="0.25" />
<path d="M1733.3333333333335,0 L1733.3333333333335,1000" fill="none" stroke="#1e1e46" stroke-width="7.5" stroke-opacity="0.25" />
<path d="M-10.0,500.0 L-30,500.0" ill="none" stroke="#000000" stroke-width="10.0" stroke-opacity="0.75" />
<text x="-40" y="523.0" font-size="75" text-anchor="end" fill="#000000" fill-opacity="0.75" font-family="Arial">5</text>
<path d="M0,500.0 L2000,500.0" fill="none" stroke="#1e1e46" stroke-width="7.5" stroke-opacity="0.25" />
<text x="1000.0" y="-75" font-size="120" text-anchor="middle" fill="#000000" fill-opacity="0.75" font-family="Arial">gbnsr6 correction distribution</text>
</g>
<g id="d1">
<path d="M663.3499170812603,1000.0 V1000.0 M14.925373134328451,1000 V1000.0 M24.875621890547496,1000 V1000.0 M34.82587064676631,1000 V1000.0 M44.776119402985124,1000 V1000.0 M54.72636815920417,1000 V1000.0 M64.67661691542298,1000 V1000.0 M74.62686567164202,1000 V1000.0 M84.57711442786082,1000 V1000.0 M94.52736318407965,1000 V1000.0 M104.47761194029869,1000 V1000.0 M114.4278606965175,1000 V1000.0 M124.37810945273654,1000 V1000.0 M134.32835820895536,1000 V1000.0 M144.27860696517422,1000 V1000.0 M154.22885572139316,1000 V1000.0 M164.17910447761207,1000 V1000.0 M174.12935323383095,1000 V1000.0 M184.0796019900499,1000 V1000.0 M194.02985074626875,1000 V1000.0 M203.9800995024877,1000 V1000.0 M213.9303482587066,1000 V1000.0 M223.88059701492546,1000 V1000.0 M233.8308457711444,1000 V1000.0 M243.78109452736328,1000 V1000.0 M253.73134328358222,1000 V1000.0 M263.6815920398011,1000 V1000.0 M273.63184079602,1000 V1000.0 M283.5820895522389,1000 V1000.0 M293.5323383084579,1000 V1000.0 M303.48258706467675,1000 V1000.0 M313.4328358208956,1000 V1000.0 M323.3830845771145,1000 V1000.0 M333.3333333333334,1000 V1000.0 M343.2835820895524,1000 V1000.0 M353.23383084577125,1000 V1000.0 M363.1840796019901,1000 V997.5 H373.134328358209 V1000.0 M383.08457711442793,1000 V1000.0 M393.0348258706469,1000 V1000.0 M402.98507462686575,1000 V1000.0 M412.93532338308466,1000 V995.0 H422.8855721393036 V992.5 H432.8358208955225 V1000.0 M442.78606965174146,1000 V997.5 H452.7363184079603 V995.0 H462.68656716417917 V992.5 H472.6368159203981 V987.5 H482.58706467661705 V990.0 H492.5373134328359 V972.5 H502.48756218905476 V982.5 H512.4378109452738 V972.5 H522.3880597014926 V987.5 H532.3383084577116 V972.5 H542.2885572139303 V962.5 H552.2388059701494 V920.0 H562.1890547263682 V905.0 H572.1393034825871 V880.0 H582.089552238806 V780.0 H592.0398009950248 V722.5 H601.9900497512439 V632.5 H611.9402985074628 V494.9999999999999 H621.8905472636817 V432.5 H631.8407960199006 V187.5 H641.7910447761194 V112.5 H651.7412935323384 V-85.0 H661.6915422885573 V-187.5 H671.6417910447761 V-260.0 H681.5920398009952 V-400.0000000000002 H691.5422885572139 V-270.0 H701.492537313433 V-65.0 H711.4427860696518 V100.0 H721.3930348258707 V357.5 H731.3432835820896 V407.5 H741.2935323383084 V440.0 H751.2437810945275 V462.5 H761.1940298507463 V450.0 H771.1442786069653 V390.0 H781.0945273631842 V550.0 H791.044776119403 V592.5 H800.995024875622 V667.5 H810.9452736318409 V707.5 H820.8955223880597 V682.5 H830.8457711442787 V775.0 H840.7960199004974 V865.0 H850.7462686567166 V865.0 H860.6965174129353 V855.0 H870.6467661691543 V890.0 H880.5970149253733 V895.0 H890.547263681592 V882.5 H900.4975124378111 V895.0 H910.4477611940299 V902.5 H920.3980099502488 V940.0 H930.3482587064677 V907.5 H940.2985074626865 V922.5 H950.2487562189056 V925.0 H960.1990049751245 V920.0 H970.1492537313432 V937.5 H980.0995024875623 V935.0 H990.049751243781 V950.0 H1000.0000000000002 V972.5 H1009.9502487562189 V967.5 H1019.9004975124377 V965.0 H1029.8507462686568 V975.0 H1039.8009950248756 V977.5 H1049.7512437810947 V970.0 H1059.7014925373135 V952.5 H1069.6517412935323 V952.5 H1079.6019900497513 V935.0 H1089.55223880597 V932.5 H1099.5024875621893 V952.5 H1109.452736318408 V962.5 H1119.4029850746267 V932.5 H1129.3532338308457 V940.0 H1139.3034825870648 V952.5 H1149.2537313432838 V992.5 H1159.2039800995024 V1000.0 M1169.1542288557214,1000 V1000.0 M1179.1044776119404,1000 V1000.0 M1189.0547263681592,1000 V1000.0 M1199.0049751243782,1000 V1000.0 M1208.955223880597,1000 V1000.0 M1218.9054726368158,1000 V1000.0 M1228.8557213930349,1000 V1000.0 M1238.8059701492537,1000 V1000.0 M1248.756218905473,1000 V1000.0 M1258.7064676616915,1000 V1000.0 M1268.6567164179103,1000 V1000.0 M1278.6069651741295,1000 V1000.0 M1288.5572139303483,1000 V1000.0 M1298.5074626865674,1000 V1000.0 M1308.457711442786,1000 V1000.0 M1318.407960199005,1000 V1000.0 M1328.358208955224,1000 V1000.0 M1338.3084577114428,1000 V1000.0 M1348.2587064676618,1000 V1000.0 M1358.2089552238806,1000 V1000.0 M1368.1592039800994,1000 V1000.0 M1378.1094527363184,1000 V1000.0 M1388.0597014925372,1000 V1000.0 M1398.0099502487565,1000 V1000.0 M1407.960199004975,1000 V1000.0 M1417.9104477611938,1000 V1000.0 M1427.860696517413,1000 V1000.0 M1437.810945273632,1000 V1000.0 M1447.761194029851,1000 V1000.0 M1457.7114427860695,1000 V1000.0 M1467.6616915422885,1000 V1000.0 M1477.6119402985075,1000 V1000.0 M1487.5621890547263,1000 V1000.0 M1497.5124378109454,1000 V1000.0 M1507.4626865671642,1000 V1000.0 M1517.412935323383,1000 V1000.0 M1527.363184079602,1000 V1000.0 M1537.313432835821,1000 V1000.0 M1547.26368159204,1000 V1000.0 M1557.2139303482586,1000 V1000.0 M1567.1641791044774,1000 V1000.0 M1577.1144278606967,1000 V1000.0 M1587.0646766169154,1000 V1000.0 M1597.0149253731345,1000 V1000.0 M1606.965174129353,1000 V1000.0 M1616.915422885572,1000 V1000.0 M1626.865671641791,1000 V1000.0 M1636.81592039801,1000 V1000.0 M1646.766169154229,1000 V1000.0 M1656.7164179104477,1000 V1000.0 M1666.6666666666665,1000 V1000.0 M1676.6169154228855,1000 V1000.0 M1686.5671641791046,1000 V1000.0 M1696.5174129353236,1000 V1000.0 M1706.4676616915422,1000 V1000.0 M1716.417910447761,1000 V1000.0 M1726.3681592039802,1000 V1000.0 M1736.318407960199,1000 V1000.0 M1746.2686567164178,1000 V1000.0 M1756.2189054726366,1000 V1000.0 M1766.1691542288559,1000 V1000.0 M1776.1194029850747,1000 V1000.0 M1786.0696517412935,1000 V1000.0 M1796.0199004975125,1000 V1000.0 M1805.9701492537313,1000 V1000.0 M1815.9203980099503,1000 V1000.0 M1825.870646766169,1000 V1000.0 M1835.8208955223881,1000 V1000.0 M1845.771144278607,1000 V1000.0 M1855.7213930348257,1000 V1000.0 M1865.6716417910447,1000 V1000.0 M1875.6218905472638,1000 V1000.0 M1885.5721393034826,1000 V1000.0 M1895.5223880597014,1000 V1000.0 M1905.4726368159202,1000 V1000.0 M1915.4228855721392,1000 V1000.0 M1925.3731343283582,1000 V1000.0 M1935.323383084577,1000 V1000.0 M1945.273631840796,1000 V1000.0 M1955.2238805970148,1000 V1000.0 M1965.1741293532336,1000 V1000.0 M1975.1243781094527,1000 V1000.0 M1985.0746268656717,1000 V1000.0 M1995.0248756218905,1000 V1000.0" stroke-width="5.0" stroke-opacity="0.75" stroke="none" fill="#027f00" opacity="0.5" />
<path d="M665.8499170812603,1000.0 V1000.0 M17.425373134328453,1000 V1000.0 M27.375621890547496,1000 V1000.0 M37.32587064676631,1000 V1000.0 M47.276119402985124,1000 V1000.0 M57.22636815920417,1000 V1000.0 M67.17661691542298,1000 V1000.0 M77.12686567164202,1000 V1000.0 M87.07711442786082,1000 V1000.0 M97.02736318407965,1000 V1000.0 M106.97761194029869,1000 V1000.0 M116.9278606965175,1000 V1000.0 M126.87810945273654,1000 V1000.0 M136.82835820895536,1000 V1000.0 M146.77860696517422,1000 V1000.0 M156.72885572139316,1000 V1000.0 M166.67910447761207,1000 V1000.0 M176.62935323383095,1000 V1000.0 M186.5796019900499,1000 V1000.0 M196.52985074626875,1000 V1000.0 M206.4800995024877,1000 V1000.0 M216.4303482587066,1000 V1000.0 M226.38059701492546,1000 V1000.0 M236.3308457711444,1000 V1000.0 M246.28109452736328,1000 V1000.0 M256.2313432835822,1000 V1000.0 M266.1815920398011,1000 V1000.0 M276.13184079602,1000 V1000.0 M286.0820895522389,1000 V1000.0 M296.0323383084579,1000 V1000.0 M305.98258706467675,1000 V1000.0 M315.9328358208956,1000 V1000.0 M325.8830845771145,1000 V1000.0 M335.8333333333334,1000 V1000.0 M345.7835820895524,1000 V1000.0 M355.73383084577125,1000 V1000.0 M365.6840796019901,1000 V1000.0 H370.634328358209 V1000.0 M385.58457711442793,1000 V1000.0 M395.5348258706469,1000 V1000.0 M405.48507462686575,1000 V1000.0 M415.43532338308466,1000 V997.5 H425.3855721393036 V995.0 H430.3358208955225 V1000.0 M445.28606965174146,1000 V1000.0 H455.2363184079603 V997.5 H465.18656716417917 V995.0 H475.1368159203981 V990.0 H480.08706467661705 V992.5 H495.0373134328359 V975.0 H499.98756218905476 V985.0 H514.9378109452738 V975.0 H519.8880597014926 V990.0 H534.8383084577116 V975.0 H544.7885572139303 V965.0 H554.7388059701494 V922.5 H564.6890547263682 V907.5 H574.6393034825871 V882.5 H584.589552238806 V782.5 H594.5398009950248 V725.0 H604.4900497512439 V635.0 H614.4402985074628 V497.4999999999999 H624.3905472636817 V435.0 H634.3407960199006 V190.0 H644.2910447761194 V115.0 H654.2412935323384 V-82.5 H664.1915422885573 V-185.0 H674.1417910447761 V-257.5 H684.0920398009952 V-397.5000000000002 H689.0422885572139 V-267.5 H698.992537313433 V-62.5 H708.9427860696518 V102.5 H718.8930348258707 V360.0 H728.8432835820896 V410.0 H738.7935323383084 V442.5 H748.7437810945275 V465.0 H763.6940298507463 V452.5 H773.6442786069653 V392.5 H778.5945273631842 V552.5 H788.544776119403 V595.0 H798.495024875622 V670.0 H808.4452736318409 V710.0 H823.3955223880597 V685.0 H828.3457711442787 V777.5 H838.2960199004974 V867.5 H853.2462686567166 V867.5 H863.1965174129353 V857.5 H868.1467661691543 V892.5 H878.0970149253733 V897.5 H893.047263681592 V885.0 H897.9975124378111 V897.5 H907.9477611940299 V905.0 H917.8980099502488 V942.5 H932.8482587064677 V910.0 H937.7985074626865 V925.0 H947.7487562189056 V927.5 H962.6990049751245 V922.5 H967.6492537313432 V940.0 H982.5995024875623 V937.5 H987.549751243781 V952.5 H997.5000000000002 V975.0 H1012.4502487562189 V970.0 H1022.4004975124377 V967.5 H1027.3507462686568 V977.5 H1037.3009950248756 V980.0 H1052.2512437810947 V972.5 H1062.2014925373135 V955.0 H1072.1517412935323 V955.0 H1082.1019900497513 V937.5 H1092.05223880597 V935.0 H1097.0024875621893 V955.0 H1106.952736318408 V965.0 H1121.9029850746267 V935.0 H1126.8532338308457 V942.5 H1136.8034825870648 V955.0 H1146.7537313432838 V995.0 H1156.7039800995024 V1000.0 M1171.6542288557214,1000 V1000.0 M1181.6044776119404,1000 V1000.0 M1191.5547263681592,1000 V1000.0 M1201.5049751243782,1000 V1000.0 M1211.455223880597,1000 V1000.0 M1221.4054726368158,1000 V1000.0 M1231.3557213930349,1000 V1000.0 M1241.3059701492537,1000 V1000.0 M1251.256218905473,1000 V1000.0 M1261.2064676616915,1000 V1000.0 M1271.1567164179103,1000 V1000.0 M1281.1069651741295,1000 V1000.0 M1291.0572139303483,1000 V1000.0 M1301.0074626865674,1000 V1000.0 M1310.957711442786,1000 V1000.0 M1320.907960199005,1000 V1000.0 M1330.858208955224,1000 V1000.0 M1340.8084577114428,1000 V1000.0 M1350.7587064676618,1000 V1000.0 M1360.7089552238806,1000 V1000.0 M1370.6592039800994,1000 V1000.0 M1380.6094527363184,1000 V1000.0 M1390.5597014925372,1000 V1000.0 M1400.5099502487565,1000 V1000.0 M1410.460199004975,1000 V1000.0 M1420.4104477611938,1000 V1000.0 M1430.360696517413,1000 V1000.0 M1440.310945273632,1000 V1000.0 M1450.261194029851,1000 V1000.0 M1460.2114427860695,1000 V1000.0 M1470.1616915422885,1000 V1000.0 M1480.1119402985075,1000 V1000.0 M1490.0621890547263,1000 V1000.0 M1500.0124378109454,1000 V1000.0 M1509.9626865671642,1000 V1000.0 M1519.912935323383,1000 V1000.0 M1529.863184079602,1000 V1000.0 M1539.813432835821,1000 V1000.0 M1549.76368159204,1000 V1000.0 M1559.7139303482586,1000 V1000.0 M1569.6641791044774,1000 V1000.0 M1579.6144278606967,1000 V1000.0 M1589.5646766169154,1000 V1000.0 M1599.5149253731345,1000 V1000.0 M1609.465174129353,1000 V1000.0 M1619.415422885572,1000 V1000.0 M1629.365671641791,1000 V1000.0 M1639.31592039801,1000 V1000.0 M1649.266169154229,1000 V1000.0 M1659.2164179104477,1000 V1000.0 M1669.1666666666665,1000 V1000.0 M1679.1169154228855,1000 V1000.0 M1689.0671641791046,1000 V1000.0 M1699.0174129353236,1000 V1000.0 M1708.9676616915422,1000 V1000.0 M1718.917910447761,1000 V1000.0 M1728.8681592039802,1000 V1000.0 M1738.818407960199,1000 V1000.0 M1748.7686567164178,1000 V1000.0 M1758.7189054726366,1000 V1000.0 M1768.6691542288559,1000 V1000.0 M1778.6194029850747,1000 V1000.0 M1788.5696517412935,1000 V1000.0 M1798.5199004975125,1000 V1000.0 M1808.4701492537313,1000 V1000.0 M1818.4203980099503,1000 V1000.0 M1828.370646766169,1000 V1000.0 M1838.3208955223881,1000 V1000.0 M1848.271144278607,1000 V1000.0 M1858.2213930348257,1000 V1000.0 M1868.1716417910447,1000 V1000.0 M1878.1218905472638,1000 V1000.0 M1888.0721393034826,1000 V1000.0 M1898.0223880597014,1000 V1000.0 M1907.9726368159202,1000 V1000.0 M1917.9228855721392,1000 V1000.0 M1927.8731343283582,1000 V1000.0 M1937.823383084577,1000 V1000.0 M1947.773631840796,1000 V1000.0 M1957.7238805970148,1000 V1000.0 M1967.6741293532336,1000 V1000.0 M1977.6243781094527,1000 V1000.0 M1987.5746268656717,1000 V1000.0 M1992.5248756218905,1000 V1000.0" stroke-width="5.0" stroke-opacity="0.375" stroke="#144c13" fill="none" />
</g>
<g id="d2">
<use xlink:href="#d0" x="150.0" y="150.0" />
<use xlink:href="#d1" x="150.0" y="150.0" />
</g>
</defs>
<rect x="-5" y="-5" width="2310" height="1310" fill="#ffffff" />
<use xlink:href="#d2" x="0" y="30" />
</svg>