<?xml version="1.0" encoding="UTF-8"?>
<svg xmlns="http://www.w3.org/2000/svg" xmlns:xlink="http://www.w3.org/1999/xlink"
     width="4600" height="2600" viewBox="0 0 2300 1300">
<defs>
<g id="d0">
<path d="M-5.0,0 L-5.0,1010.0" fill="none" stroke="#000000" stroke-width="10.0" stroke-opacity="0.75" />
<path d="M-10.0,1005.0 L2000,1005.0" fill="none" stroke="#000000" stroke-width="10.0" stroke-opacity="0.75" />
<path d="M133.33333333333334,1010.0 L133.33333333333334,1030" fill="none" stroke="#000000" stroke-width="10.0" stroke-opacity="0.75" />
<text x="133.33333333333334" y="1110" font-size="80" text-anchor="middle" fill="#000000" fill-opacity="0.75" font-family="Arial">-4</text>
<path d="M400.0,1010.0 L400.0,1030" fill="none" stroke="#000000" stroke-width="10.0" stroke-opacity="0.75" />
<text x="400.0" y="1110" font-size="80" text-anchor="middle" fill="#000000" fill-opacity="0.75" font-family="Arial">-2</text>
<path d="M666.6666666666666,1010.0 L666.6666666666666,1030" fill="none" stroke="#000000" stroke-width="10.0" stroke-opacity="0.75" />
<text x="666.6666666666666" y="1110" font-size="80" text-anchor="middle" fill="#000000" fill-opacity="0.75" font-family="Arial">0</text>
<path d="M933.3333333333334,1010.0 L933.3333333333334,1030" fill="none" stroke="#000000" stroke-width="10.0" stroke-opacity="0.75" />
<text x="933.3333333333334" y="1110" font-size="80" text-anchor="middle" fill="#000000" fill-opacity="0.75" font-family="Arial">2</text>
<path d="M1200.0,1010.0 L1200.0,1030" fill="none" stroke="#000000" stroke-width="10.0" stroke-opacity="0.75" />
<text x="1200.0" y="1110" font-size="80" text-anchor="middle" fill="#000000" fill-opacity="0.75" font-family="Arial">4</text>
<path d="M1466.6666666666665,1010.0 L1466.6666666666665,1030" fill="none" stroke="#000000" stroke-width="10.0" stroke-opacity="0.75" />
<text x="1466.6666666666665" y="1110" font-size="80" text-anchor="middle" fill="#000000" fill-opacity="0.75" font-family="Arial">6</text>
<path d="M1733.3333333333335,1010.0 L1733.3333333333335,1030" fill="none" stroke="#000000" stroke-width="10.0" stroke-opacity="0.75" />
<text x="1733.3333333333335" y="1110" font-size="80" text-anchor="middle" fill="#000000" fill-opacity="0.75" font-family="Arial">8</text>
<path d="M133.33333333333334,0 L133.33333333333334,1000" fill="none" stroke="#1e1e46" stroke-width="7.5" stroke-opacity="0.25" />
<path d="M666.6666666666666,0 L666.6666666666666,1000" fill="none" stroke="#1e1e46" stroke-width="7.5" stroke-opacity="0.25" />
<path d="M1200.0,0 L1200.0,1000" fill="none" stroke="#1e1e46" stroke-width="7.5" stroke-opacity="0.25" />
<path d="M1733.3333333333335,0 L1733.3333333333335,1000" fill="none" stroke="#1e1e46" stroke-width="7.5" stroke-opacity="0.25" />
<path d="M-10.0,333.33333333333337 L-30,333.33333333333337" ill="none" stroke="#000000" stroke-width="10.0" stroke-opacity="0.75" />
<text x="-40" y="356.33333333333337" font-size="80" text-anchor="end" fill="#000000" fill-opacity="0.75" font-family="Arial">10</text>
<path d="M0,333.33333333333337 L2000,333.33333333333337" fill="none" stroke="#1e1e46" stroke-width="7.5" stroke-opacity="0.25" />
<text x="1000.0" y="-75" font-size="120" text-anchor="middle" fill="#000000" fill-opacity="0.75" font-family="Arial">IGB5 improvement distribution</text>
</g>
<g id="d1">
<path d="M645.1612903225806,1000.0 V1000.0 M96.77419354838709,1000 V1000.0 M161.29032258064515,1000 V1000.0 M225.80645161290323,1000 V1000.0 M290.32258064516134,1000 V1000.0 M354.8387096774194,1000 V1000.0 M419.35483870967744,1000 V1000.0 M483.8709677419355,1000 V1000.0 M548.3870967741935,1000 V850.0 H612.9032258064516 V675.0 H677.4193548387096 V750.0 H741.9354838709678 V475.0 H806.4516129032257 V800.0 H870.9677419354839 V900.0 H935.4838709677418 V900.0 H1000.0 V875.0 H1064.516129032258 V900.0 H1129.0322580645163 V950.0 H1193.5483870967741 V950.0 H1258.0645161290322 V975.0 H1322.5806451612902 V1000.0 M1387.0967741935485,1000 V1000.0 M1451.6129032258066,1000 V1000.0 M1516.1290322580644,1000 V1000.0 M1580.6451612903224,1000 V1000.0 M1645.1612903225807,1000 V1000.0 M1709.6774193548388,1000 V1000.0 M1774.1935483870968,1000 V1000.0 M1838.7096774193546,1000 V1000.0 M1903.225806451613,1000 V1000.0 M1967.741935483871,1000 V1000.0" stroke-width="7.5" stroke-opacity="0.75" stroke="none" fill="#027f00" opacity="0.85" />
<path d="M648.9112903225806,1000.0 V1000.0 M100.52419354838709,1000 V1000.0 M165.04032258064515,1000 V1000.0 M229.55645161290323,1000 V1000.0 M294.07258064516134,1000 V1000.0 M358.5887096774194,1000 V1000.0 M423.10483870967744,1000 V1000.0 M487.6209677419355,1000 V1000.0 M552.1370967741935,1000 V853.75 H616.6532258064516 V678.75 H673.6693548387096 V753.75 H745.6854838709678 V478.75 H802.7016129032257 V803.75 H867.2177419354839 V903.75 H939.2338709677418 V903.75 H1003.75 V878.75 H1060.766129032258 V903.75 H1125.2822580645163 V953.75 H1197.2983870967741 V953.75 H1254.3145161290322 V978.75 H1318.8306451612902 V1000.0 M1390.8467741935485,1000 V1000.0 M1455.3629032258066,1000 V1000.0 M1519.8790322580644,1000 V1000.0 M1584.3951612903224,1000 V1000.0 M1648.9112903225807,1000 V1000.0 M1713.4274193548388,1000 V1000.0 M1777.9435483870968,1000 V1000.0 M1842.4596774193546,1000 V1000.0 M1906.975806451613,1000 V1000.0 M1963.991935483871,1000 V1000.0" stroke-width="7.5" stroke-opacity="0.6375" stroke="#144c13" fill="none" />
</g>
<g id="d2">
<use xlink:href="#d0" x="150.0" y="150.0" />
<use xlink:href="#d1" x="150.0" y="150.0" />
<path d="M795.1612903225806,150.0 L795.1612903225806,1150.0" stroke-width="20" stroke-opacity="0.5" stroke="#000000" />
<text x="1650.0" y="360.0" font-size="100" fill="#144c13" opacity="0.75" text-anchor="end" font-family="Arial">mean = 1.04</text>
<text x="1650.0" y="460.0" font-size="100" fill="#144c13" opacity="0.75" text-anchor="end" font-family="Arial">std = 1.28</text>
</g>
</defs>
<rect x="-5" y="-5" width="2310" height="1310" fill="#ffffff" />
<use xlink:href="#d2" x="0" y="30" />
</svg>