<?xml version="1.0" encoding="UTF-8"?>
<svg xmlns="http://www.w3.org/2000/svg" xmlns:xlink="http://www.w3.org/1999/xlink"
     width="4600" height="2600" viewBox="0 0 2300 1300">
<defs>
<g id="d0">
<path d="M-5.0,0 L-5.0,1010.0" fill="none" stroke="#000000" stroke-width="10.0" stroke-opacity="0.75" />
<path d="M-10.0,1005.0 L2000,1005.0" fill="none" stroke="#000000" stroke-width="10.0" stroke-opacity="0.75" />
<path d="M133.33333333333334,1010.0 L133.33333333333334,1030" fill="none" stroke="#000000" stroke-width="10.0" stroke-opacity="0.75" />
<text x="133.33333333333334" y="1090" font-size="75" text-anchor="middle" fill="#000000" fill-opacity="0.75" font-family="Arial">-4</text>
<path d="M400.0,1010.0 L400.0,1030" fill="none" stroke="#000000" stroke-width="10.0" stroke-opacity="0.75" />
<text x="400.0" y="1090" font-size="75" text-anchor="middle" fill="#000000" fill-opacity="0.75" font-family="Arial">-2</text>
<path d="M666.6666666666666,1010.0 L666.6666666666666,1030" fill="none" stroke="#000000" stroke-width="10.0" stroke-opacity="0.75" />
<text x="666.6666666666666" y="1090" font-size="75" text-anchor="middle" fill="#000000" fill-opacity="0.75" font-family="Arial">0</text>
<path d="M933.3333333333334,1010.0 L933.3333333333334,1030" fill="none" stroke="#000000" stroke-width="10.0" stroke-opacity="0.75" />
<text x="933.3333333333334" y="1090" font-size="75" text-anchor="middle" fill="#000000" fill-opacity="0.75" font-family="Arial">2</text>
<path d="M1200.0,1010.0 L1200.0,1030" fill="none" stroke="#000000" stroke-width="10.0" stroke-opacity="0.75" />
<text x="1200.0" y="1090" font-size="75" text-anchor="middle" fill="#000000" fill-opacity="0.75" font-family="Arial">4</text>
<path d="M1466.6666666666665,1010.0 L1466.6666666666665,1030" fill="none" stroke="#000000" stroke-width="10.0" stroke-opacity="0.75" />
<text x="1466.6666666666665" y="1090" font-size="75" text-anchor="middle" fill="#000000" fill-opacity="0.75" font-family="Arial">6</text>
<path d="M1733.3333333333335,1010.0 L1733.3333333333335,1030" fill="none" stroke="#000000" stroke-width="10.0" stroke-opacity="0.75" />
<text x="1733.3333333333335" y="1090" font-size="75" text-anchor="middle" fill="#000000" fill-opacity="0.75" font-family="Arial">8</text>
<path d="M133.33333333333334,0 L133.33333333333334,1000" fill="none" stroke="#1e1e46" stroke-width="7.5" stroke-opacity="0.25" />
<path d="M666.6666666666666,0 L666.6666666666666,1000" fill="none" stroke="#1e1e46" stroke-width="7.5" stroke-opacity="0.25" />
<path d="M1200.0,0 L1200.0,1000" fill="none" stroke="#1e1e46" stroke-width="7.5" stroke-opacity="0.25" />
<path d="M1733.3333333333335,0 L1733.3333333333335,1000" fill="none" stroke="#1e1e46" stroke-width="7.5" stroke-opacity="0.25" />
<path d="M-10.0,500.0 L-30,500.0" ill="none" stroke="#000000" stroke-width="10.0" stroke-opacity="0.75" />
<text x="-40" y="523.0" font-size="75" text-anchor="end" fill="#000000" fill-opacity="0.75" font-family="Arial">5</text>
<path d="M0,500.0 L2000,500.0" fill="none" stroke="#1e1e46" stroke-width="7.5" stroke-opacity="0.25" />
<text x="1000.0" y="-75" font-size="120" text-anchor="middle" fill="#000000" fill-opacity="0.75" font-family="Arial">igb5 correction distribution</text>
</g>
<g id="d1">
<path d="M663.3499170812603,1000.0 V1000.0 M14.925373134328451,1000 V1000.0 M24.875621890547496,1000 V1000.0 M34.82587064676631,1000 V1000.0 M44.776119402985124,1000 V1000.0 M54.72636815920417,1000 V1000.0 M64.67661691542298,1000 V1000.0 M74.62686567164202,1000 V1000.0 M84.57711442786082,1000 V1000.0 M94.52736318407965,1000 V1000.0 M104.47761194029869,1000 V1000.0 M114.4278606965175,1000 V1000.0 M124.37810945273654,1000 V1000.0 M134.32835820895536,1000 V1000.0 M144.27860696517422,1000 V1000.0 M154.22885572139316,1000 V1000.0 M164.17910447761207,1000 V1000.0 M174.12935323383095,1000 V1000.0 M184.0796019900499,1000 V1000.0 M194.02985074626875,1000 V1000.0 M203.9800995024877,1000 V1000.0 M213.9303482587066,1000 V1000.0 M223.88059701492546,1000 V997.5 H233.8308457711444 V1000.0 M243.78109452736328,1000 V1000.0 M253.73134328358222,1000 V1000.0 M263.6815920398011,1000 V1000.0 M273.63184079602,1000 V1000.0 M283.5820895522389,1000 V1000.0 M293.5323383084579,1000 V997.5 H303.48258706467675 V1000.0 M313.4328358208956,1000 V1000.0 M323.3830845771145,1000 V1000.0 M333.3333333333334,1000 V1000.0 M343.2835820895524,1000 V997.5 H353.23383084577125 V1000.0 M363.1840796019901,1000 V995.0 H373.134328358209 V995.0 H383.08457711442793 V992.5 H393.0348258706469 V997.5 H402.98507462686575 V995.0 H412.93532338308466 V990.0 H422.8855721393036 V992.5 H432.8358208955225 V990.0 H442.78606965174146 V992.5 H452.7363184079603 V990.0 H462.68656716417917 V987.5 H472.6368159203981 V982.5 H482.58706467661705 V990.0 H492.5373134328359 V975.0 H502.48756218905476 V980.0 H512.4378109452738 V982.5 H522.3880597014926 V970.0 H532.3383084577116 V967.5 H542.2885572139303 V917.5 H552.2388059701494 V905.0 H562.1890547263682 V875.0 H572.1393034825871 V872.5 H582.089552238806 V837.5 H592.0398009950248 V850.0 H601.9900497512439 V835.0 H611.9402985074628 V797.5 H621.8905472636817 V632.5 H631.8407960199006 V627.5 H641.7910447761194 V575.0 H651.7412935323384 V622.5 H661.6915422885573 V457.5 H671.6417910447761 V497.49999999999994 H681.5920398009952 V417.5 H691.5422885572139 V425.0 H701.492537313433 V500.0 H711.4427860696518 V467.5 H721.3930348258707 V485.0000000000001 H731.3432835820896 V452.5 H741.2935323383084 V355.0 H751.2437810945275 V400.0 H761.1940298507463 V350.0 H771.1442786069653 V360.0 H781.0945273631842 V405.0 H791.044776119403 V342.5 H800.995024875622 V385.0 H810.9452736318409 V520.0 H820.8955223880597 V550.0 H830.8457711442787 V517.5 H840.7960199004974 V460.0 H850.7462686567166 V655.0 H860.6965174129353 V602.5 H870.6467661691543 V660.0 H880.5970149253733 V670.0 H890.547263681592 V717.5 H900.4975124378111 V732.5 H910.4477611940299 V810.0 H920.3980099502488 V797.5 H930.3482587064677 V820.0 H940.2985074626865 V830.0 H950.2487562189056 V815.0 H960.1990049751245 V870.0 H970.1492537313432 V825.0 H980.0995024875623 V787.5 H990.049751243781 V825.0 H1000.0000000000002 V795.0 H1009.9502487562189 V782.5 H1019.9004975124377 V837.5 H1029.8507462686568 V872.5 H1039.8009950248756 V895.0 H1049.7512437810947 V887.5 H1059.7014925373135 V890.0 H1069.6517412935323 V887.5 H1079.6019900497513 V892.5 H1089.55223880597 V910.0 H1099.5024875621893 V912.5 H1109.452736318408 V892.5 H1119.4029850746267 V922.5 H1129.3532338308457 V945.0 H1139.3034825870648 V897.5 H1149.2537313432838 V912.5 H1159.2039800995024 V905.0 H1169.1542288557214 V902.5 H1179.1044776119404 V937.5 H1189.0547263681592 V935.0 H1199.0049751243782 V917.5 H1208.955223880597 V932.5 H1218.9054726368158 V967.5 H1228.8557213930349 V962.5 H1238.8059701492537 V975.0 H1248.756218905473 V957.5 H1258.7064676616915 V987.5 H1268.6567164179103 V987.5 H1278.6069651741295 V992.5 H1288.5572139303483 V987.5 H1298.5074626865674 V985.0 H1308.457711442786 V985.0 H1318.407960199005 V987.5 H1328.358208955224 V992.5 H1338.3084577114428 V985.0 H1348.2587064676618 V987.5 H1358.2089552238806 V985.0 H1368.1592039800994 V990.0 H1378.1094527363184 V992.5 H1388.0597014925372 V992.5 H1398.0099502487565 V992.5 H1407.960199004975 V992.5 H1417.9104477611938 V985.0 H1427.860696517413 V995.0 H1437.810945273632 V987.5 H1447.761194029851 V992.5 H1457.7114427860695 V987.5 H1467.6616915422885 V992.5 H1477.6119402985075 V985.0 H1487.5621890547263 V995.0 H1497.5124378109454 V997.5 H1507.4626865671642 V997.5 H1517.412935323383 V1000.0 M1527.363184079602,1000 V995.0 H1537.313432835821 V992.5 H1547.26368159204 V997.5 H1557.2139303482586 V995.0 H1567.1641791044774 V995.0 H1577.1144278606967 V992.5 H1587.0646766169154 V995.0 H1597.0149253731345 V992.5 H1606.965174129353 V992.5 H1616.915422885572 V997.5 H1626.865671641791 V997.5 H1636.81592039801 V997.5 H1646.766169154229 V995.0 H1656.7164179104477 V992.5 H1666.6666666666665 V995.0 H1676.6169154228855 V987.5 H1686.5671641791046 V997.5 H1696.5174129353236 V992.5 H1706.4676616915422 V995.0 H1716.417910447761 V995.0 H1726.3681592039802 V997.5 H1736.318407960199 V997.5 H1746.2686567164178 V997.5 H1756.2189054726366 V1000.0 M1766.1691542288559,1000 V995.0 H1776.1194029850747 V997.5 H1786.0696517412935 V1000.0 M1796.0199004975125,1000 V1000.0 M1805.9701492537313,1000 V995.0 H1815.9203980099503 V1000.0 M1825.870646766169,1000 V1000.0 M1835.8208955223881,1000 V1000.0 M1845.771144278607,1000 V1000.0 M1855.7213930348257,1000 V1000.0 M1865.6716417910447,1000 V1000.0 M1875.6218905472638,1000 V1000.0 M1885.5721393034826,1000 V997.5 H1895.5223880597014 V1000.0 M1905.4726368159202,1000 V1000.0 M1915.4228855721392,1000 V1000.0 M1925.3731343283582,1000 V1000.0 M1935.323383084577,1000 V1000.0 M1945.273631840796,1000 V1000.0 M1955.2238805970148,1000 V1000.0 M1965.1741293532336,1000 V1000.0 M1975.1243781094527,1000 V1000.0 M1985.0746268656717,1000 V1000.0 M1995.0248756218905,1000 V1000.0" stroke-width="5.0" stroke-opacity="0.75" stroke="none" fill="#027f00" opacity="0.5" />
<path d="M665.8499170812603,1000.0 V1000.0 M17.425373134328453,1000 V1000.0 M27.375621890547496,1000 V1000.0 M37.32587064676631,1000 V1000.0 M47.276119402985124,1000 V1000.0 M57.22636815920417,1000 V1000.0 M67.17661691542298,1000 V1000.0 M77.12686567164202,1000 V1000.0 M87.07711442786082,1000 V1000.0 M97.02736318407965,1000 V1000.0 M106.97761194029869,1000 V1000.0 M116.9278606965175,1000 V1000.0 M126.87810945273654,1000 V1000.0 M136.82835820895536,1000 V1000.0 M146.77860696517422,1000 V1000.0 M156.72885572139316,1000 V1000.0 M166.67910447761207,1000 V1000.0 M176.62935323383095,1000 V1000.0 M186.5796019900499,1000 V1000.0 M196.52985074626875,1000 V1000.0 M206.4800995024877,1000 V1000.0 M216.4303482587066,1000 V1000.0 M226.38059701492546,1000 V1000.0 H231.3308457711444 V1000.0 M246.28109452736328,1000 V1000.0 M256.2313432835822,1000 V1000.0 M266.1815920398011,1000 V1000.0 M276.13184079602,1000 V1000.0 M286.0820895522389,1000 V1000.0 M296.0323383084579,1000 V1000.0 H300.98258706467675 V1000.0 M315.9328358208956,1000 V1000.0 M325.8830845771145,1000 V1000.0 M335.8333333333334,1000 V1000.0 M345.7835820895524,1000 V1000.0 H350.73383084577125 V1000.0 M365.6840796019901,1000 V997.5 H375.634328358209 V997.5 H385.58457711442793 V995.0 H390.5348258706469 V1000.0 H405.48507462686575 V997.5 H415.43532338308466 V992.5 H420.3855721393036 V995.0 H435.3358208955225 V992.5 H440.28606965174146 V995.0 H455.2363184079603 V992.5 H465.18656716417917 V990.0 H475.1368159203981 V985.0 H480.08706467661705 V992.5 H495.0373134328359 V977.5 H499.98756218905476 V982.5 H509.9378109452738 V985.0 H524.8880597014926 V972.5 H534.8383084577116 V970.0 H544.7885572139303 V920.0 H554.7388059701494 V907.5 H564.6890547263682 V877.5 H574.6393034825871 V875.0 H584.589552238806 V840.0 H589.5398009950248 V852.5 H604.4900497512439 V837.5 H614.4402985074628 V800.0 H624.3905472636817 V635.0 H634.3407960199006 V630.0 H644.2910447761194 V577.5 H649.2412935323384 V625.0 H664.1915422885573 V460.0 H669.1417910447761 V499.99999999999994 H684.0920398009952 V420.0 H689.0422885572139 V427.5 H698.992537313433 V502.5 H713.9427860696518 V470.0 H718.8930348258707 V487.5000000000001 H733.8432835820896 V455.0 H743.7935323383084 V357.5 H748.7437810945275 V402.5 H763.6940298507463 V352.5 H768.6442786069653 V362.5 H778.5945273631842 V407.5 H793.544776119403 V345.0 H798.495024875622 V387.5 H808.4452736318409 V522.5 H818.3955223880597 V552.5 H833.3457711442787 V520.0 H843.2960199004974 V462.5 H848.2462686567166 V657.5 H863.1965174129353 V605.0 H868.1467661691543 V662.5 H878.0970149253733 V672.5 H888.047263681592 V720.0 H897.9975124378111 V735.0 H907.9477611940299 V812.5 H922.8980099502488 V800.0 H927.8482587064677 V822.5 H937.7985074626865 V832.5 H952.7487562189056 V817.5 H957.6990049751245 V872.5 H972.6492537313432 V827.5 H982.5995024875623 V790.0 H987.549751243781 V827.5 H1002.5000000000002 V797.5 H1012.4502487562189 V785.0 H1017.4004975124377 V840.0 H1027.3507462686568 V875.0 H1037.3009950248756 V897.5 H1052.2512437810947 V890.0 H1057.2014925373135 V892.5 H1072.1517412935323 V890.0 H1077.1019900497513 V895.0 H1087.05223880597 V912.5 H1097.0024875621893 V915.0 H1111.952736318408 V895.0 H1116.9029850746267 V925.0 H1126.8532338308457 V947.5 H1141.8034825870648 V900.0 H1146.7537313432838 V915.0 H1161.7039800995024 V907.5 H1171.6542288557214 V905.0 H1176.6044776119404 V940.0 H1191.5547263681592 V937.5 H1201.5049751243782 V920.0 H1206.455223880597 V935.0 H1216.4054726368158 V970.0 H1231.3557213930349 V965.0 H1236.3059701492537 V977.5 H1251.256218905473 V960.0 H1256.2064676616915 V990.0 H1271.1567164179103 V990.0 H1276.1069651741295 V995.0 H1291.0572139303483 V990.0 H1301.0074626865674 V987.5 H1310.957711442786 V987.5 H1315.907960199005 V990.0 H1325.858208955224 V995.0 H1340.8084577114428 V987.5 H1345.7587064676618 V990.0 H1360.7089552238806 V987.5 H1365.6592039800994 V992.5 H1375.6094527363184 V995.0 H1390.5597014925372 V995.0 H1400.5099502487565 V995.0 H1410.460199004975 V995.0 H1420.4104477611938 V987.5 H1425.360696517413 V997.5 H1440.310945273632 V990.0 H1445.261194029851 V995.0 H1460.2114427860695 V990.0 H1465.1616915422885 V995.0 H1480.1119402985075 V987.5 H1485.0621890547263 V997.5 H1495.0124378109454 V1000.0 H1509.9626865671642 V1000.0 H1514.912935323383 V1000.0 M1529.863184079602,1000 V997.5 H1539.813432835821 V995.0 H1544.76368159204 V1000.0 H1559.7139303482586 V997.5 H1569.6641791044774 V997.5 H1579.6144278606967 V995.0 H1584.5646766169154 V997.5 H1599.5149253731345 V995.0 H1609.465174129353 V995.0 H1614.415422885572 V1000.0 H1629.365671641791 V1000.0 H1639.31592039801 V1000.0 H1649.266169154229 V997.5 H1659.2164179104477 V995.0 H1664.1666666666665 V997.5 H1679.1169154228855 V990.0 H1684.0671641791046 V1000.0 H1699.0174129353236 V995.0 H1703.9676616915422 V997.5 H1718.917910447761 V997.5 H1723.8681592039802 V1000.0 H1738.818407960199 V1000.0 H1748.7686567164178 V1000.0 H1753.7189054726366 V1000.0 M1768.6691542288559,1000 V997.5 H1773.6194029850747 V1000.0 H1783.5696517412935 V1000.0 M1798.5199004975125,1000 V1000.0 M1808.4701492537313,1000 V997.5 H1813.4203980099503 V1000.0 M1828.370646766169,1000 V1000.0 M1838.3208955223881,1000 V1000.0 M1848.271144278607,1000 V1000.0 M1858.2213930348257,1000 V1000.0 M1868.1716417910447,1000 V1000.0 M1878.1218905472638,1000 V1000.0 M1888.0721393034826,1000 V1000.0 H1893.0223880597014 V1000.0 M1907.9726368159202,1000 V1000.0 M1917.9228855721392,1000 V1000.0 M1927.8731343283582,1000 V1000.0 M1937.823383084577,1000 V1000.0 M1947.773631840796,1000 V1000.0 M1957.7238805970148,1000 V1000.0 M1967.6741293532336,1000 V1000.0 M1977.6243781094527,1000 V1000.0 M1987.5746268656717,1000 V1000.0 M1992.5248756218905,1000 V1000.0" stroke-width="5.0" stroke-opacity="0.375" stroke="#144c13" fill="none" />
</g>
<g id="d2">
<use xlink:href="#d0" x="150.0" y="150.0" />
<use xlink:href="#d1" x="150.0" y="150.0" />
</g>
</defs>
<rect x="-5" y="-5" width="2310" height="1310" fill="#ffffff" />
<use xlink:href="#d2" x="0" y="30" />
</svg>