<?xml version="1.0" encoding="UTF-8"?>
<svg xmlns="http://www.w3.org/2000/svg" xmlns:xlink="http://www.w3.org/1999/xlink"
     width="4600" height="2600" viewBox="0 0 2300 1300">
<defs>
<g id="d0">
<path d="M-5.0,0 L-5.0,1010.0" fill="none" stroke="#000000" stroke-width="10.0" stroke-opacity="0.75" />
<path d="M-10.0,1005.0 L2000,1005.0" fill="none" stroke="#000000" stroke-width="10.0" stroke-opacity="0.75" />
<path d="M133.33333333333334,1010.0 L133.33333333333334,1030" fill="none" stroke="#000000" stroke-width="10.0" stroke-opacity="0.75" />
<text x="133.33333333333334" y="1090" font-size="75" text-anchor="middle" fill="#000000" fill-opacity="0.75" font-family="Arial">-4</text>
<path d="M400.0,1010.0 L400.0,1030" fill="none" stroke="#000000" stroke-width="10.0" stroke-opacity="0.75" />
<text x="400.0" y="1090" font-size="75" text-anchor="middle" fill="#000000" fill-opacity="0.75" font-family="Arial">-2</text>
<path d="M666.6666666666666,1010.0 L666.6666666666666,1030" fill="none" stroke="#000000" stroke-width="10.0" stroke-opacity="0.75" />
<text x="666.6666666666666" y="1090" font-size="75" text-anchor="middle" fill="#000000" fill-opacity="0.75" font-family="Arial">0</text>
<path d="M933.3333333333334,1010.0 L933.3333333333334,1030" fill="none" stroke="#000000" stroke-width="10.0" stroke-opacity="0.75" />
<text x="933.3333333333334" y="1090" font-size="75" text-anchor="middle" fill="#000000" fill-opacity="0.75" font-family="Arial">2</text>
<path d="M1200.0,1010.0 L1200.0,1030" fill="none" stroke="#000000" stroke-width="10.0" stroke-opacity="0.75" />
<text x="1200.0" y="1090" font-size="75" text-anchor="middle" fill="#000000" fill-opacity="0.75" font-family="Arial">4</text>
<path d="M1466.6666666666665,1010.0 L1466.6666666666665,1030" fill="none" stroke="#000000" stroke-width="10.0" stroke-opacity="0.75" />
<text x="1466.6666666666665" y="1090" font-size="75" text-anchor="middle" fill="#000000" fill-opacity="0.75" font-family="Arial">6</text>
<path d="M1733.3333333333335,1010.0 L1733.3333333333335,1030" fill="none" stroke="#000000" stroke-width="10.0" stroke-opacity="0.75" />
<text x="1733.3333333333335" y="1090" font-size="75" text-anchor="middle" fill="#000000" fill-opacity="0.75" font-family="Arial">8</text>
<path d="M133.33333333333334,0 L133.33333333333334,1000" fill="none" stroke="#1e1e46" stroke-width="7.5" stroke-opacity="0.25" />
<path d="M666.6666666666666,0 L666.6666666666666,1000" fill="none" stroke="#1e1e46" stroke-width="7.5" stroke-opacity="0.25" />
<path d="M1200.0,0 L1200.0,1000" fill="none" stroke="#1e1e46" stroke-width="7.5" stroke-opacity="0.25" />
<path d="M1733.3333333333335,0 L1733.3333333333335,1000" fill="none" stroke="#1e1e46" stroke-width="7.5" stroke-opacity="0.25" />
<path d="M-10.0,500.0 L-30,500.0" ill="none" stroke="#000000" stroke-width="10.0" stroke-opacity="0.75" />
<text x="-40" y="523.0" font-size="75" text-anchor="end" fill="#000000" fill-opacity="0.75" font-family="Arial">5</text>
<path d="M0,500.0 L2000,500.0" fill="none" stroke="#1e1e46" stroke-width="7.5" stroke-opacity="0.25" />
<text x="1000.0" y="-75" font-size="120" text-anchor="middle" fill="#000000" fill-opacity="0.75" font-family="Arial">null correction distribution</text>
</g>
<g id="d1">
<path d="M663.3499170812603,1000.0 V1000.0 M14.925373134328451,1000 V1000.0 M24.875621890547496,1000 V1000.0 M34.82587064676631,1000 V1000.0 M44.776119402985124,1000 V1000.0 M54.72636815920417,1000 V1000.0 M64.67661691542298,1000 V1000.0 M74.62686567164202,1000 V1000.0 M84.57711442786082,1000 V1000.0 M94.52736318407965,1000 V1000.0 M104.47761194029869,1000 V1000.0 M114.4278606965175,1000 V1000.0 M124.37810945273654,1000 V1000.0 M134.32835820895536,1000 V1000.0 M144.27860696517422,1000 V1000.0 M154.22885572139316,1000 V1000.0 M164.17910447761207,1000 V997.5 H174.12935323383095 V1000.0 M184.0796019900499,1000 V1000.0 M194.02985074626875,1000 V1000.0 M203.9800995024877,1000 V1000.0 M213.9303482587066,1000 V1000.0 M223.88059701492546,1000 V997.5 H233.8308457711444 V997.5 H243.78109452736328 V997.5 H253.73134328358222 V1000.0 M263.6815920398011,1000 V1000.0 M273.63184079602,1000 V997.5 H283.5820895522389 V1000.0 M293.5323383084579,1000 V997.5 H303.48258706467675 V1000.0 M313.4328358208956,1000 V997.5 H323.3830845771145 V1000.0 M333.3333333333334,1000 V997.5 H343.2835820895524 V997.5 H353.23383084577125 V1000.0 M363.1840796019901,1000 V1000.0 M373.134328358209,1000 V1000.0 M383.08457711442793,1000 V995.0 H393.0348258706469 V995.0 H402.98507462686575 V995.0 H412.93532338308466 V1000.0 M422.8855721393036,1000 V1000.0 M432.8358208955225,1000 V990.0 H442.78606965174146 V995.0 H452.7363184079603 V990.0 H462.68656716417917 V995.0 H472.6368159203981 V987.5 H482.58706467661705 V995.0 H492.5373134328359 V985.0 H502.48756218905476 V997.5 H512.4378109452738 V992.5 H522.3880597014926 V990.0 H532.3383084577116 V990.0 H542.2885572139303 V980.0 H552.2388059701494 V972.5 H562.1890547263682 V975.0 H572.1393034825871 V977.5 H582.089552238806 V962.5 H592.0398009950248 V942.5 H601.9900497512439 V927.5 H611.9402985074628 V912.5 H621.8905472636817 V875.0 H631.8407960199006 V850.0 H641.7910447761194 V812.5 H651.7412935323384 V800.0 H661.6915422885573 V795.0 H671.6417910447761 V745.0 H681.5920398009952 V850.0 H691.5422885572139 V812.5 H701.492537313433 V857.5 H711.4427860696518 V782.5 H721.3930348258707 V797.5 H731.3432835820896 V782.5 H741.2935323383084 V777.5 H751.2437810945275 V800.0 H761.1940298507463 V762.5 H771.1442786069653 V807.5 H781.0945273631842 V797.5 H791.044776119403 V767.5 H800.995024875622 V815.0 H810.9452736318409 V775.0 H820.8955223880597 V815.0 H830.8457711442787 V827.5 H840.7960199004974 V887.5 H850.7462686567166 V842.5 H860.6965174129353 V807.5 H870.6467661691543 V752.5 H880.5970149253733 V757.5 H890.547263681592 V817.5 H900.4975124378111 V732.5 H910.4477611940299 V707.5 H920.3980099502488 V712.5 H930.3482587064677 V640.0 H940.2985074626865 V715.0 H950.2487562189056 V732.5 H960.1990049751245 V700.0 H970.1492537313432 V700.0 H980.0995024875623 V650.0 H990.049751243781 V722.5 H1000.0000000000002 V787.5 H1009.9502487562189 V780.0 H1019.9004975124377 V760.0 H1029.8507462686568 V747.5 H1039.8009950248756 V772.5 H1049.7512437810947 V792.5 H1059.7014925373135 V775.0 H1069.6517412935323 V765.0 H1079.6019900497513 V757.5 H1089.55223880597 V797.5 H1099.5024875621893 V750.0 H1109.452736318408 V757.5 H1119.4029850746267 V747.5 H1129.3532338308457 V790.0 H1139.3034825870648 V692.5 H1149.2537313432838 V710.0 H1159.2039800995024 V787.5 H1169.1542288557214 V720.0 H1179.1044776119404 V732.5 H1189.0547263681592 V755.0 H1199.0049751243782 V772.5 H1208.955223880597 V790.0 H1218.9054726368158 V785.0 H1228.8557213930349 V720.0 H1238.8059701492537 V735.0 H1248.756218905473 V760.0 H1258.7064676616915 V750.0 H1268.6567164179103 V800.0 H1278.6069651741295 V842.5 H1288.5572139303483 V857.5 H1298.5074626865674 V875.0 H1308.457711442786 V890.0 H1318.407960199005 V900.0 H1328.358208955224 V917.5 H1338.3084577114428 V897.5 H1348.2587064676618 V902.5 H1358.2089552238806 V902.5 H1368.1592039800994 V887.5 H1378.1094527363184 V902.5 H1388.0597014925372 V882.5 H1398.0099502487565 V872.5 H1407.960199004975 V860.0 H1417.9104477611938 V867.5 H1427.860696517413 V887.5 H1437.810945273632 V877.5 H1447.761194029851 V935.0 H1457.7114427860695 V920.0 H1467.6616915422885 V920.0 H1477.6119402985075 V945.0 H1487.5621890547263 V955.0 H1497.5124378109454 V967.5 H1507.4626865671642 V960.0 H1517.412935323383 V977.5 H1527.363184079602 V957.5 H1537.313432835821 V975.0 H1547.26368159204 V972.5 H1557.2139303482586 V977.5 H1567.1641791044774 V952.5 H1577.1144278606967 V965.0 H1587.0646766169154 V955.0 H1597.0149253731345 V960.0 H1606.965174129353 V952.5 H1616.915422885572 V935.0 H1626.865671641791 V945.0 H1636.81592039801 V917.5 H1646.766169154229 V952.5 H1656.7164179104477 V945.0 H1666.6666666666665 V952.5 H1676.6169154228855 V960.0 H1686.5671641791046 V932.5 H1696.5174129353236 V932.5 H1706.4676616915422 V947.5 H1716.417910447761 V915.0 H1726.3681592039802 V915.0 H1736.318407960199 V957.5 H1746.2686567164178 V945.0 H1756.2189054726366 V952.5 H1766.1691542288559 V957.5 H1776.1194029850747 V950.0 H1786.0696517412935 V937.5 H1796.0199004975125 V960.0 H1805.9701492537313 V967.5 H1815.9203980099503 V960.0 H1825.870646766169 V945.0 H1835.8208955223881 V967.5 H1845.771144278607 V987.5 H1855.7213930348257 V982.5 H1865.6716417910447 V977.5 H1875.6218905472638 V962.5 H1885.5721393034826 V990.0 H1895.5223880597014 V987.5 H1905.4726368159202 V987.5 H1915.4228855721392 V987.5 H1925.3731343283582 V987.5 H1935.323383084577 V997.5 H1945.273631840796 V995.0 H1955.2238805970148 V1000.0 M1965.1741293532336,1000 V1000.0 M1975.1243781094527,1000 V997.5 H1985.0746268656717 V997.5 H1995.0248756218905 V1000.0" stroke-width="5.0" stroke-opacity="0.75" stroke="none" fill="#027f00" opacity="0.5" />
<path d="M665.8499170812603,1000.0 V1000.0 M17.425373134328453,1000 V1000.0 M27.375621890547496,1000 V1000.0 M37.32587064676631,1000 V1000.0 M47.276119402985124,1000 V1000.0 M57.22636815920417,1000 V1000.0 M67.17661691542298,1000 V1000.0 M77.12686567164202,1000 V1000.0 M87.07711442786082,1000 V1000.0 M97.02736318407965,1000 V1000.0 M106.97761194029869,1000 V1000.0 M116.9278606965175,1000 V1000.0 M126.87810945273654,1000 V1000.0 M136.82835820895536,1000 V1000.0 M146.77860696517422,1000 V1000.0 M156.72885572139316,1000 V1000.0 M166.67910447761207,1000 V1000.0 H171.62935323383095 V1000.0 M186.5796019900499,1000 V1000.0 M196.52985074626875,1000 V1000.0 M206.4800995024877,1000 V1000.0 M216.4303482587066,1000 V1000.0 M226.38059701492546,1000 V1000.0 H236.3308457711444 V1000.0 H246.28109452736328 V1000.0 H251.23134328358222 V1000.0 M266.1815920398011,1000 V1000.0 M276.13184079602,1000 V1000.0 H281.0820895522389 V1000.0 M296.0323383084579,1000 V1000.0 H300.98258706467675 V1000.0 M315.9328358208956,1000 V1000.0 H320.8830845771145 V1000.0 M335.8333333333334,1000 V1000.0 H345.7835820895524 V1000.0 H350.73383084577125 V1000.0 M365.6840796019901,1000 V1000.0 M375.634328358209,1000 V1000.0 M385.58457711442793,1000 V997.5 H395.5348258706469 V997.5 H405.48507462686575 V997.5 H410.43532338308466 V1000.0 M425.3855721393036,1000 V1000.0 M435.3358208955225,1000 V992.5 H440.28606965174146 V997.5 H455.2363184079603 V992.5 H460.18656716417917 V997.5 H475.1368159203981 V990.0 H480.08706467661705 V997.5 H495.0373134328359 V987.5 H499.98756218905476 V1000.0 H514.9378109452738 V995.0 H524.8880597014926 V992.5 H534.8383084577116 V992.5 H544.7885572139303 V982.5 H554.7388059701494 V975.0 H559.6890547263682 V977.5 H569.6393034825871 V980.0 H584.589552238806 V965.0 H594.5398009950248 V945.0 H604.4900497512439 V930.0 H614.4402985074628 V915.0 H624.3905472636817 V877.5 H634.3407960199006 V852.5 H644.2910447761194 V815.0 H654.2412935323384 V802.5 H664.1915422885573 V797.5 H674.1417910447761 V747.5 H679.0920398009952 V852.5 H694.0422885572139 V815.0 H698.992537313433 V860.0 H713.9427860696518 V785.0 H718.8930348258707 V800.0 H733.8432835820896 V785.0 H743.7935323383084 V780.0 H748.7437810945275 V802.5 H763.6940298507463 V765.0 H768.6442786069653 V810.0 H783.5945273631842 V800.0 H793.544776119403 V770.0 H798.495024875622 V817.5 H813.4452736318409 V777.5 H818.3955223880597 V817.5 H828.3457711442787 V830.0 H838.2960199004974 V890.0 H853.2462686567166 V845.0 H863.1965174129353 V810.0 H873.1467661691543 V755.0 H878.0970149253733 V760.0 H888.047263681592 V820.0 H902.9975124378111 V735.0 H912.9477611940299 V710.0 H917.8980099502488 V715.0 H932.8482587064677 V642.5 H937.7985074626865 V717.5 H947.7487562189056 V735.0 H962.6990049751245 V702.5 H972.6492537313432 V702.5 H982.5995024875623 V652.5 H987.549751243781 V725.0 H997.5000000000002 V790.0 H1012.4502487562189 V782.5 H1022.4004975124377 V762.5 H1032.3507462686568 V750.0 H1037.3009950248756 V775.0 H1047.2512437810947 V795.0 H1062.2014925373135 V777.5 H1072.1517412935323 V767.5 H1082.1019900497513 V760.0 H1087.05223880597 V800.0 H1102.0024875621893 V752.5 H1106.952736318408 V760.0 H1121.9029850746267 V750.0 H1126.8532338308457 V792.5 H1141.8034825870648 V695.0 H1146.7537313432838 V712.5 H1156.7039800995024 V790.0 H1171.6542288557214 V722.5 H1176.6044776119404 V735.0 H1186.5547263681592 V757.5 H1196.5049751243782 V775.0 H1206.455223880597 V792.5 H1221.4054726368158 V787.5 H1231.3557213930349 V722.5 H1236.3059701492537 V737.5 H1246.256218905473 V762.5 H1261.2064676616915 V752.5 H1266.1567164179103 V802.5 H1276.1069651741295 V845.0 H1286.0572139303483 V860.0 H1296.0074626865674 V877.5 H1305.957711442786 V892.5 H1315.907960199005 V902.5 H1325.858208955224 V920.0 H1340.8084577114428 V900.0 H1345.7587064676618 V905.0 H1360.7089552238806 V905.0 H1370.6592039800994 V890.0 H1375.6094527363184 V905.0 H1390.5597014925372 V885.0 H1400.5099502487565 V875.0 H1410.460199004975 V862.5 H1415.4104477611938 V870.0 H1425.360696517413 V890.0 H1440.310945273632 V880.0 H1445.261194029851 V937.5 H1460.2114427860695 V922.5 H1470.1616915422885 V922.5 H1475.1119402985075 V947.5 H1485.0621890547263 V957.5 H1495.0124378109454 V970.0 H1509.9626865671642 V962.5 H1514.912935323383 V980.0 H1529.863184079602 V960.0 H1534.813432835821 V977.5 H1549.76368159204 V975.0 H1554.7139303482586 V980.0 H1569.6641791044774 V955.0 H1574.6144278606967 V967.5 H1589.5646766169154 V957.5 H1594.5149253731345 V962.5 H1609.465174129353 V955.0 H1619.415422885572 V937.5 H1624.365671641791 V947.5 H1639.31592039801 V920.0 H1644.266169154229 V955.0 H1659.2164179104477 V947.5 H1664.1666666666665 V955.0 H1674.1169154228855 V962.5 H1689.0671641791046 V935.0 H1699.0174129353236 V935.0 H1703.9676616915422 V950.0 H1718.917910447761 V917.5 H1728.8681592039802 V917.5 H1733.818407960199 V960.0 H1748.7686567164178 V947.5 H1753.7189054726366 V955.0 H1763.6691542288559 V960.0 H1778.6194029850747 V952.5 H1788.5696517412935 V940.0 H1793.5199004975125 V962.5 H1803.4701492537313 V970.0 H1818.4203980099503 V962.5 H1828.370646766169 V947.5 H1833.3208955223881 V970.0 H1843.271144278607 V990.0 H1858.2213930348257 V985.0 H1868.1716417910447 V980.0 H1878.1218905472638 V965.0 H1883.0721393034826 V992.5 H1898.0223880597014 V990.0 H1907.9726368159202 V990.0 H1917.9228855721392 V990.0 H1927.8731343283582 V990.0 H1932.823383084577 V1000.0 H1947.773631840796 V997.5 H1952.7238805970148 V1000.0 M1967.6741293532336,1000 V1000.0 M1977.6243781094527,1000 V1000.0 H1987.5746268656717 V997.5 H1992.5248756218905 V1000.0" stroke-width="5.0" stroke-opacity="0.375" stroke="#144c13" fill="none" />
</g>
<g id="d2">
<use xlink:href="#d0" x="150.0" y="150.0" />
<use xlink:href="#d1" x="150.0" y="150.0" />
</g>
</defs>
<rect x="-5" y="-5" width="2310" height="1310" fill="#ffffff" />
<use xlink:href="#d2" x="0" y="30" />
</svg>