<?xml version="1.0" encoding="UTF-8"?>
<svg xmlns="http://www.w3.org/2000/svg" xmlns:xlink="http://www.w3.org/1999/xlink"
     width="3000" height="3000" viewBox="0 0 1500 1500">
<defs>
<g id="d0">
<path d="M-5.0,0 L-5.0,1010.0" fill="none" stroke="#000000" stroke-width="10.0" stroke-opacity="0.75" />
<path d="M-10.0,1005.0 L1000,1005.0" fill="none" stroke="#000000" stroke-width="10.0" stroke-opacity="0.75" />
<path d="M250.0,1010.0 L250.0,1030" fill="none" stroke="#000000" stroke-width="10.0" stroke-opacity="0.75" />
<text x="250.0" y="1110" font-size="80" text-anchor="middle" fill="#000000" fill-opacity="0.75" font-family="Arial">1</text>
<path d="M500.0,1010.0 L500.0,1030" fill="none" stroke="#000000" stroke-width="10.0" stroke-opacity="0.75" />
<text x="500.0" y="1110" font-size="80" text-anchor="middle" fill="#000000" fill-opacity="0.75" font-family="Arial">2</text>
<path d="M750.0,1010.0 L750.0,1030" fill="none" stroke="#000000" stroke-width="10.0" stroke-opacity="0.75" />
<text x="750.0" y="1110" font-size="80" text-anchor="middle" fill="#000000" fill-opacity="0.75" font-family="Arial">3</text>
<path d="M125.0,0 L125.0,1000" fill="none" stroke="#1e1e46" stroke-width="7.5" stroke-opacity="0.25" />
<path d="M250.0,0 L250.0,1000" fill="none" stroke="#1e1e46" stroke-width="7.5" stroke-opacity="0.25" />
<path d="M375.0,0 L375.0,1000" fill="none" stroke="#1e1e46" stroke-width="7.5" stroke-opacity="0.25" />
<path d="M500.0,0 L500.0,1000" fill="none" stroke="#1e1e46" stroke-width="7.5" stroke-opacity="0.25" />
<path d="M625.0,0 L625.0,1000" fill="none" stroke="#1e1e46" stroke-width="7.5" stroke-opacity="0.25" />
<path d="M750.0,0 L750.0,1000" fill="none" stroke="#1e1e46" stroke-width="7.5" stroke-opacity="0.25" />
<path d="M875.0,0 L875.0,1000" fill="none" stroke="#1e1e46" stroke-width="7.5" stroke-opacity="0.25" />
<path d="M-10.0,888.8888888888889 L-30,888.8888888888889" ill="none" stroke="#000000" stroke-width="10.0" stroke-opacity="0.75" />
<text x="-40" y="911.8888888888889" font-size="80" text-anchor="end" fill="#000000" fill-opacity="0.75" font-family="Arial">10</text>
<path d="M-10.0,777.7777777777778 L-30,777.7777777777778" ill="none" stroke="#000000" stroke-width="10.0" stroke-opacity="0.75" />
<text x="-40" y="800.7777777777778" font-size="80" text-anchor="end" fill="#000000" fill-opacity="0.75" font-family="Arial">20</text>
<path d="M-10.0,666.6666666666667 L-30,666.6666666666667" ill="none" stroke="#000000" stroke-width="10.0" stroke-opacity="0.75" />
<text x="-40" y="689.6666666666667" font-size="80" text-anchor="end" fill="#000000" fill-opacity="0.75" font-family="Arial">30</text>
<path d="M-10.0,555.5555555555557 L-30,555.5555555555557" ill="none" stroke="#000000" stroke-width="10.0" stroke-opacity="0.75" />
<text x="-40" y="578.5555555555557" font-size="80" text-anchor="end" fill="#000000" fill-opacity="0.75" font-family="Arial">40</text>
<path d="M-10.0,444.44444444444446 L-30,444.44444444444446" ill="none" stroke="#000000" stroke-width="10.0" stroke-opacity="0.75" />
<text x="-40" y="467.44444444444446" font-size="80" text-anchor="end" fill="#000000" fill-opacity="0.75" font-family="Arial">50</text>
<path d="M-10.0,333.33333333333337 L-30,333.33333333333337" ill="none" stroke="#000000" stroke-width="10.0" stroke-opacity="0.75" />
<text x="-40" y="356.33333333333337" font-size="80" text-anchor="end" fill="#000000" fill-opacity="0.75" font-family="Arial">60</text>
<path d="M-10.0,222.22222222222217 L-30,222.22222222222217" ill="none" stroke="#000000" stroke-width="10.0" stroke-opacity="0.75" />
<text x="-40" y="245.22222222222217" font-size="80" text-anchor="end" fill="#000000" fill-opacity="0.75" font-family="Arial">70</text>
<path d="M-10.0,111.1111111111112 L-30,111.1111111111112" ill="none" stroke="#000000" stroke-width="10.0" stroke-opacity="0.75" />
<text x="-40" y="134.1111111111112" font-size="80" text-anchor="end" fill="#000000" fill-opacity="0.75" font-family="Arial">80</text>
<path d="M0,888.8888888888889 L1000,888.8888888888889" fill="none" stroke="#1e1e46" stroke-width="7.5" stroke-opacity="0.25" />
<path d="M0,777.7777777777778 L1000,777.7777777777778" fill="none" stroke="#1e1e46" stroke-width="7.5" stroke-opacity="0.25" />
<path d="M0,666.6666666666667 L1000,666.6666666666667" fill="none" stroke="#1e1e46" stroke-width="7.5" stroke-opacity="0.25" />
<path d="M0,555.5555555555557 L1000,555.5555555555557" fill="none" stroke="#1e1e46" stroke-width="7.5" stroke-opacity="0.25" />
<path d="M0,444.44444444444446 L1000,444.44444444444446" fill="none" stroke="#1e1e46" stroke-width="7.5" stroke-opacity="0.25" />
<path d="M0,333.33333333333337 L1000,333.33333333333337" fill="none" stroke="#1e1e46" stroke-width="7.5" stroke-opacity="0.25" />
<path d="M0,222.22222222222217 L1000,222.22222222222217" fill="none" stroke="#1e1e46" stroke-width="7.5" stroke-opacity="0.25" />
<path d="M0,111.1111111111112 L1000,111.1111111111112" fill="none" stroke="#1e1e46" stroke-width="7.5" stroke-opacity="0.25" />
<text x="500.0" y="-75" font-size="120" text-anchor="middle" fill="#000000" fill-opacity="0.75" font-family="Arial">relative improvement</text>
<g>
<text x="-500.0" y="-160" font-size="90" transform="rotate(-90)" text-anchor="middle" fill="#000000" fill-opacity="0.75" font-family="Arial">relative improvement %</text>
</g>
<text x="500.0" y="1180" font-size="90" text-anchor="middle" fill="#000000" fill-opacity="0.75" font-family="Arial">physics model RMSE (kcal/mol)</text>
</g>
<marker markerWidth="3.608" markerHeight="4.04" viewBox="-0.002 -0.51 0.902 1.01" orient="auto" id="d1">
<path d="M-0.1,0.5 L-0.1,-0.5 L0.9,0 Z" fill="#000000" opacity="0.5" />
</marker>
<g id="d2">
<circle cx="358.80203890864385" cy="569.9129108516247" r="25" fill="#027f00" opacity="1" stroke="none" />
<circle cx="358.80203890864385" cy="569.9129108516247" r="18.75" fill="none" stroke="#144c13" stroke-width="12.5" stroke-opacity="0.75" />
<circle cx="662.8761220054619" cy="457.9800495227129" r="25" fill="#027f00" opacity="1" stroke="none" />
<circle cx="662.8761220054619" cy="457.9800495227129" r="18.75" fill="none" stroke="#144c13" stroke-width="12.5" stroke-opacity="0.75" />
<circle cx="328.822957214742" cy="646.0299157343469" r="25" fill="#027f00" opacity="1" stroke="none" />
<circle cx="328.822957214742" cy="646.0299157343469" r="18.75" fill="none" stroke="#144c13" stroke-width="12.5" stroke-opacity="0.75" />
<circle cx="463.6360950019959" cy="785.0626399247681" r="25" fill="#027f00" opacity="1" stroke="none" />
<circle cx="463.6360950019959" cy="785.0626399247681" r="18.75" fill="none" stroke="#144c13" stroke-width="12.5" stroke-opacity="0.75" />
<circle cx="778.1229904592526" cy="477.8575915264563" r="25" fill="#027f00" opacity="1" stroke="none" />
<circle cx="778.1229904592526" cy="477.8575915264563" r="18.75" fill="none" stroke="#144c13" stroke-width="12.5" stroke-opacity="0.75" />
</g>
<g id="d3">
<circle cx="389.0149174300339" cy="338.44336854995913" r="25" fill="blue" opacity="1" stroke="none" />
<circle cx="389.0149174300339" cy="338.44336854995913" r="18.75" fill="none" stroke="navy" stroke-width="12.5" stroke-opacity="0.75" />
<circle cx="622.2709248149931" cy="294.48728928865887" r="25" fill="blue" opacity="1" stroke="none" />
<circle cx="622.2709248149931" cy="294.48728928865887" r="18.75" fill="none" stroke="navy" stroke-width="12.5" stroke-opacity="0.75" />
<circle cx="442.5876061022638" cy="325.7710648278048" r="25" fill="blue" opacity="1" stroke="none" />
<circle cx="442.5876061022638" cy="325.7710648278048" r="18.75" fill="none" stroke="navy" stroke-width="12.5" stroke-opacity="0.75" />
<circle cx="410.0469991253748" cy="345.6757509678232" r="25" fill="blue" opacity="1" stroke="none" />
<circle cx="410.0469991253748" cy="345.6757509678232" r="18.75" fill="none" stroke="navy" stroke-width="12.5" stroke-opacity="0.75" />
<circle cx="701.1428219584137" cy="257.5102639525986" r="25" fill="blue" opacity="1" stroke="none" />
<circle cx="701.1428219584137" cy="257.5102639525986" r="18.75" fill="none" stroke="navy" stroke-width="12.5" stroke-opacity="0.75" />
</g>
<g id="d4">
<use xlink:href="#d0" x="250.0" y="250.0" />
<path d="M636.0380624177162,611.2499100290094 L615.920605242447,765.3755290538959" stroke="#000000" stroke-width="10" stroke-opacity="0.5" fill="none" marker-end="url(#d1)" />
<path d="M877.8148004802958,566.8091494846117 L899.6190280232163,654.6016881845648" stroke="#000000" stroke-width="10" stroke-opacity="0.5" fill="none" marker-end="url(#d1)" />
<path d="M684.8887022475978,597.4442482450282 L597.2333794758998,844.2027379975083" stroke="#000000" stroke-width="10" stroke-opacity="0.5" fill="none" marker-end="url(#d1)" />
<path d="M662.8315225942937,618.5065728770546 L706.9774519241465,980.4671962287799" stroke="#000000" stroke-width="10" stroke-opacity="0.5" fill="none" marker-end="url(#d1)" />
<path d="M958.7284678227938,529.2233470321664 L1009.9834025226914,675.9350015535769" stroke="#000000" stroke-width="10" stroke-opacity="0.5" fill="none" marker-end="url(#d1)" />
<use xlink:href="#d2" x="250.0" y="250.0" />
<use xlink:href="#d3" x="250.0" y="250.0" />
</g>
</defs>
<rect x="-10" y="-10" width="1520" height="1520" fill="#ffffff" />
<use xlink:href="#d4" x="0" y="0" />
</svg>