<?xml version="1.0" encoding="UTF-8"?>
<svg xmlns="http://www.w3.org/2000/svg" xmlns:xlink="http://www.w3.org/1999/xlink"
     width="3000" height="3000" viewBox="0 0 1500 1500">
<defs>
<g id="d0">
<path d="M-5.0,0 L-5.0,1010.0" fill="none" stroke="#000000" stroke-width="10.0" stroke-opacity="0.75" />
<path d="M-10.0,1005.0 L1000,1005.0" fill="none" stroke="#000000" stroke-width="10.0" stroke-opacity="0.75" />
<path d="M250.0,1010.0 L250.0,1030" fill="none" stroke="#000000" stroke-width="10.0" stroke-opacity="0.75" />
<text x="250.0" y="1110" font-size="80" text-anchor="middle" fill="#000000" fill-opacity="0.75" font-family="Arial">1</text>
<path d="M500.0,1010.0 L500.0,1030" fill="none" stroke="#000000" stroke-width="10.0" stroke-opacity="0.75" />
<text x="500.0" y="1110" font-size="80" text-anchor="middle" fill="#000000" fill-opacity="0.75" font-family="Arial">2</text>
<path d="M750.0,1010.0 L750.0,1030" fill="none" stroke="#000000" stroke-width="10.0" stroke-opacity="0.75" />
<text x="750.0" y="1110" font-size="80" text-anchor="middle" fill="#000000" fill-opacity="0.75" font-family="Arial">3</text>
<path d="M125.0,0 L125.0,1000" fill="none" stroke="#1e1e46" stroke-width="7.5" stroke-opacity="0.25" />
<path d="M250.0,0 L250.0,1000" fill="none" stroke="#1e1e46" stroke-width="7.5" stroke-opacity="0.25" />
<path d="M375.0,0 L375.0,1000" fill="none" stroke="#1e1e46" stroke-width="7.5" stroke-opacity="0.25" />
<path d="M500.0,0 L500.0,1000" fill="none" stroke="#1e1e46" stroke-width="7.5" stroke-opacity="0.25" />
<path d="M625.0,0 L625.0,1000" fill="none" stroke="#1e1e46" stroke-width="7.5" stroke-opacity="0.25" />
<path d="M750.0,0 L750.0,1000" fill="none" stroke="#1e1e46" stroke-width="7.5" stroke-opacity="0.25" />
<path d="M875.0,0 L875.0,1000" fill="none" stroke="#1e1e46" stroke-width="7.5" stroke-opacity="0.25" />
<path d="M-10.0,750.0 L-30,750.0" ill="none" stroke="#000000" stroke-width="10.0" stroke-opacity="0.75" />
<text x="-40" y="773.0" font-size="80" text-anchor="end" fill="#000000" fill-opacity="0.75" font-family="Arial">1</text>
<path d="M-10.0,500.0 L-30,500.0" ill="none" stroke="#000000" stroke-width="10.0" stroke-opacity="0.75" />
<text x="-40" y="523.0" font-size="80" text-anchor="end" fill="#000000" fill-opacity="0.75" font-family="Arial">2</text>
<path d="M-10.0,250.0 L-30,250.0" ill="none" stroke="#000000" stroke-width="10.0" stroke-opacity="0.75" />
<text x="-40" y="273.0" font-size="80" text-anchor="end" fill="#000000" fill-opacity="0.75" font-family="Arial">3</text>
<path d="M0,875.0 L1000,875.0" fill="none" stroke="#1e1e46" stroke-width="7.5" stroke-opacity="0.25" />
<path d="M0,750.0 L1000,750.0" fill="none" stroke="#1e1e46" stroke-width="7.5" stroke-opacity="0.25" />
<path d="M0,625.0 L1000,625.0" fill="none" stroke="#1e1e46" stroke-width="7.5" stroke-opacity="0.25" />
<path d="M0,500.0 L1000,500.0" fill="none" stroke="#1e1e46" stroke-width="7.5" stroke-opacity="0.25" />
<path d="M0,375.0 L1000,375.0" fill="none" stroke="#1e1e46" stroke-width="7.5" stroke-opacity="0.25" />
<path d="M0,250.0 L1000,250.0" fill="none" stroke="#1e1e46" stroke-width="7.5" stroke-opacity="0.25" />
<path d="M0,125.0 L1000,125.0" fill="none" stroke="#1e1e46" stroke-width="7.5" stroke-opacity="0.25" />
<text x="500.0" y="-75" font-size="120" text-anchor="middle" fill="#000000" fill-opacity="0.75" font-family="Arial">absolute improvement</text>
<g>
<text x="-500.0" y="-160" font-size="90" transform="rotate(-90)" text-anchor="middle" fill="#000000" fill-opacity="0.75" font-family="Arial">physics + ML RMSE (kcal/mol)</text>
</g>
<text x="500.0" y="1180" font-size="90" text-anchor="middle" fill="#000000" fill-opacity="0.75" font-family="Arial">physics model RMSE (kcal/mol)</text>
</g>
<marker markerWidth="3.608" markerHeight="4.04" viewBox="-0.002 -0.51 0.902 1.01" orient="auto" id="d1">
<path d="M-0.1,0.5 L-0.1,-0.5 L0.9,0 Z" fill="#000000" opacity="0.5" />
</marker>
<g id="d2">
<circle cx="358.80203890864385" cy="780.0824731366048" r="25" fill="#027f00" opacity="1" stroke="none" />
<circle cx="358.80203890864385" cy="780.0824731366048" r="18.75" fill="none" stroke="#144c13" stroke-width="12.5" stroke-opacity="0.75" />
<circle cx="662.8761220054619" cy="660.486752534317" r="25" fill="#027f00" opacity="1" stroke="none" />
<circle cx="662.8761220054619" cy="660.486752534317" r="18.75" fill="none" stroke="#144c13" stroke-width="12.5" stroke-opacity="0.75" />
<circle cx="328.822957214742" cy="775.9311836716631" r="25" fill="#027f00" opacity="1" stroke="none" />
<circle cx="328.822957214742" cy="775.9311836716631" r="18.75" fill="none" stroke="#144c13" stroke-width="12.5" stroke-opacity="0.75" />
<circle cx="463.6360950019959" cy="626.0513514637908" r="25" fill="#027f00" opacity="1" stroke="none" />
<circle cx="463.6360950019959" cy="626.0513514637908" r="18.75" fill="none" stroke="#144c13" stroke-width="12.5" stroke-opacity="0.75" />
<circle cx="778.1229904592526" cy="587.5389206350748" r="25" fill="#027f00" opacity="1" stroke="none" />
<circle cx="778.1229904592526" cy="587.5389206350748" r="18.75" fill="none" stroke="#144c13" stroke-width="12.5" stroke-opacity="0.75" />
</g>
<g id="d3">
<circle cx="389.0149174300339" cy="842.6049410929122" r="25" fill="blue" opacity="1" stroke="none" />
<circle cx="389.0149174300339" cy="842.6049410929122" r="18.75" fill="none" stroke="navy" stroke-width="12.5" stroke-opacity="0.75" />
<circle cx="622.2709248149931" cy="772.8471174517779" r="25" fill="blue" opacity="1" stroke="none" />
<circle cx="622.2709248149931" cy="772.8471174517779" r="18.75" fill="none" stroke="navy" stroke-width="12.5" stroke-opacity="0.75" />
<circle cx="442.5876061022638" cy="825.9772272422024" r="25" fill="blue" opacity="1" stroke="none" />
<circle cx="442.5876061022638" cy="825.9772272422024" r="18.75" fill="none" stroke="navy" stroke-width="12.5" stroke-opacity="0.75" />
<circle cx="410.0469991253748" cy="831.4263261681729" r="25" fill="blue" opacity="1" stroke="none" />
<circle cx="410.0469991253748" cy="831.4263261681729" r="18.75" fill="none" stroke="navy" stroke-width="12.5" stroke-opacity="0.75" />
<circle cx="701.1428219584137" cy="767.3893919682757" r="25" fill="blue" opacity="1" stroke="none" />
<circle cx="701.1428219584137" cy="767.3893919682757" r="18.75" fill="none" stroke="navy" stroke-width="12.5" stroke-opacity="0.75" />
</g>
<g id="d4">
<use xlink:href="#d0" x="250.0" y="250.0" />
<path d="M290.0,1210.0 L310.0,1190.0" stroke="#000000" fill="none" stroke-width="8" stroke-opacity="0.75" />
<path d="M330.0,1170.0 L350.0,1150.0" stroke="#000000" fill="none" stroke-width="8" stroke-opacity="0.75" />
<path d="M370.0,1130.0 L390.0,1110.0" stroke="#000000" fill="none" stroke-width="8" stroke-opacity="0.75" />
<path d="M410.0,1090.0 L430.0,1070.0" stroke="#000000" fill="none" stroke-width="8" stroke-opacity="0.75" />
<path d="M450.0,1050.0 L470.0,1030.0" stroke="#000000" fill="none" stroke-width="8" stroke-opacity="0.75" />
<path d="M490.0,1010.0 L510.0,990.0" stroke="#000000" fill="none" stroke-width="8" stroke-opacity="0.75" />
<path d="M530.0,970.0 L550.0,950.0" stroke="#000000" fill="none" stroke-width="8" stroke-opacity="0.75" />
<path d="M570.0,930.0 L590.0,910.0" stroke="#000000" fill="none" stroke-width="8" stroke-opacity="0.75" />
<path d="M610.0,890.0 L630.0,870.0" stroke="#000000" fill="none" stroke-width="8" stroke-opacity="0.75" />
<path d="M650.0,850.0 L670.0,830.0" stroke="#000000" fill="none" stroke-width="8" stroke-opacity="0.75" />
<path d="M690.0,810.0 L710.0,790.0" stroke="#000000" fill="none" stroke-width="8" stroke-opacity="0.75" />
<path d="M730.0,770.0 L750.0,750.0" stroke="#000000" fill="none" stroke-width="8" stroke-opacity="0.75" />
<path d="M770.0,730.0 L790.0,710.0" stroke="#000000" fill="none" stroke-width="8" stroke-opacity="0.75" />
<path d="M810.0,690.0 L830.0,670.0" stroke="#000000" fill="none" stroke-width="8" stroke-opacity="0.75" />
<path d="M850.0,650.0 L870.0,630.0" stroke="#000000" fill="none" stroke-width="8" stroke-opacity="0.75" />
<path d="M890.0,610.0 L910.0,590.0" stroke="#000000" fill="none" stroke-width="8" stroke-opacity="0.75" />
<path d="M930.0,570.0 L950.0000000000001,549.9999999999999" stroke="#000000" fill="none" stroke-width="8" stroke-opacity="0.75" />
<path d="M970.0,530.0 L990.0,510.0" stroke="#000000" fill="none" stroke-width="8" stroke-opacity="0.75" />
<path d="M1010.0,490.0 L1030.0,470.0" stroke="#000000" fill="none" stroke-width="8" stroke-opacity="0.75" />
<path d="M1050.0,450.0 L1070.0,429.9999999999999" stroke="#000000" fill="none" stroke-width="8" stroke-opacity="0.75" />
<path d="M1090.0,410.0 L1110.0,390.0" stroke="#000000" fill="none" stroke-width="8" stroke-opacity="0.75" />
<path d="M1130.0,370.0 L1150.0,350.0" stroke="#000000" fill="none" stroke-width="8" stroke-opacity="0.75" />
<path d="M1170.0,330.0 L1190.0,309.9999999999999" stroke="#000000" fill="none" stroke-width="8" stroke-opacity="0.75" />
<path d="M1210.0,290.0 L1230.0,270.0" stroke="#000000" fill="none" stroke-width="8" stroke-opacity="0.75" />
<path d="M629.0077336562903,1071.8960958107984 L632.7322609762915,1079.603624898181" stroke="#000000" stroke-width="10" stroke-opacity="0.5" fill="none" marker-end="url(#d1)" />
<path d="M880.0879621657375,1001.2162615496859 L894.1832066015079,962.2127123001892" stroke="#000000" stroke-width="10" stroke-opacity="0.5" fill="none" marker-end="url(#d1)" />
<path d="M671.5346508177572,1066.7158518697988 L629.166980721171,1048.0779508665412" stroke="#000000" stroke-width="10" stroke-opacity="0.5" fill="none" marker-end="url(#d1)" />
<path d="M665.8540232723697,1059.17147342644 L699.749732911356,929.2694775853261" stroke="#000000" stroke-width="10" stroke-opacity="0.5" fill="none" marker-end="url(#d1)" />
<path d="M960.1931710095731,996.2448611848278 L1006.4808514238715,888.1019290302764" stroke="#000000" stroke-width="10" stroke-opacity="0.5" fill="none" marker-end="url(#d1)" />
<use xlink:href="#d2" x="250.0" y="250.0" />
<use xlink:href="#d3" x="250.0" y="250.0" />
</g>
</defs>
<rect x="-10" y="-10" width="1520" height="1520" fill="#ffffff" />
<use xlink:href="#d4" x="0" y="0" />
</svg>