<?xml version="1.0" encoding="UTF-8"?>
<svg xmlns="http://www.w3.org/2000/svg" xmlns:xlink="http://www.w3.org/1999/xlink"
     width="3000" height="3000" viewBox="0 0 1500 1500">
<defs>
<g id="d0">
<path d="M-5.0,0 L-5.0,1010.0" fill="none" stroke="#000000" stroke-width="10.0" stroke-opacity="0.75" />
<path d="M-10.0,1005.0 L1000,1005.0" fill="none" stroke="#000000" stroke-width="10.0" stroke-opacity="0.75" />
<path d="M250.0,1010.0 L250.0,1030" fill="none" stroke="#000000" stroke-width="10.0" stroke-opacity="0.75" />
<text x="250.0" y="1110" font-size="80" text-anchor="middle" fill="#000000" fill-opacity="0.75" font-family="Arial">1</text>
<path d="M500.0,1010.0 L500.0,1030" fill="none" stroke="#000000" stroke-width="10.0" stroke-opacity="0.75" />
<text x="500.0" y="1110" font-size="80" text-anchor="middle" fill="#000000" fill-opacity="0.75" font-family="Arial">2</text>
<path d="M750.0,1010.0 L750.0,1030" fill="none" stroke="#000000" stroke-width="10.0" stroke-opacity="0.75" />
<text x="750.0" y="1110" font-size="80" text-anchor="middle" fill="#000000" fill-opacity="0.75" font-family="Arial">3</text>
<path d="M125.0,0 L125.0,1000" fill="none" stroke="#1e1e46" stroke-width="7.5" stroke-opacity="0.25" />
<path d="M250.0,0 L250.0,1000" fill="none" stroke="#1e1e46" stroke-width="7.5" stroke-opacity="0.25" />
<path d="M375.0,0 L375.0,1000" fill="none" stroke="#1e1e46" stroke-width="7.5" stroke-opacity="0.25" />
<path d="M500.0,0 L500.0,1000" fill="none" stroke="#1e1e46" stroke-width="7.5" stroke-opacity="0.25" />
<path d="M625.0,0 L625.0,1000" fill="none" stroke="#1e1e46" stroke-width="7.5" stroke-opacity="0.25" />
<path d="M750.0,0 L750.0,1000" fill="none" stroke="#1e1e46" stroke-width="7.5" stroke-opacity="0.25" />
<path d="M875.0,0 L875.0,1000" fill="none" stroke="#1e1e46" stroke-width="7.5" stroke-opacity="0.25" />
<path d="M-10.0,888.8888888888889 L-30,888.8888888888889" ill="none" stroke="#000000" stroke-width="10.0" stroke-opacity="0.75" />
<text x="-40" y="911.8888888888889" font-size="80" text-anchor="end" fill="#000000" fill-opacity="0.75" font-family="Arial">10</text>
<path d="M-10.0,777.7777777777778 L-30,777.7777777777778" ill="none" stroke="#000000" stroke-width="10.0" stroke-opacity="0.75" />
<text x="-40" y="800.7777777777778" font-size="80" text-anchor="end" fill="#000000" fill-opacity="0.75" font-family="Arial">20</text>
<path d="M-10.0,666.6666666666667 L-30,666.6666666666667" ill="none" stroke="#000000" stroke-width="10.0" stroke-opacity="0.75" />
<text x="-40" y="689.6666666666667" font-size="80" text-anchor="end" fill="#000000" fill-opacity="0.75" font-family="Arial">30</text>
<path d="M-10.0,555.5555555555557 L-30,555.5555555555557" ill="none" stroke="#000000" stroke-width="10.0" stroke-opacity="0.75" />
<text x="-40" y="578.5555555555557" font-size="80" text-anchor="end" fill="#000000" fill-opacity="0.75" font-family="Arial">40</text>
<path d="M-10.0,444.44444444444446 L-30,444.44444444444446" ill="none" stroke="#000000" stroke-width="10.0" stroke-opacity="0.75" />
<text x="-40" y="467.44444444444446" font-size="80" text-anchor="end" fill="#000000" fill-opacity="0.75" font-family="Arial">50</text>
<path d="M-10.0,333.33333333333337 L-30,333.33333333333337" ill="none" stroke="#000000" stroke-width="10.0" stroke-opacity="0.75" />
<text x="-40" y="356.33333333333337" font-size="80" text-anchor="end" fill="#000000" fill-opacity="0.75" font-family="Arial">60</text>
<path d="M-10.0,222.22222222222217 L-30,222.22222222222217" ill="none" stroke="#000000" stroke-width="10.0" stroke-opacity="0.75" />
<text x="-40" y="245.22222222222217" font-size="80" text-anchor="end" fill="#000000" fill-opacity="0.75" font-family="Arial">70</text>
<path d="M-10.0,111.1111111111112 L-30,111.1111111111112" ill="none" stroke="#000000" stroke-width="10.0" stroke-opacity="0.75" />
<text x="-40" y="134.1111111111112" font-size="80" text-anchor="end" fill="#000000" fill-opacity="0.75" font-family="Arial">80</text>
<path d="M0,888.8888888888889 L1000,888.8888888888889" fill="none" stroke="#1e1e46" stroke-width="7.5" stroke-opacity="0.25" />
<path d="M0,777.7777777777778 L1000,777.7777777777778" fill="none" stroke="#1e1e46" stroke-width="7.5" stroke-opacity="0.25" />
<path d="M0,666.6666666666667 L1000,666.6666666666667" fill="none" stroke="#1e1e46" stroke-width="7.5" stroke-opacity="0.25" />
<path d="M0,555.5555555555557 L1000,555.5555555555557" fill="none" stroke="#1e1e46" stroke-width="7.5" stroke-opacity="0.25" />
<path d="M0,444.44444444444446 L1000,444.44444444444446" fill="none" stroke="#1e1e46" stroke-width="7.5" stroke-opacity="0.25" />
<path d="M0,333.33333333333337 L1000,333.33333333333337" fill="none" stroke="#1e1e46" stroke-width="7.5" stroke-opacity="0.25" />
<path d="M0,222.22222222222217 L1000,222.22222222222217" fill="none" stroke="#1e1e46" stroke-width="7.5" stroke-opacity="0.25" />
<path d="M0,111.1111111111112 L1000,111.1111111111112" fill="none" stroke="#1e1e46" stroke-width="7.5" stroke-opacity="0.25" />
<text x="500.0" y="-75" font-size="120" text-anchor="middle" fill="#000000" fill-opacity="0.75" font-family="Arial">relative improvement</text>
<g>
<text x="-500.0" y="-160" font-size="90" transform="rotate(-90)" text-anchor="middle" fill="#000000" fill-opacity="0.75" font-family="Arial">relative improvement %</text>
</g>
<text x="500.0" y="1180" font-size="90" text-anchor="middle" fill="#000000" fill-opacity="0.75" font-family="Arial">physics model RMSE (kcal/mol)</text>
</g>
<marker markerWidth="3.608" markerHeight="4.04" viewBox="-0.002 -0.51 0.902 1.01" orient="auto" id="d1">
<path d="M-0.1,0.5 L-0.1,-0.5 L0.9,0 Z" fill="#000000" opacity="0.5" />
</marker>
<g id="d2">
<circle cx="358.8020389086437" cy="651.8844462623546" r="25" fill="#027f00" opacity="1" stroke="none" />
<circle cx="358.8020389086437" cy="651.8844462623546" r="18.75" fill="none" stroke="#144c13" stroke-width="12.5" stroke-opacity="0.75" />
<circle cx="662.8761220054616" cy="517.8193498146779" r="25" fill="#027f00" opacity="1" stroke="none" />
<circle cx="662.8761220054616" cy="517.8193498146779" r="18.75" fill="none" stroke="#144c13" stroke-width="12.5" stroke-opacity="0.75" />
<circle cx="328.8229572147419" cy="724.6977747019405" r="25" fill="#027f00" opacity="1" stroke="none" />
<circle cx="328.8229572147419" cy="724.6977747019405" r="18.75" fill="none" stroke="#144c13" stroke-width="12.5" stroke-opacity="0.75" />
<circle cx="463.63609500199584" cy="754.5593369018077" r="25" fill="#027f00" opacity="1" stroke="none" />
<circle cx="463.63609500199584" cy="754.5593369018077" r="18.75" fill="none" stroke="#144c13" stroke-width="12.5" stroke-opacity="0.75" />
<circle cx="778.1229904592525" cy="452.4599469288271" r="25" fill="#027f00" opacity="1" stroke="none" />
<circle cx="778.1229904592525" cy="452.4599469288271" r="18.75" fill="none" stroke="#144c13" stroke-width="12.5" stroke-opacity="0.75" />
</g>
<g id="d3">
<circle cx="389.01491743003373" cy="338.24808103970076" r="25" fill="blue" opacity="1" stroke="none" />
<circle cx="389.01491743003373" cy="338.24808103970076" r="18.75" fill="none" stroke="navy" stroke-width="12.5" stroke-opacity="0.75" />
<circle cx="622.2709248149929" cy="293.49002169156074" r="25" fill="blue" opacity="1" stroke="none" />
<circle cx="622.2709248149929" cy="293.49002169156074" r="18.75" fill="none" stroke="navy" stroke-width="12.5" stroke-opacity="0.75" />
<circle cx="442.5876061022639" cy="326.14103859236343" r="25" fill="blue" opacity="1" stroke="none" />
<circle cx="442.5876061022639" cy="326.14103859236343" r="18.75" fill="none" stroke="navy" stroke-width="12.5" stroke-opacity="0.75" />
<circle cx="410.0469991253749" cy="345.88379709674905" r="25" fill="blue" opacity="1" stroke="none" />
<circle cx="410.0469991253749" cy="345.88379709674905" r="18.75" fill="none" stroke="navy" stroke-width="12.5" stroke-opacity="0.75" />
<circle cx="701.1428219584136" cy="256.8868334401302" r="25" fill="blue" opacity="1" stroke="none" />
<circle cx="701.1428219584136" cy="256.8868334401302" r="18.75" fill="none" stroke="navy" stroke-width="12.5" stroke-opacity="0.75" />
</g>
<g id="d4">
<use xlink:href="#d0" x="250.0" y="250.0" />
<path d="M636.8095153947977,611.1421021339293 L614.0758263842081,847.1378740805039" stroke="#000000" stroke-width="10" stroke-opacity="0.5" fill="none" marker-end="url(#d1)" />
<path d="M876.3675190597169,566.1222534770939 L903.0799183767738,713.6987955449249" stroke="#000000" stroke-width="10" stroke-opacity="0.5" fill="none" marker-end="url(#d1)" />
<path d="M686.2745973011854,598.2576820962387 L593.9192826086252,921.8101489318041" stroke="#000000" stroke-width="10" stroke-opacity="0.5" fill="none" marker-end="url(#d1)" />
<path d="M663.0373597706102,618.6885716672514 L706.4852325894765,950.0261803201718" stroke="#000000" stroke-width="10" stroke-opacity="0.5" fill="none" marker-end="url(#d1)" />
<path d="M959.566843159791,528.288605955479 L1007.9785919342194,651.2817952616884" stroke="#000000" stroke-width="10" stroke-opacity="0.5" fill="none" marker-end="url(#d1)" />
<use xlink:href="#d2" x="250.0" y="250.0" />
<use xlink:href="#d3" x="250.0" y="250.0" />
</g>
</defs>
<rect x="-10" y="-10" width="1520" height="1520" fill="#ffffff" />
<use xlink:href="#d4" x="0" y="0" />
</svg>