<?xml version="1.0" encoding="UTF-8"?>
<svg xmlns="http://www.w3.org/2000/svg" xmlns:xlink="http://www.w3.org/1999/xlink"
     width="3000" height="3000" viewBox="0 0 1500 1500">
<defs>
<g id="d0">
<path d="M-5.0,0 L-5.0,1010.0" fill="none" stroke="#000000" stroke-width="10.0" stroke-opacity="0.75" />
<path d="M-10.0,1005.0 L1000,1005.0" fill="none" stroke="#000000" stroke-width="10.0" stroke-opacity="0.75" />
<path d="M250.0,1010.0 L250.0,1030" fill="none" stroke="#000000" stroke-width="10.0" stroke-opacity="0.75" />
<text x="250.0" y="1110" font-size="80" text-anchor="middle" fill="#000000" fill-opacity="0.75" font-family="Arial">1</text>
<path d="M500.0,1010.0 L500.0,1030" fill="none" stroke="#000000" stroke-width="10.0" stroke-opacity="0.75" />
<text x="500.0" y="1110" font-size="80" text-anchor="middle" fill="#000000" fill-opacity="0.75" font-family="Arial">2</text>
<path d="M750.0,1010.0 L750.0,1030" fill="none" stroke="#000000" stroke-width="10.0" stroke-opacity="0.75" />
<text x="750.0" y="1110" font-size="80" text-anchor="middle" fill="#000000" fill-opacity="0.75" font-family="Arial">3</text>
<path d="M125.0,0 L125.0,1000" fill="none" stroke="#1e1e46" stroke-width="7.5" stroke-opacity="0.25" />
<path d="M250.0,0 L250.0,1000" fill="none" stroke="#1e1e46" stroke-width="7.5" stroke-opacity="0.25" />
<path d="M375.0,0 L375.0,1000" fill="none" stroke="#1e1e46" stroke-width="7.5" stroke-opacity="0.25" />
<path d="M500.0,0 L500.0,1000" fill="none" stroke="#1e1e46" stroke-width="7.5" stroke-opacity="0.25" />
<path d="M625.0,0 L625.0,1000" fill="none" stroke="#1e1e46" stroke-width="7.5" stroke-opacity="0.25" />
<path d="M750.0,0 L750.0,1000" fill="none" stroke="#1e1e46" stroke-width="7.5" stroke-opacity="0.25" />
<path d="M875.0,0 L875.0,1000" fill="none" stroke="#1e1e46" stroke-width="7.5" stroke-opacity="0.25" />
<path d="M-10.0,750.0 L-30,750.0" ill="none" stroke="#000000" stroke-width="10.0" stroke-opacity="0.75" />
<text x="-40" y="773.0" font-size="80" text-anchor="end" fill="#000000" fill-opacity="0.75" font-family="Arial">1</text>
<path d="M-10.0,500.0 L-30,500.0" ill="none" stroke="#000000" stroke-width="10.0" stroke-opacity="0.75" />
<text x="-40" y="523.0" font-size="80" text-anchor="end" fill="#000000" fill-opacity="0.75" font-family="Arial">2</text>
<path d="M-10.0,250.0 L-30,250.0" ill="none" stroke="#000000" stroke-width="10.0" stroke-opacity="0.75" />
<text x="-40" y="273.0" font-size="80" text-anchor="end" fill="#000000" fill-opacity="0.75" font-family="Arial">3</text>
<path d="M0,875.0 L1000,875.0" fill="none" stroke="#1e1e46" stroke-width="7.5" stroke-opacity="0.25" />
<path d="M0,750.0 L1000,750.0" fill="none" stroke="#1e1e46" stroke-width="7.5" stroke-opacity="0.25" />
<path d="M0,625.0 L1000,625.0" fill="none" stroke="#1e1e46" stroke-width="7.5" stroke-opacity="0.25" />
<path d="M0,500.0 L1000,500.0" fill="none" stroke="#1e1e46" stroke-width="7.5" stroke-opacity="0.25" />
<path d="M0,375.0 L1000,375.0" fill="none" stroke="#1e1e46" stroke-width="7.5" stroke-opacity="0.25" />
<path d="M0,250.0 L1000,250.0" fill="none" stroke="#1e1e46" stroke-width="7.5" stroke-opacity="0.25" />
<path d="M0,125.0 L1000,125.0" fill="none" stroke="#1e1e46" stroke-width="7.5" stroke-opacity="0.25" />
<text x="500.0" y="-75" font-size="120" text-anchor="middle" fill="#000000" fill-opacity="0.75" font-family="Arial">absolute improvement</text>
<g>
<text x="-500.0" y="-160" font-size="90" transform="rotate(-90)" text-anchor="middle" fill="#000000" fill-opacity="0.75" font-family="Arial">physics + ML RMSE (kcal/mol)</text>
</g>
<text x="500.0" y="1180" font-size="90" text-anchor="middle" fill="#000000" fill-opacity="0.75" font-family="Arial">physics model RMSE (kcal/mol)</text>
</g>
<marker markerWidth="3.608" markerHeight="4.04" viewBox="-0.002 -0.51 0.902 1.01" orient="auto" id="d1">
<path d="M-0.1,0.5 L-0.1,-0.5 L0.9,0 Z" fill="#000000" opacity="0.5" />
</marker>
<g id="d2">
<circle cx="358.8020389086437" cy="753.6120745025471" r="25" fill="#027f00" opacity="1" stroke="none" />
<circle cx="358.8020389086437" cy="753.6120745025471" r="18.75" fill="none" stroke="#144c13" stroke-width="12.5" stroke-opacity="0.75" />
<circle cx="662.8761220054616" cy="624.7873135453649" r="25" fill="#027f00" opacity="1" stroke="none" />
<circle cx="662.8761220054616" cy="624.7873135453649" r="18.75" fill="none" stroke="#144c13" stroke-width="12.5" stroke-opacity="0.75" />
<circle cx="328.8229572147419" cy="752.6501654505345" r="25" fill="#027f00" opacity="1" stroke="none" />
<circle cx="328.8229572147419" cy="752.6501654505345" r="18.75" fill="none" stroke="#144c13" stroke-width="12.5" stroke-opacity="0.75" />
<circle cx="463.63609500199584" cy="638.7795405321958" r="25" fill="#027f00" opacity="1" stroke="none" />
<circle cx="463.63609500199584" cy="638.7795405321958" r="18.75" fill="none" stroke="#144c13" stroke-width="12.5" stroke-opacity="0.75" />
<circle cx="778.1229904592525" cy="605.3251626835106" r="25" fill="#027f00" opacity="1" stroke="none" />
<circle cx="778.1229904592525" cy="605.3251626835106" r="18.75" fill="none" stroke="#144c13" stroke-width="12.5" stroke-opacity="0.75" />
</g>
<g id="d3">
<circle cx="389.01491743003373" cy="842.6733138721227" r="25" fill="blue" opacity="1" stroke="none" />
<circle cx="389.01491743003373" cy="842.6733138721227" r="18.75" fill="none" stroke="navy" stroke-width="12.5" stroke-opacity="0.75" />
<circle cx="622.2709248149929" cy="773.4056310187189" r="25" fill="blue" opacity="1" stroke="none" />
<circle cx="622.2709248149929" cy="773.4056310187189" r="18.75" fill="none" stroke="navy" stroke-width="12.5" stroke-opacity="0.75" />
<circle cx="442.5876061022639" cy="825.8298560197035" r="25" fill="blue" opacity="1" stroke="none" />
<circle cx="442.5876061022639" cy="825.8298560197035" r="18.75" fill="none" stroke="navy" stroke-width="12.5" stroke-opacity="0.75" />
<circle cx="410.0469991253749" cy="831.3495483464117" r="25" fill="blue" opacity="1" stroke="none" />
<circle cx="410.0469991253749" cy="831.3495483464117" r="18.75" fill="none" stroke="navy" stroke-width="12.5" stroke-opacity="0.75" />
<circle cx="701.1428219584136" cy="767.7827944142023" r="25" fill="blue" opacity="1" stroke="none" />
<circle cx="701.1428219584136" cy="767.7827944142023" r="18.75" fill="none" stroke="navy" stroke-width="12.5" stroke-opacity="0.75" />
</g>
<g id="d4">
<use xlink:href="#d0" x="250.0" y="250.0" />
<path d="M290.0,1210.0 L310.0,1190.0" stroke="#000000" fill="none" stroke-width="8" stroke-opacity="0.75" />
<path d="M330.0,1170.0 L350.0,1150.0" stroke="#000000" fill="none" stroke-width="8" stroke-opacity="0.75" />
<path d="M370.0,1130.0 L390.0,1110.0" stroke="#000000" fill="none" stroke-width="8" stroke-opacity="0.75" />
<path d="M410.0,1090.0 L430.0,1070.0" stroke="#000000" fill="none" stroke-width="8" stroke-opacity="0.75" />
<path d="M450.0,1050.0 L470.0,1030.0" stroke="#000000" fill="none" stroke-width="8" stroke-opacity="0.75" />
<path d="M490.0,1010.0 L510.0,990.0" stroke="#000000" fill="none" stroke-width="8" stroke-opacity="0.75" />
<path d="M530.0,970.0 L550.0,950.0" stroke="#000000" fill="none" stroke-width="8" stroke-opacity="0.75" />
<path d="M570.0,930.0 L590.0,910.0" stroke="#000000" fill="none" stroke-width="8" stroke-opacity="0.75" />
<path d="M610.0,890.0 L630.0,870.0" stroke="#000000" fill="none" stroke-width="8" stroke-opacity="0.75" />
<path d="M650.0,850.0 L670.0,830.0" stroke="#000000" fill="none" stroke-width="8" stroke-opacity="0.75" />
<path d="M690.0,810.0 L710.0,790.0" stroke="#000000" fill="none" stroke-width="8" stroke-opacity="0.75" />
<path d="M730.0,770.0 L750.0,750.0" stroke="#000000" fill="none" stroke-width="8" stroke-opacity="0.75" />
<path d="M770.0,730.0 L790.0,710.0" stroke="#000000" fill="none" stroke-width="8" stroke-opacity="0.75" />
<path d="M810.0,690.0 L830.0,670.0" stroke="#000000" fill="none" stroke-width="8" stroke-opacity="0.75" />
<path d="M850.0,650.0 L870.0,630.0" stroke="#000000" fill="none" stroke-width="8" stroke-opacity="0.75" />
<path d="M890.0,610.0 L910.0,590.0" stroke="#000000" fill="none" stroke-width="8" stroke-opacity="0.75" />
<path d="M930.0,570.0 L950.0000000000001,549.9999999999999" stroke="#000000" fill="none" stroke-width="8" stroke-opacity="0.75" />
<path d="M970.0,530.0 L990.0,510.0" stroke="#000000" fill="none" stroke-width="8" stroke-opacity="0.75" />
<path d="M1010.0,490.0 L1030.0,470.0" stroke="#000000" fill="none" stroke-width="8" stroke-opacity="0.75" />
<path d="M1050.0,450.0 L1070.0,429.9999999999999" stroke="#000000" fill="none" stroke-width="8" stroke-opacity="0.75" />
<path d="M1090.0,410.0 L1110.0,390.0" stroke="#000000" fill="none" stroke-width="8" stroke-opacity="0.75" />
<path d="M1130.0,370.0 L1150.0,350.0" stroke="#000000" fill="none" stroke-width="8" stroke-opacity="0.75" />
<path d="M1170.0,330.0 L1190.0,309.9999999999999" stroke="#000000" fill="none" stroke-width="8" stroke-opacity="0.75" />
<path d="M1210.0,290.0 L1230.0,270.0" stroke="#000000" fill="none" stroke-width="8" stroke-opacity="0.75" />
<path d="M631.6260506310914,1070.8924817615837 L626.4710682104621,1055.696673027749" stroke="#000000" stroke-width="10" stroke-opacity="0.5" fill="none" marker-end="url(#d1)" />
<path d="M878.332758108397,1001.2188291508746 L898.3804336951475,927.8427093162968" stroke="#000000" stroke-width="10" stroke-opacity="0.5" fill="none" marker-end="url(#d1)" />
<path d="M673.2440035163604,1063.3869850086135 L625.0793981810328,1032.4048569987935" stroke="#000000" stroke-width="10" stroke-opacity="0.5" fill="none" marker-end="url(#d1)" />
<path d="M666.2132146924187,1059.1915298072745 L698.8907969068911,941.7661066040456" stroke="#000000" stroke-width="10" stroke-opacity="0.5" fill="none" marker-end="url(#d1)" />
<path d="M960.9915824543816,996.998138614958 L1004.5716066645462,905.0276004643122" stroke="#000000" stroke-width="10" stroke-opacity="0.5" fill="none" marker-end="url(#d1)" />
<use xlink:href="#d2" x="250.0" y="250.0" />
<use xlink:href="#d3" x="250.0" y="250.0" />
</g>
</defs>
<rect x="-10" y="-10" width="1520" height="1520" fill="#ffffff" />
<use xlink:href="#d4" x="0" y="0" />
</svg>