<?xml version="1.0" encoding="UTF-8"?>
<svg xmlns="http://www.w3.org/2000/svg" xmlns:xlink="http://www.w3.org/1999/xlink"
     width="2600" height="2600" viewBox="0 0 1300 1300">
<defs>
<g id="d0">
<path d="M-5.0,0 L-5.0,1010.0" fill="none" stroke="#000000" stroke-width="10.0" stroke-opacity="0.75" />
<path d="M-10.0,1005.0 L1000,1005.0" fill="none" stroke="#000000" stroke-width="10.0" stroke-opacity="0.75" />
<path d="M285.7142857142857,1010.0 L285.7142857142857,1030" fill="none" stroke="#000000" stroke-width="10.0" stroke-opacity="0.75" />
<text x="285.7142857142857" y="1110" font-size="80" text-anchor="middle" fill="#000000" fill-opacity="0.75" font-family="Arial">-5</text>
<path d="M642.8571428571429,1010.0 L642.8571428571429,1030" fill="none" stroke="#000000" stroke-width="10.0" stroke-opacity="0.75" />
<text x="642.8571428571429" y="1110" font-size="80" text-anchor="middle" fill="#000000" fill-opacity="0.75" font-family="Arial">0</text>
<path d="M285.7142857142857,0 L285.7142857142857,1000" fill="none" stroke="#1e1e46" stroke-width="7.5" stroke-opacity="0.25" />
<path d="M642.8571428571429,0 L642.8571428571429,1000" fill="none" stroke="#1e1e46" stroke-width="7.5" stroke-opacity="0.25" />
<path d="M-10.0,500.0 L-30,500.0" ill="none" stroke="#000000" stroke-width="10.0" stroke-opacity="0.75" />
<text x="-40" y="523.0" font-size="80" text-anchor="end" fill="#000000" fill-opacity="0.75" font-family="Arial">5</text>
<path d="M0,500.0 L1000,500.0" fill="none" stroke="#1e1e46" stroke-width="7.5" stroke-opacity="0.25" />
<text x="500.0" y="-75" font-size="120" text-anchor="middle" fill="#000000" fill-opacity="0.75" font-family="Arial">AASC error distribution</text>
</g>
<g id="d1">
<path d="M622.1198156682028,1000.0 V1000.0 M48.38709677419351,1000 V1000.0 M80.64516129032242,1000 V1000.0 M112.90322580645153,1000 V962.5 H145.16129032258058 V1000.0 M177.41935483870964,1000 V1000.0 M209.6774193548386,1000 V887.5 H241.93548387096763 V1000.0 M274.1935483870967,1000 V925.0 H306.45161290322574 V962.5 H338.70967741935476 V925.0 H370.96774193548384 V962.5 H403.22580645161287 V962.5 H435.48387096774184 V962.5 H467.74193548387086 V887.5 H499.99999999999994 V925.0 H532.258064516129 V625.0 H564.516129032258 V925.0 H596.7741935483871 V737.5 H629.032258064516 V737.5 H661.2903225806452 V512.5 H693.5483870967741 V812.5 H725.8064516129034 V850.0 H758.0645161290322 V887.5 H790.3225806451612 V962.5 H822.5806451612904 V925.0 H854.8387096774193 V887.5 H887.0967741935484 V887.5 H919.3548387096773 V925.0 H951.6129032258065 V1000.0 M983.8709677419354,1000 V1000.0" stroke-width="10.0" stroke-opacity="0.75" stroke="none" fill="#ff0000" opacity="0.75" />
<path d="M627.1198156682028,1000.0 V1000.0 M53.38709677419351,1000 V1000.0 M85.64516129032242,1000 V1000.0 M117.90322580645153,1000 V967.5 H140.16129032258058 V1000.0 M182.41935483870964,1000 V1000.0 M214.6774193548386,1000 V892.5 H236.93548387096763 V1000.0 M279.1935483870967,1000 V930.0 H301.45161290322574 V967.5 H343.70967741935476 V930.0 H365.96774193548384 V967.5 H408.22580645161287 V967.5 H440.48387096774184 V967.5 H472.74193548387086 V892.5 H494.99999999999994 V930.0 H537.258064516129 V630.0 H559.516129032258 V930.0 H601.7741935483871 V742.5 H634.032258064516 V742.5 H666.2903225806452 V517.5 H688.5483870967741 V817.5 H720.8064516129034 V855.0 H753.0645161290322 V892.5 H785.3225806451612 V967.5 H827.5806451612904 V930.0 H859.8387096774193 V892.5 H892.0967741935484 V892.5 H914.3548387096773 V930.0 H946.6129032258065 V1000.0 M978.8709677419354,1000 V1000.0" stroke-width="10.0" stroke-opacity="0.5625" stroke="#992626" fill="none" />
</g>
<g id="d2">
<path d="M602.0514345176157,1000.0 V1000.0 M48.38709677419351,1000 V1000.0 M80.64516129032248,1000 V1000.0 M112.90322580645159,1000 V1000.0 M145.16129032258056,1000 V1000.0 M177.41935483870964,1000 V1000.0 M209.67741935483866,1000 V1000.0 M241.9354838709677,1000 V1000.0 M274.19354838709677,1000 V1000.0 M306.45161290322574,1000 V1000.0 M338.7096774193549,1000 V962.5 H370.96774193548384 V962.5 H403.2258064516129 V962.5 H435.4838709677419 V887.5 H467.741935483871 V962.5 H499.99999999999994 V887.5 H532.258064516129 V887.5 H564.516129032258 V737.5 H596.7741935483871 V475.0 H629.0322580645161 V250.0 H661.2903225806451 V550.0 H693.5483870967741 V737.5 H725.8064516129033 V925.0 H758.0645161290322 V887.5 H790.3225806451612 V1000.0 M822.5806451612902,1000 V962.5 H854.8387096774194 V962.5 H887.0967741935484 V1000.0 M919.3548387096773,1000 V1000.0 M951.6129032258063,1000 V1000.0 M983.8709677419355,1000 V1000.0" stroke-width="5.0" stroke-opacity="0.75" stroke="none" fill="#027f00" opacity="0.75" />
<path d="M604.5514345176157,1000.0 V1000.0 M50.88709677419351,1000 V1000.0 M83.14516129032248,1000 V1000.0 M115.40322580645159,1000 V1000.0 M147.66129032258056,1000 V1000.0 M179.91935483870964,1000 V1000.0 M212.17741935483866,1000 V1000.0 M244.4354838709677,1000 V1000.0 M276.69354838709677,1000 V1000.0 M308.95161290322574,1000 V1000.0 M341.2096774193549,1000 V965.0 H373.46774193548384 V965.0 H405.7258064516129 V965.0 H437.9838709677419 V890.0 H465.241935483871 V965.0 H502.49999999999994 V890.0 H534.758064516129 V890.0 H567.016129032258 V740.0 H599.2741935483871 V477.5 H631.5322580645161 V252.5 H658.7903225806451 V552.5 H691.0483870967741 V740.0 H723.3064516129033 V927.5 H760.5645161290322 V890.0 H787.8225806451612 V1000.0 M825.0806451612902,1000 V965.0 H857.3387096774194 V965.0 H884.5967741935484 V1000.0 M921.8548387096773,1000 V1000.0 M954.1129032258063,1000 V1000.0 M981.3709677419355,1000 V1000.0" stroke-width="5.0" stroke-opacity="0.5625" stroke="#144c13" fill="none" />
</g>
<g id="d3">
<use xlink:href="#d0" x="150.0" y="150.0" />
<use xlink:href="#d1" x="150.0" y="150.0" />
<use xlink:href="#d2" x="150.0" y="150.0" />
</g>
</defs>
<rect x="-5" y="-5" width="1310" height="1310" fill="#ffffff" />
<use xlink:href="#d3" x="10" y="30" />
</svg>