<?xml version="1.0" encoding="UTF-8"?>
<svg xmlns="http://www.w3.org/2000/svg" xmlns:xlink="http://www.w3.org/1999/xlink"
     width="2600" height="2600" viewBox="0 0 1300 1300">
<defs>
<g id="d0">
<path d="M-5.0,0 L-5.0,1010.0" fill="none" stroke="#000000" stroke-width="10.0" stroke-opacity="0.75" />
<path d="M-10.0,1005.0 L1000,1005.0" fill="none" stroke="#000000" stroke-width="10.0" stroke-opacity="0.75" />
<path d="M285.7142857142857,1010.0 L285.7142857142857,1030" fill="none" stroke="#000000" stroke-width="10.0" stroke-opacity="0.75" />
<text x="285.7142857142857" y="1090" font-size="75" text-anchor="middle" fill="#000000" fill-opacity="0.75" font-family="Arial">-5</text>
<path d="M642.8571428571429,1010.0 L642.8571428571429,1030" fill="none" stroke="#000000" stroke-width="10.0" stroke-opacity="0.75" />
<text x="642.8571428571429" y="1090" font-size="75" text-anchor="middle" fill="#000000" fill-opacity="0.75" font-family="Arial">0</text>
<path d="M107.14285714285714,0 L107.14285714285714,1000" fill="none" stroke="#1e1e46" stroke-width="7.5" stroke-opacity="0.25" />
<path d="M285.7142857142857,0 L285.7142857142857,1000" fill="none" stroke="#1e1e46" stroke-width="7.5" stroke-opacity="0.25" />
<path d="M464.2857142857143,0 L464.2857142857143,1000" fill="none" stroke="#1e1e46" stroke-width="7.5" stroke-opacity="0.25" />
<path d="M642.8571428571429,0 L642.8571428571429,1000" fill="none" stroke="#1e1e46" stroke-width="7.5" stroke-opacity="0.25" />
<path d="M821.4285714285714,0 L821.4285714285714,1000" fill="none" stroke="#1e1e46" stroke-width="7.5" stroke-opacity="0.25" />
<path d="M-10.0,500.0 L-30,500.0" ill="none" stroke="#000000" stroke-width="10.0" stroke-opacity="0.75" />
<text x="-40" y="523.0" font-size="75" text-anchor="end" fill="#000000" fill-opacity="0.75" font-family="Arial">5</text>
<path d="M0,500.0 L1000,500.0" fill="none" stroke="#1e1e46" stroke-width="7.5" stroke-opacity="0.25" />
<text x="500.0" y="-75" font-size="120" text-anchor="middle" fill="#000000" fill-opacity="0.75" font-family="Arial">asc error distribution</text>
</g>
<g id="d1">
<path d="M622.1198156682028,1000.0 V1000.0 M48.38709677419351,1000 V1000.0 M80.64516129032242,1000 V1000.0 M112.90322580645153,1000 V962.5 H145.16129032258058 V1000.0 M177.41935483870964,1000 V1000.0 M209.6774193548386,1000 V887.5 H241.93548387096763 V1000.0 M274.1935483870967,1000 V925.0 H306.45161290322574 V962.5 H338.70967741935476 V925.0 H370.96774193548384 V962.5 H403.22580645161287 V962.5 H435.48387096774184 V962.5 H467.74193548387086 V887.5 H499.99999999999994 V925.0 H532.258064516129 V625.0 H564.516129032258 V925.0 H596.7741935483871 V737.5 H629.032258064516 V737.5 H661.2903225806452 V512.5 H693.5483870967741 V812.5 H725.8064516129034 V850.0 H758.0645161290322 V887.5 H790.3225806451612 V962.5 H822.5806451612904 V925.0 H854.8387096774193 V887.5 H887.0967741935484 V887.5 H919.3548387096773 V925.0 H951.6129032258065 V1000.0 M983.8709677419354,1000 V1000.0" stroke-width="10.0" stroke-opacity="0.75" stroke="none" fill="#ff0000" opacity="0.75" />
<path d="M627.1198156682028,1000.0 V1000.0 M53.38709677419351,1000 V1000.0 M85.64516129032242,1000 V1000.0 M117.90322580645153,1000 V967.5 H140.16129032258058 V1000.0 M182.41935483870964,1000 V1000.0 M214.6774193548386,1000 V892.5 H236.93548387096763 V1000.0 M279.1935483870967,1000 V930.0 H301.45161290322574 V967.5 H343.70967741935476 V930.0 H365.96774193548384 V967.5 H408.22580645161287 V967.5 H440.48387096774184 V967.5 H472.74193548387086 V892.5 H494.99999999999994 V930.0 H537.258064516129 V630.0 H559.516129032258 V930.0 H601.7741935483871 V742.5 H634.032258064516 V742.5 H666.2903225806452 V517.5 H688.5483870967741 V817.5 H720.8064516129034 V855.0 H753.0645161290322 V892.5 H785.3225806451612 V967.5 H827.5806451612904 V930.0 H859.8387096774193 V892.5 H892.0967741935484 V892.5 H914.3548387096773 V930.0 H946.6129032258065 V1000.0 M978.8709677419354,1000 V1000.0" stroke-width="10.0" stroke-opacity="0.5625" stroke="#992626" fill="none" />
</g>
<g id="d2">
<path d="M615.9602135328741,1000.0 V1000.0 M14.851485148514769,1000 V1000.0 M24.752475247524615,1000 V1000.0 M34.65346534653458,1000 V1000.0 M44.55445544554455,1000 V1000.0 M54.455445544554394,1000 V1000.0 M64.35643564356424,1000 V1000.0 M74.25742574257421,1000 V1000.0 M84.15841584158406,1000 V1000.0 M94.05940594059402,1000 V998.75 H103.96039603960386 V1000.0 M113.86138613861384,1000 V1000.0 M123.76237623762368,1000 V1000.0 M133.66336633663363,1000 V1000.0 M143.5643564356435,1000 V1000.0 M153.4653465346534,1000 V1000.0 M163.3663366336633,1000 V997.5 H173.2673267326732 V998.75 H183.16831683168311 V995.0 H193.06930693069296 V996.25 H202.97029702970292 V996.25 H212.8712871287128 V991.25 H222.77227722772275 V988.75 H232.67326732673257 V987.5 H242.57425742574256 V985.0 H252.47524752475243 V981.25 H262.37623762376234 V972.5 H272.2772277227722 V963.75 H282.178217821782 V972.5 H292.079207920792 V972.5 H301.98019801980183 V972.5 H311.88118811881185 V966.25 H321.7821782178217 V968.75 H331.68316831683165 V967.5 H341.5841584158415 V945.0 H351.48514851485146 V957.5 H361.3861386138613 V951.25 H371.28712871287127 V932.5 H381.1881188118811 V953.75 H391.089108910891 V923.75 H400.990099009901 V925.0 H410.89108910891076 V942.5 H420.7920792079207 V948.75 H430.69306930693057 V967.5 H440.5940594059405 V965.0 H450.4950495049504 V968.75 H460.3960396039604 V966.25 H470.29702970297024 V971.25 H480.1980198019802 V941.25 H490.09900990099004 V915.0 H499.9999999999999 V860.0 H509.9009900990098 V853.75 H519.8019801980197 V858.75 H529.7029702970297 V812.5 H539.6039603960395 V758.75 H549.5049504950495 V752.5 H559.4059405940593 V676.25 H569.3069306930693 V598.75 H579.2079207920792 V566.25 H589.108910891089 V482.5 H599.009900990099 V401.25 H608.9108910891089 V450.0 H618.8118811881188 V447.5 H628.7128712871286 V377.5000000000001 H638.6138613861385 V502.49999999999994 H648.5148514851484 V490.0 H658.4158415841583 V521.25 H668.3168316831683 V598.75 H678.217821782178 V647.5 H688.1188118811881 V738.75 H698.0198019801979 V805.0 H707.9207920792079 V802.5 H717.8217821782176 V870.0 H727.7227722772277 V880.0 H737.6237623762377 V925.0 H747.5247524752475 V931.25 H757.4257425742574 V923.75 H767.3267326732671 V916.25 H777.2277227722772 V932.5 H787.128712871287 V956.25 H797.029702970297 V971.25 H806.9306930693068 V981.25 H816.8316831683168 V993.75 H826.7326732673267 V993.75 H836.6336633663366 V993.75 H846.5346534653464 V986.25 H856.4356435643564 V988.75 H866.3366336633662 V981.25 H876.2376237623762 V983.75 H886.138613861386 V983.75 H896.0396039603959 V990.0 H905.9405940594058 V987.5 H915.8415841584159 V991.25 H925.7425742574256 V993.75 H935.6435643564355 V998.75 H945.5445544554455 V1000.0 M955.4455445544554,1000 V998.75 H965.3465346534654 V1000.0 M975.2475247524751,1000 V998.75 H985.1485148514851 V998.75 H995.049504950495 V1000.0" stroke-width="5.0" stroke-opacity="0.75" stroke="none" fill="#027f00" opacity="0.5" />
<path d="M618.4602135328741,1000.0 V1000.0 M17.35148514851477,1000 V1000.0 M27.252475247524615,1000 V1000.0 M37.15346534653458,1000 V1000.0 M47.05445544554455,1000 V1000.0 M56.955445544554394,1000 V1000.0 M66.85643564356424,1000 V1000.0 M76.75742574257421,1000 V1000.0 M86.65841584158406,1000 V1000.0 M96.55940594059402,1000 V1001.25 H101.46039603960386 V1000.0 M116.36138613861384,1000 V1000.0 M126.26237623762368,1000 V1000.0 M136.16336633663363,1000 V1000.0 M146.0643564356435,1000 V1000.0 M155.9653465346534,1000 V1000.0 M165.8663366336633,1000 V1000.0 H170.7673267326732 V1001.25 H185.66831683168311 V997.5 H190.56930693069296 V998.75 H205.47029702970292 V998.75 H215.3712871287128 V993.75 H225.27227722772275 V991.25 H235.17326732673257 V990.0 H245.07425742574256 V987.5 H254.97524752475243 V983.75 H264.87623762376234 V975.0 H274.7772277227722 V966.25 H279.678217821782 V975.0 H294.579207920792 V975.0 H304.48019801980183 V975.0 H314.38118811881185 V968.75 H319.2821782178217 V971.25 H334.18316831683165 V970.0 H344.0841584158415 V947.5 H348.98514851485146 V960.0 H363.8861386138613 V953.75 H373.78712871287127 V935.0 H378.6881188118811 V956.25 H393.589108910891 V926.25 H398.490099009901 V927.5 H408.39108910891076 V945.0 H418.2920792079207 V951.25 H428.19306930693057 V970.0 H443.0940594059405 V967.5 H447.9950495049504 V971.25 H462.8960396039604 V968.75 H467.79702970297024 V973.75 H482.6980198019802 V943.75 H492.59900990099004 V917.5 H502.4999999999999 V862.5 H512.4009900990097 V856.25 H517.3019801980197 V861.25 H532.2029702970297 V815.0 H542.1039603960395 V761.25 H552.0049504950495 V755.0 H561.9059405940593 V678.75 H571.8069306930693 V601.25 H581.7079207920792 V568.75 H591.608910891089 V485.0 H601.509900990099 V403.75 H606.4108910891089 V452.5 H621.3118811881188 V450.0 H631.2128712871286 V380.0000000000001 H636.1138613861385 V504.99999999999994 H651.0148514851484 V492.5 H655.9158415841583 V523.75 H665.8168316831683 V601.25 H675.717821782178 V650.0 H685.6188118811881 V741.25 H695.5198019801979 V807.5 H710.4207920792079 V805.0 H715.3217821782176 V872.5 H725.2227722772277 V882.5 H735.1237623762377 V927.5 H745.0247524752475 V933.75 H759.9257425742574 V926.25 H769.8267326732671 V918.75 H774.7277227722772 V935.0 H784.628712871287 V958.75 H794.529702970297 V973.75 H804.4306930693068 V983.75 H814.3316831683168 V996.25 H829.2326732673267 V996.25 H839.1336633663366 V996.25 H849.0346534653464 V988.75 H853.9356435643564 V991.25 H868.8366336633662 V983.75 H873.7376237623762 V986.25 H888.638613861386 V986.25 H893.5396039603959 V992.5 H908.4405940594058 V990.0 H913.3415841584159 V993.75 H923.2425742574256 V996.25 H933.1435643564355 V1001.25 H943.0445544554455 V1000.0 M957.9455445544554,1000 V1001.25 H962.8465346534654 V1000.0 M977.7475247524751,1000 V1001.25 H987.6485148514851 V998.75 H992.549504950495 V1000.0" stroke-width="5.0" stroke-opacity="0.375" stroke="#144c13" fill="none" />
</g>
<g id="d3">
<use xlink:href="#d0" x="150.0" y="150.0" />
<use xlink:href="#d1" x="150.0" y="150.0" />
<use xlink:href="#d2" x="150.0" y="150.0" />
</g>
</defs>
<rect x="-5" y="-5" width="1310" height="1310" fill="#ffffff" />
<use xlink:href="#d3" x="10" y="30" />
</svg>