<?xml version="1.0" encoding="UTF-8"?>
<svg xmlns="http://www.w3.org/2000/svg" xmlns:xlink="http://www.w3.org/1999/xlink"
     width="2600" height="2600" viewBox="0 0 1300 1300">
<defs>
<g id="d0">
<path d="M-5.0,0 L-5.0,1010.0" fill="none" stroke="#000000" stroke-width="10.0" stroke-opacity="0.75" />
<path d="M-10.0,1005.0 L1000,1005.0" fill="none" stroke="#000000" stroke-width="10.0" stroke-opacity="0.75" />
<path d="M285.7142857142857,1010.0 L285.7142857142857,1030" fill="none" stroke="#000000" stroke-width="10.0" stroke-opacity="0.75" />
<text x="285.7142857142857" y="1090" font-size="75" text-anchor="middle" fill="#000000" fill-opacity="0.75" font-family="Arial">-5</text>
<path d="M642.8571428571429,1010.0 L642.8571428571429,1030" fill="none" stroke="#000000" stroke-width="10.0" stroke-opacity="0.75" />
<text x="642.8571428571429" y="1090" font-size="75" text-anchor="middle" fill="#000000" fill-opacity="0.75" font-family="Arial">0</text>
<path d="M107.14285714285714,0 L107.14285714285714,1000" fill="none" stroke="#1e1e46" stroke-width="7.5" stroke-opacity="0.25" />
<path d="M285.7142857142857,0 L285.7142857142857,1000" fill="none" stroke="#1e1e46" stroke-width="7.5" stroke-opacity="0.25" />
<path d="M464.2857142857143,0 L464.2857142857143,1000" fill="none" stroke="#1e1e46" stroke-width="7.5" stroke-opacity="0.25" />
<path d="M642.8571428571429,0 L642.8571428571429,1000" fill="none" stroke="#1e1e46" stroke-width="7.5" stroke-opacity="0.25" />
<path d="M821.4285714285714,0 L821.4285714285714,1000" fill="none" stroke="#1e1e46" stroke-width="7.5" stroke-opacity="0.25" />
<path d="M-10.0,500.0 L-30,500.0" ill="none" stroke="#000000" stroke-width="10.0" stroke-opacity="0.75" />
<text x="-40" y="523.0" font-size="75" text-anchor="end" fill="#000000" fill-opacity="0.75" font-family="Arial">5</text>
<path d="M0,500.0 L1000,500.0" fill="none" stroke="#1e1e46" stroke-width="7.5" stroke-opacity="0.25" />
<text x="500.0" y="-75" font-size="120" text-anchor="middle" fill="#000000" fill-opacity="0.75" font-family="Arial">cha error distribution</text>
</g>
<g id="d1">
<path d="M622.1198156682028,1000.0 V1000.0 M48.38709677419351,1000 V1000.0 M80.64516129032242,1000 V1000.0 M112.90322580645153,1000 V1000.0 M145.16129032258058,1000 V1000.0 M177.41935483870964,1000 V1000.0 M209.6774193548386,1000 V1000.0 M241.93548387096763,1000 V1000.0 M274.1935483870967,1000 V1000.0 M306.45161290322574,1000 V1000.0 M338.70967741935476,1000 V962.5 H370.96774193548384 V962.5 H403.22580645161287 V962.5 H435.48387096774184 V962.5 H467.74193548387086 V1000.0 M499.99999999999994,1000 V850.0 H532.258064516129 V737.5 H564.516129032258 V662.5 H596.7741935483871 V437.5 H629.032258064516 V625.0 H661.2903225806452 V625.0 H693.5483870967741 V625.0 H725.8064516129034 V812.5 H758.0645161290322 V850.0 H790.3225806451612 V1000.0 M822.5806451612904,1000 V1000.0 M854.8387096774193,1000 V925.0 H887.0967741935484 V1000.0 M919.3548387096773,1000 V1000.0 M951.6129032258065,1000 V1000.0 M983.8709677419354,1000 V1000.0" stroke-width="10.0" stroke-opacity="0.75" stroke="none" fill="#ff0000" opacity="0.75" />
<path d="M627.1198156682028,1000.0 V1000.0 M53.38709677419351,1000 V1000.0 M85.64516129032242,1000 V1000.0 M117.90322580645153,1000 V1000.0 M150.16129032258058,1000 V1000.0 M182.41935483870964,1000 V1000.0 M214.6774193548386,1000 V1000.0 M246.93548387096763,1000 V1000.0 M279.1935483870967,1000 V1000.0 M311.45161290322574,1000 V1000.0 M343.70967741935476,1000 V967.5 H375.96774193548384 V967.5 H408.22580645161287 V967.5 H440.48387096774184 V967.5 H462.74193548387086 V1000.0 M504.99999999999994,1000 V855.0 H537.258064516129 V742.5 H569.516129032258 V667.5 H601.7741935483871 V442.5 H624.032258064516 V630.0 H666.2903225806452 V630.0 H698.5483870967741 V630.0 H720.8064516129034 V817.5 H753.0645161290322 V855.0 H785.3225806451612 V1000.0 M827.5806451612904,1000 V1000.0 M859.8387096774193,1000 V930.0 H882.0967741935484 V1000.0 M924.3548387096773,1000 V1000.0 M956.6129032258065,1000 V1000.0 M978.8709677419354,1000 V1000.0" stroke-width="10.0" stroke-opacity="0.5625" stroke="#992626" fill="none" />
</g>
<g id="d2">
<path d="M615.9602135328741,1000.0 V1000.0 M14.851485148514769,1000 V1000.0 M24.752475247524615,1000 V1000.0 M34.65346534653458,1000 V1000.0 M44.55445544554455,1000 V1000.0 M54.455445544554394,1000 V1000.0 M64.35643564356424,1000 V1000.0 M74.25742574257421,1000 V1000.0 M84.15841584158406,1000 V1000.0 M94.05940594059402,1000 V1000.0 M103.96039603960386,1000 V1000.0 M113.86138613861384,1000 V1000.0 M123.76237623762368,1000 V1000.0 M133.66336633663363,1000 V1000.0 M143.5643564356435,1000 V1000.0 M153.4653465346534,1000 V1000.0 M163.3663366336633,1000 V1000.0 M173.2673267326732,1000 V1000.0 M183.16831683168311,1000 V1000.0 M193.06930693069296,1000 V1000.0 M202.97029702970292,1000 V1000.0 M212.8712871287128,1000 V1000.0 M222.77227722772275,1000 V1000.0 M232.67326732673257,1000 V1000.0 M242.57425742574256,1000 V1000.0 M252.47524752475243,1000 V1000.0 M262.37623762376234,1000 V1000.0 M272.2772277227722,1000 V1000.0 M282.178217821782,1000 V1000.0 M292.079207920792,1000 V998.75 H301.98019801980183 V998.75 H311.88118811881185 V1000.0 M321.7821782178217,1000 V997.5 H331.68316831683165 V997.5 H341.5841584158415 V996.25 H351.48514851485146 V995.0 H361.3861386138613 V993.75 H371.28712871287127 V987.5 H381.1881188118811 V972.5 H391.089108910891 V972.5 H400.990099009901 V961.25 H410.89108910891076 V957.5 H420.7920792079207 V962.5 H430.69306930693057 V971.25 H440.5940594059405 V960.0 H450.4950495049504 V952.5 H460.3960396039604 V951.25 H470.29702970297024 V946.25 H480.1980198019802 V943.75 H490.09900990099004 V941.25 H499.9999999999999 V927.5 H509.9009900990098 V927.5 H519.8019801980197 V903.75 H529.7029702970297 V855.0 H539.6039603960395 V841.25 H549.5049504950495 V770.0 H559.4059405940593 V668.75 H569.3069306930693 V493.75 H579.2079207920792 V370.0 H589.108910891089 V261.2500000000001 H599.009900990099 V158.7499999999999 H608.9108910891089 V192.4999999999999 H618.8118811881188 V192.4999999999999 H628.7128712871286 V131.25 H638.6138613861385 V328.75 H648.5148514851484 V516.25 H658.4158415841583 V577.5 H668.3168316831683 V672.5 H678.217821782178 V692.5 H688.1188118811881 V792.5 H698.0198019801979 V806.25 H707.9207920792079 V858.75 H717.8217821782176 V935.0 H727.7227722772277 V960.0 H737.6237623762377 V975.0 H747.5247524752475 V978.75 H757.4257425742574 V985.0 H767.3267326732671 V973.75 H777.2277227722772 V961.25 H787.128712871287 V966.25 H797.029702970297 V970.0 H806.9306930693068 V976.25 H816.8316831683168 V981.25 H826.7326732673267 V991.25 H836.6336633663366 V987.5 H846.5346534653464 V998.75 H856.4356435643564 V992.5 H866.3366336633662 V992.5 H876.2376237623762 V997.5 H886.138613861386 V993.75 H896.0396039603959 V995.0 H905.9405940594058 V997.5 H915.8415841584159 V998.75 H925.7425742574256 V998.75 H935.6435643564355 V1000.0 M945.5445544554455,1000 V1000.0 M955.4455445544554,1000 V997.5 H965.3465346534654 V1000.0 M975.2475247524751,1000 V1000.0 M985.1485148514851,1000 V1000.0 M995.049504950495,1000 V1000.0" stroke-width="5.0" stroke-opacity="0.75" stroke="none" fill="#027f00" opacity="0.5" />
<path d="M618.4602135328741,1000.0 V1000.0 M17.35148514851477,1000 V1000.0 M27.252475247524615,1000 V1000.0 M37.15346534653458,1000 V1000.0 M47.05445544554455,1000 V1000.0 M56.955445544554394,1000 V1000.0 M66.85643564356424,1000 V1000.0 M76.75742574257421,1000 V1000.0 M86.65841584158406,1000 V1000.0 M96.55940594059402,1000 V1000.0 M106.46039603960386,1000 V1000.0 M116.36138613861384,1000 V1000.0 M126.26237623762368,1000 V1000.0 M136.16336633663363,1000 V1000.0 M146.0643564356435,1000 V1000.0 M155.9653465346534,1000 V1000.0 M165.8663366336633,1000 V1000.0 M175.7673267326732,1000 V1000.0 M185.66831683168311,1000 V1000.0 M195.56930693069296,1000 V1000.0 M205.47029702970292,1000 V1000.0 M215.3712871287128,1000 V1000.0 M225.27227722772275,1000 V1000.0 M235.17326732673257,1000 V1000.0 M245.07425742574256,1000 V1000.0 M254.97524752475243,1000 V1000.0 M264.87623762376234,1000 V1000.0 M274.7772277227722,1000 V1000.0 M284.678217821782,1000 V1000.0 M294.579207920792,1000 V1001.25 H304.48019801980183 V1001.25 H309.38118811881185 V1000.0 M324.2821782178217,1000 V1000.0 H334.18316831683165 V1000.0 H344.0841584158415 V998.75 H353.98514851485146 V997.5 H363.8861386138613 V996.25 H373.78712871287127 V990.0 H383.6881188118811 V975.0 H393.589108910891 V975.0 H403.490099009901 V963.75 H413.39108910891076 V960.0 H418.2920792079207 V965.0 H428.19306930693057 V973.75 H443.0940594059405 V962.5 H452.9950495049504 V955.0 H462.8960396039604 V953.75 H472.79702970297024 V948.75 H482.6980198019802 V946.25 H492.59900990099004 V943.75 H502.4999999999999 V930.0 H512.4009900990097 V930.0 H522.3019801980197 V906.25 H532.2029702970297 V857.5 H542.1039603960395 V843.75 H552.0049504950495 V772.5 H561.9059405940593 V671.25 H571.8069306930693 V496.25 H581.7079207920792 V372.5 H591.608910891089 V263.7500000000001 H601.509900990099 V161.2499999999999 H606.4108910891089 V194.9999999999999 H621.3118811881188 V194.9999999999999 H631.2128712871286 V133.75 H636.1138613861385 V331.25 H646.0148514851484 V518.75 H655.9158415841583 V580.0 H665.8168316831683 V675.0 H675.717821782178 V695.0 H685.6188118811881 V795.0 H695.5198019801979 V808.75 H705.4207920792079 V861.25 H715.3217821782176 V937.5 H725.2227722772277 V962.5 H735.1237623762377 V977.5 H745.0247524752475 V981.25 H754.9257425742574 V987.5 H769.8267326732671 V976.25 H779.7277227722772 V963.75 H784.628712871287 V968.75 H794.529702970297 V972.5 H804.4306930693068 V978.75 H814.3316831683168 V983.75 H824.2326732673267 V993.75 H839.1336633663366 V990.0 H844.0346534653464 V1001.25 H858.9356435643564 V995.0 H868.8366336633662 V995.0 H873.7376237623762 V1000.0 H888.638613861386 V996.25 H893.5396039603959 V997.5 H903.4405940594058 V1000.0 H913.3415841584159 V1001.25 H928.2425742574256 V1001.25 H933.1435643564355 V1000.0 M948.0445544554455,1000 V1000.0 M957.9455445544554,1000 V1000.0 H962.8465346534654 V1000.0 M977.7475247524751,1000 V1000.0 M987.6485148514851,1000 V1000.0 M992.549504950495,1000 V1000.0" stroke-width="5.0" stroke-opacity="0.375" stroke="#144c13" fill="none" />
</g>
<g id="d3">
<use xlink:href="#d0" x="150.0" y="150.0" />
<use xlink:href="#d1" x="150.0" y="150.0" />
<use xlink:href="#d2" x="150.0" y="150.0" />
</g>
</defs>
<rect x="-5" y="-5" width="1310" height="1310" fill="#ffffff" />
<use xlink:href="#d3" x="10" y="30" />
</svg>