<?xml version="1.0" encoding="UTF-8"?>
<svg xmlns="http://www.w3.org/2000/svg" xmlns:xlink="http://www.w3.org/1999/xlink"
     width="2600" height="2600" viewBox="0 0 1300 1300">
<defs>
<g id="d0">
<path d="M-5.0,0 L-5.0,1010.0" fill="none" stroke="#000000" stroke-width="10.0" stroke-opacity="0.75" />
<path d="M-10.0,1005.0 L1000,1005.0" fill="none" stroke="#000000" stroke-width="10.0" stroke-opacity="0.75" />
<path d="M285.7142857142857,1010.0 L285.7142857142857,1030" fill="none" stroke="#000000" stroke-width="10.0" stroke-opacity="0.75" />
<text x="285.7142857142857" y="1090" font-size="75" text-anchor="middle" fill="#000000" fill-opacity="0.75" font-family="Arial">-5</text>
<path d="M642.8571428571429,1010.0 L642.8571428571429,1030" fill="none" stroke="#000000" stroke-width="10.0" stroke-opacity="0.75" />
<text x="642.8571428571429" y="1090" font-size="75" text-anchor="middle" fill="#000000" fill-opacity="0.75" font-family="Arial">0</text>
<path d="M107.14285714285714,0 L107.14285714285714,1000" fill="none" stroke="#1e1e46" stroke-width="7.5" stroke-opacity="0.25" />
<path d="M285.7142857142857,0 L285.7142857142857,1000" fill="none" stroke="#1e1e46" stroke-width="7.5" stroke-opacity="0.25" />
<path d="M464.2857142857143,0 L464.2857142857143,1000" fill="none" stroke="#1e1e46" stroke-width="7.5" stroke-opacity="0.25" />
<path d="M642.8571428571429,0 L642.8571428571429,1000" fill="none" stroke="#1e1e46" stroke-width="7.5" stroke-opacity="0.25" />
<path d="M821.4285714285714,0 L821.4285714285714,1000" fill="none" stroke="#1e1e46" stroke-width="7.5" stroke-opacity="0.25" />
<path d="M-10.0,500.0 L-30,500.0" ill="none" stroke="#000000" stroke-width="10.0" stroke-opacity="0.75" />
<text x="-40" y="523.0" font-size="75" text-anchor="end" fill="#000000" fill-opacity="0.75" font-family="Arial">5</text>
<path d="M0,500.0 L1000,500.0" fill="none" stroke="#1e1e46" stroke-width="7.5" stroke-opacity="0.25" />
<text x="500.0" y="-75" font-size="120" text-anchor="middle" fill="#000000" fill-opacity="0.75" font-family="Arial">igb5 error distribution</text>
</g>
<g id="d1">
<path d="M622.1198156682028,1000.0 V1000.0 M48.38709677419351,1000 V1000.0 M80.64516129032242,1000 V1000.0 M112.90322580645153,1000 V962.5 H145.16129032258058 V962.5 H177.41935483870964 V1000.0 M209.6774193548386,1000 V962.5 H241.93548387096763 V925.0 H274.1935483870967 V962.5 H306.45161290322574 V925.0 H338.70967741935476 V962.5 H370.96774193548384 V925.0 H403.22580645161287 V925.0 H435.48387096774184 V737.5 H467.74193548387086 V812.5 H499.99999999999994 V850.0 H532.258064516129 V550.0 H564.516129032258 V662.5 H596.7741935483871 V737.5 H629.032258064516 V887.5 H661.2903225806452 V812.5 H693.5483870967741 V925.0 H725.8064516129034 V700.0 H758.0645161290322 V1000.0 M790.3225806451612,1000 V962.5 H822.5806451612904 V1000.0 M854.8387096774193,1000 V1000.0 M887.0967741935484,1000 V1000.0 M919.3548387096773,1000 V1000.0 M951.6129032258065,1000 V1000.0 M983.8709677419354,1000 V1000.0" stroke-width="10.0" stroke-opacity="0.75" stroke="none" fill="#ff0000" opacity="0.75" />
<path d="M627.1198156682028,1000.0 V1000.0 M53.38709677419351,1000 V1000.0 M85.64516129032242,1000 V1000.0 M117.90322580645153,1000 V967.5 H150.16129032258058 V967.5 H172.41935483870964 V1000.0 M214.6774193548386,1000 V967.5 H246.93548387096763 V930.0 H269.1935483870967 V967.5 H311.45161290322574 V930.0 H333.70967741935476 V967.5 H375.96774193548384 V930.0 H408.22580645161287 V930.0 H440.48387096774184 V742.5 H462.74193548387086 V817.5 H494.99999999999994 V855.0 H537.258064516129 V555.0 H559.516129032258 V667.5 H591.7741935483871 V742.5 H624.032258064516 V892.5 H666.2903225806452 V817.5 H688.5483870967741 V930.0 H730.8064516129034 V705.0 H753.0645161290322 V1000.0 M795.3225806451612,1000 V967.5 H817.5806451612904 V1000.0 M859.8387096774193,1000 V1000.0 M892.0967741935484,1000 V1000.0 M924.3548387096773,1000 V1000.0 M956.6129032258065,1000 V1000.0 M978.8709677419354,1000 V1000.0" stroke-width="10.0" stroke-opacity="0.5625" stroke="#992626" fill="none" />
</g>
<g id="d2">
<path d="M615.9602135328741,1000.0 V995.0 H14.851485148514769 V997.5 H24.752475247524615 V996.25 H34.65346534653458 V992.5 H44.55445544554455 V995.0 H54.455445544554394 V993.75 H64.35643564356424 V996.25 H74.25742574257421 V997.5 H84.15841584158406 V990.0 H94.05940594059402 V991.25 H103.96039603960386 V988.75 H113.86138613861384 V995.0 H123.76237623762368 V993.75 H133.66336633663363 V992.5 H143.5643564356435 V991.25 H153.4653465346534 V988.75 H163.3663366336633 V987.5 H173.2673267326732 V991.25 H183.16831683168311 V991.25 H193.06930693069296 V991.25 H202.97029702970292 V997.5 H212.8712871287128 V983.75 H222.77227722772275 V993.75 H232.67326732673257 V990.0 H242.57425742574256 V993.75 H252.47524752475243 V982.5 H262.37623762376234 V991.25 H272.2772277227722 V992.5 H282.178217821782 V993.75 H292.079207920792 V986.25 H301.98019801980183 V993.75 H311.88118811881185 V991.25 H321.7821782178217 V983.75 H331.68316831683165 V987.5 H341.5841584158415 V982.5 H351.48514851485146 V957.5 H361.3861386138613 V962.5 H371.28712871287127 V961.25 H381.1881188118811 V935.0 H391.089108910891 V930.0 H400.990099009901 V950.0 H410.89108910891076 V945.0 H420.7920792079207 V936.25 H430.69306930693057 V938.75 H440.5940594059405 V925.0 H450.4950495049504 V905.0 H460.3960396039604 V930.0 H470.29702970297024 V920.0 H480.1980198019802 V906.25 H490.09900990099004 V886.25 H499.9999999999999 V846.25 H509.9009900990098 V857.5 H519.8019801980197 V796.25 H529.7029702970297 V767.5 H539.6039603960395 V725.0 H549.5049504950495 V621.25 H559.4059405940593 V483.75 H569.3069306930693 V467.5 H579.2079207920792 V403.75 H589.108910891089 V458.75 H599.009900990099 V465.0000000000001 H608.9108910891089 V382.5000000000001 H618.8118811881188 V411.2500000000001 H628.7128712871286 V466.25 H638.6138613861385 V527.5 H648.5148514851484 V585.0 H658.4158415841583 V673.75 H668.3168316831683 V752.5 H678.217821782178 V797.5 H688.1188118811881 V791.25 H698.0198019801979 V846.25 H707.9207920792079 V855.0 H717.8217821782176 V870.0 H727.7227722772277 V892.5 H737.6237623762377 V920.0 H747.5247524752475 V945.0 H757.4257425742574 V966.25 H767.3267326732671 V972.5 H777.2277227722772 V982.5 H787.128712871287 V976.25 H797.029702970297 V983.75 H806.9306930693068 V981.25 H816.8316831683168 V973.75 H826.7326732673267 V975.0 H836.6336633663366 V973.75 H846.5346534653464 V958.75 H856.4356435643564 V992.5 H866.3366336633662 V990.0 H876.2376237623762 V990.0 H886.138613861386 V996.25 H896.0396039603959 V997.5 H905.9405940594058 V998.75 H915.8415841584159 V998.75 H925.7425742574256 V1000.0 M935.6435643564355,1000 V1000.0 M945.5445544554455,1000 V1000.0 M955.4455445544554,1000 V1000.0 M965.3465346534654,1000 V1000.0 M975.2475247524751,1000 V1000.0 M985.1485148514851,1000 V1000.0 M995.049504950495,1000 V1000.0" stroke-width="5.0" stroke-opacity="0.75" stroke="none" fill="#027f00" opacity="0.5" />
<path d="M618.4602135328741,1000.0 V997.5 H12.351485148514769 V1000.0 H27.252475247524615 V998.75 H37.15346534653458 V995.0 H42.05445544554455 V997.5 H56.955445544554394 V996.25 H61.85643564356424 V998.75 H71.75742574257421 V1000.0 H86.65841584158406 V992.5 H91.55940594059402 V993.75 H106.46039603960386 V991.25 H111.36138613861384 V997.5 H126.26237623762368 V996.25 H136.16336633663363 V995.0 H146.0643564356435 V993.75 H155.9653465346534 V991.25 H165.8663366336633 V990.0 H170.7673267326732 V993.75 H185.66831683168311 V993.75 H195.56930693069296 V993.75 H200.47029702970292 V1000.0 H215.3712871287128 V986.25 H220.27227722772275 V996.25 H235.17326732673257 V992.5 H240.07425742574256 V996.25 H254.97524752475243 V985.0 H259.87623762376234 V993.75 H269.7772277227722 V995.0 H279.678217821782 V996.25 H294.579207920792 V988.75 H299.48019801980183 V996.25 H314.38118811881185 V993.75 H324.2821782178217 V986.25 H329.18316831683165 V990.0 H344.0841584158415 V985.0 H353.98514851485146 V960.0 H358.8861386138613 V965.0 H373.78712871287127 V963.75 H383.6881188118811 V937.5 H393.589108910891 V932.5 H398.490099009901 V952.5 H413.39108910891076 V947.5 H423.2920792079207 V938.75 H428.19306930693057 V941.25 H443.0940594059405 V927.5 H452.9950495049504 V907.5 H457.8960396039604 V932.5 H472.79702970297024 V922.5 H482.6980198019802 V908.75 H492.59900990099004 V888.75 H502.4999999999999 V848.75 H507.4009900990098 V860.0 H522.3019801980197 V798.75 H532.2029702970297 V770.0 H542.1039603960395 V727.5 H552.0049504950495 V623.75 H561.9059405940593 V486.25 H571.8069306930693 V470.0 H581.7079207920792 V406.25 H586.608910891089 V461.25 H596.509900990099 V467.5000000000001 H611.4108910891089 V385.0000000000001 H616.3118811881188 V413.7500000000001 H626.2128712871286 V468.75 H636.1138613861385 V530.0 H646.0148514851484 V587.5 H655.9158415841583 V676.25 H665.8168316831683 V755.0 H675.717821782178 V800.0 H690.6188118811881 V793.75 H695.5198019801979 V848.75 H705.4207920792079 V857.5 H715.3217821782176 V872.5 H725.2227722772277 V895.0 H735.1237623762377 V922.5 H745.0247524752475 V947.5 H754.9257425742574 V968.75 H764.8267326732671 V975.0 H774.7277227722772 V985.0 H789.628712871287 V978.75 H794.529702970297 V986.25 H809.4306930693068 V983.75 H819.3316831683168 V976.25 H824.2326732673267 V977.5 H839.1336633663366 V976.25 H849.0346534653464 V961.25 H853.9356435643564 V995.0 H868.8366336633662 V992.5 H878.7376237623762 V992.5 H883.638613861386 V998.75 H893.5396039603959 V1000.0 H903.4405940594058 V1001.25 H918.3415841584159 V1001.25 H923.2425742574256 V1000.0 M938.1435643564355,1000 V1000.0 M948.0445544554455,1000 V1000.0 M957.9455445544554,1000 V1000.0 M967.8465346534654,1000 V1000.0 M977.7475247524751,1000 V1000.0 M987.6485148514851,1000 V1000.0 M992.549504950495,1000 V1000.0" stroke-width="5.0" stroke-opacity="0.375" stroke="#144c13" fill="none" />
</g>
<g id="d3">
<use xlink:href="#d0" x="150.0" y="150.0" />
<use xlink:href="#d1" x="150.0" y="150.0" />
<use xlink:href="#d2" x="150.0" y="150.0" />
</g>
</defs>
<rect x="-5" y="-5" width="1310" height="1310" fill="#ffffff" />
<use xlink:href="#d3" x="10" y="30" />
</svg>