<?xml version="1.0" encoding="UTF-8"?>
<svg xmlns="http://www.w3.org/2000/svg" xmlns:xlink="http://www.w3.org/1999/xlink"
     width="2600" height="2600" viewBox="0 0 1300 1300">
<defs>
<g id="d0">
<path d="M-5.0,0 L-5.0,1010.0" fill="none" stroke="#000000" stroke-width="10.0" stroke-opacity="0.75" />
<path d="M-10.0,1005.0 L1000,1005.0" fill="none" stroke="#000000" stroke-width="10.0" stroke-opacity="0.75" />
<path d="M285.7142857142857,1010.0 L285.7142857142857,1030" fill="none" stroke="#000000" stroke-width="10.0" stroke-opacity="0.75" />
<text x="285.7142857142857" y="1090" font-size="75" text-anchor="middle" fill="#000000" fill-opacity="0.75" font-family="Arial">-5</text>
<path d="M642.8571428571429,1010.0 L642.8571428571429,1030" fill="none" stroke="#000000" stroke-width="10.0" stroke-opacity="0.75" />
<text x="642.8571428571429" y="1090" font-size="75" text-anchor="middle" fill="#000000" fill-opacity="0.75" font-family="Arial">0</text>
<path d="M107.14285714285714,0 L107.14285714285714,1000" fill="none" stroke="#1e1e46" stroke-width="7.5" stroke-opacity="0.25" />
<path d="M285.7142857142857,0 L285.7142857142857,1000" fill="none" stroke="#1e1e46" stroke-width="7.5" stroke-opacity="0.25" />
<path d="M464.2857142857143,0 L464.2857142857143,1000" fill="none" stroke="#1e1e46" stroke-width="7.5" stroke-opacity="0.25" />
<path d="M642.8571428571429,0 L642.8571428571429,1000" fill="none" stroke="#1e1e46" stroke-width="7.5" stroke-opacity="0.25" />
<path d="M821.4285714285714,0 L821.4285714285714,1000" fill="none" stroke="#1e1e46" stroke-width="7.5" stroke-opacity="0.25" />
<path d="M-10.0,500.0 L-30,500.0" ill="none" stroke="#000000" stroke-width="10.0" stroke-opacity="0.75" />
<text x="-40" y="523.0" font-size="75" text-anchor="end" fill="#000000" fill-opacity="0.75" font-family="Arial">5</text>
<path d="M0,500.0 L1000,500.0" fill="none" stroke="#1e1e46" stroke-width="7.5" stroke-opacity="0.25" />
<text x="500.0" y="-75" font-size="120" text-anchor="middle" fill="#000000" fill-opacity="0.75" font-family="Arial">null error distribution</text>
</g>
<g id="d1">
<path d="M622.1198156682028,1000.0 V1000.0 M48.38709677419351,1000 V1000.0 M80.64516129032242,1000 V1000.0 M112.90322580645153,1000 V1000.0 M145.16129032258058,1000 V1000.0 M177.41935483870964,1000 V1000.0 M209.6774193548386,1000 V1000.0 M241.93548387096763,1000 V1000.0 M274.1935483870967,1000 V1000.0 M306.45161290322574,1000 V1000.0 M338.70967741935476,1000 V1000.0 M370.96774193548384,1000 V1000.0 M403.22580645161287,1000 V1000.0 M435.48387096774184,1000 V925.0 H467.74193548387086 V962.5 H499.99999999999994 V925.0 H532.258064516129 V925.0 H564.516129032258 V1000.0 M596.7741935483871,1000 V962.5 H629.032258064516 V850.0 H661.2903225806452 V812.5 H693.5483870967741 V925.0 H725.8064516129034 V887.5 H758.0645161290322 V850.0 H790.3225806451612 V812.5 H822.5806451612904 V850.0 H854.8387096774193 V850.0 H887.0967741935484 V775.0 H919.3548387096773 V775.0 H951.6129032258065 V850.0 H983.8709677419354 V1000.0" stroke-width="10.0" stroke-opacity="0.75" stroke="none" fill="#ff0000" opacity="0.75" />
<path d="M627.1198156682028,1000.0 V1000.0 M53.38709677419351,1000 V1000.0 M85.64516129032242,1000 V1000.0 M117.90322580645153,1000 V1000.0 M150.16129032258058,1000 V1000.0 M182.41935483870964,1000 V1000.0 M214.6774193548386,1000 V1000.0 M246.93548387096763,1000 V1000.0 M279.1935483870967,1000 V1000.0 M311.45161290322574,1000 V1000.0 M343.70967741935476,1000 V1000.0 M375.96774193548384,1000 V1000.0 M408.22580645161287,1000 V1000.0 M440.48387096774184,1000 V930.0 H462.74193548387086 V967.5 H504.99999999999994 V930.0 H537.258064516129 V930.0 H559.516129032258 V1000.0 M601.7741935483871,1000 V967.5 H634.032258064516 V855.0 H666.2903225806452 V817.5 H688.5483870967741 V930.0 H730.8064516129034 V892.5 H763.0645161290322 V855.0 H795.3225806451612 V817.5 H817.5806451612904 V855.0 H859.8387096774193 V855.0 H892.0967741935484 V780.0 H924.3548387096773 V780.0 H946.6129032258065 V850.0 H978.8709677419354 V1000.0" stroke-width="10.0" stroke-opacity="0.5625" stroke="#992626" fill="none" />
</g>
<g id="d2">
<path d="M615.9602135328741,1000.0 V1000.0 M14.851485148514769,1000 V1000.0 M24.752475247524615,1000 V1000.0 M34.65346534653458,1000 V1000.0 M44.55445544554455,1000 V1000.0 M54.455445544554394,1000 V1000.0 M64.35643564356424,1000 V1000.0 M74.25742574257421,1000 V1000.0 M84.15841584158406,1000 V1000.0 M94.05940594059402,1000 V1000.0 M103.96039603960386,1000 V1000.0 M113.86138613861384,1000 V1000.0 M123.76237623762368,1000 V1000.0 M133.66336633663363,1000 V1000.0 M143.5643564356435,1000 V1000.0 M153.4653465346534,1000 V1000.0 M163.3663366336633,1000 V1000.0 M173.2673267326732,1000 V1000.0 M183.16831683168311,1000 V1000.0 M193.06930693069296,1000 V1000.0 M202.97029702970292,1000 V1000.0 M212.8712871287128,1000 V1000.0 M222.77227722772275,1000 V1000.0 M232.67326732673257,1000 V1000.0 M242.57425742574256,1000 V1000.0 M252.47524752475243,1000 V1000.0 M262.37623762376234,1000 V1000.0 M272.2772277227722,1000 V1000.0 M282.178217821782,1000 V1000.0 M292.079207920792,1000 V1000.0 M301.98019801980183,1000 V998.75 H311.88118811881185 V1000.0 M321.7821782178217,1000 V1000.0 M331.68316831683165,1000 V1000.0 M341.5841584158415,1000 V1000.0 M351.48514851485146,1000 V998.75 H361.3861386138613 V998.75 H371.28712871287127 V1000.0 M381.1881188118811,1000 V997.5 H391.089108910891 V998.75 H400.990099009901 V998.75 H410.89108910891076 V995.0 H420.7920792079207 V997.5 H430.69306930693057 V997.5 H440.5940594059405 V995.0 H450.4950495049504 V993.75 H460.3960396039604 V993.75 H470.29702970297024 V988.75 H480.1980198019802 V977.5 H490.09900990099004 V966.25 H499.9999999999999 V962.5 H509.9009900990098 V952.5 H519.8019801980197 V942.5 H529.7029702970297 V918.75 H539.6039603960395 V883.75 H549.5049504950495 V827.5 H559.4059405940593 V800.0 H569.3069306930693 V787.5 H579.2079207920792 V726.25 H589.108910891089 V627.5 H599.009900990099 V518.75 H608.9108910891089 V419.9999999999999 H618.8118811881188 V315.0 H628.7128712871286 V197.5 H638.6138613861385 V270.0 H648.5148514851484 V347.4999999999999 H658.4158415841583 V535.0 H668.3168316831683 V556.25 H678.217821782178 V620.0 H688.1188118811881 V693.75 H698.0198019801979 V698.75 H707.9207920792079 V746.25 H717.8217821782176 V692.5 H727.7227722772277 V765.0 H737.6237623762377 V793.75 H747.5247524752475 V841.25 H757.4257425742574 V836.25 H767.3267326732671 V900.0 H777.2277227722772 V896.25 H787.128712871287 V888.75 H797.029702970297 V912.5 H806.9306930693068 V926.25 H816.8316831683168 V918.75 H826.7326732673267 V927.5 H836.6336633663366 V947.5 H846.5346534653464 V950.0 H856.4356435643564 V932.5 H866.3366336633662 V955.0 H876.2376237623762 V978.75 H886.138613861386 V971.25 H896.0396039603959 V982.5 H905.9405940594058 V986.25 H915.8415841584159 V987.5 H925.7425742574256 V996.25 H935.6435643564355 V987.5 H945.5445544554455 V990.0 H955.4455445544554 V990.0 H965.3465346534654 V992.5 H975.2475247524751 V985.0 H985.1485148514851 V997.5 H995.049504950495 V1000.0" stroke-width="5.0" stroke-opacity="0.75" stroke="none" fill="#027f00" opacity="0.5" />
<path d="M618.4602135328741,1000.0 V1000.0 M17.35148514851477,1000 V1000.0 M27.252475247524615,1000 V1000.0 M37.15346534653458,1000 V1000.0 M47.05445544554455,1000 V1000.0 M56.955445544554394,1000 V1000.0 M66.85643564356424,1000 V1000.0 M76.75742574257421,1000 V1000.0 M86.65841584158406,1000 V1000.0 M96.55940594059402,1000 V1000.0 M106.46039603960386,1000 V1000.0 M116.36138613861384,1000 V1000.0 M126.26237623762368,1000 V1000.0 M136.16336633663363,1000 V1000.0 M146.0643564356435,1000 V1000.0 M155.9653465346534,1000 V1000.0 M165.8663366336633,1000 V1000.0 M175.7673267326732,1000 V1000.0 M185.66831683168311,1000 V1000.0 M195.56930693069296,1000 V1000.0 M205.47029702970292,1000 V1000.0 M215.3712871287128,1000 V1000.0 M225.27227722772275,1000 V1000.0 M235.17326732673257,1000 V1000.0 M245.07425742574256,1000 V1000.0 M254.97524752475243,1000 V1000.0 M264.87623762376234,1000 V1000.0 M274.7772277227722,1000 V1000.0 M284.678217821782,1000 V1000.0 M294.579207920792,1000 V1000.0 M304.48019801980183,1000 V1001.25 H309.38118811881185 V1000.0 M324.2821782178217,1000 V1000.0 M334.18316831683165,1000 V1000.0 M344.0841584158415,1000 V1000.0 M353.98514851485146,1000 V1001.25 H363.8861386138613 V1001.25 H368.78712871287127 V1000.0 M383.6881188118811,1000 V1000.0 H388.589108910891 V1001.25 H403.490099009901 V1001.25 H413.39108910891076 V997.5 H418.2920792079207 V1000.0 H433.19306930693057 V1000.0 H443.0940594059405 V997.5 H452.9950495049504 V996.25 H462.8960396039604 V996.25 H472.79702970297024 V991.25 H482.6980198019802 V980.0 H492.59900990099004 V968.75 H502.4999999999999 V965.0 H512.4009900990097 V955.0 H522.3019801980197 V945.0 H532.2029702970297 V921.25 H542.1039603960395 V886.25 H552.0049504950495 V830.0 H561.9059405940593 V802.5 H571.8069306930693 V790.0 H581.7079207920792 V728.75 H591.608910891089 V630.0 H601.509900990099 V521.25 H611.4108910891089 V422.4999999999999 H621.3118811881188 V317.5 H631.2128712871286 V200.0 H636.1138613861385 V272.5 H646.0148514851484 V349.9999999999999 H655.9158415841583 V537.5 H665.8168316831683 V558.75 H675.717821782178 V622.5 H685.6188118811881 V696.25 H695.5198019801979 V701.25 H705.4207920792079 V748.75 H720.3217821782176 V695.0 H725.2227722772277 V767.5 H735.1237623762377 V796.25 H745.0247524752475 V843.75 H759.9257425742574 V838.75 H764.8267326732671 V902.5 H779.7277227722772 V898.75 H789.628712871287 V891.25 H794.529702970297 V915.0 H804.4306930693068 V928.75 H819.3316831683168 V921.25 H824.2326732673267 V930.0 H834.1336633663366 V950.0 H844.0346534653464 V952.5 H858.9356435643564 V935.0 H863.8366336633662 V957.5 H873.7376237623762 V981.25 H888.638613861386 V973.75 H893.5396039603959 V985.0 H903.4405940594058 V988.75 H913.3415841584159 V990.0 H923.2425742574256 V998.75 H938.1435643564355 V990.0 H943.0445544554455 V992.5 H957.9455445544554 V992.5 H962.8465346534654 V995.0 H977.7475247524751 V987.5 H982.6485148514851 V997.5 H992.549504950495 V1000.0" stroke-width="5.0" stroke-opacity="0.375" stroke="#144c13" fill="none" />
</g>
<g id="d3">
<use xlink:href="#d0" x="150.0" y="150.0" />
<use xlink:href="#d1" x="150.0" y="150.0" />
<use xlink:href="#d2" x="150.0" y="150.0" />
</g>
</defs>
<rect x="-5" y="-5" width="1310" height="1310" fill="#ffffff" />
<use xlink:href="#d3" x="10" y="30" />
</svg>