<?xml version="1.0" encoding="UTF-8"?>
<svg xmlns="http://www.w3.org/2000/svg" xmlns:xlink="http://www.w3.org/1999/xlink"
     width="3000" height="3000" viewBox="0 0 1500 1500">
<defs>
<g id="d0">
<path d="M-5.0,0 L-5.0,1010.0" fill="none" stroke="#000000" stroke-width="10.0" stroke-opacity="0.75" />
<path d="M-10.0,1005.0 L1000,1005.0" fill="none" stroke="#000000" stroke-width="10.0" stroke-opacity="0.75" />
<path d="M285.7142857142857,1010.0 L285.7142857142857,1030" fill="none" stroke="#000000" stroke-width="10.0" stroke-opacity="0.75" />
<text x="285.7142857142857" y="1110" font-size="80" text-anchor="middle" fill="#000000" fill-opacity="0.75" font-family="Arial">-5</text>
<path d="M642.8571428571429,1010.0 L642.8571428571429,1030" fill="none" stroke="#000000" stroke-width="10.0" stroke-opacity="0.75" />
<text x="642.8571428571429" y="1110" font-size="80" text-anchor="middle" fill="#000000" fill-opacity="0.75" font-family="Arial">0</text>
<path d="M285.7142857142857,0 L285.7142857142857,1000" fill="none" stroke="#1e1e46" stroke-width="7.5" stroke-opacity="0.25" />
<path d="M642.8571428571429,0 L642.8571428571429,1000" fill="none" stroke="#1e1e46" stroke-width="7.5" stroke-opacity="0.25" />
<path d="M-10.0,500.0 L-30,500.0" ill="none" stroke="#000000" stroke-width="10.0" stroke-opacity="0.75" />
<text x="-40" y="523.0" font-size="80" text-anchor="end" fill="#000000" fill-opacity="0.75" font-family="Arial">5</text>
<path d="M0,500.0 L1000,500.0" fill="none" stroke="#1e1e46" stroke-width="7.5" stroke-opacity="0.25" />
<text x="500.0" y="-75" font-size="120" text-anchor="middle" fill="#000000" fill-opacity="0.75" font-family="Arial">null model error distribution</text>
</g>
<g id="d1">
<path d="M622.1198156682028,1000.0 V1000.0 M48.38709677419351,1000 V1000.0 M80.64516129032242,1000 V1000.0 M112.90322580645153,1000 V1000.0 M145.16129032258058,1000 V1000.0 M177.41935483870964,1000 V1000.0 M209.6774193548386,1000 V1000.0 M241.93548387096763,1000 V1000.0 M274.1935483870967,1000 V1000.0 M306.45161290322574,1000 V1000.0 M338.70967741935476,1000 V1000.0 M370.96774193548384,1000 V1000.0 M403.22580645161287,1000 V1000.0 M435.48387096774184,1000 V1000.0 M467.74193548387086,1000 V1000.0 M499.99999999999994,1000 V962.5 H532.258064516129 V1000.0 M564.516129032258,1000 V812.5 H596.7741935483871 V625.0 H629.032258064516 V325.0 H661.2903225806452 V512.5 H693.5483870967741 V625.0 H725.8064516129034 V587.5 H758.0645161290322 V925.0 H790.3225806451612 V962.5 H822.5806451612904 V962.5 H854.8387096774193 V887.5 H887.0967741935484 V925.0 H919.3548387096773 V962.5 H951.6129032258065 V1000.0 M983.8709677419354,1000 V1000.0" stroke-width="5.0" stroke-opacity="0.75" stroke="none" fill="#027f00" opacity="0.75" />
<path d="M624.6198156682028,1000.0 V1000.0 M50.88709677419351,1000 V1000.0 M83.14516129032242,1000 V1000.0 M115.40322580645153,1000 V1000.0 M147.66129032258058,1000 V1000.0 M179.91935483870964,1000 V1000.0 M212.1774193548386,1000 V1000.0 M244.43548387096763,1000 V1000.0 M276.6935483870967,1000 V1000.0 M308.95161290322574,1000 V1000.0 M341.20967741935476,1000 V1000.0 M373.46774193548384,1000 V1000.0 M405.72580645161287,1000 V1000.0 M437.98387096774184,1000 V1000.0 M470.24193548387086,1000 V1000.0 M502.49999999999994,1000 V965.0 H529.758064516129 V1000.0 M567.016129032258,1000 V815.0 H599.2741935483871 V627.5 H631.532258064516 V327.5 H658.7903225806452 V515.0 H691.0483870967741 V627.5 H728.3064516129034 V590.0 H755.5645161290322 V927.5 H787.8225806451612 V965.0 H825.0806451612904 V965.0 H857.3387096774193 V890.0 H884.5967741935484 V927.5 H916.8548387096773 V965.0 H949.1129032258065 V1000.0 M981.3709677419354,1000 V1000.0" stroke-width="5.0" stroke-opacity="0.5625" stroke="#144c13" fill="none" />
</g>
<g id="d2">
<use xlink:href="#d0" x="150.0" y="150.0" />
<use xlink:href="#d1" x="150.0" y="150.0" />
<text x="650.0" y="1350" font-size="110" text-anchor="middle" font-family="Arial" fill="#000000" opacity="0.75">model error (kcal/mol)</text>
<g>
<text x="-650.0" y="-50" font-size="125" transform="rotate(-90)" text-anchor="middle" fill="#000000" opacity="0.75" font-family="Arial">probability density</text>
</g>
</g>
</defs>
<rect x="-10" y="-10" width="1520" height="1520" fill="#ffffff" />
<use xlink:href="#d2" x="200" y="100" />
</svg>