<?xml version="1.0" encoding="UTF-8"?>
<svg xmlns="http://www.w3.org/2000/svg" xmlns:xlink="http://www.w3.org/1999/xlink"
     width="2600" height="2600" viewBox="0 0 1300 1300">
<defs>
<g id="d0">
<path d="M-5.0,0 L-5.0,1010.0" fill="none" stroke="#000000" stroke-width="10.0" stroke-opacity="0.75" />
<path d="M-10.0,1005.0 L1000,1005.0" fill="none" stroke="#000000" stroke-width="10.0" stroke-opacity="0.75" />
<path d="M285.7142857142857,1010.0 L285.7142857142857,1030" fill="none" stroke="#000000" stroke-width="10.0" stroke-opacity="0.75" />
<text x="285.7142857142857" y="1090" font-size="75" text-anchor="middle" fill="#000000" fill-opacity="0.75" font-family="Arial">-5</text>
<path d="M642.8571428571429,1010.0 L642.8571428571429,1030" fill="none" stroke="#000000" stroke-width="10.0" stroke-opacity="0.75" />
<text x="642.8571428571429" y="1090" font-size="75" text-anchor="middle" fill="#000000" fill-opacity="0.75" font-family="Arial">0</text>
<path d="M107.14285714285714,0 L107.14285714285714,1000" fill="none" stroke="#1e1e46" stroke-width="7.5" stroke-opacity="0.25" />
<path d="M285.7142857142857,0 L285.7142857142857,1000" fill="none" stroke="#1e1e46" stroke-width="7.5" stroke-opacity="0.25" />
<path d="M464.2857142857143,0 L464.2857142857143,1000" fill="none" stroke="#1e1e46" stroke-width="7.5" stroke-opacity="0.25" />
<path d="M642.8571428571429,0 L642.8571428571429,1000" fill="none" stroke="#1e1e46" stroke-width="7.5" stroke-opacity="0.25" />
<path d="M821.4285714285714,0 L821.4285714285714,1000" fill="none" stroke="#1e1e46" stroke-width="7.5" stroke-opacity="0.25" />
<path d="M-10.0,500.0 L-30,500.0" ill="none" stroke="#000000" stroke-width="10.0" stroke-opacity="0.75" />
<text x="-40" y="523.0" font-size="75" text-anchor="end" fill="#000000" fill-opacity="0.75" font-family="Arial">5</text>
<path d="M0,500.0 L1000,500.0" fill="none" stroke="#1e1e46" stroke-width="7.5" stroke-opacity="0.25" />
<text x="500.0" y="-75" font-size="120" text-anchor="middle" fill="#000000" fill-opacity="0.75" font-family="Arial">zap9 error distribution</text>
</g>
<g id="d1">
<path d="M622.1198156682028,1000.0 V1000.0 M48.38709677419351,1000 V1000.0 M80.64516129032242,1000 V1000.0 M112.90322580645153,1000 V1000.0 M145.16129032258058,1000 V1000.0 M177.41935483870964,1000 V1000.0 M209.6774193548386,1000 V962.5 H241.93548387096763 V1000.0 M274.1935483870967,1000 V1000.0 M306.45161290322574,1000 V925.0 H338.70967741935476 V962.5 H370.96774193548384 V1000.0 M403.22580645161287,1000 V962.5 H435.48387096774184 V887.5 H467.74193548387086 V925.0 H499.99999999999994 V925.0 H532.258064516129 V850.0 H564.516129032258 V662.5 H596.7741935483871 V437.5 H629.032258064516 V587.5 H661.2903225806452 V775.0 H693.5483870967741 V737.5 H725.8064516129034 V850.0 H758.0645161290322 V887.5 H790.3225806451612 V887.5 H822.5806451612904 V962.5 H854.8387096774193 V925.0 H887.0967741935484 V887.5 H919.3548387096773 V1000.0 M951.6129032258065,1000 V1000.0 M983.8709677419354,1000 V1000.0" stroke-width="10.0" stroke-opacity="0.75" stroke="none" fill="#ff0000" opacity="0.75" />
<path d="M627.1198156682028,1000.0 V1000.0 M53.38709677419351,1000 V1000.0 M85.64516129032242,1000 V1000.0 M117.90322580645153,1000 V1000.0 M150.16129032258058,1000 V1000.0 M182.41935483870964,1000 V1000.0 M214.6774193548386,1000 V967.5 H236.93548387096763 V1000.0 M279.1935483870967,1000 V1000.0 M311.45161290322574,1000 V930.0 H333.70967741935476 V967.5 H365.96774193548384 V1000.0 M408.22580645161287,1000 V967.5 H440.48387096774184 V892.5 H462.74193548387086 V930.0 H504.99999999999994 V930.0 H537.258064516129 V855.0 H569.516129032258 V667.5 H601.7741935483871 V442.5 H624.032258064516 V592.5 H656.2903225806452 V780.0 H698.5483870967741 V742.5 H720.8064516129034 V855.0 H753.0645161290322 V892.5 H795.3225806451612 V892.5 H817.5806451612904 V967.5 H859.8387096774193 V930.0 H892.0967741935484 V892.5 H914.3548387096773 V1000.0 M956.6129032258065,1000 V1000.0 M978.8709677419354,1000 V1000.0" stroke-width="10.0" stroke-opacity="0.5625" stroke="#992626" fill="none" />
</g>
<g id="d2">
<path d="M615.9602135328741,1000.0 V1000.0 M14.851485148514769,1000 V1000.0 M24.752475247524615,1000 V1000.0 M34.65346534653458,1000 V1000.0 M44.55445544554455,1000 V1000.0 M54.455445544554394,1000 V1000.0 M64.35643564356424,1000 V1000.0 M74.25742574257421,1000 V997.5 H84.15841584158406 V1000.0 M94.05940594059402,1000 V990.0 H103.96039603960386 V990.0 H113.86138613861384 V988.75 H123.76237623762368 V990.0 H133.66336633663363 V985.0 H143.5643564356435 V991.25 H153.4653465346534 V983.75 H163.3663366336633 V990.0 H173.2673267326732 V985.0 H183.16831683168311 V993.75 H193.06930693069296 V995.0 H202.97029702970292 V996.25 H212.8712871287128 V1000.0 M222.77227722772275,1000 V1000.0 M232.67326732673257,1000 V998.75 H242.57425742574256 V997.5 H252.47524752475243 V996.25 H262.37623762376234 V988.75 H272.2772277227722 V986.25 H282.178217821782 V985.0 H292.079207920792 V971.25 H301.98019801980183 V970.0 H311.88118811881185 V963.75 H321.7821782178217 V967.5 H331.68316831683165 V967.5 H341.5841584158415 V972.5 H351.48514851485146 V965.0 H361.3861386138613 V973.75 H371.28712871287127 V971.25 H381.1881188118811 V972.5 H391.089108910891 V982.5 H400.990099009901 V982.5 H410.89108910891076 V976.25 H420.7920792079207 V982.5 H430.69306930693057 V970.0 H440.5940594059405 V968.75 H450.4950495049504 V942.5 H460.3960396039604 V935.0 H470.29702970297024 V918.75 H480.1980198019802 V900.0 H490.09900990099004 V891.25 H499.9999999999999 V872.5 H509.9009900990098 V903.75 H519.8019801980197 V883.75 H529.7029702970297 V845.0 H539.6039603960395 V810.0 H549.5049504950495 V705.0 H559.4059405940593 V571.25 H569.3069306930693 V382.5000000000001 H579.2079207920792 V335.0 H589.108910891089 V238.75 H599.009900990099 V257.5000000000001 H608.9108910891089 V290.0 H618.8118811881188 V287.5000000000001 H628.7128712871286 V295.0000000000001 H638.6138613861385 V494.9999999999999 H648.5148514851484 V607.5 H658.4158415841583 V681.25 H668.3168316831683 V705.0 H678.217821782178 V772.5 H688.1188118811881 V820.0 H698.0198019801979 V861.25 H707.9207920792079 V892.5 H717.8217821782176 V921.25 H727.7227722772277 V925.0 H737.6237623762377 V952.5 H747.5247524752475 V972.5 H757.4257425742574 V963.75 H767.3267326732671 V976.25 H777.2277227722772 V976.25 H787.128712871287 V965.0 H797.029702970297 V970.0 H806.9306930693068 V967.5 H816.8316831683168 V968.75 H826.7326732673267 V981.25 H836.6336633663366 V978.75 H846.5346534653464 V997.5 H856.4356435643564 V998.75 H866.3366336633662 V1000.0 M876.2376237623762,1000 V998.75 H886.138613861386 V1000.0 M896.0396039603959,1000 V1000.0 M905.9405940594058,1000 V1000.0 M915.8415841584159,1000 V1000.0 M925.7425742574256,1000 V1000.0 M935.6435643564355,1000 V1000.0 M945.5445544554455,1000 V1000.0 M955.4455445544554,1000 V1000.0 M965.3465346534654,1000 V1000.0 M975.2475247524751,1000 V1000.0 M985.1485148514851,1000 V1000.0 M995.049504950495,1000 V1000.0" stroke-width="5.0" stroke-opacity="0.75" stroke="none" fill="#027f00" opacity="0.5" />
<path d="M618.4602135328741,1000.0 V1000.0 M17.35148514851477,1000 V1000.0 M27.252475247524615,1000 V1000.0 M37.15346534653458,1000 V1000.0 M47.05445544554455,1000 V1000.0 M56.955445544554394,1000 V1000.0 M66.85643564356424,1000 V1000.0 M76.75742574257421,1000 V1000.0 H81.65841584158406 V1000.0 M96.55940594059402,1000 V992.5 H106.46039603960386 V992.5 H116.36138613861384 V991.25 H121.26237623762368 V992.5 H136.16336633663363 V987.5 H141.0643564356435 V993.75 H155.9653465346534 V986.25 H160.8663366336633 V992.5 H175.7673267326732 V987.5 H180.66831683168311 V996.25 H190.56930693069296 V997.5 H200.47029702970292 V998.75 H210.3712871287128 V1000.0 M225.27227722772275,1000 V1000.0 M235.17326732673257,1000 V1001.25 H245.07425742574256 V1000.0 H254.97524752475243 V998.75 H264.87623762376234 V991.25 H274.7772277227722 V988.75 H284.678217821782 V987.5 H294.579207920792 V973.75 H304.48019801980183 V972.5 H314.38118811881185 V966.25 H319.2821782178217 V970.0 H334.18316831683165 V970.0 H339.0841584158415 V975.0 H353.98514851485146 V967.5 H358.8861386138613 V976.25 H373.78712871287127 V973.75 H378.6881188118811 V975.0 H388.589108910891 V985.0 H403.490099009901 V985.0 H413.39108910891076 V978.75 H418.2920792079207 V985.0 H433.19306930693057 V972.5 H443.0940594059405 V971.25 H452.9950495049504 V945.0 H462.8960396039604 V937.5 H472.79702970297024 V921.25 H482.6980198019802 V902.5 H492.59900990099004 V893.75 H502.4999999999999 V875.0 H507.4009900990098 V906.25 H522.3019801980197 V886.25 H532.2029702970297 V847.5 H542.1039603960395 V812.5 H552.0049504950495 V707.5 H561.9059405940593 V573.75 H571.8069306930693 V385.0000000000001 H581.7079207920792 V337.5 H591.608910891089 V241.25 H596.509900990099 V260.0000000000001 H606.4108910891089 V292.5 H621.3118811881188 V290.0000000000001 H626.2128712871286 V297.5000000000001 H636.1138613861385 V497.4999999999999 H646.0148514851484 V610.0 H655.9158415841583 V683.75 H665.8168316831683 V707.5 H675.717821782178 V775.0 H685.6188118811881 V822.5 H695.5198019801979 V863.75 H705.4207920792079 V895.0 H715.3217821782176 V923.75 H725.2227722772277 V927.5 H735.1237623762377 V955.0 H745.0247524752475 V975.0 H759.9257425742574 V966.25 H764.8267326732671 V978.75 H779.7277227722772 V978.75 H789.628712871287 V967.5 H794.529702970297 V972.5 H809.4306930693068 V970.0 H814.3316831683168 V971.25 H824.2326732673267 V983.75 H839.1336633663366 V981.25 H844.0346534653464 V1000.0 H853.9356435643564 V1001.25 H863.8366336633662 V1000.0 M878.7376237623762,1000 V1001.25 H883.638613861386 V1000.0 M898.5396039603959,1000 V1000.0 M908.4405940594058,1000 V1000.0 M918.3415841584159,1000 V1000.0 M928.2425742574256,1000 V1000.0 M938.1435643564355,1000 V1000.0 M948.0445544554455,1000 V1000.0 M957.9455445544554,1000 V1000.0 M967.8465346534654,1000 V1000.0 M977.7475247524751,1000 V1000.0 M987.6485148514851,1000 V1000.0 M992.549504950495,1000 V1000.0" stroke-width="5.0" stroke-opacity="0.375" stroke="#144c13" fill="none" />
</g>
<g id="d3">
<use xlink:href="#d0" x="150.0" y="150.0" />
<use xlink:href="#d1" x="150.0" y="150.0" />
<use xlink:href="#d2" x="150.0" y="150.0" />
</g>
</defs>
<rect x="-5" y="-5" width="1310" height="1310" fill="#ffffff" />
<use xlink:href="#d3" x="10" y="30" />
</svg>