<?xml version="1.0" encoding="UTF-8"?>
<svg xmlns="http://www.w3.org/2000/svg" xmlns:xlink="http://www.w3.org/1999/xlink"
     width="2600" height="2600" viewBox="0 0 1300 1300">
<defs>
<g id="d0">
<path d="M-5.0,0 L-5.0,1010.0" fill="none" stroke="#000000" stroke-width="10.0" stroke-opacity="0.75" />
<path d="M-10.0,1005.0 L1000,1005.0" fill="none" stroke="#000000" stroke-width="10.0" stroke-opacity="0.75" />
<path d="M4.149377593361055,1010.0 L4.149377593361055,1030" fill="none" stroke="#000000" stroke-width="10.0" stroke-opacity="0.75" />
<text x="4.149377593361055" y="1110" font-size="80" text-anchor="middle" fill="#000000" fill-opacity="0.75" font-family="Arial">-20</text>
<path d="M419.0871369294606,1010.0 L419.0871369294606,1030" fill="none" stroke="#000000" stroke-width="10.0" stroke-opacity="0.75" />
<text x="419.0871369294606" y="1110" font-size="80" text-anchor="middle" fill="#000000" fill-opacity="0.75" font-family="Arial">-10</text>
<path d="M834.0248962655602,1010.0 L834.0248962655602,1030" fill="none" stroke="#000000" stroke-width="10.0" stroke-opacity="0.75" />
<text x="834.0248962655602" y="1110" font-size="80" text-anchor="middle" fill="#000000" fill-opacity="0.75" font-family="Arial">0</text>
<path d="M4.149377593361055,0 L4.149377593361055,1000" fill="none" stroke="#1e1e46" stroke-width="7.5" stroke-opacity="0.25" />
<path d="M211.61825726141083,0 L211.61825726141083,1000" fill="none" stroke="#1e1e46" stroke-width="7.5" stroke-opacity="0.25" />
<path d="M419.0871369294606,0 L419.0871369294606,1000" fill="none" stroke="#1e1e46" stroke-width="7.5" stroke-opacity="0.25" />
<path d="M626.5560165975104,0 L626.5560165975104,1000" fill="none" stroke="#1e1e46" stroke-width="7.5" stroke-opacity="0.25" />
<path d="M834.0248962655602,0 L834.0248962655602,1000" fill="none" stroke="#1e1e46" stroke-width="7.5" stroke-opacity="0.25" />
<path d="M-10.0,995.850622406639 L-30,995.850622406639" ill="none" stroke="#000000" stroke-width="10.0" stroke-opacity="0.75" />
<text x="-40" y="1018.850622406639" font-size="80" text-anchor="end" fill="#000000" fill-opacity="0.75" font-family="Arial">-20</text>
<path d="M-10.0,580.9128630705394 L-30,580.9128630705394" ill="none" stroke="#000000" stroke-width="10.0" stroke-opacity="0.75" />
<text x="-40" y="603.9128630705394" font-size="80" text-anchor="end" fill="#000000" fill-opacity="0.75" font-family="Arial">-10</text>
<path d="M-10.0,165.9751037344398 L-30,165.9751037344398" ill="none" stroke="#000000" stroke-width="10.0" stroke-opacity="0.75" />
<text x="-40" y="188.9751037344398" font-size="80" text-anchor="end" fill="#000000" fill-opacity="0.75" font-family="Arial">0</text>
<path d="M0,995.850622406639 L1000,995.850622406639" fill="none" stroke="#1e1e46" stroke-width="7.5" stroke-opacity="0.25" />
<path d="M0,788.3817427385892 L1000,788.3817427385892" fill="none" stroke="#1e1e46" stroke-width="7.5" stroke-opacity="0.25" />
<path d="M0,580.9128630705394 L1000,580.9128630705394" fill="none" stroke="#1e1e46" stroke-width="7.5" stroke-opacity="0.25" />
<path d="M0,373.4439834024896 L1000,373.4439834024896" fill="none" stroke="#1e1e46" stroke-width="7.5" stroke-opacity="0.25" />
<path d="M0,165.9751037344398 L1000,165.9751037344398" fill="none" stroke="#1e1e46" stroke-width="7.5" stroke-opacity="0.25" />
<text x="500.0" y="-75" font-size="120" text-anchor="middle" fill="#000000" fill-opacity="0.75" font-family="Arial">AASC correction</text>
</g>
<g id="d1">
<circle cx="152.28215767634862" cy="795.0622406639004" r="15" fill="#ff0000" opacity="1" stroke="none" />
<circle cx="152.28215767634862" cy="795.0622406639004" r="11.25" fill="none" stroke="#992626" stroke-width="7.5" stroke-opacity="0.75" />
<circle cx="80.0829875518672" cy="1011.8672199170123" r="15" fill="#ff0000" opacity="1" stroke="none" />
<circle cx="80.0829875518672" cy="1011.8672199170123" r="11.25" fill="none" stroke="#992626" stroke-width="7.5" stroke-opacity="0.75" />
<circle cx="377.17842323651456" cy="628.7551867219915" r="15" fill="#ff0000" opacity="1" stroke="none" />
<circle cx="377.17842323651456" cy="628.7551867219915" r="11.25" fill="none" stroke="#992626" stroke-width="7.5" stroke-opacity="0.75" />
<circle cx="415.7676348547718" cy="763.1535269709543" r="15" fill="#ff0000" opacity="1" stroke="none" />
<circle cx="415.7676348547718" cy="763.1535269709543" r="11.25" fill="none" stroke="#992626" stroke-width="7.5" stroke-opacity="0.75" />
<circle cx="429.045643153527" cy="542.655601659751" r="15" fill="#ff0000" opacity="1" stroke="none" />
<circle cx="429.045643153527" cy="542.655601659751" r="11.25" fill="none" stroke="#992626" stroke-width="7.5" stroke-opacity="0.75" />
<circle cx="435.2697095435685" cy="765.8091286307053" r="15" fill="#ff0000" opacity="1" stroke="none" />
<circle cx="435.2697095435685" cy="765.8091286307053" r="11.25" fill="none" stroke="#992626" stroke-width="7.5" stroke-opacity="0.75" />
<circle cx="441.9087136929461" cy="611.701244813278" r="15" fill="#ff0000" opacity="1" stroke="none" />
<circle cx="441.9087136929461" cy="611.701244813278" r="11.25" fill="none" stroke="#992626" stroke-width="7.5" stroke-opacity="0.75" />
<circle cx="452.2821576763486" cy="605.5601659751037" r="15" fill="#ff0000" opacity="1" stroke="none" />
<circle cx="452.2821576763486" cy="605.5601659751037" r="11.25" fill="none" stroke="#992626" stroke-width="7.5" stroke-opacity="0.75" />
<circle cx="467.63485477178426" cy="680.6639004149378" r="15" fill="#ff0000" opacity="1" stroke="none" />
<circle cx="467.63485477178426" cy="680.6639004149378" r="11.25" fill="none" stroke="#992626" stroke-width="7.5" stroke-opacity="0.75" />
<circle cx="502.9045643153527" cy="680.414937759336" r="15" fill="#ff0000" opacity="1" stroke="none" />
<circle cx="502.9045643153527" cy="680.414937759336" r="11.25" fill="none" stroke="#992626" stroke-width="7.5" stroke-opacity="0.75" />
<circle cx="519.5020746887967" cy="330.16597510373447" r="15" fill="#ff0000" opacity="1" stroke="none" />
<circle cx="519.5020746887967" cy="330.16597510373447" r="11.25" fill="none" stroke="#992626" stroke-width="7.5" stroke-opacity="0.75" />
<circle cx="525.7261410788382" cy="347.42738589211615" r="15" fill="#ff0000" opacity="1" stroke="none" />
<circle cx="525.7261410788382" cy="347.42738589211615" r="11.25" fill="none" stroke="#992626" stroke-width="7.5" stroke-opacity="0.75" />
<circle cx="531.5352697095436" cy="368.75518672199166" r="15" fill="#ff0000" opacity="1" stroke="none" />
<circle cx="531.5352697095436" cy="368.75518672199166" r="11.25" fill="none" stroke="#992626" stroke-width="7.5" stroke-opacity="0.75" />
<circle cx="545.2282157676348" cy="489.253112033195" r="15" fill="#ff0000" opacity="1" stroke="none" />
<circle cx="545.2282157676348" cy="489.253112033195" r="11.25" fill="none" stroke="#992626" stroke-width="7.5" stroke-opacity="0.75" />
<circle cx="559.3360995850622" cy="489.5850622406639" r="15" fill="#ff0000" opacity="1" stroke="none" />
<circle cx="559.3360995850622" cy="489.5850622406639" r="11.25" fill="none" stroke="#992626" stroke-width="7.5" stroke-opacity="0.75" />
<circle cx="570.9543568464732" cy="673.9419087136929" r="15" fill="#ff0000" opacity="1" stroke="none" />
<circle cx="570.9543568464732" cy="673.9419087136929" r="11.25" fill="none" stroke="#992626" stroke-width="7.5" stroke-opacity="0.75" />
<circle cx="565.9751037344398" cy="602.8215767634855" r="15" fill="#ff0000" opacity="1" stroke="none" />
<circle cx="565.9751037344398" cy="602.8215767634855" r="11.25" fill="none" stroke="#992626" stroke-width="7.5" stroke-opacity="0.75" />
<circle cx="576.7634854771785" cy="309.33609958506213" r="15" fill="#ff0000" opacity="1" stroke="none" />
<circle cx="576.7634854771785" cy="309.33609958506213" r="11.25" fill="none" stroke="#992626" stroke-width="7.5" stroke-opacity="0.75" />
<circle cx="585.0622406639004" cy="628.0912863070539" r="15" fill="#ff0000" opacity="1" stroke="none" />
<circle cx="585.0622406639004" cy="628.0912863070539" r="11.25" fill="none" stroke="#992626" stroke-width="7.5" stroke-opacity="0.75" />
<circle cx="590.0414937759336" cy="467.9668049792531" r="15" fill="#ff0000" opacity="1" stroke="none" />
<circle cx="590.0414937759336" cy="467.9668049792531" r="11.25" fill="none" stroke="#992626" stroke-width="7.5" stroke-opacity="0.75" />
<circle cx="596.6804979253113" cy="397.3858921161826" r="15" fill="#ff0000" opacity="1" stroke="none" />
<circle cx="596.6804979253113" cy="397.3858921161826" r="11.25" fill="none" stroke="#992626" stroke-width="7.5" stroke-opacity="0.75" />
<circle cx="596.2655601659751" cy="454.5228215767635" r="15" fill="#ff0000" opacity="1" stroke="none" />
<circle cx="596.2655601659751" cy="454.5228215767635" r="11.25" fill="none" stroke="#992626" stroke-width="7.5" stroke-opacity="0.75" />
<circle cx="612.8630705394191" cy="500.0414937759336" r="15" fill="#ff0000" opacity="1" stroke="none" />
<circle cx="612.8630705394191" cy="500.0414937759336" r="11.25" fill="none" stroke="#992626" stroke-width="7.5" stroke-opacity="0.75" />
<circle cx="622.4066390041494" cy="364.68879668049794" r="15" fill="#ff0000" opacity="1" stroke="none" />
<circle cx="622.4066390041494" cy="364.68879668049794" r="11.25" fill="none" stroke="#992626" stroke-width="7.5" stroke-opacity="0.75" />
<circle cx="624.066390041494" cy="340.2904564315352" r="15" fill="#ff0000" opacity="1" stroke="none" />
<circle cx="624.066390041494" cy="340.2904564315352" r="11.25" fill="none" stroke="#992626" stroke-width="7.5" stroke-opacity="0.75" />
<circle cx="631.9502074688796" cy="608.4647302904564" r="15" fill="#ff0000" opacity="1" stroke="none" />
<circle cx="631.9502074688796" cy="608.4647302904564" r="11.25" fill="none" stroke="#992626" stroke-width="7.5" stroke-opacity="0.75" />
<circle cx="631.9502074688796" cy="670.3734439834025" r="15" fill="#ff0000" opacity="1" stroke="none" />
<circle cx="631.9502074688796" cy="670.3734439834025" r="11.25" fill="none" stroke="#992626" stroke-width="7.5" stroke-opacity="0.75" />
<circle cx="638.1742738589212" cy="293.77593360995843" r="15" fill="#ff0000" opacity="1" stroke="none" />
<circle cx="638.1742738589212" cy="293.77593360995843" r="11.25" fill="none" stroke="#992626" stroke-width="7.5" stroke-opacity="0.75" />
<circle cx="639.8340248962656" cy="601.4107883817427" r="15" fill="#ff0000" opacity="1" stroke="none" />
<circle cx="639.8340248962656" cy="601.4107883817427" r="11.25" fill="none" stroke="#992626" stroke-width="7.5" stroke-opacity="0.75" />
<circle cx="646.8879668049793" cy="321.0373443983402" r="15" fill="#ff0000" opacity="1" stroke="none" />
<circle cx="646.8879668049793" cy="321.0373443983402" r="11.25" fill="none" stroke="#992626" stroke-width="7.5" stroke-opacity="0.75" />
<circle cx="649.792531120332" cy="277.5103734439833" r="15" fill="#ff0000" opacity="1" stroke="none" />
<circle cx="649.792531120332" cy="277.5103734439833" r="11.25" fill="none" stroke="#992626" stroke-width="7.5" stroke-opacity="0.75" />
<circle cx="647.3029045643154" cy="282.48962655601656" r="15" fill="#ff0000" opacity="1" stroke="none" />
<circle cx="647.3029045643154" cy="282.48962655601656" r="11.25" fill="none" stroke="#992626" stroke-width="7.5" stroke-opacity="0.75" />
<circle cx="654.356846473029" cy="316.84647302904557" r="15" fill="#ff0000" opacity="1" stroke="none" />
<circle cx="654.356846473029" cy="316.84647302904557" r="11.25" fill="none" stroke="#992626" stroke-width="7.5" stroke-opacity="0.75" />
<circle cx="656.0165975103735" cy="286.6804979253111" r="15" fill="#ff0000" opacity="1" stroke="none" />
<circle cx="656.0165975103735" cy="286.6804979253111" r="11.25" fill="none" stroke="#992626" stroke-width="7.5" stroke-opacity="0.75" />
<circle cx="663.0705394190871" cy="320.0" r="15" fill="#ff0000" opacity="1" stroke="none" />
<circle cx="663.0705394190871" cy="320.0" r="11.25" fill="none" stroke="#992626" stroke-width="7.5" stroke-opacity="0.75" />
<circle cx="670.1244813278009" cy="155.5601659751037" r="15" fill="#ff0000" opacity="1" stroke="none" />
<circle cx="670.1244813278009" cy="155.5601659751037" r="11.25" fill="none" stroke="#992626" stroke-width="7.5" stroke-opacity="0.75" />
<circle cx="668.0497925311204" cy="425.2282157676349" r="15" fill="#ff0000" opacity="1" stroke="none" />
<circle cx="668.0497925311204" cy="425.2282157676349" r="11.25" fill="none" stroke="#992626" stroke-width="7.5" stroke-opacity="0.75" />
<circle cx="674.688796680498" cy="181.2033195020747" r="15" fill="#ff0000" opacity="1" stroke="none" />
<circle cx="674.688796680498" cy="181.2033195020747" r="11.25" fill="none" stroke="#992626" stroke-width="7.5" stroke-opacity="0.75" />
<circle cx="676.3485477178424" cy="406.6804979253111" r="15" fill="#ff0000" opacity="1" stroke="none" />
<circle cx="676.3485477178424" cy="406.6804979253111" r="11.25" fill="none" stroke="#992626" stroke-width="7.5" stroke-opacity="0.75" />
<circle cx="682.572614107884" cy="133.48547717842314" r="15" fill="#ff0000" opacity="1" stroke="none" />
<circle cx="682.572614107884" cy="133.48547717842314" r="11.25" fill="none" stroke="#992626" stroke-width="7.5" stroke-opacity="0.75" />
<circle cx="684.2323651452282" cy="161.20331950207458" r="15" fill="#ff0000" opacity="1" stroke="none" />
<circle cx="684.2323651452282" cy="161.20331950207458" r="11.25" fill="none" stroke="#992626" stroke-width="7.5" stroke-opacity="0.75" />
<circle cx="691.2863070539419" cy="160.9128630705394" r="15" fill="#ff0000" opacity="1" stroke="none" />
<circle cx="691.2863070539419" cy="160.9128630705394" r="11.25" fill="none" stroke="#992626" stroke-width="7.5" stroke-opacity="0.75" />
<circle cx="695.0207468879668" cy="297.9668049792531" r="15" fill="#ff0000" opacity="1" stroke="none" />
<circle cx="695.0207468879668" cy="297.9668049792531" r="11.25" fill="none" stroke="#992626" stroke-width="7.5" stroke-opacity="0.75" />
<circle cx="703.3195020746889" cy="271.65975103734445" r="15" fill="#ff0000" opacity="1" stroke="none" />
<circle cx="703.3195020746889" cy="271.65975103734445" r="11.25" fill="none" stroke="#992626" stroke-width="7.5" stroke-opacity="0.75" />
<circle cx="707.8838174273859" cy="128.67219917012437" r="15" fill="#ff0000" opacity="1" stroke="none" />
<circle cx="707.8838174273859" cy="128.67219917012437" r="11.25" fill="none" stroke="#992626" stroke-width="7.5" stroke-opacity="0.75" />
<circle cx="703.3195020746889" cy="359.5020746887967" r="15" fill="#ff0000" opacity="1" stroke="none" />
<circle cx="703.3195020746889" cy="359.5020746887967" r="11.25" fill="none" stroke="#992626" stroke-width="7.5" stroke-opacity="0.75" />
<circle cx="710.3734439834025" cy="-39.585062240664" r="15" fill="#ff0000" opacity="1" stroke="none" />
<circle cx="710.3734439834025" cy="-39.585062240664" r="11.25" fill="none" stroke="#992626" stroke-width="7.5" stroke-opacity="0.75" />
<circle cx="717.4273858921163" cy="342.1576763485476" r="15" fill="#ff0000" opacity="1" stroke="none" />
<circle cx="717.4273858921163" cy="342.1576763485476" r="11.25" fill="none" stroke="#992626" stroke-width="7.5" stroke-opacity="0.75" />
<circle cx="723.2365145228216" cy="330.4979253112033" r="15" fill="#ff0000" opacity="1" stroke="none" />
<circle cx="723.2365145228216" cy="330.4979253112033" r="11.25" fill="none" stroke="#992626" stroke-width="7.5" stroke-opacity="0.75" />
<circle cx="730.7053941908713" cy="327.21991701244815" r="15" fill="#ff0000" opacity="1" stroke="none" />
<circle cx="730.7053941908713" cy="327.21991701244815" r="11.25" fill="none" stroke="#992626" stroke-width="7.5" stroke-opacity="0.75" />
<circle cx="730.7053941908713" cy="292.48962655601656" r="15" fill="#ff0000" opacity="1" stroke="none" />
<circle cx="730.7053941908713" cy="292.48962655601656" r="11.25" fill="none" stroke="#992626" stroke-width="7.5" stroke-opacity="0.75" />
<circle cx="730.7053941908713" cy="330.6224066390041" r="15" fill="#ff0000" opacity="1" stroke="none" />
<circle cx="730.7053941908713" cy="330.6224066390041" r="11.25" fill="none" stroke="#992626" stroke-width="7.5" stroke-opacity="0.75" />
<circle cx="734.4398340248963" cy="281.0373443983402" r="15" fill="#ff0000" opacity="1" stroke="none" />
<circle cx="734.4398340248963" cy="281.0373443983402" r="11.25" fill="none" stroke="#992626" stroke-width="7.5" stroke-opacity="0.75" />
<circle cx="742.3236514522822" cy="337.6763485477178" r="15" fill="#ff0000" opacity="1" stroke="none" />
<circle cx="742.3236514522822" cy="337.6763485477178" r="11.25" fill="none" stroke="#992626" stroke-width="7.5" stroke-opacity="0.75" />
<circle cx="745.643153526971" cy="383.1950207468881" r="15" fill="#ff0000" opacity="1" stroke="none" />
<circle cx="745.643153526971" cy="383.1950207468881" r="11.25" fill="none" stroke="#992626" stroke-width="7.5" stroke-opacity="0.75" />
<circle cx="746.8879668049792" cy="208.21576763485484" r="15" fill="#ff0000" opacity="1" stroke="none" />
<circle cx="746.8879668049792" cy="208.21576763485484" r="11.25" fill="none" stroke="#992626" stroke-width="7.5" stroke-opacity="0.75" />
<circle cx="756.0165975103736" cy="202.5311203319502" r="15" fill="#ff0000" opacity="1" stroke="none" />
<circle cx="756.0165975103736" cy="202.5311203319502" r="11.25" fill="none" stroke="#992626" stroke-width="7.5" stroke-opacity="0.75" />
<circle cx="759.7510373443985" cy="254.02489626556007" r="15" fill="#ff0000" opacity="1" stroke="none" />
<circle cx="759.7510373443985" cy="254.02489626556007" r="11.25" fill="none" stroke="#992626" stroke-width="7.5" stroke-opacity="0.75" />
<circle cx="773.8589211618257" cy="91.74273858921151" r="15" fill="#ff0000" opacity="1" stroke="none" />
<circle cx="773.8589211618257" cy="91.74273858921151" r="11.25" fill="none" stroke="#992626" stroke-width="7.5" stroke-opacity="0.75" />
<circle cx="780.9128630705394" cy="141.2033195020747" r="15" fill="#ff0000" opacity="1" stroke="none" />
<circle cx="780.9128630705394" cy="141.2033195020747" r="11.25" fill="none" stroke="#992626" stroke-width="7.5" stroke-opacity="0.75" />
<circle cx="781.3278008298755" cy="233.3195020746889" r="15" fill="#ff0000" opacity="1" stroke="none" />
<circle cx="781.3278008298755" cy="233.3195020746889" r="11.25" fill="none" stroke="#992626" stroke-width="7.5" stroke-opacity="0.75" />
<circle cx="787.551867219917" cy="212.36514522821574" r="15" fill="#ff0000" opacity="1" stroke="none" />
<circle cx="787.551867219917" cy="212.36514522821574" r="11.25" fill="none" stroke="#992626" stroke-width="7.5" stroke-opacity="0.75" />
<circle cx="792.1161825726141" cy="193.07053941908703" r="15" fill="#ff0000" opacity="1" stroke="none" />
<circle cx="792.1161825726141" cy="193.07053941908703" r="11.25" fill="none" stroke="#992626" stroke-width="7.5" stroke-opacity="0.75" />
<circle cx="800.8298755186721" cy="226.39004149377593" r="15" fill="#ff0000" opacity="1" stroke="none" />
<circle cx="800.8298755186721" cy="226.39004149377593" r="11.25" fill="none" stroke="#992626" stroke-width="7.5" stroke-opacity="0.75" />
<circle cx="800.8298755186721" cy="182.07468879668045" r="15" fill="#ff0000" opacity="1" stroke="none" />
<circle cx="800.8298755186721" cy="182.07468879668045" r="11.25" fill="none" stroke="#992626" stroke-width="7.5" stroke-opacity="0.75" />
<circle cx="802.0746887966806" cy="276.4730290456432" r="15" fill="#ff0000" opacity="1" stroke="none" />
<circle cx="802.0746887966806" cy="276.4730290456432" r="11.25" fill="none" stroke="#992626" stroke-width="7.5" stroke-opacity="0.75" />
<circle cx="811.2033195020747" cy="192.86307053941914" r="15" fill="#ff0000" opacity="1" stroke="none" />
<circle cx="811.2033195020747" cy="192.86307053941914" r="11.25" fill="none" stroke="#992626" stroke-width="7.5" stroke-opacity="0.75" />
<circle cx="815.3526970954357" cy="153.69294605809125" r="15" fill="#ff0000" opacity="1" stroke="none" />
<circle cx="815.3526970954357" cy="153.69294605809125" r="11.25" fill="none" stroke="#992626" stroke-width="7.5" stroke-opacity="0.75" />
<circle cx="828.2157676348547" cy="183.941908713693" r="15" fill="#ff0000" opacity="1" stroke="none" />
<circle cx="828.2157676348547" cy="183.941908713693" r="11.25" fill="none" stroke="#992626" stroke-width="7.5" stroke-opacity="0.75" />
<circle cx="829.8755186721991" cy="136.30705394190863" r="15" fill="#ff0000" opacity="1" stroke="none" />
<circle cx="829.8755186721991" cy="136.30705394190863" r="11.25" fill="none" stroke="#992626" stroke-width="7.5" stroke-opacity="0.75" />
<circle cx="834.4398340248963" cy="136.51452282157675" r="15" fill="#ff0000" opacity="1" stroke="none" />
<circle cx="834.4398340248963" cy="136.51452282157675" r="11.25" fill="none" stroke="#992626" stroke-width="7.5" stroke-opacity="0.75" />
<circle cx="837.3443983402489" cy="75.51867219917006" r="15" fill="#ff0000" opacity="1" stroke="none" />
<circle cx="837.3443983402489" cy="75.51867219917006" r="11.25" fill="none" stroke="#992626" stroke-width="7.5" stroke-opacity="0.75" />
<circle cx="857.2614107883817" cy="114.93775933609948" r="15" fill="#ff0000" opacity="1" stroke="none" />
<circle cx="857.2614107883817" cy="114.93775933609948" r="11.25" fill="none" stroke="#992626" stroke-width="7.5" stroke-opacity="0.75" />
<circle cx="883.8174273858921" cy="69.91701244813271" r="15" fill="#ff0000" opacity="1" stroke="none" />
<circle cx="883.8174273858921" cy="69.91701244813271" r="11.25" fill="none" stroke="#992626" stroke-width="7.5" stroke-opacity="0.75" />
<circle cx="902.9045643153527" cy="66.43153526970946" r="15" fill="#ff0000" opacity="1" stroke="none" />
<circle cx="902.9045643153527" cy="66.43153526970946" r="11.25" fill="none" stroke="#992626" stroke-width="7.5" stroke-opacity="0.75" />
<circle cx="888.7966804979254" cy="118.58921161825731" r="15" fill="#ff0000" opacity="1" stroke="none" />
<circle cx="888.7966804979254" cy="118.58921161825731" r="11.25" fill="none" stroke="#992626" stroke-width="7.5" stroke-opacity="0.75" />
<circle cx="903.7344398340249" cy="63.609958506224075" r="15" fill="#ff0000" opacity="1" stroke="none" />
<circle cx="903.7344398340249" cy="63.609958506224075" r="11.25" fill="none" stroke="#992626" stroke-width="7.5" stroke-opacity="0.75" />
<circle cx="931.1203319502075" cy="52.655601659750914" r="15" fill="#ff0000" opacity="1" stroke="none" />
<circle cx="931.1203319502075" cy="52.655601659750914" r="11.25" fill="none" stroke="#992626" stroke-width="7.5" stroke-opacity="0.75" />
<circle cx="951.4522821576763" cy="39.91701244813271" r="15" fill="#ff0000" opacity="1" stroke="none" />
<circle cx="951.4522821576763" cy="39.91701244813271" r="11.25" fill="none" stroke="#992626" stroke-width="7.5" stroke-opacity="0.75" />
<circle cx="953.941908713693" cy="39.04564315352684" r="15" fill="#ff0000" opacity="1" stroke="none" />
<circle cx="953.941908713693" cy="39.04564315352684" r="11.25" fill="none" stroke="#992626" stroke-width="7.5" stroke-opacity="0.75" />
</g>
<g id="d2">
<circle cx="152.28215767634862" cy="712.806218333264" r="15" fill="#027f00" opacity="1" stroke="none" />
<circle cx="152.28215767634862" cy="712.806218333264" r="11.25" fill="none" stroke="#144c13" stroke-width="7.5" stroke-opacity="0.75" />
<circle cx="80.0829875518672" cy="925.7129351034204" r="15" fill="#027f00" opacity="1" stroke="none" />
<circle cx="80.0829875518672" cy="925.7129351034204" r="11.25" fill="none" stroke="#144c13" stroke-width="7.5" stroke-opacity="0.75" />
<circle cx="377.17842323651456" cy="596.6989728128267" r="15" fill="#027f00" opacity="1" stroke="none" />
<circle cx="377.17842323651456" cy="596.6989728128267" r="11.25" fill="none" stroke="#144c13" stroke-width="7.5" stroke-opacity="0.75" />
<circle cx="415.7676348547718" cy="642.9384968389613" r="15" fill="#027f00" opacity="1" stroke="none" />
<circle cx="415.7676348547718" cy="642.9384968389613" r="11.25" fill="none" stroke="#144c13" stroke-width="7.5" stroke-opacity="0.75" />
<circle cx="429.045643153527" cy="543.0156647243934" r="15" fill="#027f00" opacity="1" stroke="none" />
<circle cx="429.045643153527" cy="543.0156647243934" r="11.25" fill="none" stroke="#144c13" stroke-width="7.5" stroke-opacity="0.75" />
<circle cx="435.2697095435685" cy="669.9838739608829" r="15" fill="#027f00" opacity="1" stroke="none" />
<circle cx="435.2697095435685" cy="669.9838739608829" r="11.25" fill="none" stroke="#144c13" stroke-width="7.5" stroke-opacity="0.75" />
<circle cx="441.9087136929461" cy="566.6501894828195" r="15" fill="#027f00" opacity="1" stroke="none" />
<circle cx="441.9087136929461" cy="566.6501894828195" r="11.25" fill="none" stroke="#144c13" stroke-width="7.5" stroke-opacity="0.75" />
<circle cx="452.2821576763486" cy="570.1573342802119" r="15" fill="#027f00" opacity="1" stroke="none" />
<circle cx="452.2821576763486" cy="570.1573342802119" r="11.25" fill="none" stroke="#144c13" stroke-width="7.5" stroke-opacity="0.75" />
<circle cx="467.63485477178426" cy="596.7425490414948" r="15" fill="#027f00" opacity="1" stroke="none" />
<circle cx="467.63485477178426" cy="596.7425490414948" r="11.25" fill="none" stroke="#144c13" stroke-width="7.5" stroke-opacity="0.75" />
<circle cx="502.9045643153527" cy="667.9009821602913" r="15" fill="#027f00" opacity="1" stroke="none" />
<circle cx="502.9045643153527" cy="667.9009821602913" r="11.25" fill="none" stroke="#144c13" stroke-width="7.5" stroke-opacity="0.75" />
<circle cx="519.5020746887967" cy="409.42775686746813" r="15" fill="#027f00" opacity="1" stroke="none" />
<circle cx="519.5020746887967" cy="409.42775686746813" r="11.25" fill="none" stroke="#144c13" stroke-width="7.5" stroke-opacity="0.75" />
<circle cx="525.7261410788382" cy="446.039852680507" r="15" fill="#027f00" opacity="1" stroke="none" />
<circle cx="525.7261410788382" cy="446.039852680507" r="11.25" fill="none" stroke="#144c13" stroke-width="7.5" stroke-opacity="0.75" />
<circle cx="531.5352697095436" cy="403.28369989434714" r="15" fill="#027f00" opacity="1" stroke="none" />
<circle cx="531.5352697095436" cy="403.28369989434714" r="11.25" fill="none" stroke="#144c13" stroke-width="7.5" stroke-opacity="0.75" />
<circle cx="545.2282157676348" cy="435.6989520615067" r="15" fill="#027f00" opacity="1" stroke="none" />
<circle cx="545.2282157676348" cy="435.6989520615067" r="11.25" fill="none" stroke="#144c13" stroke-width="7.5" stroke-opacity="0.75" />
<circle cx="559.3360995850622" cy="479.4506118604256" r="15" fill="#027f00" opacity="1" stroke="none" />
<circle cx="559.3360995850622" cy="479.4506118604256" r="11.25" fill="none" stroke="#144c13" stroke-width="7.5" stroke-opacity="0.75" />
<circle cx="570.9543568464732" cy="549.1249548251203" r="15" fill="#027f00" opacity="1" stroke="none" />
<circle cx="570.9543568464732" cy="549.1249548251203" r="11.25" fill="none" stroke="#144c13" stroke-width="7.5" stroke-opacity="0.75" />
<circle cx="565.9751037344398" cy="461.4627263555883" r="15" fill="#027f00" opacity="1" stroke="none" />
<circle cx="565.9751037344398" cy="461.4627263555883" r="11.25" fill="none" stroke="#144c13" stroke-width="7.5" stroke-opacity="0.75" />
<circle cx="576.7634854771785" cy="329.06486354922845" r="15" fill="#027f00" opacity="1" stroke="none" />
<circle cx="576.7634854771785" cy="329.06486354922845" r="11.25" fill="none" stroke="#144c13" stroke-width="7.5" stroke-opacity="0.75" />
<circle cx="585.0622406639004" cy="501.97384315902264" r="15" fill="#027f00" opacity="1" stroke="none" />
<circle cx="585.0622406639004" cy="501.97384315902264" r="11.25" fill="none" stroke="#144c13" stroke-width="7.5" stroke-opacity="0.75" />
<circle cx="590.0414937759336" cy="475.3607438510878" r="15" fill="#027f00" opacity="1" stroke="none" />
<circle cx="590.0414937759336" cy="475.3607438510878" r="11.25" fill="none" stroke="#144c13" stroke-width="7.5" stroke-opacity="0.75" />
<circle cx="596.6804979253113" cy="385.57632986440694" r="15" fill="#027f00" opacity="1" stroke="none" />
<circle cx="596.6804979253113" cy="385.57632986440694" r="11.25" fill="none" stroke="#144c13" stroke-width="7.5" stroke-opacity="0.75" />
<circle cx="596.2655601659751" cy="408.39843251398486" r="15" fill="#027f00" opacity="1" stroke="none" />
<circle cx="596.2655601659751" cy="408.39843251398486" r="11.25" fill="none" stroke="#144c13" stroke-width="7.5" stroke-opacity="0.75" />
<circle cx="612.8630705394191" cy="402.9055304942783" r="15" fill="#027f00" opacity="1" stroke="none" />
<circle cx="612.8630705394191" cy="402.9055304942783" r="11.25" fill="none" stroke="#144c13" stroke-width="7.5" stroke-opacity="0.75" />
<circle cx="622.4066390041494" cy="351.156522930905" r="15" fill="#027f00" opacity="1" stroke="none" />
<circle cx="622.4066390041494" cy="351.156522930905" r="11.25" fill="none" stroke="#144c13" stroke-width="7.5" stroke-opacity="0.75" />
<circle cx="624.066390041494" cy="276.83461953000915" r="15" fill="#027f00" opacity="1" stroke="none" />
<circle cx="624.066390041494" cy="276.83461953000915" r="11.25" fill="none" stroke="#144c13" stroke-width="7.5" stroke-opacity="0.75" />
<circle cx="631.9502074688796" cy="477.32678543977215" r="15" fill="#027f00" opacity="1" stroke="none" />
<circle cx="631.9502074688796" cy="477.32678543977215" r="11.25" fill="none" stroke="#144c13" stroke-width="7.5" stroke-opacity="0.75" />
<circle cx="631.9502074688796" cy="515.2160638991234" r="15" fill="#027f00" opacity="1" stroke="none" />
<circle cx="631.9502074688796" cy="515.2160638991234" r="11.25" fill="none" stroke="#144c13" stroke-width="7.5" stroke-opacity="0.75" />
<circle cx="638.1742738589212" cy="326.96717329539695" r="15" fill="#027f00" opacity="1" stroke="none" />
<circle cx="638.1742738589212" cy="326.96717329539695" r="11.25" fill="none" stroke="#144c13" stroke-width="7.5" stroke-opacity="0.75" />
<circle cx="639.8340248962656" cy="462.73868782391685" r="15" fill="#027f00" opacity="1" stroke="none" />
<circle cx="639.8340248962656" cy="462.73868782391685" r="11.25" fill="none" stroke="#144c13" stroke-width="7.5" stroke-opacity="0.75" />
<circle cx="646.8879668049793" cy="319.0967603021637" r="15" fill="#027f00" opacity="1" stroke="none" />
<circle cx="646.8879668049793" cy="319.0967603021637" r="11.25" fill="none" stroke="#144c13" stroke-width="7.5" stroke-opacity="0.75" />
<circle cx="649.792531120332" cy="335.8557575669031" r="15" fill="#027f00" opacity="1" stroke="none" />
<circle cx="649.792531120332" cy="335.8557575669031" r="11.25" fill="none" stroke="#144c13" stroke-width="7.5" stroke-opacity="0.75" />
<circle cx="647.3029045643154" cy="294.4572598310922" r="15" fill="#027f00" opacity="1" stroke="none" />
<circle cx="647.3029045643154" cy="294.4572598310922" r="11.25" fill="none" stroke="#144c13" stroke-width="7.5" stroke-opacity="0.75" />
<circle cx="654.356846473029" cy="311.83302773726916" r="15" fill="#027f00" opacity="1" stroke="none" />
<circle cx="654.356846473029" cy="311.83302773726916" r="11.25" fill="none" stroke="#144c13" stroke-width="7.5" stroke-opacity="0.75" />
<circle cx="656.0165975103735" cy="304.12703219291086" r="15" fill="#027f00" opacity="1" stroke="none" />
<circle cx="656.0165975103735" cy="304.12703219291086" r="11.25" fill="none" stroke="#144c13" stroke-width="7.5" stroke-opacity="0.75" />
<circle cx="663.0705394190871" cy="327.882652441001" r="15" fill="#027f00" opacity="1" stroke="none" />
<circle cx="663.0705394190871" cy="327.882652441001" r="11.25" fill="none" stroke="#144c13" stroke-width="7.5" stroke-opacity="0.75" />
<circle cx="670.1244813278009" cy="311.33177563362585" r="15" fill="#027f00" opacity="1" stroke="none" />
<circle cx="670.1244813278009" cy="311.33177563362585" r="11.25" fill="none" stroke="#144c13" stroke-width="7.5" stroke-opacity="0.75" />
<circle cx="668.0497925311204" cy="357.8386404900135" r="15" fill="#027f00" opacity="1" stroke="none" />
<circle cx="668.0497925311204" cy="357.8386404900135" r="11.25" fill="none" stroke="#144c13" stroke-width="7.5" stroke-opacity="0.75" />
<circle cx="674.688796680498" cy="261.77313879812414" r="15" fill="#027f00" opacity="1" stroke="none" />
<circle cx="674.688796680498" cy="261.77313879812414" r="11.25" fill="none" stroke="#144c13" stroke-width="7.5" stroke-opacity="0.75" />
<circle cx="676.3485477178424" cy="347.8892760059151" r="15" fill="#027f00" opacity="1" stroke="none" />
<circle cx="676.3485477178424" cy="347.8892760059151" r="11.25" fill="none" stroke="#144c13" stroke-width="7.5" stroke-opacity="0.75" />
<circle cx="682.572614107884" cy="291.28839334511645" r="15" fill="#027f00" opacity="1" stroke="none" />
<circle cx="682.572614107884" cy="291.28839334511645" r="11.25" fill="none" stroke="#144c13" stroke-width="7.5" stroke-opacity="0.75" />
<circle cx="684.2323651452282" cy="222.79460440038144" r="15" fill="#027f00" opacity="1" stroke="none" />
<circle cx="684.2323651452282" cy="222.79460440038144" r="11.25" fill="none" stroke="#144c13" stroke-width="7.5" stroke-opacity="0.75" />
<circle cx="691.2863070539419" cy="248.11514098614578" r="15" fill="#027f00" opacity="1" stroke="none" />
<circle cx="691.2863070539419" cy="248.11514098614578" r="11.25" fill="none" stroke="#144c13" stroke-width="7.5" stroke-opacity="0.75" />
<circle cx="695.0207468879668" cy="293.6250459133837" r="15" fill="#027f00" opacity="1" stroke="none" />
<circle cx="695.0207468879668" cy="293.6250459133837" r="11.25" fill="none" stroke="#144c13" stroke-width="7.5" stroke-opacity="0.75" />
<circle cx="703.3195020746889" cy="262.00335093058993" r="15" fill="#027f00" opacity="1" stroke="none" />
<circle cx="703.3195020746889" cy="262.00335093058993" r="11.25" fill="none" stroke="#144c13" stroke-width="7.5" stroke-opacity="0.75" />
<circle cx="707.8838174273859" cy="249.55322835455297" r="15" fill="#027f00" opacity="1" stroke="none" />
<circle cx="707.8838174273859" cy="249.55322835455297" r="11.25" fill="none" stroke="#144c13" stroke-width="7.5" stroke-opacity="0.75" />
<circle cx="703.3195020746889" cy="344.7981244894478" r="15" fill="#027f00" opacity="1" stroke="none" />
<circle cx="703.3195020746889" cy="344.7981244894478" r="11.25" fill="none" stroke="#144c13" stroke-width="7.5" stroke-opacity="0.75" />
<circle cx="710.3734439834025" cy="129.52197126333147" r="15" fill="#027f00" opacity="1" stroke="none" />
<circle cx="710.3734439834025" cy="129.52197126333147" r="11.25" fill="none" stroke="#144c13" stroke-width="7.5" stroke-opacity="0.75" />
<circle cx="717.4273858921163" cy="253.2570370401089" r="15" fill="#027f00" opacity="1" stroke="none" />
<circle cx="717.4273858921163" cy="253.2570370401089" r="11.25" fill="none" stroke="#144c13" stroke-width="7.5" stroke-opacity="0.75" />
<circle cx="723.2365145228216" cy="242.5210739072428" r="15" fill="#027f00" opacity="1" stroke="none" />
<circle cx="723.2365145228216" cy="242.5210739072428" r="11.25" fill="none" stroke="#144c13" stroke-width="7.5" stroke-opacity="0.75" />
<circle cx="730.7053941908713" cy="273.0265281408159" r="15" fill="#027f00" opacity="1" stroke="none" />
<circle cx="730.7053941908713" cy="273.0265281408159" r="11.25" fill="none" stroke="#144c13" stroke-width="7.5" stroke-opacity="0.75" />
<circle cx="730.7053941908713" cy="253.21839405787932" r="15" fill="#027f00" opacity="1" stroke="none" />
<circle cx="730.7053941908713" cy="253.21839405787932" r="11.25" fill="none" stroke="#144c13" stroke-width="7.5" stroke-opacity="0.75" />
<circle cx="730.7053941908713" cy="274.9517574547732" r="15" fill="#027f00" opacity="1" stroke="none" />
<circle cx="730.7053941908713" cy="274.9517574547732" r="11.25" fill="none" stroke="#144c13" stroke-width="7.5" stroke-opacity="0.75" />
<circle cx="734.4398340248963" cy="271.8446511153858" r="15" fill="#027f00" opacity="1" stroke="none" />
<circle cx="734.4398340248963" cy="271.8446511153858" r="11.25" fill="none" stroke="#144c13" stroke-width="7.5" stroke-opacity="0.75" />
<circle cx="742.3236514522822" cy="268.12140824883807" r="15" fill="#027f00" opacity="1" stroke="none" />
<circle cx="742.3236514522822" cy="268.12140824883807" r="11.25" fill="none" stroke="#144c13" stroke-width="7.5" stroke-opacity="0.75" />
<circle cx="745.643153526971" cy="242.8136271559846" r="15" fill="#027f00" opacity="1" stroke="none" />
<circle cx="745.643153526971" cy="242.8136271559846" r="11.25" fill="none" stroke="#144c13" stroke-width="7.5" stroke-opacity="0.75" />
<circle cx="746.8879668049792" cy="202.08185054949217" r="15" fill="#027f00" opacity="1" stroke="none" />
<circle cx="746.8879668049792" cy="202.08185054949217" r="11.25" fill="none" stroke="#144c13" stroke-width="7.5" stroke-opacity="0.75" />
<circle cx="756.0165975103736" cy="183.84841170053755" r="15" fill="#027f00" opacity="1" stroke="none" />
<circle cx="756.0165975103736" cy="183.84841170053755" r="11.25" fill="none" stroke="#144c13" stroke-width="7.5" stroke-opacity="0.75" />
<circle cx="759.7510373443985" cy="237.35607771457967" r="15" fill="#027f00" opacity="1" stroke="none" />
<circle cx="759.7510373443985" cy="237.35607771457967" r="11.25" fill="none" stroke="#144c13" stroke-width="7.5" stroke-opacity="0.75" />
<circle cx="773.8589211618257" cy="155.68968808502575" r="15" fill="#027f00" opacity="1" stroke="none" />
<circle cx="773.8589211618257" cy="155.68968808502575" r="11.25" fill="none" stroke="#144c13" stroke-width="7.5" stroke-opacity="0.75" />
<circle cx="780.9128630705394" cy="167.3817685234102" r="15" fill="#027f00" opacity="1" stroke="none" />
<circle cx="780.9128630705394" cy="167.3817685234102" r="11.25" fill="none" stroke="#144c13" stroke-width="7.5" stroke-opacity="0.75" />
<circle cx="781.3278008298755" cy="241.7003998815767" r="15" fill="#027f00" opacity="1" stroke="none" />
<circle cx="781.3278008298755" cy="241.7003998815767" r="11.25" fill="none" stroke="#144c13" stroke-width="7.5" stroke-opacity="0.75" />
<circle cx="787.551867219917" cy="224.72689381278883" r="15" fill="#027f00" opacity="1" stroke="none" />
<circle cx="787.551867219917" cy="224.72689381278883" r="11.25" fill="none" stroke="#144c13" stroke-width="7.5" stroke-opacity="0.75" />
<circle cx="792.1161825726141" cy="218.13317712411845" r="15" fill="#027f00" opacity="1" stroke="none" />
<circle cx="792.1161825726141" cy="218.13317712411845" r="11.25" fill="none" stroke="#144c13" stroke-width="7.5" stroke-opacity="0.75" />
<circle cx="800.8298755186721" cy="215.80853030889352" r="15" fill="#027f00" opacity="1" stroke="none" />
<circle cx="800.8298755186721" cy="215.80853030889352" r="11.25" fill="none" stroke="#144c13" stroke-width="7.5" stroke-opacity="0.75" />
<circle cx="800.8298755186721" cy="211.0227678029862" r="15" fill="#027f00" opacity="1" stroke="none" />
<circle cx="800.8298755186721" cy="211.0227678029862" r="11.25" fill="none" stroke="#144c13" stroke-width="7.5" stroke-opacity="0.75" />
<circle cx="802.0746887966806" cy="237.05504051382604" r="15" fill="#027f00" opacity="1" stroke="none" />
<circle cx="802.0746887966806" cy="237.05504051382604" r="11.25" fill="none" stroke="#144c13" stroke-width="7.5" stroke-opacity="0.75" />
<circle cx="811.2033195020747" cy="171.3150046376271" r="15" fill="#027f00" opacity="1" stroke="none" />
<circle cx="811.2033195020747" cy="171.3150046376271" r="11.25" fill="none" stroke="#144c13" stroke-width="7.5" stroke-opacity="0.75" />
<circle cx="815.3526970954357" cy="174.2964613586047" r="15" fill="#027f00" opacity="1" stroke="none" />
<circle cx="815.3526970954357" cy="174.2964613586047" r="11.25" fill="none" stroke="#144c13" stroke-width="7.5" stroke-opacity="0.75" />
<circle cx="828.2157676348547" cy="157.26214258502625" r="15" fill="#027f00" opacity="1" stroke="none" />
<circle cx="828.2157676348547" cy="157.26214258502625" r="11.25" fill="none" stroke="#144c13" stroke-width="7.5" stroke-opacity="0.75" />
<circle cx="829.8755186721991" cy="145.40415843987364" r="15" fill="#027f00" opacity="1" stroke="none" />
<circle cx="829.8755186721991" cy="145.40415843987364" r="11.25" fill="none" stroke="#144c13" stroke-width="7.5" stroke-opacity="0.75" />
<circle cx="834.4398340248963" cy="133.28735701028734" r="15" fill="#027f00" opacity="1" stroke="none" />
<circle cx="834.4398340248963" cy="133.28735701028734" r="11.25" fill="none" stroke="#144c13" stroke-width="7.5" stroke-opacity="0.75" />
<circle cx="837.3443983402489" cy="137.52869332974387" r="15" fill="#027f00" opacity="1" stroke="none" />
<circle cx="837.3443983402489" cy="137.52869332974387" r="11.25" fill="none" stroke="#144c13" stroke-width="7.5" stroke-opacity="0.75" />
<circle cx="857.2614107883817" cy="132.08951772001274" r="15" fill="#027f00" opacity="1" stroke="none" />
<circle cx="857.2614107883817" cy="132.08951772001274" r="11.25" fill="none" stroke="#144c13" stroke-width="7.5" stroke-opacity="0.75" />
<circle cx="883.8174273858921" cy="83.59181920522474" r="15" fill="#027f00" opacity="1" stroke="none" />
<circle cx="883.8174273858921" cy="83.59181920522474" r="11.25" fill="none" stroke="#144c13" stroke-width="7.5" stroke-opacity="0.75" />
<circle cx="902.9045643153527" cy="76.31712883834518" r="15" fill="#027f00" opacity="1" stroke="none" />
<circle cx="902.9045643153527" cy="76.31712883834518" r="11.25" fill="none" stroke="#144c13" stroke-width="7.5" stroke-opacity="0.75" />
<circle cx="888.7966804979254" cy="110.05515460651452" r="15" fill="#027f00" opacity="1" stroke="none" />
<circle cx="888.7966804979254" cy="110.05515460651452" r="11.25" fill="none" stroke="#144c13" stroke-width="7.5" stroke-opacity="0.75" />
<circle cx="903.7344398340249" cy="76.16996302149607" r="15" fill="#027f00" opacity="1" stroke="none" />
<circle cx="903.7344398340249" cy="76.16996302149607" r="11.25" fill="none" stroke="#144c13" stroke-width="7.5" stroke-opacity="0.75" />
<circle cx="931.1203319502075" cy="56.41144583086748" r="15" fill="#027f00" opacity="1" stroke="none" />
<circle cx="931.1203319502075" cy="56.41144583086748" r="11.25" fill="none" stroke="#144c13" stroke-width="7.5" stroke-opacity="0.75" />
<circle cx="951.4522821576763" cy="46.194635466421346" r="15" fill="#027f00" opacity="1" stroke="none" />
<circle cx="951.4522821576763" cy="46.194635466421346" r="11.25" fill="none" stroke="#144c13" stroke-width="7.5" stroke-opacity="0.75" />
<circle cx="953.941908713693" cy="50.369344697453585" r="15" fill="#027f00" opacity="1" stroke="none" />
<circle cx="953.941908713693" cy="50.369344697453585" r="11.25" fill="none" stroke="#144c13" stroke-width="7.5" stroke-opacity="0.75" />
</g>
<g id="d3">
<path d="M150.0,1150.0 L1150.0,150.0" fill="none" opacity="0.5" stroke="#000000" stroke-width="16" />
<use xlink:href="#d0" x="150.0" y="150.0" />
<use xlink:href="#d1" x="150.0" y="150.0" />
<use xlink:href="#d2" x="150.0" y="150.0" />
<path d="M269.99999999999983,1123.6842904310888 L289.9999999999998,1100.5313113432328" stroke="#992626" fill="none" stroke-width="8" stroke-opacity="0.75" />
<path d="M309.9999999999998,1077.3783322553768 L329.9999999999998,1054.2253531675208" stroke="#992626" fill="none" stroke-width="8" stroke-opacity="0.75" />
<path d="M349.9999999999997,1031.0723740796648 L369.99999999999966,1007.9193949918088" stroke="#992626" fill="none" stroke-width="8" stroke-opacity="0.75" />
<path d="M389.99999999999966,984.7664159039526 L409.9999999999996,961.6134368160967" stroke="#992626" fill="none" stroke-width="8" stroke-opacity="0.75" />
<path d="M429.9999999999996,938.4604577282406 L449.99999999999955,915.3074786403846" stroke="#992626" fill="none" stroke-width="8" stroke-opacity="0.75" />
<path d="M469.9999999999995,892.1544995525286 L489.99999999999955,869.0015204646726" stroke="#992626" fill="none" stroke-width="8" stroke-opacity="0.75" />
<path d="M509.9999999999995,845.8485413768165 L529.9999999999994,822.6955622889604" stroke="#992626" fill="none" stroke-width="8" stroke-opacity="0.75" />
<path d="M549.9999999999994,799.5425832011044 L569.9999999999993,776.3896041132484" stroke="#992626" fill="none" stroke-width="8" stroke-opacity="0.75" />
<path d="M589.9999999999993,753.2366250253924 L609.9999999999993,730.0836459375364" stroke="#992626" fill="none" stroke-width="8" stroke-opacity="0.75" />
<path d="M629.9999999999993,706.9306668496804 L649.9999999999993,683.7776877618244" stroke="#992626" fill="none" stroke-width="8" stroke-opacity="0.75" />
<path d="M669.9999999999992,660.6247086739684 L689.9999999999992,637.4717295861122" stroke="#992626" fill="none" stroke-width="8" stroke-opacity="0.75" />
<path d="M709.9999999999992,614.3187504982563 L729.9999999999992,591.1657714104002" stroke="#992626" fill="none" stroke-width="8" stroke-opacity="0.75" />
<path d="M749.9999999999991,568.0127923225442 L769.9999999999991,544.8598132346882" stroke="#992626" fill="none" stroke-width="8" stroke-opacity="0.75" />
<path d="M789.999999999999,521.7068341468322 L809.999999999999,498.5538550589762" stroke="#992626" fill="none" stroke-width="8" stroke-opacity="0.75" />
<path d="M829.9999999999991,475.40087597112006 L849.999999999999,452.24789688326405" stroke="#992626" fill="none" stroke-width="8" stroke-opacity="0.75" />
<path d="M869.999999999999,429.09491779540804 L889.9999999999989,405.941938707552" stroke="#992626" fill="none" stroke-width="8" stroke-opacity="0.75" />
<path d="M909.9999999999989,382.788959619696 L929.9999999999987,359.63598053184" stroke="#992626" fill="none" stroke-width="8" stroke-opacity="0.75" />
<path d="M949.9999999999989,336.4830014439839 L969.9999999999989,313.33002235612787" stroke="#992626" fill="none" stroke-width="8" stroke-opacity="0.75" />
<path d="M989.9999999999987,290.17704326827186 L1009.9999999999987,267.02406418041585" stroke="#992626" fill="none" stroke-width="8" stroke-opacity="0.75" />
<path d="M1029.9999999999986,243.87108509255984 L1049.9999999999986,220.7181060047037" stroke="#992626" fill="none" stroke-width="8" stroke-opacity="0.75" />
<path d="M1069.9999999999986,197.56512691684782 L1089.9999999999986,174.4121478289917" stroke="#992626" fill="none" stroke-width="8" stroke-opacity="0.75" />
<path d="M189.99999999999994,1125.6252290839097 L209.99999999999991,1104.9328671784813" stroke="#144c13" fill="none" stroke-width="8" stroke-opacity="0.75" />
<path d="M229.9999999999999,1084.2405052730528 L249.99999999999986,1063.548143367624" stroke="#144c13" fill="none" stroke-width="8" stroke-opacity="0.75" />
<path d="M269.99999999999983,1042.8557814621956 L289.9999999999998,1022.1634195567672" stroke="#144c13" fill="none" stroke-width="8" stroke-opacity="0.75" />
<path d="M309.9999999999998,1001.4710576513386 L329.9999999999998,980.77869574591" stroke="#144c13" fill="none" stroke-width="8" stroke-opacity="0.75" />
<path d="M349.9999999999997,960.0863338404815 L369.99999999999966,939.393971935053" stroke="#144c13" fill="none" stroke-width="8" stroke-opacity="0.75" />
<path d="M389.99999999999966,918.7016100296245 L409.9999999999996,898.0092481241959" stroke="#144c13" fill="none" stroke-width="8" stroke-opacity="0.75" />
<path d="M429.9999999999996,877.3168862187674 L449.99999999999955,856.6245243133388" stroke="#144c13" fill="none" stroke-width="8" stroke-opacity="0.75" />
<path d="M469.9999999999995,835.9321624079103 L489.99999999999955,815.2398005024818" stroke="#144c13" fill="none" stroke-width="8" stroke-opacity="0.75" />
<path d="M509.9999999999995,794.5474385970532 L529.9999999999994,773.8550766916247" stroke="#144c13" fill="none" stroke-width="8" stroke-opacity="0.75" />
<path d="M549.9999999999994,753.1627147861961 L569.9999999999993,732.4703528807677" stroke="#144c13" fill="none" stroke-width="8" stroke-opacity="0.75" />
<path d="M589.9999999999993,711.7779909753391 L609.9999999999993,691.0856290699106" stroke="#144c13" fill="none" stroke-width="8" stroke-opacity="0.75" />
<path d="M629.9999999999993,670.393267164482 L649.9999999999993,649.7009052590536" stroke="#144c13" fill="none" stroke-width="8" stroke-opacity="0.75" />
<path d="M669.9999999999992,629.008543353625 L689.9999999999992,608.3161814481965" stroke="#144c13" fill="none" stroke-width="8" stroke-opacity="0.75" />
<path d="M709.9999999999992,587.6238195427679 L729.9999999999992,566.9314576373395" stroke="#144c13" fill="none" stroke-width="8" stroke-opacity="0.75" />
<path d="M749.9999999999991,546.239095731911 L769.9999999999991,525.5467338264824" stroke="#144c13" fill="none" stroke-width="8" stroke-opacity="0.75" />
<path d="M789.999999999999,504.8543719210538 L809.999999999999,484.16201001562536" stroke="#144c13" fill="none" stroke-width="8" stroke-opacity="0.75" />
<path d="M829.9999999999991,463.4696481101969 L849.999999999999,442.7772862047683" stroke="#144c13" fill="none" stroke-width="8" stroke-opacity="0.75" />
<path d="M869.999999999999,422.0849242993397 L889.9999999999989,401.39256239391113" stroke="#144c13" fill="none" stroke-width="8" stroke-opacity="0.75" />
<path d="M909.9999999999989,380.70020048848266 L929.9999999999987,360.0078385830542" stroke="#144c13" fill="none" stroke-width="8" stroke-opacity="0.75" />
<path d="M949.9999999999989,339.3154766776256 L969.9999999999989,318.623114772197" stroke="#144c13" fill="none" stroke-width="8" stroke-opacity="0.75" />
<path d="M989.9999999999987,297.93075286676844 L1009.9999999999987,277.2383909613401" stroke="#144c13" fill="none" stroke-width="8" stroke-opacity="0.75" />
<path d="M1029.9999999999986,256.5460290559115 L1049.9999999999986,235.85366715048292" stroke="#144c13" fill="none" stroke-width="8" stroke-opacity="0.75" />
<path d="M1069.9999999999986,215.16130524505434 L1089.9999999999986,194.46894333962587" stroke="#144c13" fill="none" stroke-width="8" stroke-opacity="0.75" />
<path d="M1109.9999999999986,173.7765814341974 L1129.9999999999986,153.0842195287688" stroke="#144c13" fill="none" stroke-width="8" stroke-opacity="0.75" />
</g>
</defs>
<rect x="-5" y="-5" width="1310" height="1310" fill="#ffffff" />
<use xlink:href="#d3" x="50" y="30" />
</svg>