<?xml version="1.0" encoding="UTF-8"?>
<svg xmlns="http://www.w3.org/2000/svg" xmlns:xlink="http://www.w3.org/1999/xlink"
     width="2600" height="2600" viewBox="0 0 1300 1300">
<defs>
<g id="d0">
<path d="M-5.0,0 L-5.0,1010.0" fill="none" stroke="#000000" stroke-width="10.0" stroke-opacity="0.75" />
<path d="M-10.0,1005.0 L1000,1005.0" fill="none" stroke="#000000" stroke-width="10.0" stroke-opacity="0.75" />
<path d="M4.149377593361055,1010.0 L4.149377593361055,1030" fill="none" stroke="#000000" stroke-width="10.0" stroke-opacity="0.75" />
<text x="4.149377593361055" y="1110" font-size="80" text-anchor="middle" fill="#000000" fill-opacity="0.75" font-family="Arial">-20</text>
<path d="M419.0871369294606,1010.0 L419.0871369294606,1030" fill="none" stroke="#000000" stroke-width="10.0" stroke-opacity="0.75" />
<text x="419.0871369294606" y="1110" font-size="80" text-anchor="middle" fill="#000000" fill-opacity="0.75" font-family="Arial">-10</text>
<path d="M834.0248962655602,1010.0 L834.0248962655602,1030" fill="none" stroke="#000000" stroke-width="10.0" stroke-opacity="0.75" />
<text x="834.0248962655602" y="1110" font-size="80" text-anchor="middle" fill="#000000" fill-opacity="0.75" font-family="Arial">0</text>
<path d="M4.149377593361055,0 L4.149377593361055,1000" fill="none" stroke="#1e1e46" stroke-width="7.5" stroke-opacity="0.25" />
<path d="M211.61825726141083,0 L211.61825726141083,1000" fill="none" stroke="#1e1e46" stroke-width="7.5" stroke-opacity="0.25" />
<path d="M419.0871369294606,0 L419.0871369294606,1000" fill="none" stroke="#1e1e46" stroke-width="7.5" stroke-opacity="0.25" />
<path d="M626.5560165975104,0 L626.5560165975104,1000" fill="none" stroke="#1e1e46" stroke-width="7.5" stroke-opacity="0.25" />
<path d="M834.0248962655602,0 L834.0248962655602,1000" fill="none" stroke="#1e1e46" stroke-width="7.5" stroke-opacity="0.25" />
<path d="M-10.0,995.850622406639 L-30,995.850622406639" ill="none" stroke="#000000" stroke-width="10.0" stroke-opacity="0.75" />
<text x="-40" y="1018.850622406639" font-size="80" text-anchor="end" fill="#000000" fill-opacity="0.75" font-family="Arial">-20</text>
<path d="M-10.0,580.9128630705394 L-30,580.9128630705394" ill="none" stroke="#000000" stroke-width="10.0" stroke-opacity="0.75" />
<text x="-40" y="603.9128630705394" font-size="80" text-anchor="end" fill="#000000" fill-opacity="0.75" font-family="Arial">-10</text>
<path d="M-10.0,165.9751037344398 L-30,165.9751037344398" ill="none" stroke="#000000" stroke-width="10.0" stroke-opacity="0.75" />
<text x="-40" y="188.9751037344398" font-size="80" text-anchor="end" fill="#000000" fill-opacity="0.75" font-family="Arial">0</text>
<path d="M0,995.850622406639 L1000,995.850622406639" fill="none" stroke="#1e1e46" stroke-width="7.5" stroke-opacity="0.25" />
<path d="M0,788.3817427385892 L1000,788.3817427385892" fill="none" stroke="#1e1e46" stroke-width="7.5" stroke-opacity="0.25" />
<path d="M0,580.9128630705394 L1000,580.9128630705394" fill="none" stroke="#1e1e46" stroke-width="7.5" stroke-opacity="0.25" />
<path d="M0,373.4439834024896 L1000,373.4439834024896" fill="none" stroke="#1e1e46" stroke-width="7.5" stroke-opacity="0.25" />
<path d="M0,165.9751037344398 L1000,165.9751037344398" fill="none" stroke="#1e1e46" stroke-width="7.5" stroke-opacity="0.25" />
<text x="500.0" y="-75" font-size="120" text-anchor="middle" fill="#000000" fill-opacity="0.75" font-family="Arial">AASC correction</text>
</g>
<g id="d1">
<circle cx="152.28215767634862" cy="795.0622406639004" r="15" fill="#ff0000" opacity="1" stroke="none" />
<circle cx="152.28215767634862" cy="795.0622406639004" r="11.25" fill="none" stroke="#992626" stroke-width="7.5" stroke-opacity="0.75" />
<circle cx="80.0829875518672" cy="1011.8672199170123" r="15" fill="#ff0000" opacity="1" stroke="none" />
<circle cx="80.0829875518672" cy="1011.8672199170123" r="11.25" fill="none" stroke="#992626" stroke-width="7.5" stroke-opacity="0.75" />
<circle cx="377.17842323651456" cy="628.7551867219915" r="15" fill="#ff0000" opacity="1" stroke="none" />
<circle cx="377.17842323651456" cy="628.7551867219915" r="11.25" fill="none" stroke="#992626" stroke-width="7.5" stroke-opacity="0.75" />
<circle cx="415.7676348547718" cy="763.1535269709543" r="15" fill="#ff0000" opacity="1" stroke="none" />
<circle cx="415.7676348547718" cy="763.1535269709543" r="11.25" fill="none" stroke="#992626" stroke-width="7.5" stroke-opacity="0.75" />
<circle cx="429.045643153527" cy="542.655601659751" r="15" fill="#ff0000" opacity="1" stroke="none" />
<circle cx="429.045643153527" cy="542.655601659751" r="11.25" fill="none" stroke="#992626" stroke-width="7.5" stroke-opacity="0.75" />
<circle cx="435.2697095435685" cy="765.8091286307053" r="15" fill="#ff0000" opacity="1" stroke="none" />
<circle cx="435.2697095435685" cy="765.8091286307053" r="11.25" fill="none" stroke="#992626" stroke-width="7.5" stroke-opacity="0.75" />
<circle cx="441.9087136929461" cy="611.701244813278" r="15" fill="#ff0000" opacity="1" stroke="none" />
<circle cx="441.9087136929461" cy="611.701244813278" r="11.25" fill="none" stroke="#992626" stroke-width="7.5" stroke-opacity="0.75" />
<circle cx="452.2821576763486" cy="605.5601659751037" r="15" fill="#ff0000" opacity="1" stroke="none" />
<circle cx="452.2821576763486" cy="605.5601659751037" r="11.25" fill="none" stroke="#992626" stroke-width="7.5" stroke-opacity="0.75" />
<circle cx="467.63485477178426" cy="680.6639004149378" r="15" fill="#ff0000" opacity="1" stroke="none" />
<circle cx="467.63485477178426" cy="680.6639004149378" r="11.25" fill="none" stroke="#992626" stroke-width="7.5" stroke-opacity="0.75" />
<circle cx="502.9045643153527" cy="680.414937759336" r="15" fill="#ff0000" opacity="1" stroke="none" />
<circle cx="502.9045643153527" cy="680.414937759336" r="11.25" fill="none" stroke="#992626" stroke-width="7.5" stroke-opacity="0.75" />
<circle cx="519.5020746887967" cy="330.16597510373447" r="15" fill="#ff0000" opacity="1" stroke="none" />
<circle cx="519.5020746887967" cy="330.16597510373447" r="11.25" fill="none" stroke="#992626" stroke-width="7.5" stroke-opacity="0.75" />
<circle cx="525.7261410788382" cy="347.42738589211615" r="15" fill="#ff0000" opacity="1" stroke="none" />
<circle cx="525.7261410788382" cy="347.42738589211615" r="11.25" fill="none" stroke="#992626" stroke-width="7.5" stroke-opacity="0.75" />
<circle cx="531.5352697095436" cy="368.75518672199166" r="15" fill="#ff0000" opacity="1" stroke="none" />
<circle cx="531.5352697095436" cy="368.75518672199166" r="11.25" fill="none" stroke="#992626" stroke-width="7.5" stroke-opacity="0.75" />
<circle cx="545.2282157676348" cy="489.253112033195" r="15" fill="#ff0000" opacity="1" stroke="none" />
<circle cx="545.2282157676348" cy="489.253112033195" r="11.25" fill="none" stroke="#992626" stroke-width="7.5" stroke-opacity="0.75" />
<circle cx="559.3360995850622" cy="489.5850622406639" r="15" fill="#ff0000" opacity="1" stroke="none" />
<circle cx="559.3360995850622" cy="489.5850622406639" r="11.25" fill="none" stroke="#992626" stroke-width="7.5" stroke-opacity="0.75" />
<circle cx="570.9543568464732" cy="673.9419087136929" r="15" fill="#ff0000" opacity="1" stroke="none" />
<circle cx="570.9543568464732" cy="673.9419087136929" r="11.25" fill="none" stroke="#992626" stroke-width="7.5" stroke-opacity="0.75" />
<circle cx="565.9751037344398" cy="602.8215767634855" r="15" fill="#ff0000" opacity="1" stroke="none" />
<circle cx="565.9751037344398" cy="602.8215767634855" r="11.25" fill="none" stroke="#992626" stroke-width="7.5" stroke-opacity="0.75" />
<circle cx="576.7634854771785" cy="309.33609958506213" r="15" fill="#ff0000" opacity="1" stroke="none" />
<circle cx="576.7634854771785" cy="309.33609958506213" r="11.25" fill="none" stroke="#992626" stroke-width="7.5" stroke-opacity="0.75" />
<circle cx="585.0622406639004" cy="628.0912863070539" r="15" fill="#ff0000" opacity="1" stroke="none" />
<circle cx="585.0622406639004" cy="628.0912863070539" r="11.25" fill="none" stroke="#992626" stroke-width="7.5" stroke-opacity="0.75" />
<circle cx="590.0414937759336" cy="467.9668049792531" r="15" fill="#ff0000" opacity="1" stroke="none" />
<circle cx="590.0414937759336" cy="467.9668049792531" r="11.25" fill="none" stroke="#992626" stroke-width="7.5" stroke-opacity="0.75" />
<circle cx="596.6804979253113" cy="397.3858921161826" r="15" fill="#ff0000" opacity="1" stroke="none" />
<circle cx="596.6804979253113" cy="397.3858921161826" r="11.25" fill="none" stroke="#992626" stroke-width="7.5" stroke-opacity="0.75" />
<circle cx="596.2655601659751" cy="454.5228215767635" r="15" fill="#ff0000" opacity="1" stroke="none" />
<circle cx="596.2655601659751" cy="454.5228215767635" r="11.25" fill="none" stroke="#992626" stroke-width="7.5" stroke-opacity="0.75" />
<circle cx="612.8630705394191" cy="500.0414937759336" r="15" fill="#ff0000" opacity="1" stroke="none" />
<circle cx="612.8630705394191" cy="500.0414937759336" r="11.25" fill="none" stroke="#992626" stroke-width="7.5" stroke-opacity="0.75" />
<circle cx="622.4066390041494" cy="364.68879668049794" r="15" fill="#ff0000" opacity="1" stroke="none" />
<circle cx="622.4066390041494" cy="364.68879668049794" r="11.25" fill="none" stroke="#992626" stroke-width="7.5" stroke-opacity="0.75" />
<circle cx="624.066390041494" cy="340.2904564315352" r="15" fill="#ff0000" opacity="1" stroke="none" />
<circle cx="624.066390041494" cy="340.2904564315352" r="11.25" fill="none" stroke="#992626" stroke-width="7.5" stroke-opacity="0.75" />
<circle cx="631.9502074688796" cy="608.4647302904564" r="15" fill="#ff0000" opacity="1" stroke="none" />
<circle cx="631.9502074688796" cy="608.4647302904564" r="11.25" fill="none" stroke="#992626" stroke-width="7.5" stroke-opacity="0.75" />
<circle cx="631.9502074688796" cy="670.3734439834025" r="15" fill="#ff0000" opacity="1" stroke="none" />
<circle cx="631.9502074688796" cy="670.3734439834025" r="11.25" fill="none" stroke="#992626" stroke-width="7.5" stroke-opacity="0.75" />
<circle cx="638.1742738589212" cy="293.77593360995843" r="15" fill="#ff0000" opacity="1" stroke="none" />
<circle cx="638.1742738589212" cy="293.77593360995843" r="11.25" fill="none" stroke="#992626" stroke-width="7.5" stroke-opacity="0.75" />
<circle cx="639.8340248962656" cy="601.4107883817427" r="15" fill="#ff0000" opacity="1" stroke="none" />
<circle cx="639.8340248962656" cy="601.4107883817427" r="11.25" fill="none" stroke="#992626" stroke-width="7.5" stroke-opacity="0.75" />
<circle cx="646.8879668049793" cy="321.0373443983402" r="15" fill="#ff0000" opacity="1" stroke="none" />
<circle cx="646.8879668049793" cy="321.0373443983402" r="11.25" fill="none" stroke="#992626" stroke-width="7.5" stroke-opacity="0.75" />
<circle cx="649.792531120332" cy="277.5103734439833" r="15" fill="#ff0000" opacity="1" stroke="none" />
<circle cx="649.792531120332" cy="277.5103734439833" r="11.25" fill="none" stroke="#992626" stroke-width="7.5" stroke-opacity="0.75" />
<circle cx="647.3029045643154" cy="282.48962655601656" r="15" fill="#ff0000" opacity="1" stroke="none" />
<circle cx="647.3029045643154" cy="282.48962655601656" r="11.25" fill="none" stroke="#992626" stroke-width="7.5" stroke-opacity="0.75" />
<circle cx="654.356846473029" cy="316.84647302904557" r="15" fill="#ff0000" opacity="1" stroke="none" />
<circle cx="654.356846473029" cy="316.84647302904557" r="11.25" fill="none" stroke="#992626" stroke-width="7.5" stroke-opacity="0.75" />
<circle cx="656.0165975103735" cy="286.6804979253111" r="15" fill="#ff0000" opacity="1" stroke="none" />
<circle cx="656.0165975103735" cy="286.6804979253111" r="11.25" fill="none" stroke="#992626" stroke-width="7.5" stroke-opacity="0.75" />
<circle cx="663.0705394190871" cy="320.0" r="15" fill="#ff0000" opacity="1" stroke="none" />
<circle cx="663.0705394190871" cy="320.0" r="11.25" fill="none" stroke="#992626" stroke-width="7.5" stroke-opacity="0.75" />
<circle cx="670.1244813278009" cy="155.5601659751037" r="15" fill="#ff0000" opacity="1" stroke="none" />
<circle cx="670.1244813278009" cy="155.5601659751037" r="11.25" fill="none" stroke="#992626" stroke-width="7.5" stroke-opacity="0.75" />
<circle cx="668.0497925311204" cy="425.2282157676349" r="15" fill="#ff0000" opacity="1" stroke="none" />
<circle cx="668.0497925311204" cy="425.2282157676349" r="11.25" fill="none" stroke="#992626" stroke-width="7.5" stroke-opacity="0.75" />
<circle cx="674.688796680498" cy="181.2033195020747" r="15" fill="#ff0000" opacity="1" stroke="none" />
<circle cx="674.688796680498" cy="181.2033195020747" r="11.25" fill="none" stroke="#992626" stroke-width="7.5" stroke-opacity="0.75" />
<circle cx="676.3485477178424" cy="406.6804979253111" r="15" fill="#ff0000" opacity="1" stroke="none" />
<circle cx="676.3485477178424" cy="406.6804979253111" r="11.25" fill="none" stroke="#992626" stroke-width="7.5" stroke-opacity="0.75" />
<circle cx="682.572614107884" cy="133.48547717842314" r="15" fill="#ff0000" opacity="1" stroke="none" />
<circle cx="682.572614107884" cy="133.48547717842314" r="11.25" fill="none" stroke="#992626" stroke-width="7.5" stroke-opacity="0.75" />
<circle cx="684.2323651452282" cy="161.20331950207458" r="15" fill="#ff0000" opacity="1" stroke="none" />
<circle cx="684.2323651452282" cy="161.20331950207458" r="11.25" fill="none" stroke="#992626" stroke-width="7.5" stroke-opacity="0.75" />
<circle cx="691.2863070539419" cy="160.9128630705394" r="15" fill="#ff0000" opacity="1" stroke="none" />
<circle cx="691.2863070539419" cy="160.9128630705394" r="11.25" fill="none" stroke="#992626" stroke-width="7.5" stroke-opacity="0.75" />
<circle cx="695.0207468879668" cy="297.9668049792531" r="15" fill="#ff0000" opacity="1" stroke="none" />
<circle cx="695.0207468879668" cy="297.9668049792531" r="11.25" fill="none" stroke="#992626" stroke-width="7.5" stroke-opacity="0.75" />
<circle cx="703.3195020746889" cy="271.65975103734445" r="15" fill="#ff0000" opacity="1" stroke="none" />
<circle cx="703.3195020746889" cy="271.65975103734445" r="11.25" fill="none" stroke="#992626" stroke-width="7.5" stroke-opacity="0.75" />
<circle cx="707.8838174273859" cy="128.67219917012437" r="15" fill="#ff0000" opacity="1" stroke="none" />
<circle cx="707.8838174273859" cy="128.67219917012437" r="11.25" fill="none" stroke="#992626" stroke-width="7.5" stroke-opacity="0.75" />
<circle cx="703.3195020746889" cy="359.5020746887967" r="15" fill="#ff0000" opacity="1" stroke="none" />
<circle cx="703.3195020746889" cy="359.5020746887967" r="11.25" fill="none" stroke="#992626" stroke-width="7.5" stroke-opacity="0.75" />
<circle cx="710.3734439834025" cy="-39.585062240664" r="15" fill="#ff0000" opacity="1" stroke="none" />
<circle cx="710.3734439834025" cy="-39.585062240664" r="11.25" fill="none" stroke="#992626" stroke-width="7.5" stroke-opacity="0.75" />
<circle cx="717.4273858921163" cy="342.1576763485476" r="15" fill="#ff0000" opacity="1" stroke="none" />
<circle cx="717.4273858921163" cy="342.1576763485476" r="11.25" fill="none" stroke="#992626" stroke-width="7.5" stroke-opacity="0.75" />
<circle cx="723.2365145228216" cy="330.4979253112033" r="15" fill="#ff0000" opacity="1" stroke="none" />
<circle cx="723.2365145228216" cy="330.4979253112033" r="11.25" fill="none" stroke="#992626" stroke-width="7.5" stroke-opacity="0.75" />
<circle cx="730.7053941908713" cy="327.21991701244815" r="15" fill="#ff0000" opacity="1" stroke="none" />
<circle cx="730.7053941908713" cy="327.21991701244815" r="11.25" fill="none" stroke="#992626" stroke-width="7.5" stroke-opacity="0.75" />
<circle cx="730.7053941908713" cy="292.48962655601656" r="15" fill="#ff0000" opacity="1" stroke="none" />
<circle cx="730.7053941908713" cy="292.48962655601656" r="11.25" fill="none" stroke="#992626" stroke-width="7.5" stroke-opacity="0.75" />
<circle cx="730.7053941908713" cy="330.6224066390041" r="15" fill="#ff0000" opacity="1" stroke="none" />
<circle cx="730.7053941908713" cy="330.6224066390041" r="11.25" fill="none" stroke="#992626" stroke-width="7.5" stroke-opacity="0.75" />
<circle cx="734.4398340248963" cy="281.0373443983402" r="15" fill="#ff0000" opacity="1" stroke="none" />
<circle cx="734.4398340248963" cy="281.0373443983402" r="11.25" fill="none" stroke="#992626" stroke-width="7.5" stroke-opacity="0.75" />
<circle cx="742.3236514522822" cy="337.6763485477178" r="15" fill="#ff0000" opacity="1" stroke="none" />
<circle cx="742.3236514522822" cy="337.6763485477178" r="11.25" fill="none" stroke="#992626" stroke-width="7.5" stroke-opacity="0.75" />
<circle cx="745.643153526971" cy="383.1950207468881" r="15" fill="#ff0000" opacity="1" stroke="none" />
<circle cx="745.643153526971" cy="383.1950207468881" r="11.25" fill="none" stroke="#992626" stroke-width="7.5" stroke-opacity="0.75" />
<circle cx="746.8879668049792" cy="208.21576763485484" r="15" fill="#ff0000" opacity="1" stroke="none" />
<circle cx="746.8879668049792" cy="208.21576763485484" r="11.25" fill="none" stroke="#992626" stroke-width="7.5" stroke-opacity="0.75" />
<circle cx="756.0165975103736" cy="202.5311203319502" r="15" fill="#ff0000" opacity="1" stroke="none" />
<circle cx="756.0165975103736" cy="202.5311203319502" r="11.25" fill="none" stroke="#992626" stroke-width="7.5" stroke-opacity="0.75" />
<circle cx="759.7510373443985" cy="254.02489626556007" r="15" fill="#ff0000" opacity="1" stroke="none" />
<circle cx="759.7510373443985" cy="254.02489626556007" r="11.25" fill="none" stroke="#992626" stroke-width="7.5" stroke-opacity="0.75" />
<circle cx="773.8589211618257" cy="91.74273858921151" r="15" fill="#ff0000" opacity="1" stroke="none" />
<circle cx="773.8589211618257" cy="91.74273858921151" r="11.25" fill="none" stroke="#992626" stroke-width="7.5" stroke-opacity="0.75" />
<circle cx="780.9128630705394" cy="141.2033195020747" r="15" fill="#ff0000" opacity="1" stroke="none" />
<circle cx="780.9128630705394" cy="141.2033195020747" r="11.25" fill="none" stroke="#992626" stroke-width="7.5" stroke-opacity="0.75" />
<circle cx="781.3278008298755" cy="233.3195020746889" r="15" fill="#ff0000" opacity="1" stroke="none" />
<circle cx="781.3278008298755" cy="233.3195020746889" r="11.25" fill="none" stroke="#992626" stroke-width="7.5" stroke-opacity="0.75" />
<circle cx="787.551867219917" cy="212.36514522821574" r="15" fill="#ff0000" opacity="1" stroke="none" />
<circle cx="787.551867219917" cy="212.36514522821574" r="11.25" fill="none" stroke="#992626" stroke-width="7.5" stroke-opacity="0.75" />
<circle cx="792.1161825726141" cy="193.07053941908703" r="15" fill="#ff0000" opacity="1" stroke="none" />
<circle cx="792.1161825726141" cy="193.07053941908703" r="11.25" fill="none" stroke="#992626" stroke-width="7.5" stroke-opacity="0.75" />
<circle cx="800.8298755186721" cy="226.39004149377593" r="15" fill="#ff0000" opacity="1" stroke="none" />
<circle cx="800.8298755186721" cy="226.39004149377593" r="11.25" fill="none" stroke="#992626" stroke-width="7.5" stroke-opacity="0.75" />
<circle cx="800.8298755186721" cy="182.07468879668045" r="15" fill="#ff0000" opacity="1" stroke="none" />
<circle cx="800.8298755186721" cy="182.07468879668045" r="11.25" fill="none" stroke="#992626" stroke-width="7.5" stroke-opacity="0.75" />
<circle cx="802.0746887966806" cy="276.4730290456432" r="15" fill="#ff0000" opacity="1" stroke="none" />
<circle cx="802.0746887966806" cy="276.4730290456432" r="11.25" fill="none" stroke="#992626" stroke-width="7.5" stroke-opacity="0.75" />
<circle cx="811.2033195020747" cy="192.86307053941914" r="15" fill="#ff0000" opacity="1" stroke="none" />
<circle cx="811.2033195020747" cy="192.86307053941914" r="11.25" fill="none" stroke="#992626" stroke-width="7.5" stroke-opacity="0.75" />
<circle cx="815.3526970954357" cy="153.69294605809125" r="15" fill="#ff0000" opacity="1" stroke="none" />
<circle cx="815.3526970954357" cy="153.69294605809125" r="11.25" fill="none" stroke="#992626" stroke-width="7.5" stroke-opacity="0.75" />
<circle cx="828.2157676348547" cy="183.941908713693" r="15" fill="#ff0000" opacity="1" stroke="none" />
<circle cx="828.2157676348547" cy="183.941908713693" r="11.25" fill="none" stroke="#992626" stroke-width="7.5" stroke-opacity="0.75" />
<circle cx="829.8755186721991" cy="136.30705394190863" r="15" fill="#ff0000" opacity="1" stroke="none" />
<circle cx="829.8755186721991" cy="136.30705394190863" r="11.25" fill="none" stroke="#992626" stroke-width="7.5" stroke-opacity="0.75" />
<circle cx="834.4398340248963" cy="136.51452282157675" r="15" fill="#ff0000" opacity="1" stroke="none" />
<circle cx="834.4398340248963" cy="136.51452282157675" r="11.25" fill="none" stroke="#992626" stroke-width="7.5" stroke-opacity="0.75" />
<circle cx="837.3443983402489" cy="75.51867219917006" r="15" fill="#ff0000" opacity="1" stroke="none" />
<circle cx="837.3443983402489" cy="75.51867219917006" r="11.25" fill="none" stroke="#992626" stroke-width="7.5" stroke-opacity="0.75" />
<circle cx="857.2614107883817" cy="114.93775933609948" r="15" fill="#ff0000" opacity="1" stroke="none" />
<circle cx="857.2614107883817" cy="114.93775933609948" r="11.25" fill="none" stroke="#992626" stroke-width="7.5" stroke-opacity="0.75" />
<circle cx="883.8174273858921" cy="69.91701244813271" r="15" fill="#ff0000" opacity="1" stroke="none" />
<circle cx="883.8174273858921" cy="69.91701244813271" r="11.25" fill="none" stroke="#992626" stroke-width="7.5" stroke-opacity="0.75" />
<circle cx="902.9045643153527" cy="66.43153526970946" r="15" fill="#ff0000" opacity="1" stroke="none" />
<circle cx="902.9045643153527" cy="66.43153526970946" r="11.25" fill="none" stroke="#992626" stroke-width="7.5" stroke-opacity="0.75" />
<circle cx="888.7966804979254" cy="118.58921161825731" r="15" fill="#ff0000" opacity="1" stroke="none" />
<circle cx="888.7966804979254" cy="118.58921161825731" r="11.25" fill="none" stroke="#992626" stroke-width="7.5" stroke-opacity="0.75" />
<circle cx="903.7344398340249" cy="63.609958506224075" r="15" fill="#ff0000" opacity="1" stroke="none" />
<circle cx="903.7344398340249" cy="63.609958506224075" r="11.25" fill="none" stroke="#992626" stroke-width="7.5" stroke-opacity="0.75" />
<circle cx="931.1203319502075" cy="52.655601659750914" r="15" fill="#ff0000" opacity="1" stroke="none" />
<circle cx="931.1203319502075" cy="52.655601659750914" r="11.25" fill="none" stroke="#992626" stroke-width="7.5" stroke-opacity="0.75" />
<circle cx="951.4522821576763" cy="39.91701244813271" r="15" fill="#ff0000" opacity="1" stroke="none" />
<circle cx="951.4522821576763" cy="39.91701244813271" r="11.25" fill="none" stroke="#992626" stroke-width="7.5" stroke-opacity="0.75" />
<circle cx="953.941908713693" cy="39.04564315352684" r="15" fill="#ff0000" opacity="1" stroke="none" />
<circle cx="953.941908713693" cy="39.04564315352684" r="11.25" fill="none" stroke="#992626" stroke-width="7.5" stroke-opacity="0.75" />
</g>
<g id="d2">
<circle cx="152.28215767634862" cy="776.1399225971015" r="15" fill="#027f00" opacity="1" stroke="none" />
<circle cx="152.28215767634862" cy="776.1399225971015" r="11.25" fill="none" stroke="#144c13" stroke-width="7.5" stroke-opacity="0.75" />
<circle cx="80.0829875518672" cy="940.3343699680818" r="15" fill="#027f00" opacity="1" stroke="none" />
<circle cx="80.0829875518672" cy="940.3343699680818" r="11.25" fill="none" stroke="#144c13" stroke-width="7.5" stroke-opacity="0.75" />
<circle cx="377.17842323651456" cy="631.3391887374933" r="15" fill="#027f00" opacity="1" stroke="none" />
<circle cx="377.17842323651456" cy="631.3391887374933" r="11.25" fill="none" stroke="#144c13" stroke-width="7.5" stroke-opacity="0.75" />
<circle cx="415.7676348547718" cy="726.6531907473361" r="15" fill="#027f00" opacity="1" stroke="none" />
<circle cx="415.7676348547718" cy="726.6531907473361" r="11.25" fill="none" stroke="#144c13" stroke-width="7.5" stroke-opacity="0.75" />
<circle cx="429.045643153527" cy="553.8896563340024" r="15" fill="#027f00" opacity="1" stroke="none" />
<circle cx="429.045643153527" cy="553.8896563340024" r="11.25" fill="none" stroke="#144c13" stroke-width="7.5" stroke-opacity="0.75" />
<circle cx="435.2697095435685" cy="705.2330023421291" r="15" fill="#027f00" opacity="1" stroke="none" />
<circle cx="435.2697095435685" cy="705.2330023421291" r="11.25" fill="none" stroke="#144c13" stroke-width="7.5" stroke-opacity="0.75" />
<circle cx="441.9087136929461" cy="596.9699618034838" r="15" fill="#027f00" opacity="1" stroke="none" />
<circle cx="441.9087136929461" cy="596.9699618034838" r="11.25" fill="none" stroke="#144c13" stroke-width="7.5" stroke-opacity="0.75" />
<circle cx="452.2821576763486" cy="563.6054161277549" r="15" fill="#027f00" opacity="1" stroke="none" />
<circle cx="452.2821576763486" cy="563.6054161277549" r="11.25" fill="none" stroke="#144c13" stroke-width="7.5" stroke-opacity="0.75" />
<circle cx="467.63485477178426" cy="598.4095796608825" r="15" fill="#027f00" opacity="1" stroke="none" />
<circle cx="467.63485477178426" cy="598.4095796608825" r="11.25" fill="none" stroke="#144c13" stroke-width="7.5" stroke-opacity="0.75" />
<circle cx="502.9045643153527" cy="719.9013108732295" r="15" fill="#027f00" opacity="1" stroke="none" />
<circle cx="502.9045643153527" cy="719.9013108732295" r="11.25" fill="none" stroke="#144c13" stroke-width="7.5" stroke-opacity="0.75" />
<circle cx="519.5020746887967" cy="390.1076655961666" r="15" fill="#027f00" opacity="1" stroke="none" />
<circle cx="519.5020746887967" cy="390.1076655961666" r="11.25" fill="none" stroke="#144c13" stroke-width="7.5" stroke-opacity="0.75" />
<circle cx="525.7261410788382" cy="393.300525301225" r="15" fill="#027f00" opacity="1" stroke="none" />
<circle cx="525.7261410788382" cy="393.300525301225" r="11.25" fill="none" stroke="#144c13" stroke-width="7.5" stroke-opacity="0.75" />
<circle cx="531.5352697095436" cy="415.08554569418504" r="15" fill="#027f00" opacity="1" stroke="none" />
<circle cx="531.5352697095436" cy="415.08554569418504" r="11.25" fill="none" stroke="#144c13" stroke-width="7.5" stroke-opacity="0.75" />
<circle cx="545.2282157676348" cy="485.0011711076088" r="15" fill="#027f00" opacity="1" stroke="none" />
<circle cx="545.2282157676348" cy="485.0011711076088" r="11.25" fill="none" stroke="#144c13" stroke-width="7.5" stroke-opacity="0.75" />
<circle cx="559.3360995850622" cy="489.623981785972" r="15" fill="#027f00" opacity="1" stroke="none" />
<circle cx="559.3360995850622" cy="489.623981785972" r="11.25" fill="none" stroke="#144c13" stroke-width="7.5" stroke-opacity="0.75" />
<circle cx="570.9543568464732" cy="596.3521831559938" r="15" fill="#027f00" opacity="1" stroke="none" />
<circle cx="570.9543568464732" cy="596.3521831559938" r="11.25" fill="none" stroke="#144c13" stroke-width="7.5" stroke-opacity="0.75" />
<circle cx="565.9751037344398" cy="517.5321578188061" r="15" fill="#027f00" opacity="1" stroke="none" />
<circle cx="565.9751037344398" cy="517.5321578188061" r="11.25" fill="none" stroke="#144c13" stroke-width="7.5" stroke-opacity="0.75" />
<circle cx="576.7634854771785" cy="334.94455260359894" r="15" fill="#027f00" opacity="1" stroke="none" />
<circle cx="576.7634854771785" cy="334.94455260359894" r="11.25" fill="none" stroke="#144c13" stroke-width="7.5" stroke-opacity="0.75" />
<circle cx="585.0622406639004" cy="573.6652315701687" r="15" fill="#027f00" opacity="1" stroke="none" />
<circle cx="585.0622406639004" cy="573.6652315701687" r="11.25" fill="none" stroke="#144c13" stroke-width="7.5" stroke-opacity="0.75" />
<circle cx="590.0414937759336" cy="483.8939748067579" r="15" fill="#027f00" opacity="1" stroke="none" />
<circle cx="590.0414937759336" cy="483.8939748067579" r="11.25" fill="none" stroke="#144c13" stroke-width="7.5" stroke-opacity="0.75" />
<circle cx="596.6804979253113" cy="413.60237819030567" r="15" fill="#027f00" opacity="1" stroke="none" />
<circle cx="596.6804979253113" cy="413.60237819030567" r="11.25" fill="none" stroke="#144c13" stroke-width="7.5" stroke-opacity="0.75" />
<circle cx="596.2655601659751" cy="451.0728796957934" r="15" fill="#027f00" opacity="1" stroke="none" />
<circle cx="596.2655601659751" cy="451.0728796957934" r="11.25" fill="none" stroke="#144c13" stroke-width="7.5" stroke-opacity="0.75" />
<circle cx="612.8630705394191" cy="448.8289356627405" r="15" fill="#027f00" opacity="1" stroke="none" />
<circle cx="612.8630705394191" cy="448.8289356627405" r="11.25" fill="none" stroke="#144c13" stroke-width="7.5" stroke-opacity="0.75" />
<circle cx="622.4066390041494" cy="368.26057935898723" r="15" fill="#027f00" opacity="1" stroke="none" />
<circle cx="622.4066390041494" cy="368.26057935898723" r="11.25" fill="none" stroke="#144c13" stroke-width="7.5" stroke-opacity="0.75" />
<circle cx="624.066390041494" cy="351.54465797036517" r="15" fill="#027f00" opacity="1" stroke="none" />
<circle cx="624.066390041494" cy="351.54465797036517" r="11.25" fill="none" stroke="#144c13" stroke-width="7.5" stroke-opacity="0.75" />
<circle cx="631.9502074688796" cy="571.0691644541951" r="15" fill="#027f00" opacity="1" stroke="none" />
<circle cx="631.9502074688796" cy="571.0691644541951" r="11.25" fill="none" stroke="#144c13" stroke-width="7.5" stroke-opacity="0.75" />
<circle cx="631.9502074688796" cy="538.9217066468045" r="15" fill="#027f00" opacity="1" stroke="none" />
<circle cx="631.9502074688796" cy="538.9217066468045" r="11.25" fill="none" stroke="#144c13" stroke-width="7.5" stroke-opacity="0.75" />
<circle cx="638.1742738589212" cy="307.6909038041141" r="15" fill="#027f00" opacity="1" stroke="none" />
<circle cx="638.1742738589212" cy="307.6909038041141" r="11.25" fill="none" stroke="#144c13" stroke-width="7.5" stroke-opacity="0.75" />
<circle cx="639.8340248962656" cy="512.6800396234662" r="15" fill="#027f00" opacity="1" stroke="none" />
<circle cx="639.8340248962656" cy="512.6800396234662" r="11.25" fill="none" stroke="#144c13" stroke-width="7.5" stroke-opacity="0.75" />
<circle cx="646.8879668049793" cy="339.5424769429251" r="15" fill="#027f00" opacity="1" stroke="none" />
<circle cx="646.8879668049793" cy="339.5424769429251" r="11.25" fill="none" stroke="#144c13" stroke-width="7.5" stroke-opacity="0.75" />
<circle cx="649.792531120332" cy="315.23758842737334" r="15" fill="#027f00" opacity="1" stroke="none" />
<circle cx="649.792531120332" cy="315.23758842737334" r="11.25" fill="none" stroke="#144c13" stroke-width="7.5" stroke-opacity="0.75" />
<circle cx="647.3029045643154" cy="298.04350560136845" r="15" fill="#027f00" opacity="1" stroke="none" />
<circle cx="647.3029045643154" cy="298.04350560136845" r="11.25" fill="none" stroke="#144c13" stroke-width="7.5" stroke-opacity="0.75" />
<circle cx="654.356846473029" cy="333.4755679284883" r="15" fill="#027f00" opacity="1" stroke="none" />
<circle cx="654.356846473029" cy="333.4755679284883" r="11.25" fill="none" stroke="#144c13" stroke-width="7.5" stroke-opacity="0.75" />
<circle cx="656.0165975103735" cy="310.3101509339581" r="15" fill="#027f00" opacity="1" stroke="none" />
<circle cx="656.0165975103735" cy="310.3101509339581" r="11.25" fill="none" stroke="#144c13" stroke-width="7.5" stroke-opacity="0.75" />
<circle cx="663.0705394190871" cy="354.579083137987" r="15" fill="#027f00" opacity="1" stroke="none" />
<circle cx="663.0705394190871" cy="354.579083137987" r="11.25" fill="none" stroke="#144c13" stroke-width="7.5" stroke-opacity="0.75" />
<circle cx="670.1244813278009" cy="271.2982887647952" r="15" fill="#027f00" opacity="1" stroke="none" />
<circle cx="670.1244813278009" cy="271.2982887647952" r="11.25" fill="none" stroke="#144c13" stroke-width="7.5" stroke-opacity="0.75" />
<circle cx="668.0497925311204" cy="387.54151710336134" r="15" fill="#027f00" opacity="1" stroke="none" />
<circle cx="668.0497925311204" cy="387.54151710336134" r="11.25" fill="none" stroke="#144c13" stroke-width="7.5" stroke-opacity="0.75" />
<circle cx="674.688796680498" cy="309.516459263212" r="15" fill="#027f00" opacity="1" stroke="none" />
<circle cx="674.688796680498" cy="309.516459263212" r="11.25" fill="none" stroke="#144c13" stroke-width="7.5" stroke-opacity="0.75" />
<circle cx="676.3485477178424" cy="336.9099668843123" r="15" fill="#027f00" opacity="1" stroke="none" />
<circle cx="676.3485477178424" cy="336.9099668843123" r="11.25" fill="none" stroke="#144c13" stroke-width="7.5" stroke-opacity="0.75" />
<circle cx="682.572614107884" cy="249.1007797747726" r="15" fill="#027f00" opacity="1" stroke="none" />
<circle cx="682.572614107884" cy="249.1007797747726" r="11.25" fill="none" stroke="#144c13" stroke-width="7.5" stroke-opacity="0.75" />
<circle cx="684.2323651452282" cy="276.11964016039826" r="15" fill="#027f00" opacity="1" stroke="none" />
<circle cx="684.2323651452282" cy="276.11964016039826" r="11.25" fill="none" stroke="#144c13" stroke-width="7.5" stroke-opacity="0.75" />
<circle cx="691.2863070539419" cy="232.60684836454902" r="15" fill="#027f00" opacity="1" stroke="none" />
<circle cx="691.2863070539419" cy="232.60684836454902" r="11.25" fill="none" stroke="#144c13" stroke-width="7.5" stroke-opacity="0.75" />
<circle cx="695.0207468879668" cy="315.52219563005383" r="15" fill="#027f00" opacity="1" stroke="none" />
<circle cx="695.0207468879668" cy="315.52219563005383" r="11.25" fill="none" stroke="#144c13" stroke-width="7.5" stroke-opacity="0.75" />
<circle cx="703.3195020746889" cy="290.35438801737746" r="15" fill="#027f00" opacity="1" stroke="none" />
<circle cx="703.3195020746889" cy="290.35438801737746" r="11.25" fill="none" stroke="#144c13" stroke-width="7.5" stroke-opacity="0.75" />
<circle cx="707.8838174273859" cy="271.5290503284248" r="15" fill="#027f00" opacity="1" stroke="none" />
<circle cx="707.8838174273859" cy="271.5290503284248" r="11.25" fill="none" stroke="#144c13" stroke-width="7.5" stroke-opacity="0.75" />
<circle cx="703.3195020746889" cy="374.012314739069" r="15" fill="#027f00" opacity="1" stroke="none" />
<circle cx="703.3195020746889" cy="374.012314739069" r="11.25" fill="none" stroke="#144c13" stroke-width="7.5" stroke-opacity="0.75" />
<circle cx="710.3734439834025" cy="113.5953925358308" r="15" fill="#027f00" opacity="1" stroke="none" />
<circle cx="710.3734439834025" cy="113.5953925358308" r="11.25" fill="none" stroke="#144c13" stroke-width="7.5" stroke-opacity="0.75" />
<circle cx="717.4273858921163" cy="288.817079077123" r="15" fill="#027f00" opacity="1" stroke="none" />
<circle cx="717.4273858921163" cy="288.817079077123" r="11.25" fill="none" stroke="#144c13" stroke-width="7.5" stroke-opacity="0.75" />
<circle cx="723.2365145228216" cy="280.84453072290694" r="15" fill="#027f00" opacity="1" stroke="none" />
<circle cx="723.2365145228216" cy="280.84453072290694" r="11.25" fill="none" stroke="#144c13" stroke-width="7.5" stroke-opacity="0.75" />
<circle cx="730.7053941908713" cy="302.0784057917931" r="15" fill="#027f00" opacity="1" stroke="none" />
<circle cx="730.7053941908713" cy="302.0784057917931" r="11.25" fill="none" stroke="#144c13" stroke-width="7.5" stroke-opacity="0.75" />
<circle cx="730.7053941908713" cy="275.3895424312576" r="15" fill="#027f00" opacity="1" stroke="none" />
<circle cx="730.7053941908713" cy="275.3895424312576" r="11.25" fill="none" stroke="#144c13" stroke-width="7.5" stroke-opacity="0.75" />
<circle cx="730.7053941908713" cy="300.8616863147846" r="15" fill="#027f00" opacity="1" stroke="none" />
<circle cx="730.7053941908713" cy="300.8616863147846" r="11.25" fill="none" stroke="#144c13" stroke-width="7.5" stroke-opacity="0.75" />
<circle cx="734.4398340248963" cy="298.50870239289463" r="15" fill="#027f00" opacity="1" stroke="none" />
<circle cx="734.4398340248963" cy="298.50870239289463" r="11.25" fill="none" stroke="#144c13" stroke-width="7.5" stroke-opacity="0.75" />
<circle cx="742.3236514522822" cy="302.85740988877785" r="15" fill="#027f00" opacity="1" stroke="none" />
<circle cx="742.3236514522822" cy="302.85740988877785" r="11.25" fill="none" stroke="#144c13" stroke-width="7.5" stroke-opacity="0.75" />
<circle cx="745.643153526971" cy="278.7869346586996" r="15" fill="#027f00" opacity="1" stroke="none" />
<circle cx="745.643153526971" cy="278.7869346586996" r="11.25" fill="none" stroke="#144c13" stroke-width="7.5" stroke-opacity="0.75" />
<circle cx="746.8879668049792" cy="221.73215711759826" r="15" fill="#027f00" opacity="1" stroke="none" />
<circle cx="746.8879668049792" cy="221.73215711759826" r="11.25" fill="none" stroke="#144c13" stroke-width="7.5" stroke-opacity="0.75" />
<circle cx="756.0165975103736" cy="217.36963481823932" r="15" fill="#027f00" opacity="1" stroke="none" />
<circle cx="756.0165975103736" cy="217.36963481823932" r="11.25" fill="none" stroke="#144c13" stroke-width="7.5" stroke-opacity="0.75" />
<circle cx="759.7510373443985" cy="262.3420220489818" r="15" fill="#027f00" opacity="1" stroke="none" />
<circle cx="759.7510373443985" cy="262.3420220489818" r="11.25" fill="none" stroke="#144c13" stroke-width="7.5" stroke-opacity="0.75" />
<circle cx="773.8589211618257" cy="151.16636331645282" r="15" fill="#027f00" opacity="1" stroke="none" />
<circle cx="773.8589211618257" cy="151.16636331645282" r="11.25" fill="none" stroke="#144c13" stroke-width="7.5" stroke-opacity="0.75" />
<circle cx="780.9128630705394" cy="171.92461195823057" r="15" fill="#027f00" opacity="1" stroke="none" />
<circle cx="780.9128630705394" cy="171.92461195823057" r="11.25" fill="none" stroke="#144c13" stroke-width="7.5" stroke-opacity="0.75" />
<circle cx="781.3278008298755" cy="243.9948930483141" r="15" fill="#027f00" opacity="1" stroke="none" />
<circle cx="781.3278008298755" cy="243.9948930483141" r="11.25" fill="none" stroke="#144c13" stroke-width="7.5" stroke-opacity="0.75" />
<circle cx="787.551867219917" cy="244.56903273633895" r="15" fill="#027f00" opacity="1" stroke="none" />
<circle cx="787.551867219917" cy="244.56903273633895" r="11.25" fill="none" stroke="#144c13" stroke-width="7.5" stroke-opacity="0.75" />
<circle cx="792.1161825726141" cy="234.2152077330593" r="15" fill="#027f00" opacity="1" stroke="none" />
<circle cx="792.1161825726141" cy="234.2152077330593" r="11.25" fill="none" stroke="#144c13" stroke-width="7.5" stroke-opacity="0.75" />
<circle cx="800.8298755186721" cy="236.85649963830008" r="15" fill="#027f00" opacity="1" stroke="none" />
<circle cx="800.8298755186721" cy="236.85649963830008" r="11.25" fill="none" stroke="#144c13" stroke-width="7.5" stroke-opacity="0.75" />
<circle cx="800.8298755186721" cy="206.61744786495967" r="15" fill="#027f00" opacity="1" stroke="none" />
<circle cx="800.8298755186721" cy="206.61744786495967" r="11.25" fill="none" stroke="#144c13" stroke-width="7.5" stroke-opacity="0.75" />
<circle cx="802.0746887966806" cy="260.2660376699139" r="15" fill="#027f00" opacity="1" stroke="none" />
<circle cx="802.0746887966806" cy="260.2660376699139" r="11.25" fill="none" stroke="#144c13" stroke-width="7.5" stroke-opacity="0.75" />
<circle cx="811.2033195020747" cy="202.65576742496728" r="15" fill="#027f00" opacity="1" stroke="none" />
<circle cx="811.2033195020747" cy="202.65576742496728" r="11.25" fill="none" stroke="#144c13" stroke-width="7.5" stroke-opacity="0.75" />
<circle cx="815.3526970954357" cy="173.97639801888056" r="15" fill="#027f00" opacity="1" stroke="none" />
<circle cx="815.3526970954357" cy="173.97639801888056" r="11.25" fill="none" stroke="#144c13" stroke-width="7.5" stroke-opacity="0.75" />
<circle cx="828.2157676348547" cy="187.58615740849268" r="15" fill="#027f00" opacity="1" stroke="none" />
<circle cx="828.2157676348547" cy="187.58615740849268" r="11.25" fill="none" stroke="#144c13" stroke-width="7.5" stroke-opacity="0.75" />
<circle cx="829.8755186721991" cy="152.27885305634186" r="15" fill="#027f00" opacity="1" stroke="none" />
<circle cx="829.8755186721991" cy="152.27885305634186" r="11.25" fill="none" stroke="#144c13" stroke-width="7.5" stroke-opacity="0.75" />
<circle cx="834.4398340248963" cy="148.36960842995234" r="15" fill="#027f00" opacity="1" stroke="none" />
<circle cx="834.4398340248963" cy="148.36960842995234" r="11.25" fill="none" stroke="#144c13" stroke-width="7.5" stroke-opacity="0.75" />
<circle cx="837.3443983402489" cy="134.33887038488115" r="15" fill="#027f00" opacity="1" stroke="none" />
<circle cx="837.3443983402489" cy="134.33887038488115" r="11.25" fill="none" stroke="#144c13" stroke-width="7.5" stroke-opacity="0.75" />
<circle cx="857.2614107883817" cy="140.9107133066011" r="15" fill="#027f00" opacity="1" stroke="none" />
<circle cx="857.2614107883817" cy="140.9107133066011" r="11.25" fill="none" stroke="#144c13" stroke-width="7.5" stroke-opacity="0.75" />
<circle cx="883.8174273858921" cy="91.16760418128172" r="15" fill="#027f00" opacity="1" stroke="none" />
<circle cx="883.8174273858921" cy="91.16760418128172" r="11.25" fill="none" stroke="#144c13" stroke-width="7.5" stroke-opacity="0.75" />
<circle cx="902.9045643153527" cy="84.5279246346089" r="15" fill="#027f00" opacity="1" stroke="none" />
<circle cx="902.9045643153527" cy="84.5279246346089" r="11.25" fill="none" stroke="#144c13" stroke-width="7.5" stroke-opacity="0.75" />
<circle cx="888.7966804979254" cy="120.49194429177965" r="15" fill="#027f00" opacity="1" stroke="none" />
<circle cx="888.7966804979254" cy="120.49194429177965" r="11.25" fill="none" stroke="#144c13" stroke-width="7.5" stroke-opacity="0.75" />
<circle cx="903.7344398340249" cy="81.93434676688742" r="15" fill="#027f00" opacity="1" stroke="none" />
<circle cx="903.7344398340249" cy="81.93434676688742" r="11.25" fill="none" stroke="#144c13" stroke-width="7.5" stroke-opacity="0.75" />
<circle cx="931.1203319502075" cy="65.7184430771348" r="15" fill="#027f00" opacity="1" stroke="none" />
<circle cx="931.1203319502075" cy="65.7184430771348" r="11.25" fill="none" stroke="#144c13" stroke-width="7.5" stroke-opacity="0.75" />
<circle cx="951.4522821576763" cy="55.41811665064063" r="15" fill="#027f00" opacity="1" stroke="none" />
<circle cx="951.4522821576763" cy="55.41811665064063" r="11.25" fill="none" stroke="#144c13" stroke-width="7.5" stroke-opacity="0.75" />
<circle cx="953.941908713693" cy="49.313119476761585" r="15" fill="#027f00" opacity="1" stroke="none" />
<circle cx="953.941908713693" cy="49.313119476761585" r="11.25" fill="none" stroke="#144c13" stroke-width="7.5" stroke-opacity="0.75" />
</g>
<g id="d3">
<path d="M150.0,1150.0 L1150.0,150.0" fill="none" opacity="0.5" stroke="#000000" stroke-width="16" />
<use xlink:href="#d0" x="150.0" y="150.0" />
<use xlink:href="#d1" x="150.0" y="150.0" />
<use xlink:href="#d2" x="150.0" y="150.0" />
<path d="M269.99999999999983,1123.6842904310888 L289.9999999999998,1100.5313113432328" stroke="#992626" fill="none" stroke-width="8" stroke-opacity="0.75" />
<path d="M309.9999999999998,1077.3783322553768 L329.9999999999998,1054.2253531675208" stroke="#992626" fill="none" stroke-width="8" stroke-opacity="0.75" />
<path d="M349.9999999999997,1031.0723740796648 L369.99999999999966,1007.9193949918088" stroke="#992626" fill="none" stroke-width="8" stroke-opacity="0.75" />
<path d="M389.99999999999966,984.7664159039526 L409.9999999999996,961.6134368160967" stroke="#992626" fill="none" stroke-width="8" stroke-opacity="0.75" />
<path d="M429.9999999999996,938.4604577282406 L449.99999999999955,915.3074786403846" stroke="#992626" fill="none" stroke-width="8" stroke-opacity="0.75" />
<path d="M469.9999999999995,892.1544995525286 L489.99999999999955,869.0015204646726" stroke="#992626" fill="none" stroke-width="8" stroke-opacity="0.75" />
<path d="M509.9999999999995,845.8485413768165 L529.9999999999994,822.6955622889604" stroke="#992626" fill="none" stroke-width="8" stroke-opacity="0.75" />
<path d="M549.9999999999994,799.5425832011044 L569.9999999999993,776.3896041132484" stroke="#992626" fill="none" stroke-width="8" stroke-opacity="0.75" />
<path d="M589.9999999999993,753.2366250253924 L609.9999999999993,730.0836459375364" stroke="#992626" fill="none" stroke-width="8" stroke-opacity="0.75" />
<path d="M629.9999999999993,706.9306668496804 L649.9999999999993,683.7776877618244" stroke="#992626" fill="none" stroke-width="8" stroke-opacity="0.75" />
<path d="M669.9999999999992,660.6247086739684 L689.9999999999992,637.4717295861122" stroke="#992626" fill="none" stroke-width="8" stroke-opacity="0.75" />
<path d="M709.9999999999992,614.3187504982563 L729.9999999999992,591.1657714104002" stroke="#992626" fill="none" stroke-width="8" stroke-opacity="0.75" />
<path d="M749.9999999999991,568.0127923225442 L769.9999999999991,544.8598132346882" stroke="#992626" fill="none" stroke-width="8" stroke-opacity="0.75" />
<path d="M789.999999999999,521.7068341468322 L809.999999999999,498.5538550589762" stroke="#992626" fill="none" stroke-width="8" stroke-opacity="0.75" />
<path d="M829.9999999999991,475.40087597112006 L849.999999999999,452.24789688326405" stroke="#992626" fill="none" stroke-width="8" stroke-opacity="0.75" />
<path d="M869.999999999999,429.09491779540804 L889.9999999999989,405.941938707552" stroke="#992626" fill="none" stroke-width="8" stroke-opacity="0.75" />
<path d="M909.9999999999989,382.788959619696 L929.9999999999987,359.63598053184" stroke="#992626" fill="none" stroke-width="8" stroke-opacity="0.75" />
<path d="M949.9999999999989,336.4830014439839 L969.9999999999989,313.33002235612787" stroke="#992626" fill="none" stroke-width="8" stroke-opacity="0.75" />
<path d="M989.9999999999987,290.17704326827186 L1009.9999999999987,267.02406418041585" stroke="#992626" fill="none" stroke-width="8" stroke-opacity="0.75" />
<path d="M1029.9999999999986,243.87108509255984 L1049.9999999999986,220.7181060047037" stroke="#992626" fill="none" stroke-width="8" stroke-opacity="0.75" />
<path d="M1069.9999999999986,197.56512691684782 L1089.9999999999986,174.4121478289917" stroke="#992626" fill="none" stroke-width="8" stroke-opacity="0.75" />
<path d="M229.9999999999999,1126.4136561181504 L249.99999999999986,1104.9612077951297" stroke="#144c13" fill="none" stroke-width="8" stroke-opacity="0.75" />
<path d="M269.99999999999983,1083.508759472109 L289.9999999999998,1062.0563111490883" stroke="#144c13" fill="none" stroke-width="8" stroke-opacity="0.75" />
<path d="M309.9999999999998,1040.6038628260676 L329.9999999999998,1019.1514145030468" stroke="#144c13" fill="none" stroke-width="8" stroke-opacity="0.75" />
<path d="M349.9999999999997,997.6989661800262 L369.99999999999966,976.2465178570055" stroke="#144c13" fill="none" stroke-width="8" stroke-opacity="0.75" />
<path d="M389.99999999999966,954.7940695339848 L409.9999999999996,933.3416212109641" stroke="#144c13" fill="none" stroke-width="8" stroke-opacity="0.75" />
<path d="M429.9999999999996,911.8891728879435 L449.99999999999955,890.4367245649228" stroke="#144c13" fill="none" stroke-width="8" stroke-opacity="0.75" />
<path d="M469.9999999999995,868.9842762419021 L489.99999999999955,847.5318279188814" stroke="#144c13" fill="none" stroke-width="8" stroke-opacity="0.75" />
<path d="M509.9999999999995,826.0793795958607 L529.9999999999994,804.62693127284" stroke="#144c13" fill="none" stroke-width="8" stroke-opacity="0.75" />
<path d="M549.9999999999994,783.1744829498193 L569.9999999999993,761.7220346267986" stroke="#144c13" fill="none" stroke-width="8" stroke-opacity="0.75" />
<path d="M589.9999999999993,740.2695863037779 L609.9999999999993,718.8171379807573" stroke="#144c13" fill="none" stroke-width="8" stroke-opacity="0.75" />
<path d="M629.9999999999993,697.3646896577366 L649.9999999999993,675.9122413347159" stroke="#144c13" fill="none" stroke-width="8" stroke-opacity="0.75" />
<path d="M669.9999999999992,654.4597930116952 L689.9999999999992,633.0073446886745" stroke="#144c13" fill="none" stroke-width="8" stroke-opacity="0.75" />
<path d="M709.9999999999992,611.5548963656537 L729.9999999999992,590.1024480426331" stroke="#144c13" fill="none" stroke-width="8" stroke-opacity="0.75" />
<path d="M749.9999999999991,568.6499997196123 L769.9999999999991,547.1975513965916" stroke="#144c13" fill="none" stroke-width="8" stroke-opacity="0.75" />
<path d="M789.999999999999,525.745103073571 L809.999999999999,504.29265475055024" stroke="#144c13" fill="none" stroke-width="8" stroke-opacity="0.75" />
<path d="M829.9999999999991,482.84020642752967 L849.999999999999,461.38775810450886" stroke="#144c13" fill="none" stroke-width="8" stroke-opacity="0.75" />
<path d="M869.999999999999,439.9353097814883 L889.9999999999989,418.4828614584676" stroke="#144c13" fill="none" stroke-width="8" stroke-opacity="0.75" />
<path d="M909.9999999999989,397.0304131354469 L929.9999999999987,375.5779648124262" stroke="#144c13" fill="none" stroke-width="8" stroke-opacity="0.75" />
<path d="M949.9999999999989,354.1255164894055 L969.9999999999989,332.67306816638484" stroke="#144c13" fill="none" stroke-width="8" stroke-opacity="0.75" />
<path d="M989.9999999999987,311.22061984336426 L1009.9999999999987,289.76817152034334" stroke="#144c13" fill="none" stroke-width="8" stroke-opacity="0.75" />
<path d="M1029.9999999999986,268.31572319732265 L1049.9999999999986,246.86327487430196" stroke="#144c13" fill="none" stroke-width="8" stroke-opacity="0.75" />
<path d="M1069.9999999999986,225.4108265512814 L1089.9999999999986,203.9583782282607" stroke="#144c13" fill="none" stroke-width="8" stroke-opacity="0.75" />
<path d="M1109.9999999999986,182.50592990524 L1129.9999999999986,161.05348158221932" stroke="#144c13" fill="none" stroke-width="8" stroke-opacity="0.75" />
</g>
</defs>
<rect x="-5" y="-5" width="1310" height="1310" fill="#ffffff" />
<use xlink:href="#d3" x="50" y="30" />
</svg>