<?xml version="1.0" encoding="UTF-8"?>
<svg xmlns="http://www.w3.org/2000/svg" xmlns:xlink="http://www.w3.org/1999/xlink"
     width="2600" height="2600" viewBox="0 0 1300 1300">
<defs>
<g id="d0">
<path d="M-5.0,0 L-5.0,1010.0" fill="none" stroke="#000000" stroke-width="10.0" stroke-opacity="0.75" />
<path d="M-10.0,1005.0 L1000,1005.0" fill="none" stroke="#000000" stroke-width="10.0" stroke-opacity="0.75" />
<path d="M4.149377593361055,1010.0 L4.149377593361055,1030" fill="none" stroke="#000000" stroke-width="10.0" stroke-opacity="0.75" />
<text x="4.149377593361055" y="1110" font-size="80" text-anchor="middle" fill="#000000" fill-opacity="0.75" font-family="Arial">-20</text>
<path d="M419.0871369294606,1010.0 L419.0871369294606,1030" fill="none" stroke="#000000" stroke-width="10.0" stroke-opacity="0.75" />
<text x="419.0871369294606" y="1110" font-size="80" text-anchor="middle" fill="#000000" fill-opacity="0.75" font-family="Arial">-10</text>
<path d="M834.0248962655602,1010.0 L834.0248962655602,1030" fill="none" stroke="#000000" stroke-width="10.0" stroke-opacity="0.75" />
<text x="834.0248962655602" y="1110" font-size="80" text-anchor="middle" fill="#000000" fill-opacity="0.75" font-family="Arial">0</text>
<path d="M4.149377593361055,0 L4.149377593361055,1000" fill="none" stroke="#1e1e46" stroke-width="7.5" stroke-opacity="0.25" />
<path d="M211.61825726141083,0 L211.61825726141083,1000" fill="none" stroke="#1e1e46" stroke-width="7.5" stroke-opacity="0.25" />
<path d="M419.0871369294606,0 L419.0871369294606,1000" fill="none" stroke="#1e1e46" stroke-width="7.5" stroke-opacity="0.25" />
<path d="M626.5560165975104,0 L626.5560165975104,1000" fill="none" stroke="#1e1e46" stroke-width="7.5" stroke-opacity="0.25" />
<path d="M834.0248962655602,0 L834.0248962655602,1000" fill="none" stroke="#1e1e46" stroke-width="7.5" stroke-opacity="0.25" />
<path d="M-10.0,995.850622406639 L-30,995.850622406639" ill="none" stroke="#000000" stroke-width="10.0" stroke-opacity="0.75" />
<text x="-40" y="1018.850622406639" font-size="80" text-anchor="end" fill="#000000" fill-opacity="0.75" font-family="Arial">-20</text>
<path d="M-10.0,580.9128630705394 L-30,580.9128630705394" ill="none" stroke="#000000" stroke-width="10.0" stroke-opacity="0.75" />
<text x="-40" y="603.9128630705394" font-size="80" text-anchor="end" fill="#000000" fill-opacity="0.75" font-family="Arial">-10</text>
<path d="M-10.0,165.9751037344398 L-30,165.9751037344398" ill="none" stroke="#000000" stroke-width="10.0" stroke-opacity="0.75" />
<text x="-40" y="188.9751037344398" font-size="80" text-anchor="end" fill="#000000" fill-opacity="0.75" font-family="Arial">0</text>
<path d="M0,995.850622406639 L1000,995.850622406639" fill="none" stroke="#1e1e46" stroke-width="7.5" stroke-opacity="0.25" />
<path d="M0,788.3817427385892 L1000,788.3817427385892" fill="none" stroke="#1e1e46" stroke-width="7.5" stroke-opacity="0.25" />
<path d="M0,580.9128630705394 L1000,580.9128630705394" fill="none" stroke="#1e1e46" stroke-width="7.5" stroke-opacity="0.25" />
<path d="M0,373.4439834024896 L1000,373.4439834024896" fill="none" stroke="#1e1e46" stroke-width="7.5" stroke-opacity="0.25" />
<path d="M0,165.9751037344398 L1000,165.9751037344398" fill="none" stroke="#1e1e46" stroke-width="7.5" stroke-opacity="0.25" />
<text x="500.0" y="-75" font-size="120" text-anchor="middle" fill="#000000" fill-opacity="0.75" font-family="Arial">IGB5 correction</text>
</g>
<g id="d1">
<circle cx="152.28215767634862" cy="862.5311203319502" r="15" fill="#ff0000" opacity="1" stroke="none" />
<circle cx="152.28215767634862" cy="862.5311203319502" r="11.25" fill="none" stroke="#992626" stroke-width="7.5" stroke-opacity="0.75" />
<circle cx="80.0829875518672" cy="993.6514522821576" r="15" fill="#ff0000" opacity="1" stroke="none" />
<circle cx="80.0829875518672" cy="993.6514522821576" r="11.25" fill="none" stroke="#992626" stroke-width="7.5" stroke-opacity="0.75" />
<circle cx="377.17842323651456" cy="655.3526970954356" r="15" fill="#ff0000" opacity="1" stroke="none" />
<circle cx="377.17842323651456" cy="655.3526970954356" r="11.25" fill="none" stroke="#992626" stroke-width="7.5" stroke-opacity="0.75" />
<circle cx="415.7676348547718" cy="802.3236514522821" r="15" fill="#ff0000" opacity="1" stroke="none" />
<circle cx="415.7676348547718" cy="802.3236514522821" r="11.25" fill="none" stroke="#992626" stroke-width="7.5" stroke-opacity="0.75" />
<circle cx="429.045643153527" cy="578.6721991701245" r="15" fill="#ff0000" opacity="1" stroke="none" />
<circle cx="429.045643153527" cy="578.6721991701245" r="11.25" fill="none" stroke="#992626" stroke-width="7.5" stroke-opacity="0.75" />
<circle cx="435.2697095435685" cy="792.9875518672198" r="15" fill="#ff0000" opacity="1" stroke="none" />
<circle cx="435.2697095435685" cy="792.9875518672198" r="11.25" fill="none" stroke="#992626" stroke-width="7.5" stroke-opacity="0.75" />
<circle cx="441.9087136929461" cy="671.2448132780082" r="15" fill="#ff0000" opacity="1" stroke="none" />
<circle cx="441.9087136929461" cy="671.2448132780082" r="11.25" fill="none" stroke="#992626" stroke-width="7.5" stroke-opacity="0.75" />
<circle cx="452.2821576763486" cy="648.713692946058" r="15" fill="#ff0000" opacity="1" stroke="none" />
<circle cx="452.2821576763486" cy="648.713692946058" r="11.25" fill="none" stroke="#992626" stroke-width="7.5" stroke-opacity="0.75" />
<circle cx="467.63485477178426" cy="730.7883817427385" r="15" fill="#ff0000" opacity="1" stroke="none" />
<circle cx="467.63485477178426" cy="730.7883817427385" r="11.25" fill="none" stroke="#992626" stroke-width="7.5" stroke-opacity="0.75" />
<circle cx="502.9045643153527" cy="783.1535269709543" r="15" fill="#ff0000" opacity="1" stroke="none" />
<circle cx="502.9045643153527" cy="783.1535269709543" r="11.25" fill="none" stroke="#992626" stroke-width="7.5" stroke-opacity="0.75" />
<circle cx="519.5020746887967" cy="181.24481327800822" r="15" fill="#ff0000" opacity="1" stroke="none" />
<circle cx="519.5020746887967" cy="181.24481327800822" r="11.25" fill="none" stroke="#992626" stroke-width="7.5" stroke-opacity="0.75" />
<circle cx="525.7261410788382" cy="366.30705394190863" r="15" fill="#ff0000" opacity="1" stroke="none" />
<circle cx="525.7261410788382" cy="366.30705394190863" r="11.25" fill="none" stroke="#992626" stroke-width="7.5" stroke-opacity="0.75" />
<circle cx="531.5352697095436" cy="420.66390041493776" r="15" fill="#ff0000" opacity="1" stroke="none" />
<circle cx="531.5352697095436" cy="420.66390041493776" r="11.25" fill="none" stroke="#992626" stroke-width="7.5" stroke-opacity="0.75" />
<circle cx="545.2282157676348" cy="550.9128630705395" r="15" fill="#ff0000" opacity="1" stroke="none" />
<circle cx="545.2282157676348" cy="550.9128630705395" r="11.25" fill="none" stroke="#992626" stroke-width="7.5" stroke-opacity="0.75" />
<circle cx="559.3360995850622" cy="511.3278008298755" r="15" fill="#ff0000" opacity="1" stroke="none" />
<circle cx="559.3360995850622" cy="511.3278008298755" r="11.25" fill="none" stroke="#992626" stroke-width="7.5" stroke-opacity="0.75" />
<circle cx="570.9543568464732" cy="671.2033195020747" r="15" fill="#ff0000" opacity="1" stroke="none" />
<circle cx="570.9543568464732" cy="671.2033195020747" r="11.25" fill="none" stroke="#992626" stroke-width="7.5" stroke-opacity="0.75" />
<circle cx="565.9751037344398" cy="621.3278008298755" r="15" fill="#ff0000" opacity="1" stroke="none" />
<circle cx="565.9751037344398" cy="621.3278008298755" r="11.25" fill="none" stroke="#992626" stroke-width="7.5" stroke-opacity="0.75" />
<circle cx="576.7634854771785" cy="383.1535269709543" r="15" fill="#ff0000" opacity="1" stroke="none" />
<circle cx="576.7634854771785" cy="383.1535269709543" r="11.25" fill="none" stroke="#992626" stroke-width="7.5" stroke-opacity="0.75" />
<circle cx="585.0622406639004" cy="643.2365145228216" r="15" fill="#ff0000" opacity="1" stroke="none" />
<circle cx="585.0622406639004" cy="643.2365145228216" r="11.25" fill="none" stroke="#992626" stroke-width="7.5" stroke-opacity="0.75" />
<circle cx="590.0414937759336" cy="552.3236514522821" r="15" fill="#ff0000" opacity="1" stroke="none" />
<circle cx="590.0414937759336" cy="552.3236514522821" r="11.25" fill="none" stroke="#992626" stroke-width="7.5" stroke-opacity="0.75" />
<circle cx="596.6804979253113" cy="460.04149377593365" r="15" fill="#ff0000" opacity="1" stroke="none" />
<circle cx="596.6804979253113" cy="460.04149377593365" r="11.25" fill="none" stroke="#992626" stroke-width="7.5" stroke-opacity="0.75" />
<circle cx="596.2655601659751" cy="458.2987551867219" r="15" fill="#ff0000" opacity="1" stroke="none" />
<circle cx="596.2655601659751" cy="458.2987551867219" r="11.25" fill="none" stroke="#992626" stroke-width="7.5" stroke-opacity="0.75" />
<circle cx="612.8630705394191" cy="542.1991701244813" r="15" fill="#ff0000" opacity="1" stroke="none" />
<circle cx="612.8630705394191" cy="542.1991701244813" r="11.25" fill="none" stroke="#992626" stroke-width="7.5" stroke-opacity="0.75" />
<circle cx="622.4066390041494" cy="389.3775933609959" r="15" fill="#ff0000" opacity="1" stroke="none" />
<circle cx="622.4066390041494" cy="389.3775933609959" r="11.25" fill="none" stroke="#992626" stroke-width="7.5" stroke-opacity="0.75" />
<circle cx="624.066390041494" cy="319.12863070539413" r="15" fill="#ff0000" opacity="1" stroke="none" />
<circle cx="624.066390041494" cy="319.12863070539413" r="11.25" fill="none" stroke="#992626" stroke-width="7.5" stroke-opacity="0.75" />
<circle cx="631.9502074688796" cy="826.7219917012447" r="15" fill="#ff0000" opacity="1" stroke="none" />
<circle cx="631.9502074688796" cy="826.7219917012447" r="11.25" fill="none" stroke="#992626" stroke-width="7.5" stroke-opacity="0.75" />
<circle cx="631.9502074688796" cy="783.4854771784231" r="15" fill="#ff0000" opacity="1" stroke="none" />
<circle cx="631.9502074688796" cy="783.4854771784231" r="11.25" fill="none" stroke="#992626" stroke-width="7.5" stroke-opacity="0.75" />
<circle cx="638.1742738589212" cy="340.16597510373447" r="15" fill="#ff0000" opacity="1" stroke="none" />
<circle cx="638.1742738589212" cy="340.16597510373447" r="11.25" fill="none" stroke="#992626" stroke-width="7.5" stroke-opacity="0.75" />
<circle cx="639.8340248962656" cy="661.6597510373444" r="15" fill="#ff0000" opacity="1" stroke="none" />
<circle cx="639.8340248962656" cy="661.6597510373444" r="11.25" fill="none" stroke="#992626" stroke-width="7.5" stroke-opacity="0.75" />
<circle cx="646.8879668049793" cy="367.92531120331955" r="15" fill="#ff0000" opacity="1" stroke="none" />
<circle cx="646.8879668049793" cy="367.92531120331955" r="11.25" fill="none" stroke="#992626" stroke-width="7.5" stroke-opacity="0.75" />
<circle cx="649.792531120332" cy="340.0829875518672" r="15" fill="#ff0000" opacity="1" stroke="none" />
<circle cx="649.792531120332" cy="340.0829875518672" r="11.25" fill="none" stroke="#992626" stroke-width="7.5" stroke-opacity="0.75" />
<circle cx="647.3029045643154" cy="334.81327800829877" r="15" fill="#ff0000" opacity="1" stroke="none" />
<circle cx="647.3029045643154" cy="334.81327800829877" r="11.25" fill="none" stroke="#992626" stroke-width="7.5" stroke-opacity="0.75" />
<circle cx="654.356846473029" cy="391.4107883817427" r="15" fill="#ff0000" opacity="1" stroke="none" />
<circle cx="654.356846473029" cy="391.4107883817427" r="11.25" fill="none" stroke="#992626" stroke-width="7.5" stroke-opacity="0.75" />
<circle cx="656.0165975103735" cy="315.5601659751037" r="15" fill="#ff0000" opacity="1" stroke="none" />
<circle cx="656.0165975103735" cy="315.5601659751037" r="11.25" fill="none" stroke="#992626" stroke-width="7.5" stroke-opacity="0.75" />
<circle cx="663.0705394190871" cy="353.0290456431535" r="15" fill="#ff0000" opacity="1" stroke="none" />
<circle cx="663.0705394190871" cy="353.0290456431535" r="11.25" fill="none" stroke="#992626" stroke-width="7.5" stroke-opacity="0.75" />
<circle cx="670.1244813278009" cy="271.86721991701245" r="15" fill="#ff0000" opacity="1" stroke="none" />
<circle cx="670.1244813278009" cy="271.86721991701245" r="11.25" fill="none" stroke="#992626" stroke-width="7.5" stroke-opacity="0.75" />
<circle cx="668.0497925311204" cy="465.60165975103723" r="15" fill="#ff0000" opacity="1" stroke="none" />
<circle cx="668.0497925311204" cy="465.60165975103723" r="11.25" fill="none" stroke="#992626" stroke-width="7.5" stroke-opacity="0.75" />
<circle cx="674.688796680498" cy="269.75103734439847" r="15" fill="#ff0000" opacity="1" stroke="none" />
<circle cx="674.688796680498" cy="269.75103734439847" r="11.25" fill="none" stroke="#992626" stroke-width="7.5" stroke-opacity="0.75" />
<circle cx="676.3485477178424" cy="426.8879668049792" r="15" fill="#ff0000" opacity="1" stroke="none" />
<circle cx="676.3485477178424" cy="426.8879668049792" r="11.25" fill="none" stroke="#992626" stroke-width="7.5" stroke-opacity="0.75" />
<circle cx="682.572614107884" cy="260.66390041493764" r="15" fill="#ff0000" opacity="1" stroke="none" />
<circle cx="682.572614107884" cy="260.66390041493764" r="11.25" fill="none" stroke="#992626" stroke-width="7.5" stroke-opacity="0.75" />
<circle cx="684.2323651452282" cy="249.21161825726142" r="15" fill="#ff0000" opacity="1" stroke="none" />
<circle cx="684.2323651452282" cy="249.21161825726142" r="11.25" fill="none" stroke="#992626" stroke-width="7.5" stroke-opacity="0.75" />
<circle cx="691.2863070539419" cy="255.80912863070535" r="15" fill="#ff0000" opacity="1" stroke="none" />
<circle cx="691.2863070539419" cy="255.80912863070535" r="11.25" fill="none" stroke="#992626" stroke-width="7.5" stroke-opacity="0.75" />
<circle cx="695.0207468879668" cy="377.344398340249" r="15" fill="#ff0000" opacity="1" stroke="none" />
<circle cx="695.0207468879668" cy="377.344398340249" r="11.25" fill="none" stroke="#992626" stroke-width="7.5" stroke-opacity="0.75" />
<circle cx="703.3195020746889" cy="338.75518672199166" r="15" fill="#ff0000" opacity="1" stroke="none" />
<circle cx="703.3195020746889" cy="338.75518672199166" r="11.25" fill="none" stroke="#992626" stroke-width="7.5" stroke-opacity="0.75" />
<circle cx="707.8838174273859" cy="221.90871369294598" r="15" fill="#ff0000" opacity="1" stroke="none" />
<circle cx="707.8838174273859" cy="221.90871369294598" r="11.25" fill="none" stroke="#992626" stroke-width="7.5" stroke-opacity="0.75" />
<circle cx="703.3195020746889" cy="430.24896265560164" r="15" fill="#ff0000" opacity="1" stroke="none" />
<circle cx="703.3195020746889" cy="430.24896265560164" r="11.25" fill="none" stroke="#992626" stroke-width="7.5" stroke-opacity="0.75" />
<circle cx="710.3734439834025" cy="75.93360995850617" r="15" fill="#ff0000" opacity="1" stroke="none" />
<circle cx="710.3734439834025" cy="75.93360995850617" r="11.25" fill="none" stroke="#992626" stroke-width="7.5" stroke-opacity="0.75" />
<circle cx="717.4273858921163" cy="399.7095435684647" r="15" fill="#ff0000" opacity="1" stroke="none" />
<circle cx="717.4273858921163" cy="399.7095435684647" r="11.25" fill="none" stroke="#992626" stroke-width="7.5" stroke-opacity="0.75" />
<circle cx="723.2365145228216" cy="389.54356846473024" r="15" fill="#ff0000" opacity="1" stroke="none" />
<circle cx="723.2365145228216" cy="389.54356846473024" r="11.25" fill="none" stroke="#992626" stroke-width="7.5" stroke-opacity="0.75" />
<circle cx="730.7053941908713" cy="375.89211618257264" r="15" fill="#ff0000" opacity="1" stroke="none" />
<circle cx="730.7053941908713" cy="375.89211618257264" r="11.25" fill="none" stroke="#992626" stroke-width="7.5" stroke-opacity="0.75" />
<circle cx="730.7053941908713" cy="355.10373443983406" r="15" fill="#ff0000" opacity="1" stroke="none" />
<circle cx="730.7053941908713" cy="355.10373443983406" r="11.25" fill="none" stroke="#992626" stroke-width="7.5" stroke-opacity="0.75" />
<circle cx="730.7053941908713" cy="369.6265560165974" r="15" fill="#ff0000" opacity="1" stroke="none" />
<circle cx="730.7053941908713" cy="369.6265560165974" r="11.25" fill="none" stroke="#992626" stroke-width="7.5" stroke-opacity="0.75" />
<circle cx="734.4398340248963" cy="356.3900414937758" r="15" fill="#ff0000" opacity="1" stroke="none" />
<circle cx="734.4398340248963" cy="356.3900414937758" r="11.25" fill="none" stroke="#992626" stroke-width="7.5" stroke-opacity="0.75" />
<circle cx="742.3236514522822" cy="370.87136929460576" r="15" fill="#ff0000" opacity="1" stroke="none" />
<circle cx="742.3236514522822" cy="370.87136929460576" r="11.25" fill="none" stroke="#992626" stroke-width="7.5" stroke-opacity="0.75" />
<circle cx="745.643153526971" cy="430.8298755186721" r="15" fill="#ff0000" opacity="1" stroke="none" />
<circle cx="745.643153526971" cy="430.8298755186721" r="11.25" fill="none" stroke="#992626" stroke-width="7.5" stroke-opacity="0.75" />
<circle cx="746.8879668049792" cy="237.6763485477179" r="15" fill="#ff0000" opacity="1" stroke="none" />
<circle cx="746.8879668049792" cy="237.6763485477179" r="11.25" fill="none" stroke="#992626" stroke-width="7.5" stroke-opacity="0.75" />
<circle cx="756.0165975103736" cy="234.89626556016606" r="15" fill="#ff0000" opacity="1" stroke="none" />
<circle cx="756.0165975103736" cy="234.89626556016606" r="11.25" fill="none" stroke="#992626" stroke-width="7.5" stroke-opacity="0.75" />
<circle cx="759.7510373443985" cy="286.4730290456431" r="15" fill="#ff0000" opacity="1" stroke="none" />
<circle cx="759.7510373443985" cy="286.4730290456431" r="11.25" fill="none" stroke="#992626" stroke-width="7.5" stroke-opacity="0.75" />
<circle cx="773.8589211618257" cy="172.78008298755185" r="15" fill="#ff0000" opacity="1" stroke="none" />
<circle cx="773.8589211618257" cy="172.78008298755185" r="11.25" fill="none" stroke="#992626" stroke-width="7.5" stroke-opacity="0.75" />
<circle cx="780.9128630705394" cy="196.84647302904568" r="15" fill="#ff0000" opacity="1" stroke="none" />
<circle cx="780.9128630705394" cy="196.84647302904568" r="11.25" fill="none" stroke="#992626" stroke-width="7.5" stroke-opacity="0.75" />
<circle cx="781.3278008298755" cy="271.2448132780082" r="15" fill="#ff0000" opacity="1" stroke="none" />
<circle cx="781.3278008298755" cy="271.2448132780082" r="11.25" fill="none" stroke="#992626" stroke-width="7.5" stroke-opacity="0.75" />
<circle cx="787.551867219917" cy="271.07883817427387" r="15" fill="#ff0000" opacity="1" stroke="none" />
<circle cx="787.551867219917" cy="271.07883817427387" r="11.25" fill="none" stroke="#992626" stroke-width="7.5" stroke-opacity="0.75" />
<circle cx="792.1161825726141" cy="250.16597510373435" r="15" fill="#ff0000" opacity="1" stroke="none" />
<circle cx="792.1161825726141" cy="250.16597510373435" r="11.25" fill="none" stroke="#992626" stroke-width="7.5" stroke-opacity="0.75" />
<circle cx="800.8298755186721" cy="278.0082987551866" r="15" fill="#ff0000" opacity="1" stroke="none" />
<circle cx="800.8298755186721" cy="278.0082987551866" r="11.25" fill="none" stroke="#992626" stroke-width="7.5" stroke-opacity="0.75" />
<circle cx="800.8298755186721" cy="248.3817427385893" r="15" fill="#ff0000" opacity="1" stroke="none" />
<circle cx="800.8298755186721" cy="248.3817427385893" r="11.25" fill="none" stroke="#992626" stroke-width="7.5" stroke-opacity="0.75" />
<circle cx="802.0746887966806" cy="314.10788381742736" r="15" fill="#ff0000" opacity="1" stroke="none" />
<circle cx="802.0746887966806" cy="314.10788381742736" r="11.25" fill="none" stroke="#992626" stroke-width="7.5" stroke-opacity="0.75" />
<circle cx="811.2033195020747" cy="216.09958506224064" r="15" fill="#ff0000" opacity="1" stroke="none" />
<circle cx="811.2033195020747" cy="216.09958506224064" r="11.25" fill="none" stroke="#992626" stroke-width="7.5" stroke-opacity="0.75" />
<circle cx="815.3526970954357" cy="230.91286307053952" r="15" fill="#ff0000" opacity="1" stroke="none" />
<circle cx="815.3526970954357" cy="230.91286307053952" r="11.25" fill="none" stroke="#992626" stroke-width="7.5" stroke-opacity="0.75" />
<circle cx="828.2157676348547" cy="230.2904564315353" r="15" fill="#ff0000" opacity="1" stroke="none" />
<circle cx="828.2157676348547" cy="230.2904564315353" r="11.25" fill="none" stroke="#992626" stroke-width="7.5" stroke-opacity="0.75" />
<circle cx="829.8755186721991" cy="185.68464730290452" r="15" fill="#ff0000" opacity="1" stroke="none" />
<circle cx="829.8755186721991" cy="185.68464730290452" r="11.25" fill="none" stroke="#992626" stroke-width="7.5" stroke-opacity="0.75" />
<circle cx="834.4398340248963" cy="195.22821576763488" r="15" fill="#ff0000" opacity="1" stroke="none" />
<circle cx="834.4398340248963" cy="195.22821576763488" r="11.25" fill="none" stroke="#992626" stroke-width="7.5" stroke-opacity="0.75" />
<circle cx="837.3443983402489" cy="163.48547717842337" r="15" fill="#ff0000" opacity="1" stroke="none" />
<circle cx="837.3443983402489" cy="163.48547717842337" r="11.25" fill="none" stroke="#992626" stroke-width="7.5" stroke-opacity="0.75" />
<circle cx="857.2614107883817" cy="170.7053941908714" r="15" fill="#ff0000" opacity="1" stroke="none" />
<circle cx="857.2614107883817" cy="170.7053941908714" r="11.25" fill="none" stroke="#992626" stroke-width="7.5" stroke-opacity="0.75" />
<circle cx="883.8174273858921" cy="122.48962655601645" r="15" fill="#ff0000" opacity="1" stroke="none" />
<circle cx="883.8174273858921" cy="122.48962655601645" r="11.25" fill="none" stroke="#992626" stroke-width="7.5" stroke-opacity="0.75" />
<circle cx="902.9045643153527" cy="136.59751037344404" r="15" fill="#ff0000" opacity="1" stroke="none" />
<circle cx="902.9045643153527" cy="136.59751037344404" r="11.25" fill="none" stroke="#992626" stroke-width="7.5" stroke-opacity="0.75" />
<circle cx="888.7966804979254" cy="168.34024896265555" r="15" fill="#ff0000" opacity="1" stroke="none" />
<circle cx="888.7966804979254" cy="168.34024896265555" r="11.25" fill="none" stroke="#992626" stroke-width="7.5" stroke-opacity="0.75" />
<circle cx="903.7344398340249" cy="130.95435684647293" r="15" fill="#ff0000" opacity="1" stroke="none" />
<circle cx="903.7344398340249" cy="130.95435684647293" r="11.25" fill="none" stroke="#992626" stroke-width="7.5" stroke-opacity="0.75" />
<circle cx="931.1203319502075" cy="111.53526970954351" r="15" fill="#ff0000" opacity="1" stroke="none" />
<circle cx="931.1203319502075" cy="111.53526970954351" r="11.25" fill="none" stroke="#992626" stroke-width="7.5" stroke-opacity="0.75" />
<circle cx="951.4522821576763" cy="103.44398340248961" r="15" fill="#ff0000" opacity="1" stroke="none" />
<circle cx="951.4522821576763" cy="103.44398340248961" r="11.25" fill="none" stroke="#992626" stroke-width="7.5" stroke-opacity="0.75" />
<circle cx="953.941908713693" cy="102.44813278008303" r="15" fill="#ff0000" opacity="1" stroke="none" />
<circle cx="953.941908713693" cy="102.44813278008303" r="11.25" fill="none" stroke="#992626" stroke-width="7.5" stroke-opacity="0.75" />
</g>
<g id="d2">
<circle cx="152.28215767634862" cy="767.8689526126593" r="15" fill="#027f00" opacity="1" stroke="none" />
<circle cx="152.28215767634862" cy="767.8689526126593" r="11.25" fill="none" stroke="#144c13" stroke-width="7.5" stroke-opacity="0.75" />
<circle cx="80.0829875518672" cy="903.0817246338142" r="15" fill="#027f00" opacity="1" stroke="none" />
<circle cx="80.0829875518672" cy="903.0817246338142" r="11.25" fill="none" stroke="#144c13" stroke-width="7.5" stroke-opacity="0.75" />
<circle cx="377.17842323651456" cy="609.2701648379757" r="15" fill="#027f00" opacity="1" stroke="none" />
<circle cx="377.17842323651456" cy="609.2701648379757" r="11.25" fill="none" stroke="#144c13" stroke-width="7.5" stroke-opacity="0.75" />
<circle cx="415.7676348547718" cy="640.0804711971045" r="15" fill="#027f00" opacity="1" stroke="none" />
<circle cx="415.7676348547718" cy="640.0804711971045" r="11.25" fill="none" stroke="#144c13" stroke-width="7.5" stroke-opacity="0.75" />
<circle cx="429.045643153527" cy="563.393890204766" r="15" fill="#027f00" opacity="1" stroke="none" />
<circle cx="429.045643153527" cy="563.393890204766" r="11.25" fill="none" stroke="#144c13" stroke-width="7.5" stroke-opacity="0.75" />
<circle cx="435.2697095435685" cy="654.6557369469606" r="15" fill="#027f00" opacity="1" stroke="none" />
<circle cx="435.2697095435685" cy="654.6557369469606" r="11.25" fill="none" stroke="#144c13" stroke-width="7.5" stroke-opacity="0.75" />
<circle cx="441.9087136929461" cy="574.8187932532852" r="15" fill="#027f00" opacity="1" stroke="none" />
<circle cx="441.9087136929461" cy="574.8187932532852" r="11.25" fill="none" stroke="#144c13" stroke-width="7.5" stroke-opacity="0.75" />
<circle cx="452.2821576763486" cy="600.161757568106" r="15" fill="#027f00" opacity="1" stroke="none" />
<circle cx="452.2821576763486" cy="600.161757568106" r="11.25" fill="none" stroke="#144c13" stroke-width="7.5" stroke-opacity="0.75" />
<circle cx="467.63485477178426" cy="592.6084325323461" r="15" fill="#027f00" opacity="1" stroke="none" />
<circle cx="467.63485477178426" cy="592.6084325323461" r="11.25" fill="none" stroke="#144c13" stroke-width="7.5" stroke-opacity="0.75" />
<circle cx="502.9045643153527" cy="767.285895011237" r="15" fill="#027f00" opacity="1" stroke="none" />
<circle cx="502.9045643153527" cy="767.285895011237" r="11.25" fill="none" stroke="#144c13" stroke-width="7.5" stroke-opacity="0.75" />
<circle cx="519.5020746887967" cy="363.4228634339645" r="15" fill="#027f00" opacity="1" stroke="none" />
<circle cx="519.5020746887967" cy="363.4228634339645" r="11.25" fill="none" stroke="#144c13" stroke-width="7.5" stroke-opacity="0.75" />
<circle cx="525.7261410788382" cy="479.43884616076207" r="15" fill="#027f00" opacity="1" stroke="none" />
<circle cx="525.7261410788382" cy="479.43884616076207" r="11.25" fill="none" stroke="#144c13" stroke-width="7.5" stroke-opacity="0.75" />
<circle cx="531.5352697095436" cy="410.43474975463266" r="15" fill="#027f00" opacity="1" stroke="none" />
<circle cx="531.5352697095436" cy="410.43474975463266" r="11.25" fill="none" stroke="#144c13" stroke-width="7.5" stroke-opacity="0.75" />
<circle cx="545.2282157676348" cy="487.7517896865909" r="15" fill="#027f00" opacity="1" stroke="none" />
<circle cx="545.2282157676348" cy="487.7517896865909" r="11.25" fill="none" stroke="#144c13" stroke-width="7.5" stroke-opacity="0.75" />
<circle cx="559.3360995850622" cy="484.25741652730096" r="15" fill="#027f00" opacity="1" stroke="none" />
<circle cx="559.3360995850622" cy="484.25741652730096" r="11.25" fill="none" stroke="#144c13" stroke-width="7.5" stroke-opacity="0.75" />
<circle cx="570.9543568464732" cy="560.8657039943078" r="15" fill="#027f00" opacity="1" stroke="none" />
<circle cx="570.9543568464732" cy="560.8657039943078" r="11.25" fill="none" stroke="#144c13" stroke-width="7.5" stroke-opacity="0.75" />
<circle cx="565.9751037344398" cy="503.3677158118283" r="15" fill="#027f00" opacity="1" stroke="none" />
<circle cx="565.9751037344398" cy="503.3677158118283" r="11.25" fill="none" stroke="#144c13" stroke-width="7.5" stroke-opacity="0.75" />
<circle cx="576.7634854771785" cy="349.93641985897204" r="15" fill="#027f00" opacity="1" stroke="none" />
<circle cx="576.7634854771785" cy="349.93641985897204" r="11.25" fill="none" stroke="#144c13" stroke-width="7.5" stroke-opacity="0.75" />
<circle cx="585.0622406639004" cy="502.7564789546476" r="15" fill="#027f00" opacity="1" stroke="none" />
<circle cx="585.0622406639004" cy="502.7564789546476" r="11.25" fill="none" stroke="#144c13" stroke-width="7.5" stroke-opacity="0.75" />
<circle cx="590.0414937759336" cy="504.3457557947309" r="15" fill="#027f00" opacity="1" stroke="none" />
<circle cx="590.0414937759336" cy="504.3457557947309" r="11.25" fill="none" stroke="#144c13" stroke-width="7.5" stroke-opacity="0.75" />
<circle cx="596.6804979253113" cy="394.63074324041963" r="15" fill="#027f00" opacity="1" stroke="none" />
<circle cx="596.6804979253113" cy="394.63074324041963" r="11.25" fill="none" stroke="#144c13" stroke-width="7.5" stroke-opacity="0.75" />
<circle cx="596.2655601659751" cy="396.32772687065153" r="15" fill="#027f00" opacity="1" stroke="none" />
<circle cx="596.2655601659751" cy="396.32772687065153" r="11.25" fill="none" stroke="#144c13" stroke-width="7.5" stroke-opacity="0.75" />
<circle cx="612.8630705394191" cy="434.5176167310026" r="15" fill="#027f00" opacity="1" stroke="none" />
<circle cx="612.8630705394191" cy="434.5176167310026" r="11.25" fill="none" stroke="#144c13" stroke-width="7.5" stroke-opacity="0.75" />
<circle cx="622.4066390041494" cy="347.9094746300789" r="15" fill="#027f00" opacity="1" stroke="none" />
<circle cx="622.4066390041494" cy="347.9094746300789" r="11.25" fill="none" stroke="#144c13" stroke-width="7.5" stroke-opacity="0.75" />
<circle cx="624.066390041494" cy="300.5342371137309" r="15" fill="#027f00" opacity="1" stroke="none" />
<circle cx="624.066390041494" cy="300.5342371137309" r="11.25" fill="none" stroke="#144c13" stroke-width="7.5" stroke-opacity="0.75" />
<circle cx="631.9502074688796" cy="685.2992134569097" r="15" fill="#027f00" opacity="1" stroke="none" />
<circle cx="631.9502074688796" cy="685.2992134569097" r="11.25" fill="none" stroke="#144c13" stroke-width="7.5" stroke-opacity="0.75" />
<circle cx="631.9502074688796" cy="525.4186943655686" r="15" fill="#027f00" opacity="1" stroke="none" />
<circle cx="631.9502074688796" cy="525.4186943655686" r="11.25" fill="none" stroke="#144c13" stroke-width="7.5" stroke-opacity="0.75" />
<circle cx="638.1742738589212" cy="328.6751641475314" r="15" fill="#027f00" opacity="1" stroke="none" />
<circle cx="638.1742738589212" cy="328.6751641475314" r="11.25" fill="none" stroke="#144c13" stroke-width="7.5" stroke-opacity="0.75" />
<circle cx="639.8340248962656" cy="491.34054207702883" r="15" fill="#027f00" opacity="1" stroke="none" />
<circle cx="639.8340248962656" cy="491.34054207702883" r="11.25" fill="none" stroke="#144c13" stroke-width="7.5" stroke-opacity="0.75" />
<circle cx="646.8879668049793" cy="312.6282372217456" r="15" fill="#027f00" opacity="1" stroke="none" />
<circle cx="646.8879668049793" cy="312.6282372217456" r="11.25" fill="none" stroke="#144c13" stroke-width="7.5" stroke-opacity="0.75" />
<circle cx="649.792531120332" cy="342.72578577777654" r="15" fill="#027f00" opacity="1" stroke="none" />
<circle cx="649.792531120332" cy="342.72578577777654" r="11.25" fill="none" stroke="#144c13" stroke-width="7.5" stroke-opacity="0.75" />
<circle cx="647.3029045643154" cy="308.95094135490183" r="15" fill="#027f00" opacity="1" stroke="none" />
<circle cx="647.3029045643154" cy="308.95094135490183" r="11.25" fill="none" stroke="#144c13" stroke-width="7.5" stroke-opacity="0.75" />
<circle cx="654.356846473029" cy="330.8380207283368" r="15" fill="#027f00" opacity="1" stroke="none" />
<circle cx="654.356846473029" cy="330.8380207283368" r="11.25" fill="none" stroke="#144c13" stroke-width="7.5" stroke-opacity="0.75" />
<circle cx="656.0165975103735" cy="302.70672606234723" r="15" fill="#027f00" opacity="1" stroke="none" />
<circle cx="656.0165975103735" cy="302.70672606234723" r="11.25" fill="none" stroke="#144c13" stroke-width="7.5" stroke-opacity="0.75" />
<circle cx="663.0705394190871" cy="321.6704707125905" r="15" fill="#027f00" opacity="1" stroke="none" />
<circle cx="663.0705394190871" cy="321.6704707125905" r="11.25" fill="none" stroke="#144c13" stroke-width="7.5" stroke-opacity="0.75" />
<circle cx="670.1244813278009" cy="322.61195823859384" r="15" fill="#027f00" opacity="1" stroke="none" />
<circle cx="670.1244813278009" cy="322.61195823859384" r="11.25" fill="none" stroke="#144c13" stroke-width="7.5" stroke-opacity="0.75" />
<circle cx="668.0497925311204" cy="364.909698201413" r="15" fill="#027f00" opacity="1" stroke="none" />
<circle cx="668.0497925311204" cy="364.909698201413" r="11.25" fill="none" stroke="#144c13" stroke-width="7.5" stroke-opacity="0.75" />
<circle cx="674.688796680498" cy="289.80543558033673" r="15" fill="#027f00" opacity="1" stroke="none" />
<circle cx="674.688796680498" cy="289.80543558033673" r="11.25" fill="none" stroke="#144c13" stroke-width="7.5" stroke-opacity="0.75" />
<circle cx="676.3485477178424" cy="364.10849175512544" r="15" fill="#027f00" opacity="1" stroke="none" />
<circle cx="676.3485477178424" cy="364.10849175512544" r="11.25" fill="none" stroke="#144c13" stroke-width="7.5" stroke-opacity="0.75" />
<circle cx="682.572614107884" cy="308.48802598185557" r="15" fill="#027f00" opacity="1" stroke="none" />
<circle cx="682.572614107884" cy="308.48802598185557" r="11.25" fill="none" stroke="#144c13" stroke-width="7.5" stroke-opacity="0.75" />
<circle cx="684.2323651452282" cy="254.23018280895917" r="15" fill="#027f00" opacity="1" stroke="none" />
<circle cx="684.2323651452282" cy="254.23018280895917" r="11.25" fill="none" stroke="#144c13" stroke-width="7.5" stroke-opacity="0.75" />
<circle cx="691.2863070539419" cy="257.92187524039707" r="15" fill="#027f00" opacity="1" stroke="none" />
<circle cx="691.2863070539419" cy="257.92187524039707" r="11.25" fill="none" stroke="#144c13" stroke-width="7.5" stroke-opacity="0.75" />
<circle cx="695.0207468879668" cy="314.86966378461284" r="15" fill="#027f00" opacity="1" stroke="none" />
<circle cx="695.0207468879668" cy="314.86966378461284" r="11.25" fill="none" stroke="#144c13" stroke-width="7.5" stroke-opacity="0.75" />
<circle cx="703.3195020746889" cy="278.20313477417244" r="15" fill="#027f00" opacity="1" stroke="none" />
<circle cx="703.3195020746889" cy="278.20313477417244" r="11.25" fill="none" stroke="#144c13" stroke-width="7.5" stroke-opacity="0.75" />
<circle cx="707.8838174273859" cy="257.9751998260308" r="15" fill="#027f00" opacity="1" stroke="none" />
<circle cx="707.8838174273859" cy="257.9751998260308" r="11.25" fill="none" stroke="#144c13" stroke-width="7.5" stroke-opacity="0.75" />
<circle cx="703.3195020746889" cy="367.74003333570545" r="15" fill="#027f00" opacity="1" stroke="none" />
<circle cx="703.3195020746889" cy="367.74003333570545" r="11.25" fill="none" stroke="#144c13" stroke-width="7.5" stroke-opacity="0.75" />
<circle cx="710.3734439834025" cy="158.6391898111683" r="15" fill="#027f00" opacity="1" stroke="none" />
<circle cx="710.3734439834025" cy="158.6391898111683" r="11.25" fill="none" stroke="#144c13" stroke-width="7.5" stroke-opacity="0.75" />
<circle cx="717.4273858921163" cy="280.69695429188585" r="15" fill="#027f00" opacity="1" stroke="none" />
<circle cx="717.4273858921163" cy="280.69695429188585" r="11.25" fill="none" stroke="#144c13" stroke-width="7.5" stroke-opacity="0.75" />
<circle cx="723.2365145228216" cy="269.68842177964837" r="15" fill="#027f00" opacity="1" stroke="none" />
<circle cx="723.2365145228216" cy="269.68842177964837" r="11.25" fill="none" stroke="#144c13" stroke-width="7.5" stroke-opacity="0.75" />
<circle cx="730.7053941908713" cy="279.38947574726285" r="15" fill="#027f00" opacity="1" stroke="none" />
<circle cx="730.7053941908713" cy="279.38947574726285" r="11.25" fill="none" stroke="#144c13" stroke-width="7.5" stroke-opacity="0.75" />
<circle cx="730.7053941908713" cy="279.75682531649636" r="15" fill="#027f00" opacity="1" stroke="none" />
<circle cx="730.7053941908713" cy="279.75682531649636" r="11.25" fill="none" stroke="#144c13" stroke-width="7.5" stroke-opacity="0.75" />
<circle cx="730.7053941908713" cy="301.25021966166526" r="15" fill="#027f00" opacity="1" stroke="none" />
<circle cx="730.7053941908713" cy="301.25021966166526" r="11.25" fill="none" stroke="#144c13" stroke-width="7.5" stroke-opacity="0.75" />
<circle cx="734.4398340248963" cy="292.06778059361875" r="15" fill="#027f00" opacity="1" stroke="none" />
<circle cx="734.4398340248963" cy="292.06778059361875" r="11.25" fill="none" stroke="#144c13" stroke-width="7.5" stroke-opacity="0.75" />
<circle cx="742.3236514522822" cy="284.9295738030271" r="15" fill="#027f00" opacity="1" stroke="none" />
<circle cx="742.3236514522822" cy="284.9295738030271" r="11.25" fill="none" stroke="#144c13" stroke-width="7.5" stroke-opacity="0.75" />
<circle cx="745.643153526971" cy="245.78912062269023" r="15" fill="#027f00" opacity="1" stroke="none" />
<circle cx="745.643153526971" cy="245.78912062269023" r="11.25" fill="none" stroke="#144c13" stroke-width="7.5" stroke-opacity="0.75" />
<circle cx="746.8879668049792" cy="223.4522293415307" r="15" fill="#027f00" opacity="1" stroke="none" />
<circle cx="746.8879668049792" cy="223.4522293415307" r="11.25" fill="none" stroke="#144c13" stroke-width="7.5" stroke-opacity="0.75" />
<circle cx="756.0165975103736" cy="196.47641987226814" r="15" fill="#027f00" opacity="1" stroke="none" />
<circle cx="756.0165975103736" cy="196.47641987226814" r="11.25" fill="none" stroke="#144c13" stroke-width="7.5" stroke-opacity="0.75" />
<circle cx="759.7510373443985" cy="250.8046598948879" r="15" fill="#027f00" opacity="1" stroke="none" />
<circle cx="759.7510373443985" cy="250.8046598948879" r="11.25" fill="none" stroke="#144c13" stroke-width="7.5" stroke-opacity="0.75" />
<circle cx="773.8589211618257" cy="164.9355806107343" r="15" fill="#027f00" opacity="1" stroke="none" />
<circle cx="773.8589211618257" cy="164.9355806107343" r="11.25" fill="none" stroke="#144c13" stroke-width="7.5" stroke-opacity="0.75" />
<circle cx="780.9128630705394" cy="185.30063288835072" r="15" fill="#027f00" opacity="1" stroke="none" />
<circle cx="780.9128630705394" cy="185.30063288835072" r="11.25" fill="none" stroke="#144c13" stroke-width="7.5" stroke-opacity="0.75" />
<circle cx="781.3278008298755" cy="236.4813094119312" r="15" fill="#027f00" opacity="1" stroke="none" />
<circle cx="781.3278008298755" cy="236.4813094119312" r="11.25" fill="none" stroke="#144c13" stroke-width="7.5" stroke-opacity="0.75" />
<circle cx="787.551867219917" cy="232.73381486473238" r="15" fill="#027f00" opacity="1" stroke="none" />
<circle cx="787.551867219917" cy="232.73381486473238" r="11.25" fill="none" stroke="#144c13" stroke-width="7.5" stroke-opacity="0.75" />
<circle cx="792.1161825726141" cy="231.34760654813522" r="15" fill="#027f00" opacity="1" stroke="none" />
<circle cx="792.1161825726141" cy="231.34760654813522" r="11.25" fill="none" stroke="#144c13" stroke-width="7.5" stroke-opacity="0.75" />
<circle cx="800.8298755186721" cy="221.08317212939755" r="15" fill="#027f00" opacity="1" stroke="none" />
<circle cx="800.8298755186721" cy="221.08317212939755" r="11.25" fill="none" stroke="#144c13" stroke-width="7.5" stroke-opacity="0.75" />
<circle cx="800.8298755186721" cy="227.82612879741237" r="15" fill="#027f00" opacity="1" stroke="none" />
<circle cx="800.8298755186721" cy="227.82612879741237" r="11.25" fill="none" stroke="#144c13" stroke-width="7.5" stroke-opacity="0.75" />
<circle cx="802.0746887966806" cy="267.55059190805514" r="15" fill="#027f00" opacity="1" stroke="none" />
<circle cx="802.0746887966806" cy="267.55059190805514" r="11.25" fill="none" stroke="#144c13" stroke-width="7.5" stroke-opacity="0.75" />
<circle cx="811.2033195020747" cy="185.34688268954324" r="15" fill="#027f00" opacity="1" stroke="none" />
<circle cx="811.2033195020747" cy="185.34688268954324" r="11.25" fill="none" stroke="#144c13" stroke-width="7.5" stroke-opacity="0.75" />
<circle cx="815.3526970954357" cy="174.7896489266044" r="15" fill="#027f00" opacity="1" stroke="none" />
<circle cx="815.3526970954357" cy="174.7896489266044" r="11.25" fill="none" stroke="#144c13" stroke-width="7.5" stroke-opacity="0.75" />
<circle cx="828.2157676348547" cy="183.00764491449252" r="15" fill="#027f00" opacity="1" stroke="none" />
<circle cx="828.2157676348547" cy="183.00764491449252" r="11.25" fill="none" stroke="#144c13" stroke-width="7.5" stroke-opacity="0.75" />
<circle cx="829.8755186721991" cy="150.79585744137592" r="15" fill="#027f00" opacity="1" stroke="none" />
<circle cx="829.8755186721991" cy="150.79585744137592" r="11.25" fill="none" stroke="#144c13" stroke-width="7.5" stroke-opacity="0.75" />
<circle cx="834.4398340248963" cy="151.6454182225143" r="15" fill="#027f00" opacity="1" stroke="none" />
<circle cx="834.4398340248963" cy="151.6454182225143" r="11.25" fill="none" stroke="#144c13" stroke-width="7.5" stroke-opacity="0.75" />
<circle cx="837.3443983402489" cy="155.15710194575843" r="15" fill="#027f00" opacity="1" stroke="none" />
<circle cx="837.3443983402489" cy="155.15710194575843" r="11.25" fill="none" stroke="#144c13" stroke-width="7.5" stroke-opacity="0.75" />
<circle cx="857.2614107883817" cy="145.6992374515138" r="15" fill="#027f00" opacity="1" stroke="none" />
<circle cx="857.2614107883817" cy="145.6992374515138" r="11.25" fill="none" stroke="#144c13" stroke-width="7.5" stroke-opacity="0.75" />
<circle cx="883.8174273858921" cy="105.50269851051416" r="15" fill="#027f00" opacity="1" stroke="none" />
<circle cx="883.8174273858921" cy="105.50269851051416" r="11.25" fill="none" stroke="#144c13" stroke-width="7.5" stroke-opacity="0.75" />
<circle cx="902.9045643153527" cy="94.58181539511793" r="15" fill="#027f00" opacity="1" stroke="none" />
<circle cx="902.9045643153527" cy="94.58181539511793" r="11.25" fill="none" stroke="#144c13" stroke-width="7.5" stroke-opacity="0.75" />
<circle cx="888.7966804979254" cy="112.01216796621736" r="15" fill="#027f00" opacity="1" stroke="none" />
<circle cx="888.7966804979254" cy="112.01216796621736" r="11.25" fill="none" stroke="#144c13" stroke-width="7.5" stroke-opacity="0.75" />
<circle cx="903.7344398340249" cy="90.12465579875766" r="15" fill="#027f00" opacity="1" stroke="none" />
<circle cx="903.7344398340249" cy="90.12465579875766" r="11.25" fill="none" stroke="#144c13" stroke-width="7.5" stroke-opacity="0.75" />
<circle cx="931.1203319502075" cy="77.63308263913223" r="15" fill="#027f00" opacity="1" stroke="none" />
<circle cx="931.1203319502075" cy="77.63308263913223" r="11.25" fill="none" stroke="#144c13" stroke-width="7.5" stroke-opacity="0.75" />
<circle cx="951.4522821576763" cy="68.21535308331386" r="15" fill="#027f00" opacity="1" stroke="none" />
<circle cx="951.4522821576763" cy="68.21535308331386" r="11.25" fill="none" stroke="#144c13" stroke-width="7.5" stroke-opacity="0.75" />
<circle cx="953.941908713693" cy="28.453863270549846" r="15" fill="#027f00" opacity="1" stroke="none" />
<circle cx="953.941908713693" cy="28.453863270549846" r="11.25" fill="none" stroke="#144c13" stroke-width="7.5" stroke-opacity="0.75" />
</g>
<g id="d3">
<path d="M150.0,1150.0 L1150.0,150.0" fill="none" opacity="0.5" stroke="#000000" stroke-width="16" />
<use xlink:href="#d0" x="150.0" y="150.0" />
<use xlink:href="#d1" x="150.0" y="150.0" />
<use xlink:href="#d2" x="150.0" y="150.0" />
<path d="M269.99999999999983,1144.3780754632494 L289.9999999999998,1122.4069354070139" stroke="#992626" fill="none" stroke-width="8" stroke-opacity="0.75" />
<path d="M309.9999999999998,1100.4357953507779 L329.9999999999998,1078.4646552945424" stroke="#992626" fill="none" stroke-width="8" stroke-opacity="0.75" />
<path d="M349.9999999999997,1056.4935152383068 L369.99999999999966,1034.522375182071" stroke="#992626" fill="none" stroke-width="8" stroke-opacity="0.75" />
<path d="M389.99999999999966,1012.5512351258354 L409.9999999999996,990.5800950695998" stroke="#992626" fill="none" stroke-width="8" stroke-opacity="0.75" />
<path d="M429.9999999999996,968.6089550133642 L449.99999999999955,946.6378149571285" stroke="#992626" fill="none" stroke-width="8" stroke-opacity="0.75" />
<path d="M469.9999999999995,924.666674900893 L489.99999999999955,902.6955348446572" stroke="#992626" fill="none" stroke-width="8" stroke-opacity="0.75" />
<path d="M509.9999999999995,880.7243947884215 L529.9999999999994,858.753254732186" stroke="#992626" fill="none" stroke-width="8" stroke-opacity="0.75" />
<path d="M549.9999999999994,836.7821146759503 L569.9999999999993,814.8109746197147" stroke="#992626" fill="none" stroke-width="8" stroke-opacity="0.75" />
<path d="M589.9999999999993,792.8398345634789 L609.9999999999993,770.8686945072432" stroke="#992626" fill="none" stroke-width="8" stroke-opacity="0.75" />
<path d="M629.9999999999993,748.8975544510076 L649.9999999999993,726.926414394772" stroke="#992626" fill="none" stroke-width="8" stroke-opacity="0.75" />
<path d="M669.9999999999992,704.9552743385364 L689.9999999999992,682.9841342823006" stroke="#992626" fill="none" stroke-width="8" stroke-opacity="0.75" />
<path d="M709.9999999999992,661.012994226065 L729.9999999999992,639.0418541698293" stroke="#992626" fill="none" stroke-width="8" stroke-opacity="0.75" />
<path d="M749.9999999999991,617.0707141135937 L769.9999999999991,595.099574057358" stroke="#992626" fill="none" stroke-width="8" stroke-opacity="0.75" />
<path d="M789.999999999999,573.1284340011224 L809.999999999999,551.1572939448868" stroke="#992626" fill="none" stroke-width="8" stroke-opacity="0.75" />
<path d="M829.9999999999991,529.1861538886511 L849.999999999999,507.21501383241537" stroke="#992626" fill="none" stroke-width="8" stroke-opacity="0.75" />
<path d="M869.999999999999,485.2438737761797 L889.9999999999989,463.2727337199441" stroke="#992626" fill="none" stroke-width="8" stroke-opacity="0.75" />
<path d="M909.9999999999989,441.30159366370833 L929.9999999999987,419.3304536074728" stroke="#992626" fill="none" stroke-width="8" stroke-opacity="0.75" />
<path d="M949.9999999999989,397.35931355123716 L969.9999999999989,375.3881734950014" stroke="#992626" fill="none" stroke-width="8" stroke-opacity="0.75" />
<path d="M989.9999999999987,353.41703343876577 L1009.9999999999987,331.44589338253024" stroke="#992626" fill="none" stroke-width="8" stroke-opacity="0.75" />
<path d="M1029.9999999999986,309.4747533262945 L1049.9999999999986,287.50361327005885" stroke="#992626" fill="none" stroke-width="8" stroke-opacity="0.75" />
<path d="M1069.9999999999986,265.5324732138233 L1089.9999999999986,243.56133315758757" stroke="#992626" fill="none" stroke-width="8" stroke-opacity="0.75" />
<path d="M1109.9999999999986,221.59019310135193 L1129.9999999999986,199.6190530451163" stroke="#992626" fill="none" stroke-width="8" stroke-opacity="0.75" />
<path d="M189.99999999999994,1146.1535890478517 L209.99999999999991,1125.3451446651172" stroke="#144c13" fill="none" stroke-width="8" stroke-opacity="0.75" />
<path d="M229.9999999999999,1104.5367002823828 L249.99999999999986,1083.728255899648" stroke="#144c13" fill="none" stroke-width="8" stroke-opacity="0.75" />
<path d="M269.99999999999983,1062.9198115169133 L289.9999999999998,1042.1113671341786" stroke="#144c13" fill="none" stroke-width="8" stroke-opacity="0.75" />
<path d="M309.9999999999998,1021.3029227514438 L329.9999999999998,1000.4944783687091" stroke="#144c13" fill="none" stroke-width="8" stroke-opacity="0.75" />
<path d="M349.9999999999997,979.6860339859745 L369.99999999999966,958.8775896032398" stroke="#144c13" fill="none" stroke-width="8" stroke-opacity="0.75" />
<path d="M389.99999999999966,938.0691452205051 L409.9999999999996,917.2607008377704" stroke="#144c13" fill="none" stroke-width="8" stroke-opacity="0.75" />
<path d="M429.9999999999996,896.4522564550358 L449.99999999999955,875.643812072301" stroke="#144c13" fill="none" stroke-width="8" stroke-opacity="0.75" />
<path d="M469.9999999999995,854.8353676895664 L489.99999999999955,834.0269233068317" stroke="#144c13" fill="none" stroke-width="8" stroke-opacity="0.75" />
<path d="M509.9999999999995,813.218478924097 L529.9999999999994,792.4100345413623" stroke="#144c13" fill="none" stroke-width="8" stroke-opacity="0.75" />
<path d="M549.9999999999994,771.6015901586276 L569.9999999999993,750.793145775893" stroke="#144c13" fill="none" stroke-width="8" stroke-opacity="0.75" />
<path d="M589.9999999999993,729.9847013931583 L609.9999999999993,709.1762570104236" stroke="#144c13" fill="none" stroke-width="8" stroke-opacity="0.75" />
<path d="M629.9999999999993,688.3678126276889 L649.9999999999993,667.5593682449543" stroke="#144c13" fill="none" stroke-width="8" stroke-opacity="0.75" />
<path d="M669.9999999999992,646.7509238622195 L689.9999999999992,625.9424794794849" stroke="#144c13" fill="none" stroke-width="8" stroke-opacity="0.75" />
<path d="M709.9999999999992,605.1340350967503 L729.9999999999992,584.3255907140156" stroke="#144c13" fill="none" stroke-width="8" stroke-opacity="0.75" />
<path d="M749.9999999999991,563.5171463312809 L769.9999999999991,542.7087019485463" stroke="#144c13" fill="none" stroke-width="8" stroke-opacity="0.75" />
<path d="M789.999999999999,521.9002575658116 L809.999999999999,501.09181318307685" stroke="#144c13" fill="none" stroke-width="8" stroke-opacity="0.75" />
<path d="M829.9999999999991,480.28336880034215 L849.999999999999,459.47492441760744" stroke="#144c13" fill="none" stroke-width="8" stroke-opacity="0.75" />
<path d="M869.999999999999,438.66648003487273 L889.9999999999989,417.858035652138" stroke="#144c13" fill="none" stroke-width="8" stroke-opacity="0.75" />
<path d="M909.9999999999989,397.04959126940344 L929.9999999999987,376.24114688666873" stroke="#144c13" fill="none" stroke-width="8" stroke-opacity="0.75" />
<path d="M949.9999999999989,355.432702503934 L969.9999999999989,334.6242581211993" stroke="#144c13" fill="none" stroke-width="8" stroke-opacity="0.75" />
<path d="M989.9999999999987,313.8158137384646 L1009.9999999999987,293.0073693557299" stroke="#144c13" fill="none" stroke-width="8" stroke-opacity="0.75" />
<path d="M1029.9999999999986,272.1989249729953 L1049.9999999999986,251.39048059026072" stroke="#144c13" fill="none" stroke-width="8" stroke-opacity="0.75" />
<path d="M1069.9999999999986,230.58203620752602 L1089.9999999999986,209.7735918247913" stroke="#144c13" fill="none" stroke-width="8" stroke-opacity="0.75" />
<path d="M1109.9999999999986,188.9651474420566 L1129.9999999999986,168.1567030593219" stroke="#144c13" fill="none" stroke-width="8" stroke-opacity="0.75" />
</g>
</defs>
<rect x="-5" y="-5" width="1310" height="1310" fill="#ffffff" />
<use xlink:href="#d3" x="50" y="30" />
</svg>