<?xml version="1.0" encoding="UTF-8"?>
<svg xmlns="http://www.w3.org/2000/svg" xmlns:xlink="http://www.w3.org/1999/xlink"
     width="3000" height="3000" viewBox="0 0 1500 1500">
<defs>
<g id="d0">
<path d="M-5.0,0 L-5.0,1010.0" fill="none" stroke="#000000" stroke-width="10.0" stroke-opacity="0.75" />
<path d="M-10.0,1005.0 L1000,1005.0" fill="none" stroke="#000000" stroke-width="10.0" stroke-opacity="0.75" />
<path d="M4.149377593361055,1010.0 L4.149377593361055,1030" fill="none" stroke="#000000" stroke-width="10.0" stroke-opacity="0.75" />
<text x="4.149377593361055" y="1110" font-size="80" text-anchor="middle" fill="#000000" fill-opacity="0.75" font-family="Arial">-20</text>
<path d="M419.0871369294606,1010.0 L419.0871369294606,1030" fill="none" stroke="#000000" stroke-width="10.0" stroke-opacity="0.75" />
<text x="419.0871369294606" y="1110" font-size="80" text-anchor="middle" fill="#000000" fill-opacity="0.75" font-family="Arial">-10</text>
<path d="M834.0248962655602,1010.0 L834.0248962655602,1030" fill="none" stroke="#000000" stroke-width="10.0" stroke-opacity="0.75" />
<text x="834.0248962655602" y="1110" font-size="80" text-anchor="middle" fill="#000000" fill-opacity="0.75" font-family="Arial">0</text>
<path d="M4.149377593361055,0 L4.149377593361055,1000" fill="none" stroke="#1e1e46" stroke-width="7.5" stroke-opacity="0.25" />
<path d="M211.61825726141083,0 L211.61825726141083,1000" fill="none" stroke="#1e1e46" stroke-width="7.5" stroke-opacity="0.25" />
<path d="M419.0871369294606,0 L419.0871369294606,1000" fill="none" stroke="#1e1e46" stroke-width="7.5" stroke-opacity="0.25" />
<path d="M626.5560165975104,0 L626.5560165975104,1000" fill="none" stroke="#1e1e46" stroke-width="7.5" stroke-opacity="0.25" />
<path d="M834.0248962655602,0 L834.0248962655602,1000" fill="none" stroke="#1e1e46" stroke-width="7.5" stroke-opacity="0.25" />
<path d="M-10.0,995.850622406639 L-30,995.850622406639" ill="none" stroke="#000000" stroke-width="10.0" stroke-opacity="0.75" />
<text x="-40" y="1018.850622406639" font-size="80" text-anchor="end" fill="#000000" fill-opacity="0.75" font-family="Arial">-20</text>
<path d="M-10.0,580.9128630705394 L-30,580.9128630705394" ill="none" stroke="#000000" stroke-width="10.0" stroke-opacity="0.75" />
<text x="-40" y="603.9128630705394" font-size="80" text-anchor="end" fill="#000000" fill-opacity="0.75" font-family="Arial">-10</text>
<path d="M-10.0,165.9751037344398 L-30,165.9751037344398" ill="none" stroke="#000000" stroke-width="10.0" stroke-opacity="0.75" />
<text x="-40" y="188.9751037344398" font-size="80" text-anchor="end" fill="#000000" fill-opacity="0.75" font-family="Arial">0</text>
<path d="M0,995.850622406639 L1000,995.850622406639" fill="none" stroke="#1e1e46" stroke-width="7.5" stroke-opacity="0.25" />
<path d="M0,788.3817427385892 L1000,788.3817427385892" fill="none" stroke="#1e1e46" stroke-width="7.5" stroke-opacity="0.25" />
<path d="M0,580.9128630705394 L1000,580.9128630705394" fill="none" stroke="#1e1e46" stroke-width="7.5" stroke-opacity="0.25" />
<path d="M0,373.4439834024896 L1000,373.4439834024896" fill="none" stroke="#1e1e46" stroke-width="7.5" stroke-opacity="0.25" />
<path d="M0,165.9751037344398 L1000,165.9751037344398" fill="none" stroke="#1e1e46" stroke-width="7.5" stroke-opacity="0.25" />
<text x="500.0" y="-75" font-size="120" text-anchor="middle" fill="#000000" fill-opacity="0.75" font-family="Arial">null correction</text>
</g>
<g id="d1">
<circle cx="152.28215767634862" cy="515.4197344641468" r="15" fill="#027f00" opacity="1" stroke="none" />
<circle cx="152.28215767634862" cy="515.4197344641468" r="11.25" fill="none" stroke="#144c13" stroke-width="7.5" stroke-opacity="0.75" />
<circle cx="80.0829875518672" cy="801.2975399919565" r="15" fill="#027f00" opacity="1" stroke="none" />
<circle cx="80.0829875518672" cy="801.2975399919565" r="11.25" fill="none" stroke="#144c13" stroke-width="7.5" stroke-opacity="0.75" />
<circle cx="377.17842323651456" cy="511.70103777493676" r="15" fill="#027f00" opacity="1" stroke="none" />
<circle cx="377.17842323651456" cy="511.70103777493676" r="11.25" fill="none" stroke="#144c13" stroke-width="7.5" stroke-opacity="0.75" />
<circle cx="415.7676348547718" cy="366.23847929768533" r="15" fill="#027f00" opacity="1" stroke="none" />
<circle cx="415.7676348547718" cy="366.23847929768533" r="11.25" fill="none" stroke="#144c13" stroke-width="7.5" stroke-opacity="0.75" />
<circle cx="429.045643153527" cy="489.50181462458056" r="15" fill="#027f00" opacity="1" stroke="none" />
<circle cx="429.045643153527" cy="489.50181462458056" r="11.25" fill="none" stroke="#144c13" stroke-width="7.5" stroke-opacity="0.75" />
<circle cx="435.2697095435685" cy="542.9364833594357" r="15" fill="#027f00" opacity="1" stroke="none" />
<circle cx="435.2697095435685" cy="542.9364833594357" r="11.25" fill="none" stroke="#144c13" stroke-width="7.5" stroke-opacity="0.75" />
<circle cx="441.9087136929461" cy="566.3867807981878" r="15" fill="#027f00" opacity="1" stroke="none" />
<circle cx="441.9087136929461" cy="566.3867807981878" r="11.25" fill="none" stroke="#144c13" stroke-width="7.5" stroke-opacity="0.75" />
<circle cx="452.2821576763486" cy="478.59777553447543" r="15" fill="#027f00" opacity="1" stroke="none" />
<circle cx="452.2821576763486" cy="478.59777553447543" r="11.25" fill="none" stroke="#144c13" stroke-width="7.5" stroke-opacity="0.75" />
<circle cx="467.63485477178426" cy="498.09570629072385" r="15" fill="#027f00" opacity="1" stroke="none" />
<circle cx="467.63485477178426" cy="498.09570629072385" r="11.25" fill="none" stroke="#144c13" stroke-width="7.5" stroke-opacity="0.75" />
<circle cx="502.9045643153527" cy="397.68446530543906" r="15" fill="#027f00" opacity="1" stroke="none" />
<circle cx="502.9045643153527" cy="397.68446530543906" r="11.25" fill="none" stroke="#144c13" stroke-width="7.5" stroke-opacity="0.75" />
<circle cx="519.5020746887967" cy="353.02326392336" r="15" fill="#027f00" opacity="1" stroke="none" />
<circle cx="519.5020746887967" cy="353.02326392336" r="11.25" fill="none" stroke="#144c13" stroke-width="7.5" stroke-opacity="0.75" />
<circle cx="525.7261410788382" cy="367.3557226093973" r="15" fill="#027f00" opacity="1" stroke="none" />
<circle cx="525.7261410788382" cy="367.3557226093973" r="11.25" fill="none" stroke="#144c13" stroke-width="7.5" stroke-opacity="0.75" />
<circle cx="531.5352697095436" cy="427.20664091624656" r="15" fill="#027f00" opacity="1" stroke="none" />
<circle cx="531.5352697095436" cy="427.20664091624656" r="11.25" fill="none" stroke="#144c13" stroke-width="7.5" stroke-opacity="0.75" />
<circle cx="545.2282157676348" cy="398.36238528682975" r="15" fill="#027f00" opacity="1" stroke="none" />
<circle cx="545.2282157676348" cy="398.36238528682975" r="11.25" fill="none" stroke="#144c13" stroke-width="7.5" stroke-opacity="0.75" />
<circle cx="559.3360995850622" cy="444.79243488232623" r="15" fill="#027f00" opacity="1" stroke="none" />
<circle cx="559.3360995850622" cy="444.79243488232623" r="11.25" fill="none" stroke="#144c13" stroke-width="7.5" stroke-opacity="0.75" />
<circle cx="570.9543568464732" cy="345.5039178682066" r="15" fill="#027f00" opacity="1" stroke="none" />
<circle cx="570.9543568464732" cy="345.5039178682066" r="11.25" fill="none" stroke="#144c13" stroke-width="7.5" stroke-opacity="0.75" />
<circle cx="565.9751037344398" cy="413.3893642188108" r="15" fill="#027f00" opacity="1" stroke="none" />
<circle cx="565.9751037344398" cy="413.3893642188108" r="11.25" fill="none" stroke="#144c13" stroke-width="7.5" stroke-opacity="0.75" />
<circle cx="576.7634854771785" cy="398.1241645654702" r="15" fill="#027f00" opacity="1" stroke="none" />
<circle cx="576.7634854771785" cy="398.1241645654702" r="11.25" fill="none" stroke="#144c13" stroke-width="7.5" stroke-opacity="0.75" />
<circle cx="585.0622406639004" cy="330.94069769768294" r="15" fill="#027f00" opacity="1" stroke="none" />
<circle cx="585.0622406639004" cy="330.94069769768294" r="11.25" fill="none" stroke="#144c13" stroke-width="7.5" stroke-opacity="0.75" />
<circle cx="590.0414937759336" cy="438.57028375522725" r="15" fill="#027f00" opacity="1" stroke="none" />
<circle cx="590.0414937759336" cy="438.57028375522725" r="11.25" fill="none" stroke="#144c13" stroke-width="7.5" stroke-opacity="0.75" />
<circle cx="596.6804979253113" cy="357.40502147753705" r="15" fill="#027f00" opacity="1" stroke="none" />
<circle cx="596.6804979253113" cy="357.40502147753705" r="11.25" fill="none" stroke="#144c13" stroke-width="7.5" stroke-opacity="0.75" />
<circle cx="596.2655601659751" cy="304.98228627121796" r="15" fill="#027f00" opacity="1" stroke="none" />
<circle cx="596.2655601659751" cy="304.98228627121796" r="11.25" fill="none" stroke="#144c13" stroke-width="7.5" stroke-opacity="0.75" />
<circle cx="612.8630705394191" cy="362.0758887643141" r="15" fill="#027f00" opacity="1" stroke="none" />
<circle cx="612.8630705394191" cy="362.0758887643141" r="11.25" fill="none" stroke="#144c13" stroke-width="7.5" stroke-opacity="0.75" />
<circle cx="622.4066390041494" cy="343.09903615737846" r="15" fill="#027f00" opacity="1" stroke="none" />
<circle cx="622.4066390041494" cy="343.09903615737846" r="11.25" fill="none" stroke="#144c13" stroke-width="7.5" stroke-opacity="0.75" />
<circle cx="624.066390041494" cy="326.2425458282851" r="15" fill="#027f00" opacity="1" stroke="none" />
<circle cx="624.066390041494" cy="326.2425458282851" r="11.25" fill="none" stroke="#144c13" stroke-width="7.5" stroke-opacity="0.75" />
<circle cx="631.9502074688796" cy="384.69322489504987" r="15" fill="#027f00" opacity="1" stroke="none" />
<circle cx="631.9502074688796" cy="384.69322489504987" r="11.25" fill="none" stroke="#144c13" stroke-width="7.5" stroke-opacity="0.75" />
<circle cx="631.9502074688796" cy="338.4699959972587" r="15" fill="#027f00" opacity="1" stroke="none" />
<circle cx="631.9502074688796" cy="338.4699959972587" r="11.25" fill="none" stroke="#144c13" stroke-width="7.5" stroke-opacity="0.75" />
<circle cx="638.1742738589212" cy="355.45628100509964" r="15" fill="#027f00" opacity="1" stroke="none" />
<circle cx="638.1742738589212" cy="355.45628100509964" r="11.25" fill="none" stroke="#144c13" stroke-width="7.5" stroke-opacity="0.75" />
<circle cx="639.8340248962656" cy="422.2431024575134" r="15" fill="#027f00" opacity="1" stroke="none" />
<circle cx="639.8340248962656" cy="422.2431024575134" r="11.25" fill="none" stroke="#144c13" stroke-width="7.5" stroke-opacity="0.75" />
<circle cx="646.8879668049793" cy="271.10964430812976" r="15" fill="#027f00" opacity="1" stroke="none" />
<circle cx="646.8879668049793" cy="271.10964430812976" r="11.25" fill="none" stroke="#144c13" stroke-width="7.5" stroke-opacity="0.75" />
<circle cx="649.792531120332" cy="392.88540598762484" r="15" fill="#027f00" opacity="1" stroke="none" />
<circle cx="649.792531120332" cy="392.88540598762484" r="11.25" fill="none" stroke="#144c13" stroke-width="7.5" stroke-opacity="0.75" />
<circle cx="647.3029045643154" cy="364.30139264625143" r="15" fill="#027f00" opacity="1" stroke="none" />
<circle cx="647.3029045643154" cy="364.30139264625143" r="11.25" fill="none" stroke="#144c13" stroke-width="7.5" stroke-opacity="0.75" />
<circle cx="654.356846473029" cy="316.4572933402794" r="15" fill="#027f00" opacity="1" stroke="none" />
<circle cx="654.356846473029" cy="316.4572933402794" r="11.25" fill="none" stroke="#144c13" stroke-width="7.5" stroke-opacity="0.75" />
<circle cx="656.0165975103735" cy="314.5720058456991" r="15" fill="#027f00" opacity="1" stroke="none" />
<circle cx="656.0165975103735" cy="314.5720058456991" r="11.25" fill="none" stroke="#144c13" stroke-width="7.5" stroke-opacity="0.75" />
<circle cx="663.0705394190871" cy="310.8435844484702" r="15" fill="#027f00" opacity="1" stroke="none" />
<circle cx="663.0705394190871" cy="310.8435844484702" r="11.25" fill="none" stroke="#144c13" stroke-width="7.5" stroke-opacity="0.75" />
<circle cx="670.1244813278009" cy="329.2586496756778" r="15" fill="#027f00" opacity="1" stroke="none" />
<circle cx="670.1244813278009" cy="329.2586496756778" r="11.25" fill="none" stroke="#144c13" stroke-width="7.5" stroke-opacity="0.75" />
<circle cx="668.0497925311204" cy="307.89186351032174" r="15" fill="#027f00" opacity="1" stroke="none" />
<circle cx="668.0497925311204" cy="307.89186351032174" r="11.25" fill="none" stroke="#144c13" stroke-width="7.5" stroke-opacity="0.75" />
<circle cx="674.688796680498" cy="270.79469435442525" r="15" fill="#027f00" opacity="1" stroke="none" />
<circle cx="674.688796680498" cy="270.79469435442525" r="11.25" fill="none" stroke="#144c13" stroke-width="7.5" stroke-opacity="0.75" />
<circle cx="676.3485477178424" cy="333.81725247964823" r="15" fill="#027f00" opacity="1" stroke="none" />
<circle cx="676.3485477178424" cy="333.81725247964823" r="11.25" fill="none" stroke="#144c13" stroke-width="7.5" stroke-opacity="0.75" />
<circle cx="682.572614107884" cy="323.3837586715508" r="15" fill="#027f00" opacity="1" stroke="none" />
<circle cx="682.572614107884" cy="323.3837586715508" r="11.25" fill="none" stroke="#144c13" stroke-width="7.5" stroke-opacity="0.75" />
<circle cx="684.2323651452282" cy="252.04922648386344" r="15" fill="#027f00" opacity="1" stroke="none" />
<circle cx="684.2323651452282" cy="252.04922648386344" r="11.25" fill="none" stroke="#144c13" stroke-width="7.5" stroke-opacity="0.75" />
<circle cx="691.2863070539419" cy="252.35484744503287" r="15" fill="#027f00" opacity="1" stroke="none" />
<circle cx="691.2863070539419" cy="252.35484744503287" r="11.25" fill="none" stroke="#144c13" stroke-width="7.5" stroke-opacity="0.75" />
<circle cx="695.0207468879668" cy="308.83281557391786" r="15" fill="#027f00" opacity="1" stroke="none" />
<circle cx="695.0207468879668" cy="308.83281557391786" r="11.25" fill="none" stroke="#144c13" stroke-width="7.5" stroke-opacity="0.75" />
<circle cx="703.3195020746889" cy="294.415515488114" r="15" fill="#027f00" opacity="1" stroke="none" />
<circle cx="703.3195020746889" cy="294.415515488114" r="11.25" fill="none" stroke="#144c13" stroke-width="7.5" stroke-opacity="0.75" />
<circle cx="707.8838174273859" cy="269.93163888385186" r="15" fill="#027f00" opacity="1" stroke="none" />
<circle cx="707.8838174273859" cy="269.93163888385186" r="11.25" fill="none" stroke="#144c13" stroke-width="7.5" stroke-opacity="0.75" />
<circle cx="703.3195020746889" cy="286.87180325203406" r="15" fill="#027f00" opacity="1" stroke="none" />
<circle cx="703.3195020746889" cy="286.87180325203406" r="11.25" fill="none" stroke="#144c13" stroke-width="7.5" stroke-opacity="0.75" />
<circle cx="710.3734439834025" cy="283.4145458902067" r="15" fill="#027f00" opacity="1" stroke="none" />
<circle cx="710.3734439834025" cy="283.4145458902067" r="11.25" fill="none" stroke="#144c13" stroke-width="7.5" stroke-opacity="0.75" />
<circle cx="717.4273858921163" cy="271.2432675341847" r="15" fill="#027f00" opacity="1" stroke="none" />
<circle cx="717.4273858921163" cy="271.2432675341847" r="11.25" fill="none" stroke="#144c13" stroke-width="7.5" stroke-opacity="0.75" />
<circle cx="723.2365145228216" cy="269.5212918198455" r="15" fill="#027f00" opacity="1" stroke="none" />
<circle cx="723.2365145228216" cy="269.5212918198455" r="11.25" fill="none" stroke="#144c13" stroke-width="7.5" stroke-opacity="0.75" />
<circle cx="730.7053941908713" cy="257.02667434185867" r="15" fill="#027f00" opacity="1" stroke="none" />
<circle cx="730.7053941908713" cy="257.02667434185867" r="11.25" fill="none" stroke="#144c13" stroke-width="7.5" stroke-opacity="0.75" />
<circle cx="730.7053941908713" cy="258.866800806829" r="15" fill="#027f00" opacity="1" stroke="none" />
<circle cx="730.7053941908713" cy="258.866800806829" r="11.25" fill="none" stroke="#144c13" stroke-width="7.5" stroke-opacity="0.75" />
<circle cx="730.7053941908713" cy="256.50026392639916" r="15" fill="#027f00" opacity="1" stroke="none" />
<circle cx="730.7053941908713" cy="256.50026392639916" r="11.25" fill="none" stroke="#144c13" stroke-width="7.5" stroke-opacity="0.75" />
<circle cx="734.4398340248963" cy="273.02042577276586" r="15" fill="#027f00" opacity="1" stroke="none" />
<circle cx="734.4398340248963" cy="273.02042577276586" r="11.25" fill="none" stroke="#144c13" stroke-width="7.5" stroke-opacity="0.75" />
<circle cx="742.3236514522822" cy="237.50860166747532" r="15" fill="#027f00" opacity="1" stroke="none" />
<circle cx="742.3236514522822" cy="237.50860166747532" r="11.25" fill="none" stroke="#144c13" stroke-width="7.5" stroke-opacity="0.75" />
<circle cx="745.643153526971" cy="238.7906307996061" r="15" fill="#027f00" opacity="1" stroke="none" />
<circle cx="745.643153526971" cy="238.7906307996061" r="11.25" fill="none" stroke="#144c13" stroke-width="7.5" stroke-opacity="0.75" />
<circle cx="746.8879668049792" cy="240.75764838096018" r="15" fill="#027f00" opacity="1" stroke="none" />
<circle cx="746.8879668049792" cy="240.75764838096018" r="11.25" fill="none" stroke="#144c13" stroke-width="7.5" stroke-opacity="0.75" />
<circle cx="756.0165975103736" cy="259.22220277588394" r="15" fill="#027f00" opacity="1" stroke="none" />
<circle cx="756.0165975103736" cy="259.22220277588394" r="11.25" fill="none" stroke="#144c13" stroke-width="7.5" stroke-opacity="0.75" />
<circle cx="759.7510373443985" cy="224.08757961637252" r="15" fill="#027f00" opacity="1" stroke="none" />
<circle cx="759.7510373443985" cy="224.08757961637252" r="11.25" fill="none" stroke="#144c13" stroke-width="7.5" stroke-opacity="0.75" />
<circle cx="773.8589211618257" cy="279.13695054430184" r="15" fill="#027f00" opacity="1" stroke="none" />
<circle cx="773.8589211618257" cy="279.13695054430184" r="11.25" fill="none" stroke="#144c13" stroke-width="7.5" stroke-opacity="0.75" />
<circle cx="780.9128630705394" cy="204.85540148628206" r="15" fill="#027f00" opacity="1" stroke="none" />
<circle cx="780.9128630705394" cy="204.85540148628206" r="11.25" fill="none" stroke="#144c13" stroke-width="7.5" stroke-opacity="0.75" />
<circle cx="781.3278008298755" cy="219.8819006132386" r="15" fill="#027f00" opacity="1" stroke="none" />
<circle cx="781.3278008298755" cy="219.8819006132386" r="11.25" fill="none" stroke="#144c13" stroke-width="7.5" stroke-opacity="0.75" />
<circle cx="787.551867219917" cy="228.96648937241173" r="15" fill="#027f00" opacity="1" stroke="none" />
<circle cx="787.551867219917" cy="228.96648937241173" r="11.25" fill="none" stroke="#144c13" stroke-width="7.5" stroke-opacity="0.75" />
<circle cx="792.1161825726141" cy="228.0257005414528" r="15" fill="#027f00" opacity="1" stroke="none" />
<circle cx="792.1161825726141" cy="228.0257005414528" r="11.25" fill="none" stroke="#144c13" stroke-width="7.5" stroke-opacity="0.75" />
<circle cx="800.8298755186721" cy="213.80940413573967" r="15" fill="#027f00" opacity="1" stroke="none" />
<circle cx="800.8298755186721" cy="213.80940413573967" r="11.25" fill="none" stroke="#144c13" stroke-width="7.5" stroke-opacity="0.75" />
<circle cx="800.8298755186721" cy="220.48113751708217" r="15" fill="#027f00" opacity="1" stroke="none" />
<circle cx="800.8298755186721" cy="220.48113751708217" r="11.25" fill="none" stroke="#144c13" stroke-width="7.5" stroke-opacity="0.75" />
<circle cx="802.0746887966806" cy="226.28166368888128" r="15" fill="#027f00" opacity="1" stroke="none" />
<circle cx="802.0746887966806" cy="226.28166368888128" r="11.25" fill="none" stroke="#144c13" stroke-width="7.5" stroke-opacity="0.75" />
<circle cx="811.2033195020747" cy="190.97333132478695" r="15" fill="#027f00" opacity="1" stroke="none" />
<circle cx="811.2033195020747" cy="190.97333132478695" r="11.25" fill="none" stroke="#144c13" stroke-width="7.5" stroke-opacity="0.75" />
<circle cx="815.3526970954357" cy="188.52385495213548" r="15" fill="#027f00" opacity="1" stroke="none" />
<circle cx="815.3526970954357" cy="188.52385495213548" r="11.25" fill="none" stroke="#144c13" stroke-width="7.5" stroke-opacity="0.75" />
<circle cx="828.2157676348547" cy="169.184270983415" r="15" fill="#027f00" opacity="1" stroke="none" />
<circle cx="828.2157676348547" cy="169.184270983415" r="11.25" fill="none" stroke="#144c13" stroke-width="7.5" stroke-opacity="0.75" />
<circle cx="829.8755186721991" cy="176.40180360232148" r="15" fill="#027f00" opacity="1" stroke="none" />
<circle cx="829.8755186721991" cy="176.40180360232148" r="11.25" fill="none" stroke="#144c13" stroke-width="7.5" stroke-opacity="0.75" />
<circle cx="834.4398340248963" cy="161.71963383053344" r="15" fill="#027f00" opacity="1" stroke="none" />
<circle cx="834.4398340248963" cy="161.71963383053344" r="11.25" fill="none" stroke="#144c13" stroke-width="7.5" stroke-opacity="0.75" />
<circle cx="837.3443983402489" cy="211.48315109157954" r="15" fill="#027f00" opacity="1" stroke="none" />
<circle cx="837.3443983402489" cy="211.48315109157954" r="11.25" fill="none" stroke="#144c13" stroke-width="7.5" stroke-opacity="0.75" />
<circle cx="857.2614107883817" cy="203.19931240002643" r="15" fill="#027f00" opacity="1" stroke="none" />
<circle cx="857.2614107883817" cy="203.19931240002643" r="11.25" fill="none" stroke="#144c13" stroke-width="7.5" stroke-opacity="0.75" />
<circle cx="883.8174273858921" cy="184.50251258755122" r="15" fill="#027f00" opacity="1" stroke="none" />
<circle cx="883.8174273858921" cy="184.50251258755122" r="11.25" fill="none" stroke="#144c13" stroke-width="7.5" stroke-opacity="0.75" />
<circle cx="902.9045643153527" cy="122.58271953376982" r="15" fill="#027f00" opacity="1" stroke="none" />
<circle cx="902.9045643153527" cy="122.58271953376982" r="11.25" fill="none" stroke="#144c13" stroke-width="7.5" stroke-opacity="0.75" />
<circle cx="888.7966804979254" cy="128.33149106670714" r="15" fill="#027f00" opacity="1" stroke="none" />
<circle cx="888.7966804979254" cy="128.33149106670714" r="11.25" fill="none" stroke="#144c13" stroke-width="7.5" stroke-opacity="0.75" />
<circle cx="903.7344398340249" cy="134.84514105864082" r="15" fill="#027f00" opacity="1" stroke="none" />
<circle cx="903.7344398340249" cy="134.84514105864082" r="11.25" fill="none" stroke="#144c13" stroke-width="7.5" stroke-opacity="0.75" />
<circle cx="931.1203319502075" cy="85.39248798892709" r="15" fill="#027f00" opacity="1" stroke="none" />
<circle cx="931.1203319502075" cy="85.39248798892709" r="11.25" fill="none" stroke="#144c13" stroke-width="7.5" stroke-opacity="0.75" />
<circle cx="951.4522821576763" cy="90.98297827471333" r="15" fill="#027f00" opacity="1" stroke="none" />
<circle cx="951.4522821576763" cy="90.98297827471333" r="11.25" fill="none" stroke="#144c13" stroke-width="7.5" stroke-opacity="0.75" />
<circle cx="953.941908713693" cy="81.27553829018996" r="15" fill="#027f00" opacity="1" stroke="none" />
<circle cx="953.941908713693" cy="81.27553829018996" r="11.25" fill="none" stroke="#144c13" stroke-width="7.5" stroke-opacity="0.75" />
</g>
<g id="d2">
<path d="M150.0,1150.0 L1150.0,150.0" fill="none" opacity="0.5" stroke="#000000" stroke-width="16" />
<use xlink:href="#d0" x="150.0" y="150.0" />
<use xlink:href="#d1" x="150.0" y="150.0" />
<path d="M150.0,315.9751037344398 L169.99999999999997,315.9751037344398" stroke="#992626" fill="none" stroke-width="8" stroke-opacity="0.75" />
<path d="M189.99999999999994,315.9751037344398 L209.99999999999991,315.9751037344398" stroke="#992626" fill="none" stroke-width="8" stroke-opacity="0.75" />
<path d="M229.9999999999999,315.9751037344398 L249.99999999999986,315.9751037344398" stroke="#992626" fill="none" stroke-width="8" stroke-opacity="0.75" />
<path d="M269.99999999999983,315.9751037344398 L289.9999999999998,315.9751037344398" stroke="#992626" fill="none" stroke-width="8" stroke-opacity="0.75" />
<path d="M309.9999999999998,315.9751037344398 L329.9999999999998,315.9751037344398" stroke="#992626" fill="none" stroke-width="8" stroke-opacity="0.75" />
<path d="M349.9999999999997,315.9751037344398 L369.99999999999966,315.9751037344398" stroke="#992626" fill="none" stroke-width="8" stroke-opacity="0.75" />
<path d="M389.99999999999966,315.9751037344398 L409.9999999999996,315.9751037344398" stroke="#992626" fill="none" stroke-width="8" stroke-opacity="0.75" />
<path d="M429.9999999999996,315.9751037344398 L449.99999999999955,315.9751037344398" stroke="#992626" fill="none" stroke-width="8" stroke-opacity="0.75" />
<path d="M469.9999999999995,315.9751037344398 L489.99999999999955,315.9751037344398" stroke="#992626" fill="none" stroke-width="8" stroke-opacity="0.75" />
<path d="M509.9999999999995,315.9751037344398 L529.9999999999994,315.9751037344398" stroke="#992626" fill="none" stroke-width="8" stroke-opacity="0.75" />
<path d="M549.9999999999994,315.9751037344398 L569.9999999999993,315.9751037344398" stroke="#992626" fill="none" stroke-width="8" stroke-opacity="0.75" />
<path d="M589.9999999999993,315.9751037344398 L609.9999999999993,315.9751037344398" stroke="#992626" fill="none" stroke-width="8" stroke-opacity="0.75" />
<path d="M629.9999999999993,315.9751037344398 L649.9999999999993,315.9751037344398" stroke="#992626" fill="none" stroke-width="8" stroke-opacity="0.75" />
<path d="M669.9999999999992,315.9751037344398 L689.9999999999992,315.9751037344398" stroke="#992626" fill="none" stroke-width="8" stroke-opacity="0.75" />
<path d="M709.9999999999992,315.9751037344398 L729.9999999999992,315.9751037344398" stroke="#992626" fill="none" stroke-width="8" stroke-opacity="0.75" />
<path d="M749.9999999999991,315.9751037344398 L769.9999999999991,315.9751037344398" stroke="#992626" fill="none" stroke-width="8" stroke-opacity="0.75" />
<path d="M789.999999999999,315.9751037344398 L809.999999999999,315.9751037344398" stroke="#992626" fill="none" stroke-width="8" stroke-opacity="0.75" />
<path d="M829.9999999999991,315.9751037344398 L849.999999999999,315.9751037344398" stroke="#992626" fill="none" stroke-width="8" stroke-opacity="0.75" />
<path d="M869.999999999999,315.9751037344398 L889.9999999999989,315.9751037344398" stroke="#992626" fill="none" stroke-width="8" stroke-opacity="0.75" />
<path d="M909.9999999999989,315.9751037344398 L929.9999999999987,315.9751037344398" stroke="#992626" fill="none" stroke-width="8" stroke-opacity="0.75" />
<path d="M949.9999999999989,315.9751037344398 L969.9999999999989,315.9751037344398" stroke="#992626" fill="none" stroke-width="8" stroke-opacity="0.75" />
<path d="M989.9999999999987,315.9751037344398 L1009.9999999999987,315.9751037344398" stroke="#992626" fill="none" stroke-width="8" stroke-opacity="0.75" />
<path d="M1029.9999999999986,315.9751037344398 L1049.9999999999986,315.9751037344398" stroke="#992626" fill="none" stroke-width="8" stroke-opacity="0.75" />
<path d="M1069.9999999999986,315.9751037344398 L1089.9999999999986,315.9751037344398" stroke="#992626" fill="none" stroke-width="8" stroke-opacity="0.75" />
<path d="M1109.9999999999986,315.9751037344398 L1129.9999999999986,315.9751037344398" stroke="#992626" fill="none" stroke-width="8" stroke-opacity="0.75" />
<path d="M150.0,938.522901770851 L169.99999999999997,924.1723797152679" stroke="#144c13" fill="none" stroke-width="8" stroke-opacity="0.75" />
<path d="M189.99999999999994,909.8218576596848 L209.99999999999991,895.4713356041018" stroke="#144c13" fill="none" stroke-width="8" stroke-opacity="0.75" />
<path d="M229.9999999999999,881.1208135485185 L249.99999999999986,866.7702914929354" stroke="#144c13" fill="none" stroke-width="8" stroke-opacity="0.75" />
<path d="M269.99999999999983,852.4197694373522 L289.9999999999998,838.0692473817692" stroke="#144c13" fill="none" stroke-width="8" stroke-opacity="0.75" />
<path d="M309.9999999999998,823.7187253261859 L329.9999999999998,809.3682032706029" stroke="#144c13" fill="none" stroke-width="8" stroke-opacity="0.75" />
<path d="M349.9999999999997,795.0176812150197 L369.99999999999966,780.6671591594366" stroke="#144c13" fill="none" stroke-width="8" stroke-opacity="0.75" />
<path d="M389.99999999999966,766.3166371038534 L409.9999999999996,751.9661150482702" stroke="#144c13" fill="none" stroke-width="8" stroke-opacity="0.75" />
<path d="M429.9999999999996,737.6155929926872 L449.99999999999955,723.2650709371039" stroke="#144c13" fill="none" stroke-width="8" stroke-opacity="0.75" />
<path d="M469.9999999999995,708.9145488815209 L489.99999999999955,694.5640268259376" stroke="#144c13" fill="none" stroke-width="8" stroke-opacity="0.75" />
<path d="M509.9999999999995,680.2135047703546 L529.9999999999994,665.8629827147713" stroke="#144c13" fill="none" stroke-width="8" stroke-opacity="0.75" />
<path d="M549.9999999999994,651.5124606591883 L569.9999999999993,637.1619386036051" stroke="#144c13" fill="none" stroke-width="8" stroke-opacity="0.75" />
<path d="M589.9999999999993,622.811416548022 L609.9999999999993,608.4608944924389" stroke="#144c13" fill="none" stroke-width="8" stroke-opacity="0.75" />
<path d="M629.9999999999993,594.1103724368556 L649.9999999999993,579.7598503812725" stroke="#144c13" fill="none" stroke-width="8" stroke-opacity="0.75" />
<path d="M669.9999999999992,565.4093283256894 L689.9999999999992,551.0588062701063" stroke="#144c13" fill="none" stroke-width="8" stroke-opacity="0.75" />
<path d="M709.9999999999992,536.7082842145231 L729.9999999999992,522.35776215894" stroke="#144c13" fill="none" stroke-width="8" stroke-opacity="0.75" />
<path d="M749.9999999999991,508.0072401033568 L769.9999999999991,493.6567180477738" stroke="#144c13" fill="none" stroke-width="8" stroke-opacity="0.75" />
<path d="M789.999999999999,479.3061959921906 L809.999999999999,464.95567393660724" stroke="#144c13" fill="none" stroke-width="8" stroke-opacity="0.75" />
<path d="M829.9999999999991,450.6051518810243 L849.999999999999,436.25462982544104" stroke="#144c13" fill="none" stroke-width="8" stroke-opacity="0.75" />
<path d="M869.999999999999,421.9041077698581 L889.9999999999989,407.55358571427473" stroke="#144c13" fill="none" stroke-width="8" stroke-opacity="0.75" />
<path d="M909.9999999999989,393.2030636586917 L929.9999999999987,378.85254160310853" stroke="#144c13" fill="none" stroke-width="8" stroke-opacity="0.75" />
<path d="M949.9999999999989,364.5020195475254 L969.9999999999989,350.1514974919422" stroke="#144c13" fill="none" stroke-width="8" stroke-opacity="0.75" />
<path d="M989.9999999999987,335.80097543635907 L1009.9999999999987,321.450453380776" stroke="#144c13" fill="none" stroke-width="8" stroke-opacity="0.75" />
<path d="M1029.9999999999986,307.09993132519287 L1049.9999999999986,292.7494092696097" stroke="#144c13" fill="none" stroke-width="8" stroke-opacity="0.75" />
<path d="M1069.9999999999986,278.39888721402656 L1089.9999999999986,264.0483651584434" stroke="#144c13" fill="none" stroke-width="8" stroke-opacity="0.75" />
<path d="M1109.9999999999986,249.69784310286036 L1129.9999999999986,235.3473210472772" stroke="#144c13" fill="none" stroke-width="8" stroke-opacity="0.75" />
<text x="650.0" y="1350" font-size="110" text-anchor="middle" font-family="Arial" fill="#000000" opacity="0.75">experiment (kcal/mol)</text>
<g>
<text x="-650.0" y="-50" font-size="125" transform="rotate(-90)" text-anchor="middle" fill="#000000" opacity="0.75" font-family="Arial">model (kcal/mol)</text>
</g>
</g>
</defs>
<rect x="-10" y="-10" width="1520" height="1520" fill="#ffffff" />
<use xlink:href="#d2" x="200" y="100" />
</svg>