<?xml version="1.0" encoding="UTF-8"?>
<svg xmlns="http://www.w3.org/2000/svg" xmlns:xlink="http://www.w3.org/1999/xlink"
     width="3000" height="3000" viewBox="0 0 1500 1500">
<defs>
<g id="d0">
<path d="M-5.0,0 L-5.0,1010.0" fill="none" stroke="#000000" stroke-width="10.0" stroke-opacity="0.75" />
<path d="M-10.0,1005.0 L1000,1005.0" fill="none" stroke="#000000" stroke-width="10.0" stroke-opacity="0.75" />
<path d="M4.149377593361055,1010.0 L4.149377593361055,1030" fill="none" stroke="#000000" stroke-width="10.0" stroke-opacity="0.75" />
<text x="4.149377593361055" y="1110" font-size="80" text-anchor="middle" fill="#000000" fill-opacity="0.75" font-family="Arial">-20</text>
<path d="M419.0871369294606,1010.0 L419.0871369294606,1030" fill="none" stroke="#000000" stroke-width="10.0" stroke-opacity="0.75" />
<text x="419.0871369294606" y="1110" font-size="80" text-anchor="middle" fill="#000000" fill-opacity="0.75" font-family="Arial">-10</text>
<path d="M834.0248962655602,1010.0 L834.0248962655602,1030" fill="none" stroke="#000000" stroke-width="10.0" stroke-opacity="0.75" />
<text x="834.0248962655602" y="1110" font-size="80" text-anchor="middle" fill="#000000" fill-opacity="0.75" font-family="Arial">0</text>
<path d="M4.149377593361055,0 L4.149377593361055,1000" fill="none" stroke="#1e1e46" stroke-width="7.5" stroke-opacity="0.25" />
<path d="M211.61825726141083,0 L211.61825726141083,1000" fill="none" stroke="#1e1e46" stroke-width="7.5" stroke-opacity="0.25" />
<path d="M419.0871369294606,0 L419.0871369294606,1000" fill="none" stroke="#1e1e46" stroke-width="7.5" stroke-opacity="0.25" />
<path d="M626.5560165975104,0 L626.5560165975104,1000" fill="none" stroke="#1e1e46" stroke-width="7.5" stroke-opacity="0.25" />
<path d="M834.0248962655602,0 L834.0248962655602,1000" fill="none" stroke="#1e1e46" stroke-width="7.5" stroke-opacity="0.25" />
<path d="M-10.0,995.850622406639 L-30,995.850622406639" ill="none" stroke="#000000" stroke-width="10.0" stroke-opacity="0.75" />
<text x="-40" y="1018.850622406639" font-size="80" text-anchor="end" fill="#000000" fill-opacity="0.75" font-family="Arial">-20</text>
<path d="M-10.0,580.9128630705394 L-30,580.9128630705394" ill="none" stroke="#000000" stroke-width="10.0" stroke-opacity="0.75" />
<text x="-40" y="603.9128630705394" font-size="80" text-anchor="end" fill="#000000" fill-opacity="0.75" font-family="Arial">-10</text>
<path d="M-10.0,165.9751037344398 L-30,165.9751037344398" ill="none" stroke="#000000" stroke-width="10.0" stroke-opacity="0.75" />
<text x="-40" y="188.9751037344398" font-size="80" text-anchor="end" fill="#000000" fill-opacity="0.75" font-family="Arial">0</text>
<path d="M0,995.850622406639 L1000,995.850622406639" fill="none" stroke="#1e1e46" stroke-width="7.5" stroke-opacity="0.25" />
<path d="M0,788.3817427385892 L1000,788.3817427385892" fill="none" stroke="#1e1e46" stroke-width="7.5" stroke-opacity="0.25" />
<path d="M0,580.9128630705394 L1000,580.9128630705394" fill="none" stroke="#1e1e46" stroke-width="7.5" stroke-opacity="0.25" />
<path d="M0,373.4439834024896 L1000,373.4439834024896" fill="none" stroke="#1e1e46" stroke-width="7.5" stroke-opacity="0.25" />
<path d="M0,165.9751037344398 L1000,165.9751037344398" fill="none" stroke="#1e1e46" stroke-width="7.5" stroke-opacity="0.25" />
<text x="500.0" y="-75" font-size="120" text-anchor="middle" fill="#000000" fill-opacity="0.75" font-family="Arial">null model correction</text>
</g>
<g id="d1">
<circle cx="152.28215767634862" cy="477.3532107657911" r="15" fill="#027f00" opacity="1" stroke="none" />
<circle cx="152.28215767634862" cy="477.3532107657911" r="11.25" fill="none" stroke="#144c13" stroke-width="7.5" stroke-opacity="0.75" />
<circle cx="80.0829875518672" cy="767.583609616608" r="15" fill="#027f00" opacity="1" stroke="none" />
<circle cx="80.0829875518672" cy="767.583609616608" r="11.25" fill="none" stroke="#144c13" stroke-width="7.5" stroke-opacity="0.75" />
<circle cx="377.17842323651456" cy="451.1347252303633" r="15" fill="#027f00" opacity="1" stroke="none" />
<circle cx="377.17842323651456" cy="451.1347252303633" r="11.25" fill="none" stroke="#144c13" stroke-width="7.5" stroke-opacity="0.75" />
<circle cx="415.7676348547718" cy="306.36494585092635" r="15" fill="#027f00" opacity="1" stroke="none" />
<circle cx="415.7676348547718" cy="306.36494585092635" r="11.25" fill="none" stroke="#144c13" stroke-width="7.5" stroke-opacity="0.75" />
<circle cx="429.045643153527" cy="432.9204559326172" r="15" fill="#027f00" opacity="1" stroke="none" />
<circle cx="429.045643153527" cy="432.9204559326172" r="11.25" fill="none" stroke="#144c13" stroke-width="7.5" stroke-opacity="0.75" />
<circle cx="435.2697095435685" cy="520.6929994321957" r="15" fill="#027f00" opacity="1" stroke="none" />
<circle cx="435.2697095435685" cy="520.6929994321957" r="11.25" fill="none" stroke="#144c13" stroke-width="7.5" stroke-opacity="0.75" />
<circle cx="441.9087136929461" cy="489.5114107250672" r="15" fill="#027f00" opacity="1" stroke="none" />
<circle cx="441.9087136929461" cy="489.5114107250672" r="11.25" fill="none" stroke="#144c13" stroke-width="7.5" stroke-opacity="0.75" />
<circle cx="452.2821576763486" cy="421.4785405709041" r="15" fill="#027f00" opacity="1" stroke="none" />
<circle cx="452.2821576763486" cy="421.4785405709041" r="11.25" fill="none" stroke="#144c13" stroke-width="7.5" stroke-opacity="0.75" />
<circle cx="467.63485477178426" cy="465.9140654124659" r="15" fill="#027f00" opacity="1" stroke="none" />
<circle cx="467.63485477178426" cy="465.9140654124659" r="11.25" fill="none" stroke="#144c13" stroke-width="7.5" stroke-opacity="0.75" />
<circle cx="502.9045643153527" cy="336.2188893235076" r="15" fill="#027f00" opacity="1" stroke="none" />
<circle cx="502.9045643153527" cy="336.2188893235076" r="11.25" fill="none" stroke="#144c13" stroke-width="7.5" stroke-opacity="0.75" />
<circle cx="519.5020746887967" cy="342.5662052581914" r="15" fill="#027f00" opacity="1" stroke="none" />
<circle cx="519.5020746887967" cy="342.5662052581914" r="11.25" fill="none" stroke="#144c13" stroke-width="7.5" stroke-opacity="0.75" />
<circle cx="525.7261410788382" cy="338.37755686019955" r="15" fill="#027f00" opacity="1" stroke="none" />
<circle cx="525.7261410788382" cy="338.37755686019955" r="11.25" fill="none" stroke="#144c13" stroke-width="7.5" stroke-opacity="0.75" />
<circle cx="531.5352697095436" cy="389.85240508906577" r="15" fill="#027f00" opacity="1" stroke="none" />
<circle cx="531.5352697095436" cy="389.85240508906577" r="11.25" fill="none" stroke="#144c13" stroke-width="7.5" stroke-opacity="0.75" />
<circle cx="545.2282157676348" cy="370.92032768914305" r="15" fill="#027f00" opacity="1" stroke="none" />
<circle cx="545.2282157676348" cy="370.92032768914305" r="11.25" fill="none" stroke="#144c13" stroke-width="7.5" stroke-opacity="0.75" />
<circle cx="559.3360995850622" cy="415.11684037837733" r="15" fill="#027f00" opacity="1" stroke="none" />
<circle cx="559.3360995850622" cy="415.11684037837733" r="11.25" fill="none" stroke="#144c13" stroke-width="7.5" stroke-opacity="0.75" />
<circle cx="570.9543568464732" cy="328.77465996010164" r="15" fill="#027f00" opacity="1" stroke="none" />
<circle cx="570.9543568464732" cy="328.77465996010164" r="11.25" fill="none" stroke="#144c13" stroke-width="7.5" stroke-opacity="0.75" />
<circle cx="565.9751037344398" cy="399.6434745946859" r="15" fill="#027f00" opacity="1" stroke="none" />
<circle cx="565.9751037344398" cy="399.6434745946859" r="11.25" fill="none" stroke="#144c13" stroke-width="7.5" stroke-opacity="0.75" />
<circle cx="576.7634854771785" cy="382.4738743888887" r="15" fill="#027f00" opacity="1" stroke="none" />
<circle cx="576.7634854771785" cy="382.4738743888887" r="11.25" fill="none" stroke="#144c13" stroke-width="7.5" stroke-opacity="0.75" />
<circle cx="585.0622406639004" cy="361.21872945445216" r="15" fill="#027f00" opacity="1" stroke="none" />
<circle cx="585.0622406639004" cy="361.21872945445216" r="11.25" fill="none" stroke="#144c13" stroke-width="7.5" stroke-opacity="0.75" />
<circle cx="590.0414937759336" cy="426.7228589512995" r="15" fill="#027f00" opacity="1" stroke="none" />
<circle cx="590.0414937759336" cy="426.7228589512995" r="11.25" fill="none" stroke="#144c13" stroke-width="7.5" stroke-opacity="0.75" />
<circle cx="596.6804979253113" cy="339.5817586495174" r="15" fill="#027f00" opacity="1" stroke="none" />
<circle cx="596.6804979253113" cy="339.5817586495174" r="11.25" fill="none" stroke="#144c13" stroke-width="7.5" stroke-opacity="0.75" />
<circle cx="596.2655601659751" cy="343.0848695430518" r="15" fill="#027f00" opacity="1" stroke="none" />
<circle cx="596.2655601659751" cy="343.0848695430518" r="11.25" fill="none" stroke="#144c13" stroke-width="7.5" stroke-opacity="0.75" />
<circle cx="612.8630705394191" cy="339.78226768525315" r="15" fill="#027f00" opacity="1" stroke="none" />
<circle cx="612.8630705394191" cy="339.78226768525315" r="11.25" fill="none" stroke="#144c13" stroke-width="7.5" stroke-opacity="0.75" />
<circle cx="622.4066390041494" cy="312.47973936721985" r="15" fill="#027f00" opacity="1" stroke="none" />
<circle cx="622.4066390041494" cy="312.47973936721985" r="11.25" fill="none" stroke="#144c13" stroke-width="7.5" stroke-opacity="0.75" />
<circle cx="624.066390041494" cy="312.530776771767" r="15" fill="#027f00" opacity="1" stroke="none" />
<circle cx="624.066390041494" cy="312.530776771767" r="11.25" fill="none" stroke="#144c13" stroke-width="7.5" stroke-opacity="0.75" />
<circle cx="631.9502074688796" cy="320.20502565312677" r="15" fill="#027f00" opacity="1" stroke="none" />
<circle cx="631.9502074688796" cy="320.20502565312677" r="11.25" fill="none" stroke="#144c13" stroke-width="7.5" stroke-opacity="0.75" />
<circle cx="631.9502074688796" cy="322.0673814354101" r="15" fill="#027f00" opacity="1" stroke="none" />
<circle cx="631.9502074688796" cy="322.0673814354101" r="11.25" fill="none" stroke="#144c13" stroke-width="7.5" stroke-opacity="0.75" />
<circle cx="638.1742738589212" cy="327.62646180465504" r="15" fill="#027f00" opacity="1" stroke="none" />
<circle cx="638.1742738589212" cy="327.62646180465504" r="11.25" fill="none" stroke="#144c13" stroke-width="7.5" stroke-opacity="0.75" />
<circle cx="639.8340248962656" cy="388.43845430746114" r="15" fill="#027f00" opacity="1" stroke="none" />
<circle cx="639.8340248962656" cy="388.43845430746114" r="11.25" fill="none" stroke="#144c13" stroke-width="7.5" stroke-opacity="0.75" />
<circle cx="646.8879668049793" cy="285.9701061644495" r="15" fill="#027f00" opacity="1" stroke="none" />
<circle cx="646.8879668049793" cy="285.9701061644495" r="11.25" fill="none" stroke="#144c13" stroke-width="7.5" stroke-opacity="0.75" />
<circle cx="649.792531120332" cy="341.2308435717064" r="15" fill="#027f00" opacity="1" stroke="none" />
<circle cx="649.792531120332" cy="341.2308435717064" r="11.25" fill="none" stroke="#144c13" stroke-width="7.5" stroke-opacity="0.75" />
<circle cx="647.3029045643154" cy="336.09966024818266" r="15" fill="#027f00" opacity="1" stroke="none" />
<circle cx="647.3029045643154" cy="336.09966024818266" r="11.25" fill="none" stroke="#144c13" stroke-width="7.5" stroke-opacity="0.75" />
<circle cx="654.356846473029" cy="315.34786540937625" r="15" fill="#027f00" opacity="1" stroke="none" />
<circle cx="654.356846473029" cy="315.34786540937625" r="11.25" fill="none" stroke="#144c13" stroke-width="7.5" stroke-opacity="0.75" />
<circle cx="656.0165975103735" cy="275.41669077893016" r="15" fill="#027f00" opacity="1" stroke="none" />
<circle cx="656.0165975103735" cy="275.41669077893016" r="11.25" fill="none" stroke="#144c13" stroke-width="7.5" stroke-opacity="0.75" />
<circle cx="663.0705394190871" cy="316.89445012832573" r="15" fill="#027f00" opacity="1" stroke="none" />
<circle cx="663.0705394190871" cy="316.89445012832573" r="11.25" fill="none" stroke="#144c13" stroke-width="7.5" stroke-opacity="0.75" />
<circle cx="670.1244813278009" cy="321.14105105894726" r="15" fill="#027f00" opacity="1" stroke="none" />
<circle cx="670.1244813278009" cy="321.14105105894726" r="11.25" fill="none" stroke="#144c13" stroke-width="7.5" stroke-opacity="0.75" />
<circle cx="668.0497925311204" cy="268.87922366130397" r="15" fill="#027f00" opacity="1" stroke="none" />
<circle cx="668.0497925311204" cy="268.87922366130397" r="11.25" fill="none" stroke="#144c13" stroke-width="7.5" stroke-opacity="0.75" />
<circle cx="674.688796680498" cy="278.8530543632032" r="15" fill="#027f00" opacity="1" stroke="none" />
<circle cx="674.688796680498" cy="278.8530543632032" r="11.25" fill="none" stroke="#144c13" stroke-width="7.5" stroke-opacity="0.75" />
<circle cx="676.3485477178424" cy="322.6411095298672" r="15" fill="#027f00" opacity="1" stroke="none" />
<circle cx="676.3485477178424" cy="322.6411095298672" r="11.25" fill="none" stroke="#144c13" stroke-width="7.5" stroke-opacity="0.75" />
<circle cx="682.572614107884" cy="317.0743226015717" r="15" fill="#027f00" opacity="1" stroke="none" />
<circle cx="682.572614107884" cy="317.0743226015717" r="11.25" fill="none" stroke="#144c13" stroke-width="7.5" stroke-opacity="0.75" />
<circle cx="684.2323651452282" cy="274.4485134900358" r="15" fill="#027f00" opacity="1" stroke="none" />
<circle cx="684.2323651452282" cy="274.4485134900358" r="11.25" fill="none" stroke="#144c13" stroke-width="7.5" stroke-opacity="0.75" />
<circle cx="691.2863070539419" cy="245.84659402301202" r="15" fill="#027f00" opacity="1" stroke="none" />
<circle cx="691.2863070539419" cy="245.84659402301202" r="11.25" fill="none" stroke="#144c13" stroke-width="7.5" stroke-opacity="0.75" />
<circle cx="695.0207468879668" cy="277.1249450588622" r="15" fill="#027f00" opacity="1" stroke="none" />
<circle cx="695.0207468879668" cy="277.1249450588622" r="11.25" fill="none" stroke="#144c13" stroke-width="7.5" stroke-opacity="0.75" />
<circle cx="703.3195020746889" cy="280.27448416745517" r="15" fill="#027f00" opacity="1" stroke="none" />
<circle cx="703.3195020746889" cy="280.27448416745517" r="11.25" fill="none" stroke="#144c13" stroke-width="7.5" stroke-opacity="0.75" />
<circle cx="707.8838174273859" cy="282.54563383047014" r="15" fill="#027f00" opacity="1" stroke="none" />
<circle cx="707.8838174273859" cy="282.54563383047014" r="11.25" fill="none" stroke="#144c13" stroke-width="7.5" stroke-opacity="0.75" />
<circle cx="703.3195020746889" cy="269.9123378611205" r="15" fill="#027f00" opacity="1" stroke="none" />
<circle cx="703.3195020746889" cy="269.9123378611205" r="11.25" fill="none" stroke="#144c13" stroke-width="7.5" stroke-opacity="0.75" />
<circle cx="710.3734439834025" cy="277.7732952007119" r="15" fill="#027f00" opacity="1" stroke="none" />
<circle cx="710.3734439834025" cy="277.7732952007119" r="11.25" fill="none" stroke="#144c13" stroke-width="7.5" stroke-opacity="0.75" />
<circle cx="717.4273858921163" cy="282.76727407305066" r="15" fill="#027f00" opacity="1" stroke="none" />
<circle cx="717.4273858921163" cy="282.76727407305066" r="11.25" fill="none" stroke="#144c13" stroke-width="7.5" stroke-opacity="0.75" />
<circle cx="723.2365145228216" cy="281.44958108292576" r="15" fill="#027f00" opacity="1" stroke="none" />
<circle cx="723.2365145228216" cy="281.44958108292576" r="11.25" fill="none" stroke="#144c13" stroke-width="7.5" stroke-opacity="0.75" />
<circle cx="730.7053941908713" cy="271.27150183396714" r="15" fill="#027f00" opacity="1" stroke="none" />
<circle cx="730.7053941908713" cy="271.27150183396714" r="11.25" fill="none" stroke="#144c13" stroke-width="7.5" stroke-opacity="0.75" />
<circle cx="730.7053941908713" cy="275.12851097771727" r="15" fill="#027f00" opacity="1" stroke="none" />
<circle cx="730.7053941908713" cy="275.12851097771727" r="11.25" fill="none" stroke="#144c13" stroke-width="7.5" stroke-opacity="0.75" />
<circle cx="730.7053941908713" cy="269.97179411258935" r="15" fill="#027f00" opacity="1" stroke="none" />
<circle cx="730.7053941908713" cy="269.97179411258935" r="11.25" fill="none" stroke="#144c13" stroke-width="7.5" stroke-opacity="0.75" />
<circle cx="734.4398340248963" cy="258.52077729474456" r="15" fill="#027f00" opacity="1" stroke="none" />
<circle cx="734.4398340248963" cy="258.52077729474456" r="11.25" fill="none" stroke="#144c13" stroke-width="7.5" stroke-opacity="0.75" />
<circle cx="742.3236514522822" cy="264.4914908033189" r="15" fill="#027f00" opacity="1" stroke="none" />
<circle cx="742.3236514522822" cy="264.4914908033189" r="11.25" fill="none" stroke="#144c13" stroke-width="7.5" stroke-opacity="0.75" />
<circle cx="745.643153526971" cy="222.77259233086932" r="15" fill="#027f00" opacity="1" stroke="none" />
<circle cx="745.643153526971" cy="222.77259233086932" r="11.25" fill="none" stroke="#144c13" stroke-width="7.5" stroke-opacity="0.75" />
<circle cx="746.8879668049792" cy="228.13376549368581" r="15" fill="#027f00" opacity="1" stroke="none" />
<circle cx="746.8879668049792" cy="228.13376549368581" r="11.25" fill="none" stroke="#144c13" stroke-width="7.5" stroke-opacity="0.75" />
<circle cx="756.0165975103736" cy="231.32159996824146" r="15" fill="#027f00" opacity="1" stroke="none" />
<circle cx="756.0165975103736" cy="231.32159996824146" r="11.25" fill="none" stroke="#144c13" stroke-width="7.5" stroke-opacity="0.75" />
<circle cx="759.7510373443985" cy="221.67683636993786" r="15" fill="#027f00" opacity="1" stroke="none" />
<circle cx="759.7510373443985" cy="221.67683636993786" r="11.25" fill="none" stroke="#144c13" stroke-width="7.5" stroke-opacity="0.75" />
<circle cx="773.8589211618257" cy="218.86263645536178" r="15" fill="#027f00" opacity="1" stroke="none" />
<circle cx="773.8589211618257" cy="218.86263645536178" r="11.25" fill="none" stroke="#144c13" stroke-width="7.5" stroke-opacity="0.75" />
<circle cx="780.9128630705394" cy="184.19483019603229" r="15" fill="#027f00" opacity="1" stroke="none" />
<circle cx="780.9128630705394" cy="184.19483019603229" r="11.25" fill="none" stroke="#144c13" stroke-width="7.5" stroke-opacity="0.75" />
<circle cx="781.3278008298755" cy="198.4151715559583" r="15" fill="#027f00" opacity="1" stroke="none" />
<circle cx="781.3278008298755" cy="198.4151715559583" r="11.25" fill="none" stroke="#144c13" stroke-width="7.5" stroke-opacity="0.75" />
<circle cx="787.551867219917" cy="209.96079899958067" r="15" fill="#027f00" opacity="1" stroke="none" />
<circle cx="787.551867219917" cy="209.96079899958067" r="11.25" fill="none" stroke="#144c13" stroke-width="7.5" stroke-opacity="0.75" />
<circle cx="792.1161825726141" cy="209.71970934096214" r="15" fill="#027f00" opacity="1" stroke="none" />
<circle cx="792.1161825726141" cy="209.71970934096214" r="11.25" fill="none" stroke="#144c13" stroke-width="7.5" stroke-opacity="0.75" />
<circle cx="800.8298755186721" cy="196.13721558661882" r="15" fill="#027f00" opacity="1" stroke="none" />
<circle cx="800.8298755186721" cy="196.13721558661882" r="11.25" fill="none" stroke="#144c13" stroke-width="7.5" stroke-opacity="0.75" />
<circle cx="800.8298755186721" cy="194.69773126341" r="15" fill="#027f00" opacity="1" stroke="none" />
<circle cx="800.8298755186721" cy="194.69773126341" r="11.25" fill="none" stroke="#144c13" stroke-width="7.5" stroke-opacity="0.75" />
<circle cx="802.0746887966806" cy="207.49055498368512" r="15" fill="#027f00" opacity="1" stroke="none" />
<circle cx="802.0746887966806" cy="207.49055498368512" r="11.25" fill="none" stroke="#144c13" stroke-width="7.5" stroke-opacity="0.75" />
<circle cx="811.2033195020747" cy="174.379506422771" r="15" fill="#027f00" opacity="1" stroke="none" />
<circle cx="811.2033195020747" cy="174.379506422771" r="11.25" fill="none" stroke="#144c13" stroke-width="7.5" stroke-opacity="0.75" />
<circle cx="815.3526970954357" cy="191.09767254952078" r="15" fill="#027f00" opacity="1" stroke="none" />
<circle cx="815.3526970954357" cy="191.09767254952078" r="11.25" fill="none" stroke="#144c13" stroke-width="7.5" stroke-opacity="0.75" />
<circle cx="828.2157676348547" cy="191.20689744276615" r="15" fill="#027f00" opacity="1" stroke="none" />
<circle cx="828.2157676348547" cy="191.20689744276615" r="11.25" fill="none" stroke="#144c13" stroke-width="7.5" stroke-opacity="0.75" />
<circle cx="829.8755186721991" cy="189.9013504447779" r="15" fill="#027f00" opacity="1" stroke="none" />
<circle cx="829.8755186721991" cy="189.9013504447779" r="11.25" fill="none" stroke="#144c13" stroke-width="7.5" stroke-opacity="0.75" />
<circle cx="834.4398340248963" cy="149.87821153585344" r="15" fill="#027f00" opacity="1" stroke="none" />
<circle cx="834.4398340248963" cy="149.87821153585344" r="11.25" fill="none" stroke="#144c13" stroke-width="7.5" stroke-opacity="0.75" />
<circle cx="837.3443983402489" cy="204.1687856571308" r="15" fill="#027f00" opacity="1" stroke="none" />
<circle cx="837.3443983402489" cy="204.1687856571308" r="11.25" fill="none" stroke="#144c13" stroke-width="7.5" stroke-opacity="0.75" />
<circle cx="857.2614107883817" cy="173.61925350679894" r="15" fill="#027f00" opacity="1" stroke="none" />
<circle cx="857.2614107883817" cy="173.61925350679894" r="11.25" fill="none" stroke="#144c13" stroke-width="7.5" stroke-opacity="0.75" />
<circle cx="883.8174273858921" cy="135.7795118790939" r="15" fill="#027f00" opacity="1" stroke="none" />
<circle cx="883.8174273858921" cy="135.7795118790939" r="11.25" fill="none" stroke="#144c13" stroke-width="7.5" stroke-opacity="0.75" />
<circle cx="902.9045643153527" cy="108.90287977036598" r="15" fill="#027f00" opacity="1" stroke="none" />
<circle cx="902.9045643153527" cy="108.90287977036598" r="11.25" fill="none" stroke="#144c13" stroke-width="7.5" stroke-opacity="0.75" />
<circle cx="888.7966804979254" cy="110.02258641096557" r="15" fill="#027f00" opacity="1" stroke="none" />
<circle cx="888.7966804979254" cy="110.02258641096557" r="11.25" fill="none" stroke="#144c13" stroke-width="7.5" stroke-opacity="0.75" />
<circle cx="903.7344398340249" cy="128.96461358208876" r="15" fill="#027f00" opacity="1" stroke="none" />
<circle cx="903.7344398340249" cy="128.96461358208876" r="11.25" fill="none" stroke="#144c13" stroke-width="7.5" stroke-opacity="0.75" />
<circle cx="931.1203319502075" cy="91.56626784455239" r="15" fill="#027f00" opacity="1" stroke="none" />
<circle cx="931.1203319502075" cy="91.56626784455239" r="11.25" fill="none" stroke="#144c13" stroke-width="7.5" stroke-opacity="0.75" />
<circle cx="951.4522821576763" cy="90.98046053494659" r="15" fill="#027f00" opacity="1" stroke="none" />
<circle cx="951.4522821576763" cy="90.98046053494659" r="11.25" fill="none" stroke="#144c13" stroke-width="7.5" stroke-opacity="0.75" />
<circle cx="953.941908713693" cy="110.1036487278601" r="15" fill="#027f00" opacity="1" stroke="none" />
<circle cx="953.941908713693" cy="110.1036487278601" r="11.25" fill="none" stroke="#144c13" stroke-width="7.5" stroke-opacity="0.75" />
</g>
<g id="d2">
<path d="M150.0,1150.0 L1150.0,150.0" fill="none" opacity="0.5" stroke="#000000" stroke-width="16" />
<use xlink:href="#d0" x="150.0" y="150.0" />
<use xlink:href="#d1" x="150.0" y="150.0" />
<path d="M150.0,315.9751037344398 L169.99999999999997,315.9751037344398" stroke="#992626" fill="none" stroke-width="8" stroke-opacity="0.75" />
<path d="M189.99999999999994,315.9751037344398 L209.99999999999991,315.9751037344398" stroke="#992626" fill="none" stroke-width="8" stroke-opacity="0.75" />
<path d="M229.9999999999999,315.9751037344398 L249.99999999999986,315.9751037344398" stroke="#992626" fill="none" stroke-width="8" stroke-opacity="0.75" />
<path d="M269.99999999999983,315.9751037344398 L289.9999999999998,315.9751037344398" stroke="#992626" fill="none" stroke-width="8" stroke-opacity="0.75" />
<path d="M309.9999999999998,315.9751037344398 L329.9999999999998,315.9751037344398" stroke="#992626" fill="none" stroke-width="8" stroke-opacity="0.75" />
<path d="M349.9999999999997,315.9751037344398 L369.99999999999966,315.9751037344398" stroke="#992626" fill="none" stroke-width="8" stroke-opacity="0.75" />
<path d="M389.99999999999966,315.9751037344398 L409.9999999999996,315.9751037344398" stroke="#992626" fill="none" stroke-width="8" stroke-opacity="0.75" />
<path d="M429.9999999999996,315.9751037344398 L449.99999999999955,315.9751037344398" stroke="#992626" fill="none" stroke-width="8" stroke-opacity="0.75" />
<path d="M469.9999999999995,315.9751037344398 L489.99999999999955,315.9751037344398" stroke="#992626" fill="none" stroke-width="8" stroke-opacity="0.75" />
<path d="M509.9999999999995,315.9751037344398 L529.9999999999994,315.9751037344398" stroke="#992626" fill="none" stroke-width="8" stroke-opacity="0.75" />
<path d="M549.9999999999994,315.9751037344398 L569.9999999999993,315.9751037344398" stroke="#992626" fill="none" stroke-width="8" stroke-opacity="0.75" />
<path d="M589.9999999999993,315.9751037344398 L609.9999999999993,315.9751037344398" stroke="#992626" fill="none" stroke-width="8" stroke-opacity="0.75" />
<path d="M629.9999999999993,315.9751037344398 L649.9999999999993,315.9751037344398" stroke="#992626" fill="none" stroke-width="8" stroke-opacity="0.75" />
<path d="M669.9999999999992,315.9751037344398 L689.9999999999992,315.9751037344398" stroke="#992626" fill="none" stroke-width="8" stroke-opacity="0.75" />
<path d="M709.9999999999992,315.9751037344398 L729.9999999999992,315.9751037344398" stroke="#992626" fill="none" stroke-width="8" stroke-opacity="0.75" />
<path d="M749.9999999999991,315.9751037344398 L769.9999999999991,315.9751037344398" stroke="#992626" fill="none" stroke-width="8" stroke-opacity="0.75" />
<path d="M789.999999999999,315.9751037344398 L809.999999999999,315.9751037344398" stroke="#992626" fill="none" stroke-width="8" stroke-opacity="0.75" />
<path d="M829.9999999999991,315.9751037344398 L849.999999999999,315.9751037344398" stroke="#992626" fill="none" stroke-width="8" stroke-opacity="0.75" />
<path d="M869.999999999999,315.9751037344398 L889.9999999999989,315.9751037344398" stroke="#992626" fill="none" stroke-width="8" stroke-opacity="0.75" />
<path d="M909.9999999999989,315.9751037344398 L929.9999999999987,315.9751037344398" stroke="#992626" fill="none" stroke-width="8" stroke-opacity="0.75" />
<path d="M949.9999999999989,315.9751037344398 L969.9999999999989,315.9751037344398" stroke="#992626" fill="none" stroke-width="8" stroke-opacity="0.75" />
<path d="M989.9999999999987,315.9751037344398 L1009.9999999999987,315.9751037344398" stroke="#992626" fill="none" stroke-width="8" stroke-opacity="0.75" />
<path d="M1029.9999999999986,315.9751037344398 L1049.9999999999986,315.9751037344398" stroke="#992626" fill="none" stroke-width="8" stroke-opacity="0.75" />
<path d="M1069.9999999999986,315.9751037344398 L1089.9999999999986,315.9751037344398" stroke="#992626" fill="none" stroke-width="8" stroke-opacity="0.75" />
<path d="M1109.9999999999986,315.9751037344398 L1129.9999999999986,315.9751037344398" stroke="#992626" fill="none" stroke-width="8" stroke-opacity="0.75" />
<path d="M150.0,878.0403648405255 L169.99999999999997,865.0042921870092" stroke="#144c13" fill="none" stroke-width="8" stroke-opacity="0.75" />
<path d="M189.99999999999994,851.9682195334931 L209.99999999999991,838.9321468799769" stroke="#144c13" fill="none" stroke-width="8" stroke-opacity="0.75" />
<path d="M229.9999999999999,825.8960742264607 L249.99999999999986,812.8600015729445" stroke="#144c13" fill="none" stroke-width="8" stroke-opacity="0.75" />
<path d="M269.99999999999983,799.8239289194282 L289.9999999999998,786.7878562659121" stroke="#144c13" fill="none" stroke-width="8" stroke-opacity="0.75" />
<path d="M309.9999999999998,773.7517836123959 L329.9999999999998,760.7157109588796" stroke="#144c13" fill="none" stroke-width="8" stroke-opacity="0.75" />
<path d="M349.9999999999997,747.6796383053634 L369.99999999999966,734.6435656518472" stroke="#144c13" fill="none" stroke-width="8" stroke-opacity="0.75" />
<path d="M389.99999999999966,721.6074929983309 L409.9999999999996,708.5714203448148" stroke="#144c13" fill="none" stroke-width="8" stroke-opacity="0.75" />
<path d="M429.9999999999996,695.5353476912985 L449.99999999999955,682.4992750377824" stroke="#144c13" fill="none" stroke-width="8" stroke-opacity="0.75" />
<path d="M469.9999999999995,669.4632023842662 L489.99999999999955,656.42712973075" stroke="#144c13" fill="none" stroke-width="8" stroke-opacity="0.75" />
<path d="M509.9999999999995,643.3910570772338 L529.9999999999994,630.3549844237176" stroke="#144c13" fill="none" stroke-width="8" stroke-opacity="0.75" />
<path d="M549.9999999999994,617.3189117702013 L569.9999999999993,604.2828391166851" stroke="#144c13" fill="none" stroke-width="8" stroke-opacity="0.75" />
<path d="M589.9999999999993,591.2467664631688 L609.9999999999993,578.2106938096528" stroke="#144c13" fill="none" stroke-width="8" stroke-opacity="0.75" />
<path d="M629.9999999999993,565.1746211561366 L649.9999999999993,552.1385485026203" stroke="#144c13" fill="none" stroke-width="8" stroke-opacity="0.75" />
<path d="M669.9999999999992,539.102475849104 L689.9999999999992,526.0664031955878" stroke="#144c13" fill="none" stroke-width="8" stroke-opacity="0.75" />
<path d="M709.9999999999992,513.0303305420716 L729.9999999999992,499.99425788855547" stroke="#144c13" fill="none" stroke-width="8" stroke-opacity="0.75" />
<path d="M749.9999999999991,486.9581852350393 L769.9999999999991,473.9221125815229" stroke="#144c13" fill="none" stroke-width="8" stroke-opacity="0.75" />
<path d="M789.999999999999,460.88603992800677 L809.999999999999,447.8499672744905" stroke="#144c13" fill="none" stroke-width="8" stroke-opacity="0.75" />
<path d="M829.9999999999991,434.81389462097445 L849.999999999999,421.7778219674582" stroke="#144c13" fill="none" stroke-width="8" stroke-opacity="0.75" />
<path d="M869.999999999999,408.741749313942 L889.9999999999989,395.70567666042564" stroke="#144c13" fill="none" stroke-width="8" stroke-opacity="0.75" />
<path d="M909.9999999999989,382.6696040069095 L929.9999999999987,369.6335313533932" stroke="#144c13" fill="none" stroke-width="8" stroke-opacity="0.75" />
<path d="M949.9999999999989,356.59745869987717 L969.9999999999989,343.561386046361" stroke="#144c13" fill="none" stroke-width="8" stroke-opacity="0.75" />
<path d="M989.9999999999987,330.5253133928446 L1009.9999999999987,317.48924073932847" stroke="#144c13" fill="none" stroke-width="8" stroke-opacity="0.75" />
<path d="M1029.9999999999986,304.4531680858122 L1049.9999999999986,291.41709543229604" stroke="#144c13" fill="none" stroke-width="8" stroke-opacity="0.75" />
<path d="M1069.9999999999986,278.3810227787799 L1089.9999999999986,265.3449501252637" stroke="#144c13" fill="none" stroke-width="8" stroke-opacity="0.75" />
<path d="M1109.9999999999986,252.30887747174734 L1129.9999999999986,239.27280481823118" stroke="#144c13" fill="none" stroke-width="8" stroke-opacity="0.75" />
<text x="650.0" y="1350" font-size="110" text-anchor="middle" font-family="Arial" fill="#000000" opacity="0.75">experiment (kcal/mol)</text>
<g>
<text x="-650.0" y="-50" font-size="125" transform="rotate(-90)" text-anchor="middle" fill="#000000" opacity="0.75" font-family="Arial">model (kcal/mol)</text>
</g>
</g>
</defs>
<rect x="-10" y="-10" width="1520" height="1520" fill="#ffffff" />
<use xlink:href="#d2" x="200" y="100" />
</svg>