<?xml version="1.0" encoding="UTF-8"?>
<svg xmlns="http://www.w3.org/2000/svg" xmlns:xlink="http://www.w3.org/1999/xlink"
     width="2600" height="2600" viewBox="0 0 1300 1300">
<defs>
<g id="d0">
<path d="M-5.0,0 L-5.0,1010.0" fill="none" stroke="#000000" stroke-width="10.0" stroke-opacity="0.75" />
<path d="M-10.0,1005.0 L1000,1005.0" fill="none" stroke="#000000" stroke-width="10.0" stroke-opacity="0.75" />
<path d="M4.149377593361055,1010.0 L4.149377593361055,1030" fill="none" stroke="#000000" stroke-width="10.0" stroke-opacity="0.75" />
<text x="4.149377593361055" y="1110" font-size="80" text-anchor="middle" fill="#000000" fill-opacity="0.75" font-family="Arial">-20</text>
<path d="M419.0871369294606,1010.0 L419.0871369294606,1030" fill="none" stroke="#000000" stroke-width="10.0" stroke-opacity="0.75" />
<text x="419.0871369294606" y="1110" font-size="80" text-anchor="middle" fill="#000000" fill-opacity="0.75" font-family="Arial">-10</text>
<path d="M834.0248962655602,1010.0 L834.0248962655602,1030" fill="none" stroke="#000000" stroke-width="10.0" stroke-opacity="0.75" />
<text x="834.0248962655602" y="1110" font-size="80" text-anchor="middle" fill="#000000" fill-opacity="0.75" font-family="Arial">0</text>
<path d="M4.149377593361055,0 L4.149377593361055,1000" fill="none" stroke="#1e1e46" stroke-width="7.5" stroke-opacity="0.25" />
<path d="M211.61825726141083,0 L211.61825726141083,1000" fill="none" stroke="#1e1e46" stroke-width="7.5" stroke-opacity="0.25" />
<path d="M419.0871369294606,0 L419.0871369294606,1000" fill="none" stroke="#1e1e46" stroke-width="7.5" stroke-opacity="0.25" />
<path d="M626.5560165975104,0 L626.5560165975104,1000" fill="none" stroke="#1e1e46" stroke-width="7.5" stroke-opacity="0.25" />
<path d="M834.0248962655602,0 L834.0248962655602,1000" fill="none" stroke="#1e1e46" stroke-width="7.5" stroke-opacity="0.25" />
<path d="M-10.0,995.850622406639 L-30,995.850622406639" ill="none" stroke="#000000" stroke-width="10.0" stroke-opacity="0.75" />
<text x="-40" y="1018.850622406639" font-size="80" text-anchor="end" fill="#000000" fill-opacity="0.75" font-family="Arial">-20</text>
<path d="M-10.0,580.9128630705394 L-30,580.9128630705394" ill="none" stroke="#000000" stroke-width="10.0" stroke-opacity="0.75" />
<text x="-40" y="603.9128630705394" font-size="80" text-anchor="end" fill="#000000" fill-opacity="0.75" font-family="Arial">-10</text>
<path d="M-10.0,165.9751037344398 L-30,165.9751037344398" ill="none" stroke="#000000" stroke-width="10.0" stroke-opacity="0.75" />
<text x="-40" y="188.9751037344398" font-size="80" text-anchor="end" fill="#000000" fill-opacity="0.75" font-family="Arial">0</text>
<path d="M0,995.850622406639 L1000,995.850622406639" fill="none" stroke="#1e1e46" stroke-width="7.5" stroke-opacity="0.25" />
<path d="M0,788.3817427385892 L1000,788.3817427385892" fill="none" stroke="#1e1e46" stroke-width="7.5" stroke-opacity="0.25" />
<path d="M0,580.9128630705394 L1000,580.9128630705394" fill="none" stroke="#1e1e46" stroke-width="7.5" stroke-opacity="0.25" />
<path d="M0,373.4439834024896 L1000,373.4439834024896" fill="none" stroke="#1e1e46" stroke-width="7.5" stroke-opacity="0.25" />
<path d="M0,165.9751037344398 L1000,165.9751037344398" fill="none" stroke="#1e1e46" stroke-width="7.5" stroke-opacity="0.25" />
<text x="500.0" y="-75" font-size="120" text-anchor="middle" fill="#000000" fill-opacity="0.75" font-family="Arial">TIP3P correction</text>
</g>
<g id="d1">
<circle cx="152.28215767634862" cy="831.49377593361" r="15" fill="#ff0000" opacity="1" stroke="none" />
<circle cx="152.28215767634862" cy="831.49377593361" r="11.25" fill="none" stroke="#992626" stroke-width="7.5" stroke-opacity="0.75" />
<circle cx="80.0829875518672" cy="883.7344398340248" r="15" fill="#ff0000" opacity="1" stroke="none" />
<circle cx="80.0829875518672" cy="883.7344398340248" r="11.25" fill="none" stroke="#992626" stroke-width="7.5" stroke-opacity="0.75" />
<circle cx="377.17842323651456" cy="565.3526970954357" r="15" fill="#ff0000" opacity="1" stroke="none" />
<circle cx="377.17842323651456" cy="565.3526970954357" r="11.25" fill="none" stroke="#992626" stroke-width="7.5" stroke-opacity="0.75" />
<circle cx="415.7676348547718" cy="604.1078838174274" r="15" fill="#ff0000" opacity="1" stroke="none" />
<circle cx="415.7676348547718" cy="604.1078838174274" r="11.25" fill="none" stroke="#992626" stroke-width="7.5" stroke-opacity="0.75" />
<circle cx="429.045643153527" cy="501.2863070539418" r="15" fill="#ff0000" opacity="1" stroke="none" />
<circle cx="429.045643153527" cy="501.2863070539418" r="11.25" fill="none" stroke="#992626" stroke-width="7.5" stroke-opacity="0.75" />
<circle cx="435.2697095435685" cy="656.6390041493776" r="15" fill="#ff0000" opacity="1" stroke="none" />
<circle cx="435.2697095435685" cy="656.6390041493776" r="11.25" fill="none" stroke="#992626" stroke-width="7.5" stroke-opacity="0.75" />
<circle cx="441.9087136929461" cy="599.0041493775933" r="15" fill="#ff0000" opacity="1" stroke="none" />
<circle cx="441.9087136929461" cy="599.0041493775933" r="11.25" fill="none" stroke="#992626" stroke-width="7.5" stroke-opacity="0.75" />
<circle cx="452.2821576763486" cy="561.6182572614107" r="15" fill="#ff0000" opacity="1" stroke="none" />
<circle cx="452.2821576763486" cy="561.6182572614107" r="11.25" fill="none" stroke="#992626" stroke-width="7.5" stroke-opacity="0.75" />
<circle cx="467.63485477178426" cy="582.98755186722" r="15" fill="#ff0000" opacity="1" stroke="none" />
<circle cx="467.63485477178426" cy="582.98755186722" r="11.25" fill="none" stroke="#992626" stroke-width="7.5" stroke-opacity="0.75" />
<circle cx="502.9045643153527" cy="632.6141078838174" r="15" fill="#ff0000" opacity="1" stroke="none" />
<circle cx="502.9045643153527" cy="632.6141078838174" r="11.25" fill="none" stroke="#992626" stroke-width="7.5" stroke-opacity="0.75" />
<circle cx="519.5020746887967" cy="492.6970954356845" r="15" fill="#ff0000" opacity="1" stroke="none" />
<circle cx="519.5020746887967" cy="492.6970954356845" r="11.25" fill="none" stroke="#992626" stroke-width="7.5" stroke-opacity="0.75" />
<circle cx="525.7261410788382" cy="470.9128630705394" r="15" fill="#ff0000" opacity="1" stroke="none" />
<circle cx="525.7261410788382" cy="470.9128630705394" r="11.25" fill="none" stroke="#992626" stroke-width="7.5" stroke-opacity="0.75" />
<circle cx="531.5352697095436" cy="379.2116182572613" r="15" fill="#ff0000" opacity="1" stroke="none" />
<circle cx="531.5352697095436" cy="379.2116182572613" r="11.25" fill="none" stroke="#992626" stroke-width="7.5" stroke-opacity="0.75" />
<circle cx="545.2282157676348" cy="472.7385892116183" r="15" fill="#ff0000" opacity="1" stroke="none" />
<circle cx="545.2282157676348" cy="472.7385892116183" r="11.25" fill="none" stroke="#992626" stroke-width="7.5" stroke-opacity="0.75" />
<circle cx="559.3360995850622" cy="360.4149377593361" r="15" fill="#ff0000" opacity="1" stroke="none" />
<circle cx="559.3360995850622" cy="360.4149377593361" r="11.25" fill="none" stroke="#992626" stroke-width="7.5" stroke-opacity="0.75" />
<circle cx="570.9543568464732" cy="510.04149377593353" r="15" fill="#ff0000" opacity="1" stroke="none" />
<circle cx="570.9543568464732" cy="510.04149377593353" r="11.25" fill="none" stroke="#992626" stroke-width="7.5" stroke-opacity="0.75" />
<circle cx="565.9751037344398" cy="543.070539419087" r="15" fill="#ff0000" opacity="1" stroke="none" />
<circle cx="565.9751037344398" cy="543.070539419087" r="11.25" fill="none" stroke="#992626" stroke-width="7.5" stroke-opacity="0.75" />
<circle cx="576.7634854771785" cy="299.62655601659753" r="15" fill="#ff0000" opacity="1" stroke="none" />
<circle cx="576.7634854771785" cy="299.62655601659753" r="11.25" fill="none" stroke="#992626" stroke-width="7.5" stroke-opacity="0.75" />
<circle cx="585.0622406639004" cy="444.6473029045643" r="15" fill="#ff0000" opacity="1" stroke="none" />
<circle cx="585.0622406639004" cy="444.6473029045643" r="11.25" fill="none" stroke="#992626" stroke-width="7.5" stroke-opacity="0.75" />
<circle cx="590.0414937759336" cy="504.60580912863065" r="15" fill="#ff0000" opacity="1" stroke="none" />
<circle cx="590.0414937759336" cy="504.60580912863065" r="11.25" fill="none" stroke="#992626" stroke-width="7.5" stroke-opacity="0.75" />
<circle cx="596.6804979253113" cy="372.98755186721985" r="15" fill="#ff0000" opacity="1" stroke="none" />
<circle cx="596.6804979253113" cy="372.98755186721985" r="11.25" fill="none" stroke="#992626" stroke-width="7.5" stroke-opacity="0.75" />
<circle cx="596.2655601659751" cy="391.5352697095435" r="15" fill="#ff0000" opacity="1" stroke="none" />
<circle cx="596.2655601659751" cy="391.5352697095435" r="11.25" fill="none" stroke="#992626" stroke-width="7.5" stroke-opacity="0.75" />
<circle cx="612.8630705394191" cy="434.10788381742736" r="15" fill="#ff0000" opacity="1" stroke="none" />
<circle cx="612.8630705394191" cy="434.10788381742736" r="11.25" fill="none" stroke="#992626" stroke-width="7.5" stroke-opacity="0.75" />
<circle cx="622.4066390041494" cy="310.8298755186721" r="15" fill="#ff0000" opacity="1" stroke="none" />
<circle cx="622.4066390041494" cy="310.8298755186721" r="11.25" fill="none" stroke="#992626" stroke-width="7.5" stroke-opacity="0.75" />
<circle cx="624.066390041494" cy="343.1120331950207" r="15" fill="#ff0000" opacity="1" stroke="none" />
<circle cx="624.066390041494" cy="343.1120331950207" r="11.25" fill="none" stroke="#992626" stroke-width="7.5" stroke-opacity="0.75" />
<circle cx="631.9502074688796" cy="424.0248962655602" r="15" fill="#ff0000" opacity="1" stroke="none" />
<circle cx="631.9502074688796" cy="424.0248962655602" r="11.25" fill="none" stroke="#992626" stroke-width="7.5" stroke-opacity="0.75" />
<circle cx="631.9502074688796" cy="532.116182572614" r="15" fill="#ff0000" opacity="1" stroke="none" />
<circle cx="631.9502074688796" cy="532.116182572614" r="11.25" fill="none" stroke="#992626" stroke-width="7.5" stroke-opacity="0.75" />
<circle cx="638.1742738589212" cy="300.0829875518672" r="15" fill="#ff0000" opacity="1" stroke="none" />
<circle cx="638.1742738589212" cy="300.0829875518672" r="11.25" fill="none" stroke="#992626" stroke-width="7.5" stroke-opacity="0.75" />
<circle cx="639.8340248962656" cy="531.4937759336099" r="15" fill="#ff0000" opacity="1" stroke="none" />
<circle cx="639.8340248962656" cy="531.4937759336099" r="11.25" fill="none" stroke="#992626" stroke-width="7.5" stroke-opacity="0.75" />
<circle cx="646.8879668049793" cy="324.68879668049783" r="15" fill="#ff0000" opacity="1" stroke="none" />
<circle cx="646.8879668049793" cy="324.68879668049783" r="11.25" fill="none" stroke="#992626" stroke-width="7.5" stroke-opacity="0.75" />
<circle cx="649.792531120332" cy="301.1203319502075" r="15" fill="#ff0000" opacity="1" stroke="none" />
<circle cx="649.792531120332" cy="301.1203319502075" r="11.25" fill="none" stroke="#992626" stroke-width="7.5" stroke-opacity="0.75" />
<circle cx="647.3029045643154" cy="295.850622406639" r="15" fill="#ff0000" opacity="1" stroke="none" />
<circle cx="647.3029045643154" cy="295.850622406639" r="11.25" fill="none" stroke="#992626" stroke-width="7.5" stroke-opacity="0.75" />
<circle cx="654.356846473029" cy="303.31950207468867" r="15" fill="#ff0000" opacity="1" stroke="none" />
<circle cx="654.356846473029" cy="303.31950207468867" r="11.25" fill="none" stroke="#992626" stroke-width="7.5" stroke-opacity="0.75" />
<circle cx="656.0165975103735" cy="371.1203319502074" r="15" fill="#ff0000" opacity="1" stroke="none" />
<circle cx="656.0165975103735" cy="371.1203319502074" r="11.25" fill="none" stroke="#992626" stroke-width="7.5" stroke-opacity="0.75" />
<circle cx="663.0705394190871" cy="309.54356846473036" r="15" fill="#ff0000" opacity="1" stroke="none" />
<circle cx="663.0705394190871" cy="309.54356846473036" r="11.25" fill="none" stroke="#992626" stroke-width="7.5" stroke-opacity="0.75" />
<circle cx="670.1244813278009" cy="280.99585062240646" r="15" fill="#ff0000" opacity="1" stroke="none" />
<circle cx="670.1244813278009" cy="280.99585062240646" r="11.25" fill="none" stroke="#992626" stroke-width="7.5" stroke-opacity="0.75" />
<circle cx="668.0497925311204" cy="324.31535269709536" r="15" fill="#ff0000" opacity="1" stroke="none" />
<circle cx="668.0497925311204" cy="324.31535269709536" r="11.25" fill="none" stroke="#992626" stroke-width="7.5" stroke-opacity="0.75" />
<circle cx="674.688796680498" cy="276.3485477178424" r="15" fill="#ff0000" opacity="1" stroke="none" />
<circle cx="674.688796680498" cy="276.3485477178424" r="11.25" fill="none" stroke="#992626" stroke-width="7.5" stroke-opacity="0.75" />
<circle cx="676.3485477178424" cy="311.45228215767634" r="15" fill="#ff0000" opacity="1" stroke="none" />
<circle cx="676.3485477178424" cy="311.45228215767634" r="11.25" fill="none" stroke="#992626" stroke-width="7.5" stroke-opacity="0.75" />
<circle cx="682.572614107884" cy="273.40248962655585" r="15" fill="#ff0000" opacity="1" stroke="none" />
<circle cx="682.572614107884" cy="273.40248962655585" r="11.25" fill="none" stroke="#992626" stroke-width="7.5" stroke-opacity="0.75" />
<circle cx="684.2323651452282" cy="204.2323651452283" r="15" fill="#ff0000" opacity="1" stroke="none" />
<circle cx="684.2323651452282" cy="204.2323651452283" r="11.25" fill="none" stroke="#992626" stroke-width="7.5" stroke-opacity="0.75" />
<circle cx="691.2863070539419" cy="300.0" r="15" fill="#ff0000" opacity="1" stroke="none" />
<circle cx="691.2863070539419" cy="300.0" r="11.25" fill="none" stroke="#992626" stroke-width="7.5" stroke-opacity="0.75" />
<circle cx="695.0207468879668" cy="343.1120331950207" r="15" fill="#ff0000" opacity="1" stroke="none" />
<circle cx="695.0207468879668" cy="343.1120331950207" r="11.25" fill="none" stroke="#992626" stroke-width="7.5" stroke-opacity="0.75" />
<circle cx="703.3195020746889" cy="340.16597510373447" r="15" fill="#ff0000" opacity="1" stroke="none" />
<circle cx="703.3195020746889" cy="340.16597510373447" r="11.25" fill="none" stroke="#992626" stroke-width="7.5" stroke-opacity="0.75" />
<circle cx="707.8838174273859" cy="210.9128630705394" r="15" fill="#ff0000" opacity="1" stroke="none" />
<circle cx="707.8838174273859" cy="210.9128630705394" r="11.25" fill="none" stroke="#992626" stroke-width="7.5" stroke-opacity="0.75" />
<circle cx="703.3195020746889" cy="369.2946058091286" r="15" fill="#ff0000" opacity="1" stroke="none" />
<circle cx="703.3195020746889" cy="369.2946058091286" r="11.25" fill="none" stroke="#992626" stroke-width="7.5" stroke-opacity="0.75" />
<circle cx="710.3734439834025" cy="134.4398340248962" r="15" fill="#ff0000" opacity="1" stroke="none" />
<circle cx="710.3734439834025" cy="134.4398340248962" r="11.25" fill="none" stroke="#992626" stroke-width="7.5" stroke-opacity="0.75" />
<circle cx="717.4273858921163" cy="284.6473029045643" r="15" fill="#ff0000" opacity="1" stroke="none" />
<circle cx="717.4273858921163" cy="284.6473029045643" r="11.25" fill="none" stroke="#992626" stroke-width="7.5" stroke-opacity="0.75" />
<circle cx="723.2365145228216" cy="278.1742738589211" r="15" fill="#ff0000" opacity="1" stroke="none" />
<circle cx="723.2365145228216" cy="278.1742738589211" r="11.25" fill="none" stroke="#992626" stroke-width="7.5" stroke-opacity="0.75" />
<circle cx="730.7053941908713" cy="302.863070539419" r="15" fill="#ff0000" opacity="1" stroke="none" />
<circle cx="730.7053941908713" cy="302.863070539419" r="11.25" fill="none" stroke="#992626" stroke-width="7.5" stroke-opacity="0.75" />
<circle cx="730.7053941908713" cy="272.3236514522821" r="15" fill="#ff0000" opacity="1" stroke="none" />
<circle cx="730.7053941908713" cy="272.3236514522821" r="11.25" fill="none" stroke="#992626" stroke-width="7.5" stroke-opacity="0.75" />
<circle cx="730.7053941908713" cy="306.2655601659751" r="15" fill="#ff0000" opacity="1" stroke="none" />
<circle cx="730.7053941908713" cy="306.2655601659751" r="11.25" fill="none" stroke="#992626" stroke-width="7.5" stroke-opacity="0.75" />
<circle cx="734.4398340248963" cy="299.2946058091287" r="15" fill="#ff0000" opacity="1" stroke="none" />
<circle cx="734.4398340248963" cy="299.2946058091287" r="11.25" fill="none" stroke="#992626" stroke-width="7.5" stroke-opacity="0.75" />
<circle cx="742.3236514522822" cy="293.2365145228215" r="15" fill="#ff0000" opacity="1" stroke="none" />
<circle cx="742.3236514522822" cy="293.2365145228215" r="11.25" fill="none" stroke="#992626" stroke-width="7.5" stroke-opacity="0.75" />
<circle cx="745.643153526971" cy="307.63485477178426" r="15" fill="#ff0000" opacity="1" stroke="none" />
<circle cx="745.643153526971" cy="307.63485477178426" r="11.25" fill="none" stroke="#992626" stroke-width="7.5" stroke-opacity="0.75" />
<circle cx="746.8879668049792" cy="195.43568464730288" r="15" fill="#ff0000" opacity="1" stroke="none" />
<circle cx="746.8879668049792" cy="195.43568464730288" r="11.25" fill="none" stroke="#992626" stroke-width="7.5" stroke-opacity="0.75" />
<circle cx="756.0165975103736" cy="242.1161825726141" r="15" fill="#ff0000" opacity="1" stroke="none" />
<circle cx="756.0165975103736" cy="242.1161825726141" r="11.25" fill="none" stroke="#992626" stroke-width="7.5" stroke-opacity="0.75" />
<circle cx="759.7510373443985" cy="181.03734439834022" r="15" fill="#ff0000" opacity="1" stroke="none" />
<circle cx="759.7510373443985" cy="181.03734439834022" r="11.25" fill="none" stroke="#992626" stroke-width="7.5" stroke-opacity="0.75" />
<circle cx="773.8589211618257" cy="181.7012448132781" r="15" fill="#ff0000" opacity="1" stroke="none" />
<circle cx="773.8589211618257" cy="181.7012448132781" r="11.25" fill="none" stroke="#992626" stroke-width="7.5" stroke-opacity="0.75" />
<circle cx="780.9128630705394" cy="139.41908713692942" r="15" fill="#ff0000" opacity="1" stroke="none" />
<circle cx="780.9128630705394" cy="139.41908713692942" r="11.25" fill="none" stroke="#992626" stroke-width="7.5" stroke-opacity="0.75" />
<circle cx="781.3278008298755" cy="176.9709543568465" r="15" fill="#ff0000" opacity="1" stroke="none" />
<circle cx="781.3278008298755" cy="176.9709543568465" r="11.25" fill="none" stroke="#992626" stroke-width="7.5" stroke-opacity="0.75" />
<circle cx="787.551867219917" cy="185.68464730290452" r="15" fill="#ff0000" opacity="1" stroke="none" />
<circle cx="787.551867219917" cy="185.68464730290452" r="11.25" fill="none" stroke="#992626" stroke-width="7.5" stroke-opacity="0.75" />
<circle cx="792.1161825726141" cy="173.85892116182572" r="15" fill="#ff0000" opacity="1" stroke="none" />
<circle cx="792.1161825726141" cy="173.85892116182572" r="11.25" fill="none" stroke="#992626" stroke-width="7.5" stroke-opacity="0.75" />
<circle cx="800.8298755186721" cy="167.6763485477178" r="15" fill="#ff0000" opacity="1" stroke="none" />
<circle cx="800.8298755186721" cy="167.6763485477178" r="11.25" fill="none" stroke="#992626" stroke-width="7.5" stroke-opacity="0.75" />
<circle cx="800.8298755186721" cy="193.27800829875514" r="15" fill="#ff0000" opacity="1" stroke="none" />
<circle cx="800.8298755186721" cy="193.27800829875514" r="11.25" fill="none" stroke="#992626" stroke-width="7.5" stroke-opacity="0.75" />
<circle cx="802.0746887966806" cy="173.07053941908714" r="15" fill="#ff0000" opacity="1" stroke="none" />
<circle cx="802.0746887966806" cy="173.07053941908714" r="11.25" fill="none" stroke="#992626" stroke-width="7.5" stroke-opacity="0.75" />
<circle cx="811.2033195020747" cy="134.27385892116183" r="15" fill="#ff0000" opacity="1" stroke="none" />
<circle cx="811.2033195020747" cy="134.27385892116183" r="11.25" fill="none" stroke="#992626" stroke-width="7.5" stroke-opacity="0.75" />
<circle cx="815.3526970954357" cy="175.10373443983394" r="15" fill="#ff0000" opacity="1" stroke="none" />
<circle cx="815.3526970954357" cy="175.10373443983394" r="11.25" fill="none" stroke="#992626" stroke-width="7.5" stroke-opacity="0.75" />
<circle cx="828.2157676348547" cy="170.58091286307058" r="15" fill="#ff0000" opacity="1" stroke="none" />
<circle cx="828.2157676348547" cy="170.58091286307058" r="11.25" fill="none" stroke="#992626" stroke-width="7.5" stroke-opacity="0.75" />
<circle cx="829.8755186721991" cy="120.99585062240669" r="15" fill="#ff0000" opacity="1" stroke="none" />
<circle cx="829.8755186721991" cy="120.99585062240669" r="11.25" fill="none" stroke="#992626" stroke-width="7.5" stroke-opacity="0.75" />
<circle cx="834.4398340248963" cy="146.47302904564322" r="15" fill="#ff0000" opacity="1" stroke="none" />
<circle cx="834.4398340248963" cy="146.47302904564322" r="11.25" fill="none" stroke="#992626" stroke-width="7.5" stroke-opacity="0.75" />
<circle cx="837.3443983402489" cy="116.80497925311204" r="15" fill="#ff0000" opacity="1" stroke="none" />
<circle cx="837.3443983402489" cy="116.80497925311204" r="11.25" fill="none" stroke="#992626" stroke-width="7.5" stroke-opacity="0.75" />
<circle cx="857.2614107883817" cy="114.93775933609948" r="15" fill="#ff0000" opacity="1" stroke="none" />
<circle cx="857.2614107883817" cy="114.93775933609948" r="11.25" fill="none" stroke="#992626" stroke-width="7.5" stroke-opacity="0.75" />
<circle cx="883.8174273858921" cy="97.59336099585062" r="15" fill="#ff0000" opacity="1" stroke="none" />
<circle cx="883.8174273858921" cy="97.59336099585062" r="11.25" fill="none" stroke="#992626" stroke-width="7.5" stroke-opacity="0.75" />
<circle cx="902.9045643153527" cy="51.41078838174269" r="15" fill="#ff0000" opacity="1" stroke="none" />
<circle cx="902.9045643153527" cy="51.41078838174269" r="11.25" fill="none" stroke="#992626" stroke-width="7.5" stroke-opacity="0.75" />
<circle cx="888.7966804979254" cy="69.37759336099589" r="15" fill="#ff0000" opacity="1" stroke="none" />
<circle cx="888.7966804979254" cy="69.37759336099589" r="11.25" fill="none" stroke="#992626" stroke-width="7.5" stroke-opacity="0.75" />
<circle cx="903.7344398340249" cy="50.62240663900411" r="15" fill="#ff0000" opacity="1" stroke="none" />
<circle cx="903.7344398340249" cy="50.62240663900411" r="11.25" fill="none" stroke="#992626" stroke-width="7.5" stroke-opacity="0.75" />
<circle cx="931.1203319502075" cy="63.56846473029043" r="15" fill="#ff0000" opacity="1" stroke="none" />
<circle cx="931.1203319502075" cy="63.56846473029043" r="11.25" fill="none" stroke="#992626" stroke-width="7.5" stroke-opacity="0.75" />
<circle cx="951.4522821576763" cy="51.618257261410804" r="15" fill="#ff0000" opacity="1" stroke="none" />
<circle cx="951.4522821576763" cy="51.618257261410804" r="11.25" fill="none" stroke="#992626" stroke-width="7.5" stroke-opacity="0.75" />
<circle cx="953.941908713693" cy="60.49792531120329" r="15" fill="#ff0000" opacity="1" stroke="none" />
<circle cx="953.941908713693" cy="60.49792531120329" r="11.25" fill="none" stroke="#992626" stroke-width="7.5" stroke-opacity="0.75" />
</g>
<g id="d2">
<circle cx="152.28215767634862" cy="846.4712607514314" r="15" fill="#027f00" opacity="1" stroke="none" />
<circle cx="152.28215767634862" cy="846.4712607514314" r="11.25" fill="none" stroke="#144c13" stroke-width="7.5" stroke-opacity="0.75" />
<circle cx="80.0829875518672" cy="919.2152002738223" r="15" fill="#027f00" opacity="1" stroke="none" />
<circle cx="80.0829875518672" cy="919.2152002738223" r="11.25" fill="none" stroke="#144c13" stroke-width="7.5" stroke-opacity="0.75" />
<circle cx="377.17842323651456" cy="590.6391267459917" r="15" fill="#027f00" opacity="1" stroke="none" />
<circle cx="377.17842323651456" cy="590.6391267459917" r="11.25" fill="none" stroke="#144c13" stroke-width="7.5" stroke-opacity="0.75" />
<circle cx="415.7676348547718" cy="618.9151392537033" r="15" fill="#027f00" opacity="1" stroke="none" />
<circle cx="415.7676348547718" cy="618.9151392537033" r="11.25" fill="none" stroke="#144c13" stroke-width="7.5" stroke-opacity="0.75" />
<circle cx="429.045643153527" cy="538.4288252043032" r="15" fill="#027f00" opacity="1" stroke="none" />
<circle cx="429.045643153527" cy="538.4288252043032" r="11.25" fill="none" stroke="#144c13" stroke-width="7.5" stroke-opacity="0.75" />
<circle cx="435.2697095435685" cy="634.9243247162751" r="15" fill="#027f00" opacity="1" stroke="none" />
<circle cx="435.2697095435685" cy="634.9243247162751" r="11.25" fill="none" stroke="#144c13" stroke-width="7.5" stroke-opacity="0.75" />
<circle cx="441.9087136929461" cy="576.7315581032844" r="15" fill="#027f00" opacity="1" stroke="none" />
<circle cx="441.9087136929461" cy="576.7315581032844" r="11.25" fill="none" stroke="#144c13" stroke-width="7.5" stroke-opacity="0.75" />
<circle cx="452.2821576763486" cy="577.2842697088154" r="15" fill="#027f00" opacity="1" stroke="none" />
<circle cx="452.2821576763486" cy="577.2842697088154" r="11.25" fill="none" stroke="#144c13" stroke-width="7.5" stroke-opacity="0.75" />
<circle cx="467.63485477178426" cy="574.1497776567688" r="15" fill="#027f00" opacity="1" stroke="none" />
<circle cx="467.63485477178426" cy="574.1497776567688" r="11.25" fill="none" stroke="#144c13" stroke-width="7.5" stroke-opacity="0.75" />
<circle cx="502.9045643153527" cy="635.5392274668602" r="15" fill="#027f00" opacity="1" stroke="none" />
<circle cx="502.9045643153527" cy="635.5392274668602" r="11.25" fill="none" stroke="#144c13" stroke-width="7.5" stroke-opacity="0.75" />
<circle cx="519.5020746887967" cy="551.2016610584812" r="15" fill="#027f00" opacity="1" stroke="none" />
<circle cx="519.5020746887967" cy="551.2016610584812" r="11.25" fill="none" stroke="#144c13" stroke-width="7.5" stroke-opacity="0.75" />
<circle cx="525.7261410788382" cy="480.309482763417" r="15" fill="#027f00" opacity="1" stroke="none" />
<circle cx="525.7261410788382" cy="480.309482763417" r="11.25" fill="none" stroke="#144c13" stroke-width="7.5" stroke-opacity="0.75" />
<circle cx="531.5352697095436" cy="437.6421900309962" r="15" fill="#027f00" opacity="1" stroke="none" />
<circle cx="531.5352697095436" cy="437.6421900309962" r="11.25" fill="none" stroke="#144c13" stroke-width="7.5" stroke-opacity="0.75" />
<circle cx="545.2282157676348" cy="510.3497037452286" r="15" fill="#027f00" opacity="1" stroke="none" />
<circle cx="545.2282157676348" cy="510.3497037452286" r="11.25" fill="none" stroke="#144c13" stroke-width="7.5" stroke-opacity="0.75" />
<circle cx="559.3360995850622" cy="425.4057302910262" r="15" fill="#027f00" opacity="1" stroke="none" />
<circle cx="559.3360995850622" cy="425.4057302910262" r="11.25" fill="none" stroke="#144c13" stroke-width="7.5" stroke-opacity="0.75" />
<circle cx="570.9543568464732" cy="507.8688370785772" r="15" fill="#027f00" opacity="1" stroke="none" />
<circle cx="570.9543568464732" cy="507.8688370785772" r="11.25" fill="none" stroke="#144c13" stroke-width="7.5" stroke-opacity="0.75" />
<circle cx="565.9751037344398" cy="499.36297278186584" r="15" fill="#027f00" opacity="1" stroke="none" />
<circle cx="565.9751037344398" cy="499.36297278186584" r="11.25" fill="none" stroke="#144c13" stroke-width="7.5" stroke-opacity="0.75" />
<circle cx="576.7634854771785" cy="346.2433635347611" r="15" fill="#027f00" opacity="1" stroke="none" />
<circle cx="576.7634854771785" cy="346.2433635347611" r="11.25" fill="none" stroke="#144c13" stroke-width="7.5" stroke-opacity="0.75" />
<circle cx="585.0622406639004" cy="429.4364201478445" r="15" fill="#027f00" opacity="1" stroke="none" />
<circle cx="585.0622406639004" cy="429.4364201478445" r="11.25" fill="none" stroke="#144c13" stroke-width="7.5" stroke-opacity="0.75" />
<circle cx="590.0414937759336" cy="529.6259445174601" r="15" fill="#027f00" opacity="1" stroke="none" />
<circle cx="590.0414937759336" cy="529.6259445174601" r="11.25" fill="none" stroke="#144c13" stroke-width="7.5" stroke-opacity="0.75" />
<circle cx="596.6804979253113" cy="401.3226453298355" r="15" fill="#027f00" opacity="1" stroke="none" />
<circle cx="596.6804979253113" cy="401.3226453298355" r="11.25" fill="none" stroke="#144c13" stroke-width="7.5" stroke-opacity="0.75" />
<circle cx="596.2655601659751" cy="447.60126834093785" r="15" fill="#027f00" opacity="1" stroke="none" />
<circle cx="596.2655601659751" cy="447.60126834093785" r="11.25" fill="none" stroke="#144c13" stroke-width="7.5" stroke-opacity="0.75" />
<circle cx="612.8630705394191" cy="448.13410818329487" r="15" fill="#027f00" opacity="1" stroke="none" />
<circle cx="612.8630705394191" cy="448.13410818329487" r="11.25" fill="none" stroke="#144c13" stroke-width="7.5" stroke-opacity="0.75" />
<circle cx="622.4066390041494" cy="359.38010932004306" r="15" fill="#027f00" opacity="1" stroke="none" />
<circle cx="622.4066390041494" cy="359.38010932004306" r="11.25" fill="none" stroke="#144c13" stroke-width="7.5" stroke-opacity="0.75" />
<circle cx="624.066390041494" cy="394.6147595797337" r="15" fill="#027f00" opacity="1" stroke="none" />
<circle cx="624.066390041494" cy="394.6147595797337" r="11.25" fill="none" stroke="#144c13" stroke-width="7.5" stroke-opacity="0.75" />
<circle cx="631.9502074688796" cy="445.0465418590055" r="15" fill="#027f00" opacity="1" stroke="none" />
<circle cx="631.9502074688796" cy="445.0465418590055" r="11.25" fill="none" stroke="#144c13" stroke-width="7.5" stroke-opacity="0.75" />
<circle cx="631.9502074688796" cy="484.1449547209679" r="15" fill="#027f00" opacity="1" stroke="none" />
<circle cx="631.9502074688796" cy="484.1449547209679" r="11.25" fill="none" stroke="#144c13" stroke-width="7.5" stroke-opacity="0.75" />
<circle cx="638.1742738589212" cy="360.6367954871465" r="15" fill="#027f00" opacity="1" stroke="none" />
<circle cx="638.1742738589212" cy="360.6367954871465" r="11.25" fill="none" stroke="#144c13" stroke-width="7.5" stroke-opacity="0.75" />
<circle cx="639.8340248962656" cy="527.5914122306459" r="15" fill="#027f00" opacity="1" stroke="none" />
<circle cx="639.8340248962656" cy="527.5914122306459" r="11.25" fill="none" stroke="#144c13" stroke-width="7.5" stroke-opacity="0.75" />
<circle cx="646.8879668049793" cy="337.8050708177178" r="15" fill="#027f00" opacity="1" stroke="none" />
<circle cx="646.8879668049793" cy="337.8050708177178" r="11.25" fill="none" stroke="#144c13" stroke-width="7.5" stroke-opacity="0.75" />
<circle cx="649.792531120332" cy="365.29339327357116" r="15" fill="#027f00" opacity="1" stroke="none" />
<circle cx="649.792531120332" cy="365.29339327357116" r="11.25" fill="none" stroke="#144c13" stroke-width="7.5" stroke-opacity="0.75" />
<circle cx="647.3029045643154" cy="349.25479137056595" r="15" fill="#027f00" opacity="1" stroke="none" />
<circle cx="647.3029045643154" cy="349.25479137056595" r="11.25" fill="none" stroke="#144c13" stroke-width="7.5" stroke-opacity="0.75" />
<circle cx="654.356846473029" cy="347.28344288109747" r="15" fill="#027f00" opacity="1" stroke="none" />
<circle cx="654.356846473029" cy="347.28344288109747" r="11.25" fill="none" stroke="#144c13" stroke-width="7.5" stroke-opacity="0.75" />
<circle cx="656.0165975103735" cy="376.0241414847709" r="15" fill="#027f00" opacity="1" stroke="none" />
<circle cx="656.0165975103735" cy="376.0241414847709" r="11.25" fill="none" stroke="#144c13" stroke-width="7.5" stroke-opacity="0.75" />
<circle cx="663.0705394190871" cy="353.3622569562983" r="15" fill="#027f00" opacity="1" stroke="none" />
<circle cx="663.0705394190871" cy="353.3622569562983" r="11.25" fill="none" stroke="#144c13" stroke-width="7.5" stroke-opacity="0.75" />
<circle cx="670.1244813278009" cy="337.039125292133" r="15" fill="#027f00" opacity="1" stroke="none" />
<circle cx="670.1244813278009" cy="337.039125292133" r="11.25" fill="none" stroke="#144c13" stroke-width="7.5" stroke-opacity="0.75" />
<circle cx="668.0497925311204" cy="346.26996432102567" r="15" fill="#027f00" opacity="1" stroke="none" />
<circle cx="668.0497925311204" cy="346.26996432102567" r="11.25" fill="none" stroke="#144c13" stroke-width="7.5" stroke-opacity="0.75" />
<circle cx="674.688796680498" cy="318.30341627983626" r="15" fill="#027f00" opacity="1" stroke="none" />
<circle cx="674.688796680498" cy="318.30341627983626" r="11.25" fill="none" stroke="#144c13" stroke-width="7.5" stroke-opacity="0.75" />
<circle cx="676.3485477178424" cy="338.3998190614692" r="15" fill="#027f00" opacity="1" stroke="none" />
<circle cx="676.3485477178424" cy="338.3998190614692" r="11.25" fill="none" stroke="#144c13" stroke-width="7.5" stroke-opacity="0.75" />
<circle cx="682.572614107884" cy="323.0407629369205" r="15" fill="#027f00" opacity="1" stroke="none" />
<circle cx="682.572614107884" cy="323.0407629369205" r="11.25" fill="none" stroke="#144c13" stroke-width="7.5" stroke-opacity="0.75" />
<circle cx="684.2323651452282" cy="254.7975624052815" r="15" fill="#027f00" opacity="1" stroke="none" />
<circle cx="684.2323651452282" cy="254.7975624052815" r="11.25" fill="none" stroke="#144c13" stroke-width="7.5" stroke-opacity="0.75" />
<circle cx="691.2863070539419" cy="353.9630577277346" r="15" fill="#027f00" opacity="1" stroke="none" />
<circle cx="691.2863070539419" cy="353.9630577277346" r="11.25" fill="none" stroke="#144c13" stroke-width="7.5" stroke-opacity="0.75" />
<circle cx="695.0207468879668" cy="347.05148904155396" r="15" fill="#027f00" opacity="1" stroke="none" />
<circle cx="695.0207468879668" cy="347.05148904155396" r="11.25" fill="none" stroke="#144c13" stroke-width="7.5" stroke-opacity="0.75" />
<circle cx="703.3195020746889" cy="321.98841336357157" r="15" fill="#027f00" opacity="1" stroke="none" />
<circle cx="703.3195020746889" cy="321.98841336357157" r="11.25" fill="none" stroke="#144c13" stroke-width="7.5" stroke-opacity="0.75" />
<circle cx="707.8838174273859" cy="267.1640713877697" r="15" fill="#027f00" opacity="1" stroke="none" />
<circle cx="707.8838174273859" cy="267.1640713877697" r="11.25" fill="none" stroke="#144c13" stroke-width="7.5" stroke-opacity="0.75" />
<circle cx="703.3195020746889" cy="381.63510941865536" r="15" fill="#027f00" opacity="1" stroke="none" />
<circle cx="703.3195020746889" cy="381.63510941865536" r="11.25" fill="none" stroke="#144c13" stroke-width="7.5" stroke-opacity="0.75" />
<circle cx="710.3734439834025" cy="216.92088985838825" r="15" fill="#027f00" opacity="1" stroke="none" />
<circle cx="710.3734439834025" cy="216.92088985838825" r="11.25" fill="none" stroke="#144c13" stroke-width="7.5" stroke-opacity="0.75" />
<circle cx="717.4273858921163" cy="303.16221704126883" r="15" fill="#027f00" opacity="1" stroke="none" />
<circle cx="717.4273858921163" cy="303.16221704126883" r="11.25" fill="none" stroke="#144c13" stroke-width="7.5" stroke-opacity="0.75" />
<circle cx="723.2365145228216" cy="294.1381166189043" r="15" fill="#027f00" opacity="1" stroke="none" />
<circle cx="723.2365145228216" cy="294.1381166189043" r="11.25" fill="none" stroke="#144c13" stroke-width="7.5" stroke-opacity="0.75" />
<circle cx="730.7053941908713" cy="297.0238007302106" r="15" fill="#027f00" opacity="1" stroke="none" />
<circle cx="730.7053941908713" cy="297.0238007302106" r="11.25" fill="none" stroke="#144c13" stroke-width="7.5" stroke-opacity="0.75" />
<circle cx="730.7053941908713" cy="296.4968740890629" r="15" fill="#027f00" opacity="1" stroke="none" />
<circle cx="730.7053941908713" cy="296.4968740890629" r="11.25" fill="none" stroke="#144c13" stroke-width="7.5" stroke-opacity="0.75" />
<circle cx="730.7053941908713" cy="303.1125307231524" r="15" fill="#027f00" opacity="1" stroke="none" />
<circle cx="730.7053941908713" cy="303.1125307231524" r="11.25" fill="none" stroke="#144c13" stroke-width="7.5" stroke-opacity="0.75" />
<circle cx="734.4398340248963" cy="321.5644369679368" r="15" fill="#027f00" opacity="1" stroke="none" />
<circle cx="734.4398340248963" cy="321.5644369679368" r="11.25" fill="none" stroke="#144c13" stroke-width="7.5" stroke-opacity="0.75" />
<circle cx="742.3236514522822" cy="298.26947817169275" r="15" fill="#027f00" opacity="1" stroke="none" />
<circle cx="742.3236514522822" cy="298.26947817169275" r="11.25" fill="none" stroke="#144c13" stroke-width="7.5" stroke-opacity="0.75" />
<circle cx="745.643153526971" cy="258.14469776707574" r="15" fill="#027f00" opacity="1" stroke="none" />
<circle cx="745.643153526971" cy="258.14469776707574" r="11.25" fill="none" stroke="#144c13" stroke-width="7.5" stroke-opacity="0.75" />
<circle cx="746.8879668049792" cy="245.3840208251446" r="15" fill="#027f00" opacity="1" stroke="none" />
<circle cx="746.8879668049792" cy="245.3840208251446" r="11.25" fill="none" stroke="#144c13" stroke-width="7.5" stroke-opacity="0.75" />
<circle cx="756.0165975103736" cy="248.53097479867733" r="15" fill="#027f00" opacity="1" stroke="none" />
<circle cx="756.0165975103736" cy="248.53097479867733" r="11.25" fill="none" stroke="#144c13" stroke-width="7.5" stroke-opacity="0.75" />
<circle cx="759.7510373443985" cy="238.093373706232" r="15" fill="#027f00" opacity="1" stroke="none" />
<circle cx="759.7510373443985" cy="238.093373706232" r="11.25" fill="none" stroke="#144c13" stroke-width="7.5" stroke-opacity="0.75" />
<circle cx="773.8589211618257" cy="239.8432113916548" r="15" fill="#027f00" opacity="1" stroke="none" />
<circle cx="773.8589211618257" cy="239.8432113916548" r="11.25" fill="none" stroke="#144c13" stroke-width="7.5" stroke-opacity="0.75" />
<circle cx="780.9128630705394" cy="195.87483089494503" r="15" fill="#027f00" opacity="1" stroke="none" />
<circle cx="780.9128630705394" cy="195.87483089494503" r="11.25" fill="none" stroke="#144c13" stroke-width="7.5" stroke-opacity="0.75" />
<circle cx="781.3278008298755" cy="236.10913466615807" r="15" fill="#027f00" opacity="1" stroke="none" />
<circle cx="781.3278008298755" cy="236.10913466615807" r="11.25" fill="none" stroke="#144c13" stroke-width="7.5" stroke-opacity="0.75" />
<circle cx="787.551867219917" cy="225.10922202430822" r="15" fill="#027f00" opacity="1" stroke="none" />
<circle cx="787.551867219917" cy="225.10922202430822" r="11.25" fill="none" stroke="#144c13" stroke-width="7.5" stroke-opacity="0.75" />
<circle cx="792.1161825726141" cy="221.53007796196528" r="15" fill="#027f00" opacity="1" stroke="none" />
<circle cx="792.1161825726141" cy="221.53007796196528" r="11.25" fill="none" stroke="#144c13" stroke-width="7.5" stroke-opacity="0.75" />
<circle cx="800.8298755186721" cy="201.87331397503738" r="15" fill="#027f00" opacity="1" stroke="none" />
<circle cx="800.8298755186721" cy="201.87331397503738" r="11.25" fill="none" stroke="#144c13" stroke-width="7.5" stroke-opacity="0.75" />
<circle cx="800.8298755186721" cy="237.3436925025402" r="15" fill="#027f00" opacity="1" stroke="none" />
<circle cx="800.8298755186721" cy="237.3436925025402" r="11.25" fill="none" stroke="#144c13" stroke-width="7.5" stroke-opacity="0.75" />
<circle cx="802.0746887966806" cy="228.14179835972448" r="15" fill="#027f00" opacity="1" stroke="none" />
<circle cx="802.0746887966806" cy="228.14179835972448" r="11.25" fill="none" stroke="#144c13" stroke-width="7.5" stroke-opacity="0.75" />
<circle cx="811.2033195020747" cy="176.17392583506728" r="15" fill="#027f00" opacity="1" stroke="none" />
<circle cx="811.2033195020747" cy="176.17392583506728" r="11.25" fill="none" stroke="#144c13" stroke-width="7.5" stroke-opacity="0.75" />
<circle cx="815.3526970954357" cy="182.84878485924958" r="15" fill="#027f00" opacity="1" stroke="none" />
<circle cx="815.3526970954357" cy="182.84878485924958" r="11.25" fill="none" stroke="#144c13" stroke-width="7.5" stroke-opacity="0.75" />
<circle cx="828.2157676348547" cy="196.4152699585278" r="15" fill="#027f00" opacity="1" stroke="none" />
<circle cx="828.2157676348547" cy="196.4152699585278" r="11.25" fill="none" stroke="#144c13" stroke-width="7.5" stroke-opacity="0.75" />
<circle cx="829.8755186721991" cy="168.82727714000396" r="15" fill="#027f00" opacity="1" stroke="none" />
<circle cx="829.8755186721991" cy="168.82727714000396" r="11.25" fill="none" stroke="#144c13" stroke-width="7.5" stroke-opacity="0.75" />
<circle cx="834.4398340248963" cy="179.25330336163154" r="15" fill="#027f00" opacity="1" stroke="none" />
<circle cx="834.4398340248963" cy="179.25330336163154" r="11.25" fill="none" stroke="#144c13" stroke-width="7.5" stroke-opacity="0.75" />
<circle cx="837.3443983402489" cy="159.50096850573277" r="15" fill="#027f00" opacity="1" stroke="none" />
<circle cx="837.3443983402489" cy="159.50096850573277" r="11.25" fill="none" stroke="#144c13" stroke-width="7.5" stroke-opacity="0.75" />
<circle cx="857.2614107883817" cy="164.34671057705066" r="15" fill="#027f00" opacity="1" stroke="none" />
<circle cx="857.2614107883817" cy="164.34671057705066" r="11.25" fill="none" stroke="#144c13" stroke-width="7.5" stroke-opacity="0.75" />
<circle cx="883.8174273858921" cy="130.7536112124494" r="15" fill="#027f00" opacity="1" stroke="none" />
<circle cx="883.8174273858921" cy="130.7536112124494" r="11.25" fill="none" stroke="#144c13" stroke-width="7.5" stroke-opacity="0.75" />
<circle cx="902.9045643153527" cy="100.9192126024808" r="15" fill="#027f00" opacity="1" stroke="none" />
<circle cx="902.9045643153527" cy="100.9192126024808" r="11.25" fill="none" stroke="#144c13" stroke-width="7.5" stroke-opacity="0.75" />
<circle cx="888.7966804979254" cy="126.18993612740553" r="15" fill="#027f00" opacity="1" stroke="none" />
<circle cx="888.7966804979254" cy="126.18993612740553" r="11.25" fill="none" stroke="#144c13" stroke-width="7.5" stroke-opacity="0.75" />
<circle cx="903.7344398340249" cy="95.23642884250489" r="15" fill="#027f00" opacity="1" stroke="none" />
<circle cx="903.7344398340249" cy="95.23642884250489" r="11.25" fill="none" stroke="#144c13" stroke-width="7.5" stroke-opacity="0.75" />
<circle cx="931.1203319502075" cy="86.9539019279955" r="15" fill="#027f00" opacity="1" stroke="none" />
<circle cx="931.1203319502075" cy="86.9539019279955" r="11.25" fill="none" stroke="#144c13" stroke-width="7.5" stroke-opacity="0.75" />
<circle cx="951.4522821576763" cy="77.90334665923695" r="15" fill="#027f00" opacity="1" stroke="none" />
<circle cx="951.4522821576763" cy="77.90334665923695" r="11.25" fill="none" stroke="#144c13" stroke-width="7.5" stroke-opacity="0.75" />
<circle cx="953.941908713693" cy="58.971708191875564" r="15" fill="#027f00" opacity="1" stroke="none" />
<circle cx="953.941908713693" cy="58.971708191875564" r="11.25" fill="none" stroke="#144c13" stroke-width="7.5" stroke-opacity="0.75" />
</g>
<g id="d3">
<path d="M150.0,1150.0 L1150.0,150.0" fill="none" opacity="0.5" stroke="#000000" stroke-width="16" />
<use xlink:href="#d0" x="150.0" y="150.0" />
<use xlink:href="#d1" x="150.0" y="150.0" />
<use xlink:href="#d2" x="150.0" y="150.0" />
<path d="M189.99999999999994,1137.4150864176286 L209.99999999999991,1116.2946130334255" stroke="#992626" fill="none" stroke-width="8" stroke-opacity="0.75" />
<path d="M229.9999999999999,1095.1741396492223 L249.99999999999986,1074.0536662650193" stroke="#992626" fill="none" stroke-width="8" stroke-opacity="0.75" />
<path d="M269.99999999999983,1052.933192880816 L289.9999999999998,1031.812719496613" stroke="#992626" fill="none" stroke-width="8" stroke-opacity="0.75" />
<path d="M309.9999999999998,1010.6922461124099 L329.9999999999998,989.5717727282067" stroke="#992626" fill="none" stroke-width="8" stroke-opacity="0.75" />
<path d="M349.9999999999997,968.4512993440035 L369.99999999999966,947.3308259598004" stroke="#992626" fill="none" stroke-width="8" stroke-opacity="0.75" />
<path d="M389.99999999999966,926.2103525755973 L409.9999999999996,905.0898791913942" stroke="#992626" fill="none" stroke-width="8" stroke-opacity="0.75" />
<path d="M429.9999999999996,883.9694058071912 L449.99999999999955,862.8489324229879" stroke="#992626" fill="none" stroke-width="8" stroke-opacity="0.75" />
<path d="M469.9999999999995,841.7284590387849 L489.99999999999955,820.6079856545817" stroke="#992626" fill="none" stroke-width="8" stroke-opacity="0.75" />
<path d="M509.9999999999995,799.4875122703786 L529.9999999999994,778.3670388861755" stroke="#992626" fill="none" stroke-width="8" stroke-opacity="0.75" />
<path d="M549.9999999999994,757.2465655019723 L569.9999999999993,736.1260921177693" stroke="#992626" fill="none" stroke-width="8" stroke-opacity="0.75" />
<path d="M589.9999999999993,715.005618733566 L609.9999999999993,693.885145349363" stroke="#992626" fill="none" stroke-width="8" stroke-opacity="0.75" />
<path d="M629.9999999999993,672.7646719651598 L649.9999999999993,651.6441985809568" stroke="#992626" fill="none" stroke-width="8" stroke-opacity="0.75" />
<path d="M669.9999999999992,630.5237251967536 L689.9999999999992,609.4032518125505" stroke="#992626" fill="none" stroke-width="8" stroke-opacity="0.75" />
<path d="M709.9999999999992,588.2827784283473 L729.9999999999992,567.1623050441442" stroke="#992626" fill="none" stroke-width="8" stroke-opacity="0.75" />
<path d="M749.9999999999991,546.0418316599411 L769.9999999999991,524.921358275738" stroke="#992626" fill="none" stroke-width="8" stroke-opacity="0.75" />
<path d="M789.999999999999,503.8008848915349 L809.999999999999,482.68041150733177" stroke="#992626" fill="none" stroke-width="8" stroke-opacity="0.75" />
<path d="M829.9999999999991,461.55993812312863 L849.999999999999,440.4394647389255" stroke="#992626" fill="none" stroke-width="8" stroke-opacity="0.75" />
<path d="M869.999999999999,419.31899135472236 L889.9999999999989,398.19851797051933" stroke="#992626" fill="none" stroke-width="8" stroke-opacity="0.75" />
<path d="M909.9999999999989,377.0780445863162 L929.9999999999987,355.95757120211294" stroke="#992626" fill="none" stroke-width="8" stroke-opacity="0.75" />
<path d="M949.9999999999989,334.8370978179098 L969.9999999999989,313.71662443370667" stroke="#992626" fill="none" stroke-width="8" stroke-opacity="0.75" />
<path d="M989.9999999999987,292.59615104950365 L1009.9999999999987,271.4756776653005" stroke="#992626" fill="none" stroke-width="8" stroke-opacity="0.75" />
<path d="M1029.9999999999986,250.35520428109749 L1049.9999999999986,229.23473089689435" stroke="#992626" fill="none" stroke-width="8" stroke-opacity="0.75" />
<path d="M1069.9999999999986,208.1142575126912 L1089.9999999999986,186.99378412848796" stroke="#992626" fill="none" stroke-width="8" stroke-opacity="0.75" />
<path d="M189.99999999999994,1143.795138102415 L209.99999999999991,1123.357871237669" stroke="#144c13" fill="none" stroke-width="8" stroke-opacity="0.75" />
<path d="M229.9999999999999,1102.9206043729234 L249.99999999999986,1082.4833375081778" stroke="#144c13" fill="none" stroke-width="8" stroke-opacity="0.75" />
<path d="M269.99999999999983,1062.046070643432 L289.9999999999998,1041.6088037786863" stroke="#144c13" fill="none" stroke-width="8" stroke-opacity="0.75" />
<path d="M309.9999999999998,1021.1715369139406 L329.9999999999998,1000.7342700491948" stroke="#144c13" fill="none" stroke-width="8" stroke-opacity="0.75" />
<path d="M349.9999999999997,980.2970031844493 L369.99999999999966,959.8597363197035" stroke="#144c13" fill="none" stroke-width="8" stroke-opacity="0.75" />
<path d="M389.99999999999966,939.4224694549579 L409.9999999999996,918.9852025902121" stroke="#144c13" fill="none" stroke-width="8" stroke-opacity="0.75" />
<path d="M429.9999999999996,898.5479357254665 L449.99999999999955,878.1106688607207" stroke="#144c13" fill="none" stroke-width="8" stroke-opacity="0.75" />
<path d="M469.9999999999995,857.6734019959749 L489.99999999999955,837.2361351312293" stroke="#144c13" fill="none" stroke-width="8" stroke-opacity="0.75" />
<path d="M509.9999999999995,816.7988682664836 L529.9999999999994,796.3616014017379" stroke="#144c13" fill="none" stroke-width="8" stroke-opacity="0.75" />
<path d="M549.9999999999994,775.9243345369922 L569.9999999999993,755.4870676722464" stroke="#144c13" fill="none" stroke-width="8" stroke-opacity="0.75" />
<path d="M589.9999999999993,735.0498008075008 L609.9999999999993,714.612533942755" stroke="#144c13" fill="none" stroke-width="8" stroke-opacity="0.75" />
<path d="M629.9999999999993,694.1752670780093 L649.9999999999993,673.7380002132636" stroke="#144c13" fill="none" stroke-width="8" stroke-opacity="0.75" />
<path d="M669.9999999999992,653.300733348518 L689.9999999999992,632.8634664837721" stroke="#144c13" fill="none" stroke-width="8" stroke-opacity="0.75" />
<path d="M709.9999999999992,612.4261996190264 L729.9999999999992,591.9889327542808" stroke="#144c13" fill="none" stroke-width="8" stroke-opacity="0.75" />
<path d="M749.9999999999991,571.551665889535 L769.9999999999991,551.1143990247893" stroke="#144c13" fill="none" stroke-width="8" stroke-opacity="0.75" />
<path d="M789.999999999999,530.6771321600436 L809.999999999999,510.23986529529793" stroke="#144c13" fill="none" stroke-width="8" stroke-opacity="0.75" />
<path d="M829.9999999999991,489.80259843055217 L849.999999999999,469.3653315658065" stroke="#144c13" fill="none" stroke-width="8" stroke-opacity="0.75" />
<path d="M869.999999999999,448.92806470106086 L889.9999999999989,428.490797836315" stroke="#144c13" fill="none" stroke-width="8" stroke-opacity="0.75" />
<path d="M909.9999999999989,408.05353097156933 L929.9999999999987,387.6162641068237" stroke="#144c13" fill="none" stroke-width="8" stroke-opacity="0.75" />
<path d="M949.9999999999989,367.1789972420779 L969.9999999999989,346.7417303773324" stroke="#144c13" fill="none" stroke-width="8" stroke-opacity="0.75" />
<path d="M989.9999999999987,326.3044635125866 L1009.9999999999987,305.86719664784073" stroke="#144c13" fill="none" stroke-width="8" stroke-opacity="0.75" />
<path d="M1029.9999999999986,285.4299297830952 L1049.9999999999986,264.9926629183494" stroke="#144c13" fill="none" stroke-width="8" stroke-opacity="0.75" />
<path d="M1069.9999999999986,244.55539605360366 L1089.9999999999986,224.118129188858" stroke="#144c13" fill="none" stroke-width="8" stroke-opacity="0.75" />
<path d="M1109.9999999999986,203.68086232411224 L1129.9999999999986,183.24359545936647" stroke="#144c13" fill="none" stroke-width="8" stroke-opacity="0.75" />
</g>
</defs>
<rect x="-5" y="-5" width="1310" height="1310" fill="#ffffff" />
<use xlink:href="#d3" x="50" y="30" />
</svg>