<?xml version="1.0" encoding="UTF-8"?>
<svg xmlns="http://www.w3.org/2000/svg" xmlns:xlink="http://www.w3.org/1999/xlink"
     width="2600" height="2600" viewBox="0 0 1300 1300">
<defs>
<g id="d0">
<path d="M-5.0,0 L-5.0,1010.0" fill="none" stroke="#000000" stroke-width="10.0" stroke-opacity="0.75" />
<path d="M-10.0,1005.0 L1000,1005.0" fill="none" stroke="#000000" stroke-width="10.0" stroke-opacity="0.75" />
<path d="M4.149377593361055,1010.0 L4.149377593361055,1030" fill="none" stroke="#000000" stroke-width="10.0" stroke-opacity="0.75" />
<text x="4.149377593361055" y="1110" font-size="80" text-anchor="middle" fill="#000000" fill-opacity="0.75" font-family="Arial">-20</text>
<path d="M419.0871369294606,1010.0 L419.0871369294606,1030" fill="none" stroke="#000000" stroke-width="10.0" stroke-opacity="0.75" />
<text x="419.0871369294606" y="1110" font-size="80" text-anchor="middle" fill="#000000" fill-opacity="0.75" font-family="Arial">-10</text>
<path d="M834.0248962655602,1010.0 L834.0248962655602,1030" fill="none" stroke="#000000" stroke-width="10.0" stroke-opacity="0.75" />
<text x="834.0248962655602" y="1110" font-size="80" text-anchor="middle" fill="#000000" fill-opacity="0.75" font-family="Arial">0</text>
<path d="M4.149377593361055,0 L4.149377593361055,1000" fill="none" stroke="#1e1e46" stroke-width="7.5" stroke-opacity="0.25" />
<path d="M211.61825726141083,0 L211.61825726141083,1000" fill="none" stroke="#1e1e46" stroke-width="7.5" stroke-opacity="0.25" />
<path d="M419.0871369294606,0 L419.0871369294606,1000" fill="none" stroke="#1e1e46" stroke-width="7.5" stroke-opacity="0.25" />
<path d="M626.5560165975104,0 L626.5560165975104,1000" fill="none" stroke="#1e1e46" stroke-width="7.5" stroke-opacity="0.25" />
<path d="M834.0248962655602,0 L834.0248962655602,1000" fill="none" stroke="#1e1e46" stroke-width="7.5" stroke-opacity="0.25" />
<path d="M-10.0,995.850622406639 L-30,995.850622406639" ill="none" stroke="#000000" stroke-width="10.0" stroke-opacity="0.75" />
<text x="-40" y="1018.850622406639" font-size="80" text-anchor="end" fill="#000000" fill-opacity="0.75" font-family="Arial">-20</text>
<path d="M-10.0,580.9128630705394 L-30,580.9128630705394" ill="none" stroke="#000000" stroke-width="10.0" stroke-opacity="0.75" />
<text x="-40" y="603.9128630705394" font-size="80" text-anchor="end" fill="#000000" fill-opacity="0.75" font-family="Arial">-10</text>
<path d="M-10.0,165.9751037344398 L-30,165.9751037344398" ill="none" stroke="#000000" stroke-width="10.0" stroke-opacity="0.75" />
<text x="-40" y="188.9751037344398" font-size="80" text-anchor="end" fill="#000000" fill-opacity="0.75" font-family="Arial">0</text>
<path d="M0,995.850622406639 L1000,995.850622406639" fill="none" stroke="#1e1e46" stroke-width="7.5" stroke-opacity="0.25" />
<path d="M0,788.3817427385892 L1000,788.3817427385892" fill="none" stroke="#1e1e46" stroke-width="7.5" stroke-opacity="0.25" />
<path d="M0,580.9128630705394 L1000,580.9128630705394" fill="none" stroke="#1e1e46" stroke-width="7.5" stroke-opacity="0.25" />
<path d="M0,373.4439834024896 L1000,373.4439834024896" fill="none" stroke="#1e1e46" stroke-width="7.5" stroke-opacity="0.25" />
<path d="M0,165.9751037344398 L1000,165.9751037344398" fill="none" stroke="#1e1e46" stroke-width="7.5" stroke-opacity="0.25" />
<text x="500.0" y="-75" font-size="120" text-anchor="middle" fill="#000000" fill-opacity="0.75" font-family="Arial">TIP3P correction</text>
</g>
<g id="d1">
<circle cx="152.28215767634862" cy="831.49377593361" r="15" fill="#ff0000" opacity="1" stroke="none" />
<circle cx="152.28215767634862" cy="831.49377593361" r="11.25" fill="none" stroke="#992626" stroke-width="7.5" stroke-opacity="0.75" />
<circle cx="80.0829875518672" cy="883.7344398340248" r="15" fill="#ff0000" opacity="1" stroke="none" />
<circle cx="80.0829875518672" cy="883.7344398340248" r="11.25" fill="none" stroke="#992626" stroke-width="7.5" stroke-opacity="0.75" />
<circle cx="377.17842323651456" cy="565.3526970954357" r="15" fill="#ff0000" opacity="1" stroke="none" />
<circle cx="377.17842323651456" cy="565.3526970954357" r="11.25" fill="none" stroke="#992626" stroke-width="7.5" stroke-opacity="0.75" />
<circle cx="415.7676348547718" cy="604.1078838174274" r="15" fill="#ff0000" opacity="1" stroke="none" />
<circle cx="415.7676348547718" cy="604.1078838174274" r="11.25" fill="none" stroke="#992626" stroke-width="7.5" stroke-opacity="0.75" />
<circle cx="429.045643153527" cy="501.2863070539418" r="15" fill="#ff0000" opacity="1" stroke="none" />
<circle cx="429.045643153527" cy="501.2863070539418" r="11.25" fill="none" stroke="#992626" stroke-width="7.5" stroke-opacity="0.75" />
<circle cx="435.2697095435685" cy="656.6390041493776" r="15" fill="#ff0000" opacity="1" stroke="none" />
<circle cx="435.2697095435685" cy="656.6390041493776" r="11.25" fill="none" stroke="#992626" stroke-width="7.5" stroke-opacity="0.75" />
<circle cx="441.9087136929461" cy="599.0041493775933" r="15" fill="#ff0000" opacity="1" stroke="none" />
<circle cx="441.9087136929461" cy="599.0041493775933" r="11.25" fill="none" stroke="#992626" stroke-width="7.5" stroke-opacity="0.75" />
<circle cx="452.2821576763486" cy="561.6182572614107" r="15" fill="#ff0000" opacity="1" stroke="none" />
<circle cx="452.2821576763486" cy="561.6182572614107" r="11.25" fill="none" stroke="#992626" stroke-width="7.5" stroke-opacity="0.75" />
<circle cx="467.63485477178426" cy="582.98755186722" r="15" fill="#ff0000" opacity="1" stroke="none" />
<circle cx="467.63485477178426" cy="582.98755186722" r="11.25" fill="none" stroke="#992626" stroke-width="7.5" stroke-opacity="0.75" />
<circle cx="502.9045643153527" cy="632.6141078838174" r="15" fill="#ff0000" opacity="1" stroke="none" />
<circle cx="502.9045643153527" cy="632.6141078838174" r="11.25" fill="none" stroke="#992626" stroke-width="7.5" stroke-opacity="0.75" />
<circle cx="519.5020746887967" cy="492.6970954356845" r="15" fill="#ff0000" opacity="1" stroke="none" />
<circle cx="519.5020746887967" cy="492.6970954356845" r="11.25" fill="none" stroke="#992626" stroke-width="7.5" stroke-opacity="0.75" />
<circle cx="525.7261410788382" cy="470.9128630705394" r="15" fill="#ff0000" opacity="1" stroke="none" />
<circle cx="525.7261410788382" cy="470.9128630705394" r="11.25" fill="none" stroke="#992626" stroke-width="7.5" stroke-opacity="0.75" />
<circle cx="531.5352697095436" cy="379.2116182572613" r="15" fill="#ff0000" opacity="1" stroke="none" />
<circle cx="531.5352697095436" cy="379.2116182572613" r="11.25" fill="none" stroke="#992626" stroke-width="7.5" stroke-opacity="0.75" />
<circle cx="545.2282157676348" cy="472.7385892116183" r="15" fill="#ff0000" opacity="1" stroke="none" />
<circle cx="545.2282157676348" cy="472.7385892116183" r="11.25" fill="none" stroke="#992626" stroke-width="7.5" stroke-opacity="0.75" />
<circle cx="559.3360995850622" cy="360.4149377593361" r="15" fill="#ff0000" opacity="1" stroke="none" />
<circle cx="559.3360995850622" cy="360.4149377593361" r="11.25" fill="none" stroke="#992626" stroke-width="7.5" stroke-opacity="0.75" />
<circle cx="570.9543568464732" cy="510.04149377593353" r="15" fill="#ff0000" opacity="1" stroke="none" />
<circle cx="570.9543568464732" cy="510.04149377593353" r="11.25" fill="none" stroke="#992626" stroke-width="7.5" stroke-opacity="0.75" />
<circle cx="565.9751037344398" cy="543.070539419087" r="15" fill="#ff0000" opacity="1" stroke="none" />
<circle cx="565.9751037344398" cy="543.070539419087" r="11.25" fill="none" stroke="#992626" stroke-width="7.5" stroke-opacity="0.75" />
<circle cx="576.7634854771785" cy="299.62655601659753" r="15" fill="#ff0000" opacity="1" stroke="none" />
<circle cx="576.7634854771785" cy="299.62655601659753" r="11.25" fill="none" stroke="#992626" stroke-width="7.5" stroke-opacity="0.75" />
<circle cx="585.0622406639004" cy="444.6473029045643" r="15" fill="#ff0000" opacity="1" stroke="none" />
<circle cx="585.0622406639004" cy="444.6473029045643" r="11.25" fill="none" stroke="#992626" stroke-width="7.5" stroke-opacity="0.75" />
<circle cx="590.0414937759336" cy="504.60580912863065" r="15" fill="#ff0000" opacity="1" stroke="none" />
<circle cx="590.0414937759336" cy="504.60580912863065" r="11.25" fill="none" stroke="#992626" stroke-width="7.5" stroke-opacity="0.75" />
<circle cx="596.6804979253113" cy="372.98755186721985" r="15" fill="#ff0000" opacity="1" stroke="none" />
<circle cx="596.6804979253113" cy="372.98755186721985" r="11.25" fill="none" stroke="#992626" stroke-width="7.5" stroke-opacity="0.75" />
<circle cx="596.2655601659751" cy="391.5352697095435" r="15" fill="#ff0000" opacity="1" stroke="none" />
<circle cx="596.2655601659751" cy="391.5352697095435" r="11.25" fill="none" stroke="#992626" stroke-width="7.5" stroke-opacity="0.75" />
<circle cx="612.8630705394191" cy="434.10788381742736" r="15" fill="#ff0000" opacity="1" stroke="none" />
<circle cx="612.8630705394191" cy="434.10788381742736" r="11.25" fill="none" stroke="#992626" stroke-width="7.5" stroke-opacity="0.75" />
<circle cx="622.4066390041494" cy="310.8298755186721" r="15" fill="#ff0000" opacity="1" stroke="none" />
<circle cx="622.4066390041494" cy="310.8298755186721" r="11.25" fill="none" stroke="#992626" stroke-width="7.5" stroke-opacity="0.75" />
<circle cx="624.066390041494" cy="343.1120331950207" r="15" fill="#ff0000" opacity="1" stroke="none" />
<circle cx="624.066390041494" cy="343.1120331950207" r="11.25" fill="none" stroke="#992626" stroke-width="7.5" stroke-opacity="0.75" />
<circle cx="631.9502074688796" cy="424.0248962655602" r="15" fill="#ff0000" opacity="1" stroke="none" />
<circle cx="631.9502074688796" cy="424.0248962655602" r="11.25" fill="none" stroke="#992626" stroke-width="7.5" stroke-opacity="0.75" />
<circle cx="631.9502074688796" cy="532.116182572614" r="15" fill="#ff0000" opacity="1" stroke="none" />
<circle cx="631.9502074688796" cy="532.116182572614" r="11.25" fill="none" stroke="#992626" stroke-width="7.5" stroke-opacity="0.75" />
<circle cx="638.1742738589212" cy="300.0829875518672" r="15" fill="#ff0000" opacity="1" stroke="none" />
<circle cx="638.1742738589212" cy="300.0829875518672" r="11.25" fill="none" stroke="#992626" stroke-width="7.5" stroke-opacity="0.75" />
<circle cx="639.8340248962656" cy="531.4937759336099" r="15" fill="#ff0000" opacity="1" stroke="none" />
<circle cx="639.8340248962656" cy="531.4937759336099" r="11.25" fill="none" stroke="#992626" stroke-width="7.5" stroke-opacity="0.75" />
<circle cx="646.8879668049793" cy="324.68879668049783" r="15" fill="#ff0000" opacity="1" stroke="none" />
<circle cx="646.8879668049793" cy="324.68879668049783" r="11.25" fill="none" stroke="#992626" stroke-width="7.5" stroke-opacity="0.75" />
<circle cx="649.792531120332" cy="301.1203319502075" r="15" fill="#ff0000" opacity="1" stroke="none" />
<circle cx="649.792531120332" cy="301.1203319502075" r="11.25" fill="none" stroke="#992626" stroke-width="7.5" stroke-opacity="0.75" />
<circle cx="647.3029045643154" cy="295.850622406639" r="15" fill="#ff0000" opacity="1" stroke="none" />
<circle cx="647.3029045643154" cy="295.850622406639" r="11.25" fill="none" stroke="#992626" stroke-width="7.5" stroke-opacity="0.75" />
<circle cx="654.356846473029" cy="303.31950207468867" r="15" fill="#ff0000" opacity="1" stroke="none" />
<circle cx="654.356846473029" cy="303.31950207468867" r="11.25" fill="none" stroke="#992626" stroke-width="7.5" stroke-opacity="0.75" />
<circle cx="656.0165975103735" cy="371.1203319502074" r="15" fill="#ff0000" opacity="1" stroke="none" />
<circle cx="656.0165975103735" cy="371.1203319502074" r="11.25" fill="none" stroke="#992626" stroke-width="7.5" stroke-opacity="0.75" />
<circle cx="663.0705394190871" cy="309.54356846473036" r="15" fill="#ff0000" opacity="1" stroke="none" />
<circle cx="663.0705394190871" cy="309.54356846473036" r="11.25" fill="none" stroke="#992626" stroke-width="7.5" stroke-opacity="0.75" />
<circle cx="670.1244813278009" cy="280.99585062240646" r="15" fill="#ff0000" opacity="1" stroke="none" />
<circle cx="670.1244813278009" cy="280.99585062240646" r="11.25" fill="none" stroke="#992626" stroke-width="7.5" stroke-opacity="0.75" />
<circle cx="668.0497925311204" cy="324.31535269709536" r="15" fill="#ff0000" opacity="1" stroke="none" />
<circle cx="668.0497925311204" cy="324.31535269709536" r="11.25" fill="none" stroke="#992626" stroke-width="7.5" stroke-opacity="0.75" />
<circle cx="674.688796680498" cy="276.3485477178424" r="15" fill="#ff0000" opacity="1" stroke="none" />
<circle cx="674.688796680498" cy="276.3485477178424" r="11.25" fill="none" stroke="#992626" stroke-width="7.5" stroke-opacity="0.75" />
<circle cx="676.3485477178424" cy="311.45228215767634" r="15" fill="#ff0000" opacity="1" stroke="none" />
<circle cx="676.3485477178424" cy="311.45228215767634" r="11.25" fill="none" stroke="#992626" stroke-width="7.5" stroke-opacity="0.75" />
<circle cx="682.572614107884" cy="273.40248962655585" r="15" fill="#ff0000" opacity="1" stroke="none" />
<circle cx="682.572614107884" cy="273.40248962655585" r="11.25" fill="none" stroke="#992626" stroke-width="7.5" stroke-opacity="0.75" />
<circle cx="684.2323651452282" cy="204.2323651452283" r="15" fill="#ff0000" opacity="1" stroke="none" />
<circle cx="684.2323651452282" cy="204.2323651452283" r="11.25" fill="none" stroke="#992626" stroke-width="7.5" stroke-opacity="0.75" />
<circle cx="691.2863070539419" cy="300.0" r="15" fill="#ff0000" opacity="1" stroke="none" />
<circle cx="691.2863070539419" cy="300.0" r="11.25" fill="none" stroke="#992626" stroke-width="7.5" stroke-opacity="0.75" />
<circle cx="695.0207468879668" cy="343.1120331950207" r="15" fill="#ff0000" opacity="1" stroke="none" />
<circle cx="695.0207468879668" cy="343.1120331950207" r="11.25" fill="none" stroke="#992626" stroke-width="7.5" stroke-opacity="0.75" />
<circle cx="703.3195020746889" cy="340.16597510373447" r="15" fill="#ff0000" opacity="1" stroke="none" />
<circle cx="703.3195020746889" cy="340.16597510373447" r="11.25" fill="none" stroke="#992626" stroke-width="7.5" stroke-opacity="0.75" />
<circle cx="707.8838174273859" cy="210.9128630705394" r="15" fill="#ff0000" opacity="1" stroke="none" />
<circle cx="707.8838174273859" cy="210.9128630705394" r="11.25" fill="none" stroke="#992626" stroke-width="7.5" stroke-opacity="0.75" />
<circle cx="703.3195020746889" cy="369.2946058091286" r="15" fill="#ff0000" opacity="1" stroke="none" />
<circle cx="703.3195020746889" cy="369.2946058091286" r="11.25" fill="none" stroke="#992626" stroke-width="7.5" stroke-opacity="0.75" />
<circle cx="710.3734439834025" cy="134.4398340248962" r="15" fill="#ff0000" opacity="1" stroke="none" />
<circle cx="710.3734439834025" cy="134.4398340248962" r="11.25" fill="none" stroke="#992626" stroke-width="7.5" stroke-opacity="0.75" />
<circle cx="717.4273858921163" cy="284.6473029045643" r="15" fill="#ff0000" opacity="1" stroke="none" />
<circle cx="717.4273858921163" cy="284.6473029045643" r="11.25" fill="none" stroke="#992626" stroke-width="7.5" stroke-opacity="0.75" />
<circle cx="723.2365145228216" cy="278.1742738589211" r="15" fill="#ff0000" opacity="1" stroke="none" />
<circle cx="723.2365145228216" cy="278.1742738589211" r="11.25" fill="none" stroke="#992626" stroke-width="7.5" stroke-opacity="0.75" />
<circle cx="730.7053941908713" cy="302.863070539419" r="15" fill="#ff0000" opacity="1" stroke="none" />
<circle cx="730.7053941908713" cy="302.863070539419" r="11.25" fill="none" stroke="#992626" stroke-width="7.5" stroke-opacity="0.75" />
<circle cx="730.7053941908713" cy="272.3236514522821" r="15" fill="#ff0000" opacity="1" stroke="none" />
<circle cx="730.7053941908713" cy="272.3236514522821" r="11.25" fill="none" stroke="#992626" stroke-width="7.5" stroke-opacity="0.75" />
<circle cx="730.7053941908713" cy="306.2655601659751" r="15" fill="#ff0000" opacity="1" stroke="none" />
<circle cx="730.7053941908713" cy="306.2655601659751" r="11.25" fill="none" stroke="#992626" stroke-width="7.5" stroke-opacity="0.75" />
<circle cx="734.4398340248963" cy="299.2946058091287" r="15" fill="#ff0000" opacity="1" stroke="none" />
<circle cx="734.4398340248963" cy="299.2946058091287" r="11.25" fill="none" stroke="#992626" stroke-width="7.5" stroke-opacity="0.75" />
<circle cx="742.3236514522822" cy="293.2365145228215" r="15" fill="#ff0000" opacity="1" stroke="none" />
<circle cx="742.3236514522822" cy="293.2365145228215" r="11.25" fill="none" stroke="#992626" stroke-width="7.5" stroke-opacity="0.75" />
<circle cx="745.643153526971" cy="307.63485477178426" r="15" fill="#ff0000" opacity="1" stroke="none" />
<circle cx="745.643153526971" cy="307.63485477178426" r="11.25" fill="none" stroke="#992626" stroke-width="7.5" stroke-opacity="0.75" />
<circle cx="746.8879668049792" cy="195.43568464730288" r="15" fill="#ff0000" opacity="1" stroke="none" />
<circle cx="746.8879668049792" cy="195.43568464730288" r="11.25" fill="none" stroke="#992626" stroke-width="7.5" stroke-opacity="0.75" />
<circle cx="756.0165975103736" cy="242.1161825726141" r="15" fill="#ff0000" opacity="1" stroke="none" />
<circle cx="756.0165975103736" cy="242.1161825726141" r="11.25" fill="none" stroke="#992626" stroke-width="7.5" stroke-opacity="0.75" />
<circle cx="759.7510373443985" cy="181.03734439834022" r="15" fill="#ff0000" opacity="1" stroke="none" />
<circle cx="759.7510373443985" cy="181.03734439834022" r="11.25" fill="none" stroke="#992626" stroke-width="7.5" stroke-opacity="0.75" />
<circle cx="773.8589211618257" cy="181.7012448132781" r="15" fill="#ff0000" opacity="1" stroke="none" />
<circle cx="773.8589211618257" cy="181.7012448132781" r="11.25" fill="none" stroke="#992626" stroke-width="7.5" stroke-opacity="0.75" />
<circle cx="780.9128630705394" cy="139.41908713692942" r="15" fill="#ff0000" opacity="1" stroke="none" />
<circle cx="780.9128630705394" cy="139.41908713692942" r="11.25" fill="none" stroke="#992626" stroke-width="7.5" stroke-opacity="0.75" />
<circle cx="781.3278008298755" cy="176.9709543568465" r="15" fill="#ff0000" opacity="1" stroke="none" />
<circle cx="781.3278008298755" cy="176.9709543568465" r="11.25" fill="none" stroke="#992626" stroke-width="7.5" stroke-opacity="0.75" />
<circle cx="787.551867219917" cy="185.68464730290452" r="15" fill="#ff0000" opacity="1" stroke="none" />
<circle cx="787.551867219917" cy="185.68464730290452" r="11.25" fill="none" stroke="#992626" stroke-width="7.5" stroke-opacity="0.75" />
<circle cx="792.1161825726141" cy="173.85892116182572" r="15" fill="#ff0000" opacity="1" stroke="none" />
<circle cx="792.1161825726141" cy="173.85892116182572" r="11.25" fill="none" stroke="#992626" stroke-width="7.5" stroke-opacity="0.75" />
<circle cx="800.8298755186721" cy="167.6763485477178" r="15" fill="#ff0000" opacity="1" stroke="none" />
<circle cx="800.8298755186721" cy="167.6763485477178" r="11.25" fill="none" stroke="#992626" stroke-width="7.5" stroke-opacity="0.75" />
<circle cx="800.8298755186721" cy="193.27800829875514" r="15" fill="#ff0000" opacity="1" stroke="none" />
<circle cx="800.8298755186721" cy="193.27800829875514" r="11.25" fill="none" stroke="#992626" stroke-width="7.5" stroke-opacity="0.75" />
<circle cx="802.0746887966806" cy="173.07053941908714" r="15" fill="#ff0000" opacity="1" stroke="none" />
<circle cx="802.0746887966806" cy="173.07053941908714" r="11.25" fill="none" stroke="#992626" stroke-width="7.5" stroke-opacity="0.75" />
<circle cx="811.2033195020747" cy="134.27385892116183" r="15" fill="#ff0000" opacity="1" stroke="none" />
<circle cx="811.2033195020747" cy="134.27385892116183" r="11.25" fill="none" stroke="#992626" stroke-width="7.5" stroke-opacity="0.75" />
<circle cx="815.3526970954357" cy="175.10373443983394" r="15" fill="#ff0000" opacity="1" stroke="none" />
<circle cx="815.3526970954357" cy="175.10373443983394" r="11.25" fill="none" stroke="#992626" stroke-width="7.5" stroke-opacity="0.75" />
<circle cx="828.2157676348547" cy="170.58091286307058" r="15" fill="#ff0000" opacity="1" stroke="none" />
<circle cx="828.2157676348547" cy="170.58091286307058" r="11.25" fill="none" stroke="#992626" stroke-width="7.5" stroke-opacity="0.75" />
<circle cx="829.8755186721991" cy="120.99585062240669" r="15" fill="#ff0000" opacity="1" stroke="none" />
<circle cx="829.8755186721991" cy="120.99585062240669" r="11.25" fill="none" stroke="#992626" stroke-width="7.5" stroke-opacity="0.75" />
<circle cx="834.4398340248963" cy="146.47302904564322" r="15" fill="#ff0000" opacity="1" stroke="none" />
<circle cx="834.4398340248963" cy="146.47302904564322" r="11.25" fill="none" stroke="#992626" stroke-width="7.5" stroke-opacity="0.75" />
<circle cx="837.3443983402489" cy="116.80497925311204" r="15" fill="#ff0000" opacity="1" stroke="none" />
<circle cx="837.3443983402489" cy="116.80497925311204" r="11.25" fill="none" stroke="#992626" stroke-width="7.5" stroke-opacity="0.75" />
<circle cx="857.2614107883817" cy="114.93775933609948" r="15" fill="#ff0000" opacity="1" stroke="none" />
<circle cx="857.2614107883817" cy="114.93775933609948" r="11.25" fill="none" stroke="#992626" stroke-width="7.5" stroke-opacity="0.75" />
<circle cx="883.8174273858921" cy="97.59336099585062" r="15" fill="#ff0000" opacity="1" stroke="none" />
<circle cx="883.8174273858921" cy="97.59336099585062" r="11.25" fill="none" stroke="#992626" stroke-width="7.5" stroke-opacity="0.75" />
<circle cx="902.9045643153527" cy="51.41078838174269" r="15" fill="#ff0000" opacity="1" stroke="none" />
<circle cx="902.9045643153527" cy="51.41078838174269" r="11.25" fill="none" stroke="#992626" stroke-width="7.5" stroke-opacity="0.75" />
<circle cx="888.7966804979254" cy="69.37759336099589" r="15" fill="#ff0000" opacity="1" stroke="none" />
<circle cx="888.7966804979254" cy="69.37759336099589" r="11.25" fill="none" stroke="#992626" stroke-width="7.5" stroke-opacity="0.75" />
<circle cx="903.7344398340249" cy="50.62240663900411" r="15" fill="#ff0000" opacity="1" stroke="none" />
<circle cx="903.7344398340249" cy="50.62240663900411" r="11.25" fill="none" stroke="#992626" stroke-width="7.5" stroke-opacity="0.75" />
<circle cx="931.1203319502075" cy="63.56846473029043" r="15" fill="#ff0000" opacity="1" stroke="none" />
<circle cx="931.1203319502075" cy="63.56846473029043" r="11.25" fill="none" stroke="#992626" stroke-width="7.5" stroke-opacity="0.75" />
<circle cx="951.4522821576763" cy="51.618257261410804" r="15" fill="#ff0000" opacity="1" stroke="none" />
<circle cx="951.4522821576763" cy="51.618257261410804" r="11.25" fill="none" stroke="#992626" stroke-width="7.5" stroke-opacity="0.75" />
<circle cx="953.941908713693" cy="60.49792531120329" r="15" fill="#ff0000" opacity="1" stroke="none" />
<circle cx="953.941908713693" cy="60.49792531120329" r="11.25" fill="none" stroke="#992626" stroke-width="7.5" stroke-opacity="0.75" />
</g>
<g id="d2">
<circle cx="152.28215767634862" cy="835.17838235218" r="15" fill="#027f00" opacity="1" stroke="none" />
<circle cx="152.28215767634862" cy="835.17838235218" r="11.25" fill="none" stroke="#144c13" stroke-width="7.5" stroke-opacity="0.75" />
<circle cx="80.0829875518672" cy="923.7414261315372" r="15" fill="#027f00" opacity="1" stroke="none" />
<circle cx="80.0829875518672" cy="923.7414261315372" r="11.25" fill="none" stroke="#144c13" stroke-width="7.5" stroke-opacity="0.75" />
<circle cx="377.17842323651456" cy="606.4650131953701" r="15" fill="#027f00" opacity="1" stroke="none" />
<circle cx="377.17842323651456" cy="606.4650131953701" r="11.25" fill="none" stroke="#144c13" stroke-width="7.5" stroke-opacity="0.75" />
<circle cx="415.7676348547718" cy="602.0381338591396" r="15" fill="#027f00" opacity="1" stroke="none" />
<circle cx="415.7676348547718" cy="602.0381338591396" r="11.25" fill="none" stroke="#144c13" stroke-width="7.5" stroke-opacity="0.75" />
<circle cx="429.045643153527" cy="527.3744043373963" r="15" fill="#027f00" opacity="1" stroke="none" />
<circle cx="429.045643153527" cy="527.3744043373963" r="11.25" fill="none" stroke="#144c13" stroke-width="7.5" stroke-opacity="0.75" />
<circle cx="435.2697095435685" cy="641.3434061272014" r="15" fill="#027f00" opacity="1" stroke="none" />
<circle cx="435.2697095435685" cy="641.3434061272014" r="11.25" fill="none" stroke="#144c13" stroke-width="7.5" stroke-opacity="0.75" />
<circle cx="441.9087136929461" cy="557.2431269918734" r="15" fill="#027f00" opacity="1" stroke="none" />
<circle cx="441.9087136929461" cy="557.2431269918734" r="11.25" fill="none" stroke="#144c13" stroke-width="7.5" stroke-opacity="0.75" />
<circle cx="452.2821576763486" cy="562.8349768763014" r="15" fill="#027f00" opacity="1" stroke="none" />
<circle cx="452.2821576763486" cy="562.8349768763014" r="11.25" fill="none" stroke="#144c13" stroke-width="7.5" stroke-opacity="0.75" />
<circle cx="467.63485477178426" cy="570.1754852449251" r="15" fill="#027f00" opacity="1" stroke="none" />
<circle cx="467.63485477178426" cy="570.1754852449251" r="11.25" fill="none" stroke="#144c13" stroke-width="7.5" stroke-opacity="0.75" />
<circle cx="502.9045643153527" cy="593.8017569537974" r="15" fill="#027f00" opacity="1" stroke="none" />
<circle cx="502.9045643153527" cy="593.8017569537974" r="11.25" fill="none" stroke="#144c13" stroke-width="7.5" stroke-opacity="0.75" />
<circle cx="519.5020746887967" cy="514.4654981921816" r="15" fill="#027f00" opacity="1" stroke="none" />
<circle cx="519.5020746887967" cy="514.4654981921816" r="11.25" fill="none" stroke="#144c13" stroke-width="7.5" stroke-opacity="0.75" />
<circle cx="525.7261410788382" cy="458.02030544558" r="15" fill="#027f00" opacity="1" stroke="none" />
<circle cx="525.7261410788382" cy="458.02030544558" r="11.25" fill="none" stroke="#144c13" stroke-width="7.5" stroke-opacity="0.75" />
<circle cx="531.5352697095436" cy="430.62945872421574" r="15" fill="#027f00" opacity="1" stroke="none" />
<circle cx="531.5352697095436" cy="430.62945872421574" r="11.25" fill="none" stroke="#144c13" stroke-width="7.5" stroke-opacity="0.75" />
<circle cx="545.2282157676348" cy="504.6237823082698" r="15" fill="#027f00" opacity="1" stroke="none" />
<circle cx="545.2282157676348" cy="504.6237823082698" r="11.25" fill="none" stroke="#144c13" stroke-width="7.5" stroke-opacity="0.75" />
<circle cx="559.3360995850622" cy="431.6068738723692" r="15" fill="#027f00" opacity="1" stroke="none" />
<circle cx="559.3360995850622" cy="431.6068738723692" r="11.25" fill="none" stroke="#144c13" stroke-width="7.5" stroke-opacity="0.75" />
<circle cx="570.9543568464732" cy="486.1698459094986" r="15" fill="#027f00" opacity="1" stroke="none" />
<circle cx="570.9543568464732" cy="486.1698459094986" r="11.25" fill="none" stroke="#144c13" stroke-width="7.5" stroke-opacity="0.75" />
<circle cx="565.9751037344398" cy="473.20201933136616" r="15" fill="#027f00" opacity="1" stroke="none" />
<circle cx="565.9751037344398" cy="473.20201933136616" r="11.25" fill="none" stroke="#144c13" stroke-width="7.5" stroke-opacity="0.75" />
<circle cx="576.7634854771785" cy="342.6413682882222" r="15" fill="#027f00" opacity="1" stroke="none" />
<circle cx="576.7634854771785" cy="342.6413682882222" r="11.25" fill="none" stroke="#144c13" stroke-width="7.5" stroke-opacity="0.75" />
<circle cx="585.0622406639004" cy="441.11436341066087" r="15" fill="#027f00" opacity="1" stroke="none" />
<circle cx="585.0622406639004" cy="441.11436341066087" r="11.25" fill="none" stroke="#144c13" stroke-width="7.5" stroke-opacity="0.75" />
<circle cx="590.0414937759336" cy="515.8287664567781" r="15" fill="#027f00" opacity="1" stroke="none" />
<circle cx="590.0414937759336" cy="515.8287664567781" r="11.25" fill="none" stroke="#144c13" stroke-width="7.5" stroke-opacity="0.75" />
<circle cx="596.6804979253113" cy="394.0349832708905" r="15" fill="#027f00" opacity="1" stroke="none" />
<circle cx="596.6804979253113" cy="394.0349832708905" r="11.25" fill="none" stroke="#144c13" stroke-width="7.5" stroke-opacity="0.75" />
<circle cx="596.2655601659751" cy="436.5291045810177" r="15" fill="#027f00" opacity="1" stroke="none" />
<circle cx="596.2655601659751" cy="436.5291045810177" r="11.25" fill="none" stroke="#144c13" stroke-width="7.5" stroke-opacity="0.75" />
<circle cx="612.8630705394191" cy="430.44700950755123" r="15" fill="#027f00" opacity="1" stroke="none" />
<circle cx="612.8630705394191" cy="430.44700950755123" r="11.25" fill="none" stroke="#144c13" stroke-width="7.5" stroke-opacity="0.75" />
<circle cx="622.4066390041494" cy="369.15721996196567" r="15" fill="#027f00" opacity="1" stroke="none" />
<circle cx="622.4066390041494" cy="369.15721996196567" r="11.25" fill="none" stroke="#144c13" stroke-width="7.5" stroke-opacity="0.75" />
<circle cx="624.066390041494" cy="380.18185099130847" r="15" fill="#027f00" opacity="1" stroke="none" />
<circle cx="624.066390041494" cy="380.18185099130847" r="11.25" fill="none" stroke="#144c13" stroke-width="7.5" stroke-opacity="0.75" />
<circle cx="631.9502074688796" cy="388.82333783193246" r="15" fill="#027f00" opacity="1" stroke="none" />
<circle cx="631.9502074688796" cy="388.82333783193246" r="11.25" fill="none" stroke="#144c13" stroke-width="7.5" stroke-opacity="0.75" />
<circle cx="631.9502074688796" cy="446.07643760586177" r="15" fill="#027f00" opacity="1" stroke="none" />
<circle cx="631.9502074688796" cy="446.07643760586177" r="11.25" fill="none" stroke="#144c13" stroke-width="7.5" stroke-opacity="0.75" />
<circle cx="638.1742738589212" cy="364.46686629932447" r="15" fill="#027f00" opacity="1" stroke="none" />
<circle cx="638.1742738589212" cy="364.46686629932447" r="11.25" fill="none" stroke="#144c13" stroke-width="7.5" stroke-opacity="0.75" />
<circle cx="639.8340248962656" cy="517.3649128640835" r="15" fill="#027f00" opacity="1" stroke="none" />
<circle cx="639.8340248962656" cy="517.3649128640835" r="11.25" fill="none" stroke="#144c13" stroke-width="7.5" stroke-opacity="0.75" />
<circle cx="646.8879668049793" cy="334.7407886101497" r="15" fill="#027f00" opacity="1" stroke="none" />
<circle cx="646.8879668049793" cy="334.7407886101497" r="11.25" fill="none" stroke="#144c13" stroke-width="7.5" stroke-opacity="0.75" />
<circle cx="649.792531120332" cy="370.50308160267434" r="15" fill="#027f00" opacity="1" stroke="none" />
<circle cx="649.792531120332" cy="370.50308160267434" r="11.25" fill="none" stroke="#144c13" stroke-width="7.5" stroke-opacity="0.75" />
<circle cx="647.3029045643154" cy="341.98742209628404" r="15" fill="#027f00" opacity="1" stroke="none" />
<circle cx="647.3029045643154" cy="341.98742209628404" r="11.25" fill="none" stroke="#144c13" stroke-width="7.5" stroke-opacity="0.75" />
<circle cx="654.356846473029" cy="339.6840856283038" r="15" fill="#027f00" opacity="1" stroke="none" />
<circle cx="654.356846473029" cy="339.6840856283038" r="11.25" fill="none" stroke="#144c13" stroke-width="7.5" stroke-opacity="0.75" />
<circle cx="656.0165975103735" cy="368.78418199996236" r="15" fill="#027f00" opacity="1" stroke="none" />
<circle cx="656.0165975103735" cy="368.78418199996236" r="11.25" fill="none" stroke="#144c13" stroke-width="7.5" stroke-opacity="0.75" />
<circle cx="663.0705394190871" cy="340.99456027335646" r="15" fill="#027f00" opacity="1" stroke="none" />
<circle cx="663.0705394190871" cy="340.99456027335646" r="11.25" fill="none" stroke="#144c13" stroke-width="7.5" stroke-opacity="0.75" />
<circle cx="670.1244813278009" cy="342.0702173304261" r="15" fill="#027f00" opacity="1" stroke="none" />
<circle cx="670.1244813278009" cy="342.0702173304261" r="11.25" fill="none" stroke="#144c13" stroke-width="7.5" stroke-opacity="0.75" />
<circle cx="668.0497925311204" cy="349.3393215796758" r="15" fill="#027f00" opacity="1" stroke="none" />
<circle cx="668.0497925311204" cy="349.3393215796758" r="11.25" fill="none" stroke="#144c13" stroke-width="7.5" stroke-opacity="0.75" />
<circle cx="674.688796680498" cy="321.0908015239288" r="15" fill="#027f00" opacity="1" stroke="none" />
<circle cx="674.688796680498" cy="321.0908015239288" r="11.25" fill="none" stroke="#144c13" stroke-width="7.5" stroke-opacity="0.75" />
<circle cx="676.3485477178424" cy="338.3739763671432" r="15" fill="#027f00" opacity="1" stroke="none" />
<circle cx="676.3485477178424" cy="338.3739763671432" r="11.25" fill="none" stroke="#144c13" stroke-width="7.5" stroke-opacity="0.75" />
<circle cx="682.572614107884" cy="328.09463829420406" r="15" fill="#027f00" opacity="1" stroke="none" />
<circle cx="682.572614107884" cy="328.09463829420406" r="11.25" fill="none" stroke="#144c13" stroke-width="7.5" stroke-opacity="0.75" />
<circle cx="684.2323651452282" cy="274.4274741683264" r="15" fill="#027f00" opacity="1" stroke="none" />
<circle cx="684.2323651452282" cy="274.4274741683264" r="11.25" fill="none" stroke="#144c13" stroke-width="7.5" stroke-opacity="0.75" />
<circle cx="691.2863070539419" cy="338.054399965215" r="15" fill="#027f00" opacity="1" stroke="none" />
<circle cx="691.2863070539419" cy="338.054399965215" r="11.25" fill="none" stroke="#144c13" stroke-width="7.5" stroke-opacity="0.75" />
<circle cx="695.0207468879668" cy="332.4175167974099" r="15" fill="#027f00" opacity="1" stroke="none" />
<circle cx="695.0207468879668" cy="332.4175167974099" r="11.25" fill="none" stroke="#144c13" stroke-width="7.5" stroke-opacity="0.75" />
<circle cx="703.3195020746889" cy="298.7231475386877" r="15" fill="#027f00" opacity="1" stroke="none" />
<circle cx="703.3195020746889" cy="298.7231475386877" r="11.25" fill="none" stroke="#144c13" stroke-width="7.5" stroke-opacity="0.75" />
<circle cx="707.8838174273859" cy="297.79931056548935" r="15" fill="#027f00" opacity="1" stroke="none" />
<circle cx="707.8838174273859" cy="297.79931056548935" r="11.25" fill="none" stroke="#144c13" stroke-width="7.5" stroke-opacity="0.75" />
<circle cx="703.3195020746889" cy="374.87681698502354" r="15" fill="#027f00" opacity="1" stroke="none" />
<circle cx="703.3195020746889" cy="374.87681698502354" r="11.25" fill="none" stroke="#144c13" stroke-width="7.5" stroke-opacity="0.75" />
<circle cx="710.3734439834025" cy="254.16442427892412" r="15" fill="#027f00" opacity="1" stroke="none" />
<circle cx="710.3734439834025" cy="254.16442427892412" r="11.25" fill="none" stroke="#144c13" stroke-width="7.5" stroke-opacity="0.75" />
<circle cx="717.4273858921163" cy="294.62875731258464" r="15" fill="#027f00" opacity="1" stroke="none" />
<circle cx="717.4273858921163" cy="294.62875731258464" r="11.25" fill="none" stroke="#144c13" stroke-width="7.5" stroke-opacity="0.75" />
<circle cx="723.2365145228216" cy="287.50401207025607" r="15" fill="#027f00" opacity="1" stroke="none" />
<circle cx="723.2365145228216" cy="287.50401207025607" r="11.25" fill="none" stroke="#144c13" stroke-width="7.5" stroke-opacity="0.75" />
<circle cx="730.7053941908713" cy="287.75098062649795" r="15" fill="#027f00" opacity="1" stroke="none" />
<circle cx="730.7053941908713" cy="287.75098062649795" r="11.25" fill="none" stroke="#144c13" stroke-width="7.5" stroke-opacity="0.75" />
<circle cx="730.7053941908713" cy="290.4362404198072" r="15" fill="#027f00" opacity="1" stroke="none" />
<circle cx="730.7053941908713" cy="290.4362404198072" r="11.25" fill="none" stroke="#144c13" stroke-width="7.5" stroke-opacity="0.75" />
<circle cx="730.7053941908713" cy="290.49077542490977" r="15" fill="#027f00" opacity="1" stroke="none" />
<circle cx="730.7053941908713" cy="290.49077542490977" r="11.25" fill="none" stroke="#144c13" stroke-width="7.5" stroke-opacity="0.75" />
<circle cx="734.4398340248963" cy="302.9175121457746" r="15" fill="#027f00" opacity="1" stroke="none" />
<circle cx="734.4398340248963" cy="302.9175121457746" r="11.25" fill="none" stroke="#144c13" stroke-width="7.5" stroke-opacity="0.75" />
<circle cx="742.3236514522822" cy="284.2709124632397" r="15" fill="#027f00" opacity="1" stroke="none" />
<circle cx="742.3236514522822" cy="284.2709124632397" r="11.25" fill="none" stroke="#144c13" stroke-width="7.5" stroke-opacity="0.75" />
<circle cx="745.643153526971" cy="249.98425800276004" r="15" fill="#027f00" opacity="1" stroke="none" />
<circle cx="745.643153526971" cy="249.98425800276004" r="11.25" fill="none" stroke="#144c13" stroke-width="7.5" stroke-opacity="0.75" />
<circle cx="746.8879668049792" cy="239.8799449081738" r="15" fill="#027f00" opacity="1" stroke="none" />
<circle cx="746.8879668049792" cy="239.8799449081738" r="11.25" fill="none" stroke="#144c13" stroke-width="7.5" stroke-opacity="0.75" />
<circle cx="756.0165975103736" cy="249.77505172436668" r="15" fill="#027f00" opacity="1" stroke="none" />
<circle cx="756.0165975103736" cy="249.77505172436668" r="11.25" fill="none" stroke="#144c13" stroke-width="7.5" stroke-opacity="0.75" />
<circle cx="759.7510373443985" cy="229.93355224736" r="15" fill="#027f00" opacity="1" stroke="none" />
<circle cx="759.7510373443985" cy="229.93355224736" r="11.25" fill="none" stroke="#144c13" stroke-width="7.5" stroke-opacity="0.75" />
<circle cx="773.8589211618257" cy="223.67702199215717" r="15" fill="#027f00" opacity="1" stroke="none" />
<circle cx="773.8589211618257" cy="223.67702199215717" r="11.25" fill="none" stroke="#144c13" stroke-width="7.5" stroke-opacity="0.75" />
<circle cx="780.9128630705394" cy="176.96037025372516" r="15" fill="#027f00" opacity="1" stroke="none" />
<circle cx="780.9128630705394" cy="176.96037025372516" r="11.25" fill="none" stroke="#144c13" stroke-width="7.5" stroke-opacity="0.75" />
<circle cx="781.3278008298755" cy="225.79751133424122" r="15" fill="#027f00" opacity="1" stroke="none" />
<circle cx="781.3278008298755" cy="225.79751133424122" r="11.25" fill="none" stroke="#144c13" stroke-width="7.5" stroke-opacity="0.75" />
<circle cx="787.551867219917" cy="223.0398402669124" r="15" fill="#027f00" opacity="1" stroke="none" />
<circle cx="787.551867219917" cy="223.0398402669124" r="11.25" fill="none" stroke="#144c13" stroke-width="7.5" stroke-opacity="0.75" />
<circle cx="792.1161825726141" cy="225.90264997047018" r="15" fill="#027f00" opacity="1" stroke="none" />
<circle cx="792.1161825726141" cy="225.90264997047018" r="11.25" fill="none" stroke="#144c13" stroke-width="7.5" stroke-opacity="0.75" />
<circle cx="800.8298755186721" cy="202.829182039158" r="15" fill="#027f00" opacity="1" stroke="none" />
<circle cx="800.8298755186721" cy="202.829182039158" r="11.25" fill="none" stroke="#144c13" stroke-width="7.5" stroke-opacity="0.75" />
<circle cx="800.8298755186721" cy="208.44365088276845" r="15" fill="#027f00" opacity="1" stroke="none" />
<circle cx="800.8298755186721" cy="208.44365088276845" r="11.25" fill="none" stroke="#144c13" stroke-width="7.5" stroke-opacity="0.75" />
<circle cx="802.0746887966806" cy="230.4476621635722" r="15" fill="#027f00" opacity="1" stroke="none" />
<circle cx="802.0746887966806" cy="230.4476621635722" r="11.25" fill="none" stroke="#144c13" stroke-width="7.5" stroke-opacity="0.75" />
<circle cx="811.2033195020747" cy="170.7713583594042" r="15" fill="#027f00" opacity="1" stroke="none" />
<circle cx="811.2033195020747" cy="170.7713583594042" r="11.25" fill="none" stroke="#144c13" stroke-width="7.5" stroke-opacity="0.75" />
<circle cx="815.3526970954357" cy="183.63273247643622" r="15" fill="#027f00" opacity="1" stroke="none" />
<circle cx="815.3526970954357" cy="183.63273247643622" r="11.25" fill="none" stroke="#144c13" stroke-width="7.5" stroke-opacity="0.75" />
<circle cx="828.2157676348547" cy="180.74497636423075" r="15" fill="#027f00" opacity="1" stroke="none" />
<circle cx="828.2157676348547" cy="180.74497636423075" r="11.25" fill="none" stroke="#144c13" stroke-width="7.5" stroke-opacity="0.75" />
<circle cx="829.8755186721991" cy="169.2105523184622" r="15" fill="#027f00" opacity="1" stroke="none" />
<circle cx="829.8755186721991" cy="169.2105523184622" r="11.25" fill="none" stroke="#144c13" stroke-width="7.5" stroke-opacity="0.75" />
<circle cx="834.4398340248963" cy="163.0108558785371" r="15" fill="#027f00" opacity="1" stroke="none" />
<circle cx="834.4398340248963" cy="163.0108558785371" r="11.25" fill="none" stroke="#144c13" stroke-width="7.5" stroke-opacity="0.75" />
<circle cx="837.3443983402489" cy="172.43807503791277" r="15" fill="#027f00" opacity="1" stroke="none" />
<circle cx="837.3443983402489" cy="172.43807503791277" r="11.25" fill="none" stroke="#144c13" stroke-width="7.5" stroke-opacity="0.75" />
<circle cx="857.2614107883817" cy="157.06977982738704" r="15" fill="#027f00" opacity="1" stroke="none" />
<circle cx="857.2614107883817" cy="157.06977982738704" r="11.25" fill="none" stroke="#144c13" stroke-width="7.5" stroke-opacity="0.75" />
<circle cx="883.8174273858921" cy="128.53596228286938" r="15" fill="#027f00" opacity="1" stroke="none" />
<circle cx="883.8174273858921" cy="128.53596228286938" r="11.25" fill="none" stroke="#144c13" stroke-width="7.5" stroke-opacity="0.75" />
<circle cx="902.9045643153527" cy="105.56895857530014" r="15" fill="#027f00" opacity="1" stroke="none" />
<circle cx="902.9045643153527" cy="105.56895857530014" r="11.25" fill="none" stroke="#144c13" stroke-width="7.5" stroke-opacity="0.75" />
<circle cx="888.7966804979254" cy="132.9562455094208" r="15" fill="#027f00" opacity="1" stroke="none" />
<circle cx="888.7966804979254" cy="132.9562455094208" r="11.25" fill="none" stroke="#144c13" stroke-width="7.5" stroke-opacity="0.75" />
<circle cx="903.7344398340249" cy="97.2290640550035" r="15" fill="#027f00" opacity="1" stroke="none" />
<circle cx="903.7344398340249" cy="97.2290640550035" r="11.25" fill="none" stroke="#144c13" stroke-width="7.5" stroke-opacity="0.75" />
<circle cx="931.1203319502075" cy="88.70238068687479" r="15" fill="#027f00" opacity="1" stroke="none" />
<circle cx="931.1203319502075" cy="88.70238068687479" r="11.25" fill="none" stroke="#144c13" stroke-width="7.5" stroke-opacity="0.75" />
<circle cx="951.4522821576763" cy="74.58116183142442" r="15" fill="#027f00" opacity="1" stroke="none" />
<circle cx="951.4522821576763" cy="74.58116183142442" r="11.25" fill="none" stroke="#144c13" stroke-width="7.5" stroke-opacity="0.75" />
<circle cx="953.941908713693" cy="80.31782997099674" r="15" fill="#027f00" opacity="1" stroke="none" />
<circle cx="953.941908713693" cy="80.31782997099674" r="11.25" fill="none" stroke="#144c13" stroke-width="7.5" stroke-opacity="0.75" />
</g>
<g id="d3">
<path d="M150.0,1150.0 L1150.0,150.0" fill="none" opacity="0.5" stroke="#000000" stroke-width="16" />
<use xlink:href="#d0" x="150.0" y="150.0" />
<use xlink:href="#d1" x="150.0" y="150.0" />
<use xlink:href="#d2" x="150.0" y="150.0" />
<path d="M189.99999999999994,1137.4150864176286 L209.99999999999991,1116.2946130334255" stroke="#992626" fill="none" stroke-width="8" stroke-opacity="0.75" />
<path d="M229.9999999999999,1095.1741396492223 L249.99999999999986,1074.0536662650193" stroke="#992626" fill="none" stroke-width="8" stroke-opacity="0.75" />
<path d="M269.99999999999983,1052.933192880816 L289.9999999999998,1031.812719496613" stroke="#992626" fill="none" stroke-width="8" stroke-opacity="0.75" />
<path d="M309.9999999999998,1010.6922461124099 L329.9999999999998,989.5717727282067" stroke="#992626" fill="none" stroke-width="8" stroke-opacity="0.75" />
<path d="M349.9999999999997,968.4512993440035 L369.99999999999966,947.3308259598004" stroke="#992626" fill="none" stroke-width="8" stroke-opacity="0.75" />
<path d="M389.99999999999966,926.2103525755973 L409.9999999999996,905.0898791913942" stroke="#992626" fill="none" stroke-width="8" stroke-opacity="0.75" />
<path d="M429.9999999999996,883.9694058071912 L449.99999999999955,862.8489324229879" stroke="#992626" fill="none" stroke-width="8" stroke-opacity="0.75" />
<path d="M469.9999999999995,841.7284590387849 L489.99999999999955,820.6079856545817" stroke="#992626" fill="none" stroke-width="8" stroke-opacity="0.75" />
<path d="M509.9999999999995,799.4875122703786 L529.9999999999994,778.3670388861755" stroke="#992626" fill="none" stroke-width="8" stroke-opacity="0.75" />
<path d="M549.9999999999994,757.2465655019723 L569.9999999999993,736.1260921177693" stroke="#992626" fill="none" stroke-width="8" stroke-opacity="0.75" />
<path d="M589.9999999999993,715.005618733566 L609.9999999999993,693.885145349363" stroke="#992626" fill="none" stroke-width="8" stroke-opacity="0.75" />
<path d="M629.9999999999993,672.7646719651598 L649.9999999999993,651.6441985809568" stroke="#992626" fill="none" stroke-width="8" stroke-opacity="0.75" />
<path d="M669.9999999999992,630.5237251967536 L689.9999999999992,609.4032518125505" stroke="#992626" fill="none" stroke-width="8" stroke-opacity="0.75" />
<path d="M709.9999999999992,588.2827784283473 L729.9999999999992,567.1623050441442" stroke="#992626" fill="none" stroke-width="8" stroke-opacity="0.75" />
<path d="M749.9999999999991,546.0418316599411 L769.9999999999991,524.921358275738" stroke="#992626" fill="none" stroke-width="8" stroke-opacity="0.75" />
<path d="M789.999999999999,503.8008848915349 L809.999999999999,482.68041150733177" stroke="#992626" fill="none" stroke-width="8" stroke-opacity="0.75" />
<path d="M829.9999999999991,461.55993812312863 L849.999999999999,440.4394647389255" stroke="#992626" fill="none" stroke-width="8" stroke-opacity="0.75" />
<path d="M869.999999999999,419.31899135472236 L889.9999999999989,398.19851797051933" stroke="#992626" fill="none" stroke-width="8" stroke-opacity="0.75" />
<path d="M909.9999999999989,377.0780445863162 L929.9999999999987,355.95757120211294" stroke="#992626" fill="none" stroke-width="8" stroke-opacity="0.75" />
<path d="M949.9999999999989,334.8370978179098 L969.9999999999989,313.71662443370667" stroke="#992626" fill="none" stroke-width="8" stroke-opacity="0.75" />
<path d="M989.9999999999987,292.59615104950365 L1009.9999999999987,271.4756776653005" stroke="#992626" fill="none" stroke-width="8" stroke-opacity="0.75" />
<path d="M1029.9999999999986,250.35520428109749 L1049.9999999999986,229.23473089689435" stroke="#992626" fill="none" stroke-width="8" stroke-opacity="0.75" />
<path d="M1069.9999999999986,208.1142575126912 L1089.9999999999986,186.99378412848796" stroke="#992626" fill="none" stroke-width="8" stroke-opacity="0.75" />
<path d="M189.99999999999994,1127.1695356120363 L209.99999999999991,1107.0578917240377" stroke="#144c13" fill="none" stroke-width="8" stroke-opacity="0.75" />
<path d="M229.9999999999999,1086.9462478360388 L249.99999999999986,1066.8346039480398" stroke="#144c13" fill="none" stroke-width="8" stroke-opacity="0.75" />
<path d="M269.99999999999983,1046.722960060041 L289.9999999999998,1026.6113161720423" stroke="#144c13" fill="none" stroke-width="8" stroke-opacity="0.75" />
<path d="M309.9999999999998,1006.4996722840433 L329.9999999999998,986.3880283960445" stroke="#144c13" fill="none" stroke-width="8" stroke-opacity="0.75" />
<path d="M349.9999999999997,966.2763845080456 L369.99999999999966,946.1647406200468" stroke="#144c13" fill="none" stroke-width="8" stroke-opacity="0.75" />
<path d="M389.99999999999966,926.0530967320478 L409.9999999999996,905.9414528440491" stroke="#144c13" fill="none" stroke-width="8" stroke-opacity="0.75" />
<path d="M429.9999999999996,885.8298089560502 L449.99999999999955,865.7181650680513" stroke="#144c13" fill="none" stroke-width="8" stroke-opacity="0.75" />
<path d="M469.9999999999995,845.6065211800526 L489.99999999999955,825.4948772920537" stroke="#144c13" fill="none" stroke-width="8" stroke-opacity="0.75" />
<path d="M509.9999999999995,805.3832334040549 L529.9999999999994,785.271589516056" stroke="#144c13" fill="none" stroke-width="8" stroke-opacity="0.75" />
<path d="M549.9999999999994,765.1599456280571 L569.9999999999993,745.0483017400584" stroke="#144c13" fill="none" stroke-width="8" stroke-opacity="0.75" />
<path d="M589.9999999999993,724.9366578520595 L609.9999999999993,704.8250139640606" stroke="#144c13" fill="none" stroke-width="8" stroke-opacity="0.75" />
<path d="M629.9999999999993,684.7133700760619 L649.9999999999993,664.6017261880629" stroke="#144c13" fill="none" stroke-width="8" stroke-opacity="0.75" />
<path d="M669.9999999999992,644.4900823000642 L689.9999999999992,624.3784384120653" stroke="#144c13" fill="none" stroke-width="8" stroke-opacity="0.75" />
<path d="M709.9999999999992,604.2667945240665 L729.9999999999992,584.1551506360676" stroke="#144c13" fill="none" stroke-width="8" stroke-opacity="0.75" />
<path d="M749.9999999999991,564.0435067480688 L769.9999999999991,543.9318628600699" stroke="#144c13" fill="none" stroke-width="8" stroke-opacity="0.75" />
<path d="M789.999999999999,523.8202189720711 L809.999999999999,503.7085750840722" stroke="#144c13" fill="none" stroke-width="8" stroke-opacity="0.75" />
<path d="M829.9999999999991,483.59693119607334 L849.999999999999,463.4852873080746" stroke="#144c13" fill="none" stroke-width="8" stroke-opacity="0.75" />
<path d="M869.999999999999,443.3736434200756 L889.9999999999989,423.26199953207686" stroke="#144c13" fill="none" stroke-width="8" stroke-opacity="0.75" />
<path d="M909.9999999999989,403.1503556440781 L929.9999999999987,383.0387117560791" stroke="#144c13" fill="none" stroke-width="8" stroke-opacity="0.75" />
<path d="M949.9999999999989,362.92706786808037 L969.9999999999989,342.8154239800815" stroke="#144c13" fill="none" stroke-width="8" stroke-opacity="0.75" />
<path d="M989.9999999999987,322.7037800920825 L1009.9999999999987,302.5921362040838" stroke="#144c13" fill="none" stroke-width="8" stroke-opacity="0.75" />
<path d="M1029.9999999999986,282.4804923160849 L1049.9999999999986,262.36884842808604" stroke="#144c13" fill="none" stroke-width="8" stroke-opacity="0.75" />
<path d="M1069.9999999999986,242.2572045400873 L1089.9999999999986,222.14556065208842" stroke="#144c13" fill="none" stroke-width="8" stroke-opacity="0.75" />
<path d="M1109.9999999999986,202.03391676408967 L1129.9999999999986,181.9222728760907" stroke="#144c13" fill="none" stroke-width="8" stroke-opacity="0.75" />
</g>
</defs>
<rect x="-5" y="-5" width="1310" height="1310" fill="#ffffff" />
<use xlink:href="#d3" x="50" y="30" />
</svg>